<svg width="655" height="465" viewBox="0 0 655 465" fill="none" xmlns="http://www.w3.org/2000/svg">
<path d="M654.975 279.242L654.735 243.004L610.837 234.103L380.184 100.464C345.759 80.5168 285.564 82.9124 245.74 105.797L32.9865 228.088C31.2457 229.084 29.5933 230.118 27.9786 231.165L0 239.701V272.635H0.0252287C0.29013 285.004 7.90919 296.78 23.1978 305.644L274.804 451.425C309.228 471.372 369.424 468.977 409.247 446.092L622.001 323.813C644.139 311.091 655.303 294.712 654.962 279.242H654.975Z" fill="#CDCDCD"/>
<path d="M274.803 418.492L23.2103 272.71C-11.2143 252.764 -6.83711 218.039 32.999 195.142L245.753 72.8634C285.576 49.9661 345.772 47.5831 380.196 67.53L631.802 213.311C666.227 233.258 661.849 267.982 622.013 290.879L409.26 413.158C369.436 436.055 309.241 438.438 274.816 418.492H274.803Z" fill="#F7F7F7"/>
<path d="M238.454 193.435L349.276 129.027" stroke="url(#paint0_linear_313_183)" stroke-width="1.49" stroke-miterlimit="10"/>
<path d="M317.972 147.361C319.646 148.322 319.646 149.887 317.984 150.848C316.323 151.809 313.629 151.809 311.956 150.848C310.283 149.887 310.283 148.322 311.944 147.361C313.606 146.401 316.299 146.401 317.972 147.361Z" fill="white" stroke="url(#paint1_linear_313_183)" stroke-width="1.49" stroke-miterlimit="10"/>
<path d="M327.086 142.06C328.759 143.021 328.759 144.586 327.098 145.547C325.437 146.508 322.743 146.508 321.07 145.547C319.396 144.586 319.396 143.021 321.058 142.06C322.719 141.1 325.413 141.1 327.086 142.06Z" fill="white" stroke="url(#paint2_linear_313_183)" stroke-width="1.49" stroke-miterlimit="10"/>
<path d="M336.211 136.771C337.884 137.732 337.884 139.297 336.223 140.258C334.562 141.218 331.868 141.218 330.195 140.258C328.522 139.297 328.522 137.732 330.183 136.771C331.844 135.81 334.538 135.81 336.211 136.771Z" fill="white" stroke="url(#paint3_linear_313_183)" stroke-width="1.49" stroke-miterlimit="10"/>
<path d="M220.942 206.011L217.975 207.778C217.595 208.003 217.287 207.873 217.287 207.505C217.287 207.138 217.595 206.639 217.975 206.426L220.942 204.659C221.321 204.434 221.63 204.564 221.63 204.932C221.63 205.299 221.321 205.797 220.942 206.011Z" fill="#83869B"/>
<path d="M226.377 202.809L223.41 204.576C223.03 204.801 222.722 204.671 222.722 204.303C222.722 203.936 223.03 203.437 223.41 203.224L226.377 201.457C226.756 201.232 227.065 201.362 227.065 201.73C227.065 202.097 226.756 202.595 226.377 202.809Z" fill="#FFF5FD"/>
<path d="M220.942 210.909L217.975 212.676C217.595 212.901 217.287 212.771 217.287 212.403C217.287 212.036 217.595 211.537 217.975 211.324L220.942 209.557C221.321 209.332 221.63 209.462 221.63 209.83C221.63 210.197 221.321 210.695 220.942 210.909Z" fill="#83869B"/>
<path d="M226.377 207.695L223.41 209.462C223.03 209.687 222.722 209.557 222.722 209.189C222.722 208.822 223.03 208.324 223.41 208.11L226.377 206.343C226.756 206.118 227.065 206.248 227.065 206.616C227.065 206.983 226.756 207.482 226.377 207.695Z" fill="#FFF5FD"/>
<path d="M220.942 215.807L217.975 217.574C217.595 217.799 217.287 217.669 217.287 217.301C217.287 216.933 217.595 216.435 217.975 216.222L220.942 214.455C221.321 214.23 221.63 214.36 221.63 214.728C221.63 215.095 221.321 215.593 220.942 215.807Z" fill="#83869B"/>
<path d="M226.377 212.581L223.41 214.348C223.03 214.573 222.722 214.443 222.722 214.075C222.722 213.708 223.03 213.21 223.41 212.996L226.377 211.229C226.756 211.004 227.065 211.134 227.065 211.502C227.065 211.869 226.756 212.368 226.377 212.581Z" fill="#FFF5FD"/>
<path d="M220.942 165.215L217.975 166.982C217.595 167.207 217.287 167.077 217.287 166.709C217.287 166.341 217.595 165.843 217.975 165.63L220.942 163.863C221.321 163.638 221.63 163.768 221.63 164.136C221.63 164.503 221.321 165.001 220.942 165.215Z" fill="#83869B"/>
<path d="M226.377 161.989L223.41 163.756C223.03 163.981 222.722 163.851 222.722 163.483C222.722 163.116 223.03 162.618 223.41 162.404L226.377 160.637C226.756 160.412 227.065 160.542 227.065 160.91C227.065 161.278 226.756 161.776 226.377 161.989Z" fill="#FFF5FD"/>
<path d="M220.942 170.113L217.975 171.88C217.595 172.105 217.287 171.975 217.287 171.607C217.287 171.239 217.595 170.741 217.975 170.528L220.942 168.761C221.321 168.535 221.63 168.666 221.63 169.034C221.63 169.401 221.321 169.899 220.942 170.113Z" fill="#83869B"/>
<path d="M226.377 166.875L223.41 168.642C223.03 168.868 222.722 168.737 222.722 168.369C222.722 168.002 223.03 167.504 223.41 167.29L226.377 165.523C226.756 165.298 227.065 165.428 227.065 165.796C227.065 166.164 226.756 166.662 226.377 166.875Z" fill="#FFF5FD"/>
<path d="M220.942 174.999L217.975 176.766C217.595 176.991 217.287 176.861 217.287 176.493C217.287 176.125 217.595 175.627 217.975 175.414L220.942 173.647C221.321 173.422 221.63 173.552 221.63 173.92C221.63 174.287 221.321 174.785 220.942 174.999Z" fill="#83869B"/>
<path d="M226.377 171.785L223.41 173.552C223.03 173.777 222.722 173.647 222.722 173.279C222.722 172.912 223.03 172.413 223.41 172.2L226.377 170.433C226.756 170.208 227.065 170.338 227.065 170.706C227.065 171.073 226.756 171.571 226.377 171.785Z" fill="#FFF5FD"/>
<path d="M220.942 124.407L217.975 126.174C217.595 126.399 217.287 126.269 217.287 125.901C217.287 125.534 217.595 125.035 217.975 124.822L220.942 123.055C221.321 122.83 221.63 122.96 221.63 123.328C221.63 123.695 221.321 124.193 220.942 124.407Z" fill="#83869B"/>
<path d="M226.377 121.193L223.41 122.96C223.03 123.185 222.722 123.055 222.722 122.687C222.722 122.32 223.03 121.822 223.41 121.608L226.377 119.841C226.756 119.616 227.065 119.746 227.065 120.114C227.065 120.481 226.756 120.98 226.377 121.193Z" fill="#FFF5FD"/>
<path d="M220.942 129.293L217.975 131.06C217.595 131.285 217.287 131.155 217.287 130.787C217.287 130.42 217.595 129.921 217.975 129.708L220.942 127.941C221.321 127.716 221.63 127.846 221.63 128.214C221.63 128.581 221.321 129.079 220.942 129.293Z" fill="#83869B"/>
<path d="M226.377 126.079L223.41 127.846C223.03 128.071 222.722 127.941 222.722 127.573C222.722 127.206 223.03 126.708 223.41 126.494L226.377 124.727C226.756 124.502 227.065 124.632 227.065 125C227.065 125.367 226.756 125.866 226.377 126.079Z" fill="#FFF5FD"/>
<path d="M220.942 134.191L217.975 135.958C217.595 136.183 217.287 136.053 217.287 135.685C217.287 135.318 217.595 134.819 217.975 134.606L220.942 132.839C221.321 132.614 221.63 132.744 221.63 133.112C221.63 133.479 221.321 133.977 220.942 134.191Z" fill="#83869B"/>
<path d="M226.377 130.977L223.41 132.744C223.03 132.969 222.722 132.839 222.722 132.471C222.722 132.104 223.03 131.606 223.41 131.392L226.377 129.625C226.756 129.4 227.065 129.53 227.065 129.898C227.065 130.265 226.756 130.764 226.377 130.977Z" fill="#FFF5FD"/>
<path d="M286.799 72.5884L411.291 0.685256C412.502 -0.0144446 413.594 -0.0737348 414.377 0.37692L416.703 1.72888C415.919 1.26637 414.828 1.33752 413.617 2.03722L289.125 73.9403C286.728 75.3279 284.793 78.6722 284.805 81.4354L285.055 168.744C285.055 170.108 285.541 171.068 286.312 171.531L283.987 170.179C283.203 169.728 282.729 168.768 282.729 167.392L282.479 80.0835C282.479 77.3202 284.402 73.9878 286.799 72.6002V72.5884Z" fill="white"/>
<path d="M289.125 73.9522C286.728 75.3398 284.793 78.6841 284.805 81.4355L285.054 168.744C285.054 171.495 287.001 172.61 289.409 171.222L413.902 99.3193C416.299 97.9318 418.233 94.5756 418.221 91.8242L417.972 4.51583C417.972 1.7526 416.026 0.64969 413.629 2.03723L289.137 73.9404L289.125 73.9522Z" fill="url(#paint4_linear_313_183)"/>
<path d="M307.637 81.9453C306.023 82.8822 304.706 85.1592 304.706 87.033V103.577L310.568 100.185V83.6412C310.568 81.7674 309.25 81.0085 307.637 81.9453Z" fill="#FF5A72"/>
<path d="M304.706 116.029C304.706 117.903 306.023 118.662 307.637 117.725C309.25 116.788 310.568 114.511 310.568 112.637V100.197L304.706 103.589V116.029Z" fill="#CF2D52"/>
<path d="M318.305 78.186C316.679 79.1228 315.374 81.3998 315.374 83.2736V97.4218L321.236 92.9745V78.8264C321.236 78.0081 319.918 77.2491 318.305 78.186Z" fill="#1A1885"/>
<path d="M315.374 100.908C315.374 102.782 316.691 103.541 318.305 102.604C319.918 101.667 321.236 99.3904 321.236 97.5167V94.03L315.374 97.4218V100.908Z" fill="#1A1885"/>
<path d="M327.228 98.0503C327.228 99.9241 328.545 100.683 330.159 99.7462C331.773 98.8094 333.09 96.5324 333.09 94.6704V85.5032L327.228 88.8949V98.0622V98.0503Z" fill="#CF2D52"/>
<path d="M330.159 63.9785C328.534 64.9153 327.228 67.1923 327.228 69.0542V88.883L333.09 85.4913V65.6625C333.09 63.7887 331.773 63.0297 330.159 63.9666V63.9785Z" fill="#FF5A72"/>
<path d="M337.896 101.49C337.896 103.363 339.214 105.178 340.828 104.241C342.453 103.304 343.759 101.027 343.759 99.1533V79.3245L337.896 82.7162V101.49Z" fill="#1A1885"/>
<path d="M340.828 68.4731C339.214 69.41 337.896 71.687 337.896 73.5608V82.7281L343.759 79.3363V69.1135C343.759 67.2398 342.441 67.5362 340.828 68.4731Z" fill="#1A1885"/>
<path d="M348.564 91.4091C348.564 93.2829 349.882 94.0418 351.496 93.105C353.121 92.1681 354.427 89.8911 354.427 88.0173V73.1694L348.564 76.5612V91.4091Z" fill="#CF2D52"/>
<path d="M351.496 57.3373C349.87 58.2742 348.564 60.5512 348.564 62.4131V76.5613L354.427 73.1695V59.0214C354.427 57.1476 353.109 56.3886 351.496 57.3255V57.3373Z" fill="#FF5A72"/>
<path d="M359.244 81.2101C359.244 83.0839 360.562 83.8429 362.175 82.906C363.801 81.9691 365.106 78.6367 365.106 76.7629V67.0145L359.244 70.4063V81.2101Z" fill="#1A1885"/>
<path d="M362.175 47.1264C360.562 48.0633 359.244 50.3403 359.244 51.1586V69.3508L365.106 67.0145V48.8223C365.106 46.9485 363.789 46.1895 362.175 47.1264Z" fill="#1A1885"/>
<path d="M369.913 68.8527C369.913 70.7264 371.23 71.4854 372.844 70.5485C374.458 69.6117 375.775 67.3347 375.775 65.4728V60.8595L369.913 64.2512V68.8645V68.8527Z" fill="#CF2D52"/>
<path d="M372.844 36.6782C371.23 37.6151 369.913 39.8921 369.913 41.7659V64.2394L375.775 60.8476V38.3742C375.775 36.5004 374.458 35.7414 372.844 36.6782Z" fill="#FF5A72"/>
<path d="M383.512 34.8045C381.886 35.7414 380.581 38.0184 380.581 39.8803V58.0725L386.443 53.6253V35.4331C386.443 34.6148 385.125 33.8558 383.512 34.7926V34.8045Z" fill="#1A1885"/>
<path d="M380.581 68.8764C380.581 70.7502 381.898 71.5092 383.512 70.5723C385.125 69.6354 386.443 66.3029 386.443 64.4292V54.6808L380.581 58.0725V68.8764Z" fill="#1A1885"/>
<path d="M397.111 39.3585C397.111 37.4847 395.793 36.7257 394.18 37.6626C392.566 38.5995 391.249 40.8765 391.249 42.7384V51.9057L397.111 48.5139V39.3466V39.3585Z" fill="#FF5A72"/>
<path d="M391.249 51.9175V61.0848C391.249 62.9586 392.566 63.7176 394.18 62.7807C395.793 61.8438 397.111 59.5668 397.111 57.7049V48.5376L391.249 51.9294V51.9175Z" fill="#CF2D52"/>
<path d="M402.13 47.1383L300.873 105.629V103.28L402.13 44.7902V47.1383Z" fill="url(#paint5_linear_313_183)"/>
<path d="M300.873 140.886L308.835 131.304L333.102 119.777L342.287 108L372.855 101.513L394.191 78.0319" stroke="#1A1885" stroke-width="0.98" stroke-miterlimit="10"/>
<path d="M340.827 108.83C340.827 107.953 341.444 106.874 342.204 106.435C342.963 105.996 343.58 106.352 343.58 107.229C343.58 108.107 342.963 109.174 342.204 109.613C341.444 110.052 340.827 109.696 340.827 108.819V108.83Z" fill="#1A1885"/>
<path d="M300.873 149.852L316.56 124.449L322.422 123.844L330.159 127.746L337.896 116.1L353.038 111.546L369.912 93.6268L381.957 98.6195L386.443 89.2625L402.13 73.4185" stroke="#FF5A72" stroke-width="0.98" stroke-miterlimit="10"/>
<path d="M368.524 94.4214C368.524 93.5438 369.141 92.4765 369.9 92.0258C370.66 91.587 371.277 91.9428 371.277 92.8204C371.277 93.698 370.66 94.7653 369.9 95.216C369.141 95.6548 368.524 95.299 368.524 94.4214Z" fill="#1A1885"/>
<path d="M410.247 163.466C410.247 162.589 410.864 161.51 411.624 161.071C412.383 160.632 413 160.988 413 161.865C413 162.743 412.383 163.81 411.624 164.261C410.864 164.7 410.247 164.344 410.247 163.466Z" fill="#1A1885"/>
<path d="M328.783 128.541C328.783 127.663 329.4 126.596 330.171 126.157C330.931 125.718 331.548 126.074 331.548 126.952C331.548 127.829 330.931 128.896 330.171 129.347C329.412 129.786 328.783 129.43 328.783 128.552V128.541Z" fill="#1A1885"/>
<path d="M423.739 73.2644V77.8184" stroke="#FAB08B" stroke-width="4.17" stroke-linecap="round" stroke-linejoin="round"/>
<path d="M427.881 79.5616C427.881 79.5616 435.084 84.9695 436.069 90.7924C436.947 95.9394 434.526 99.1058 429.008 105.024" stroke="white" stroke-width="4.17" stroke-linecap="round" stroke-linejoin="round"/>
<path d="M422.493 109.245C422.968 109.957 423.905 110.206 424.677 109.838L427.727 108.392C428.996 107.787 429.435 106.198 428.64 105.035C427.845 103.873 426.196 103.695 425.175 104.668L422.719 106.992C422.102 107.585 421.995 108.534 422.481 109.245H422.493Z" fill="#FAB08B"/>
<path d="M421.841 165.957C421.841 165.957 420.239 167.546 419.171 167.273C417.593 166.882 411.588 165.174 409.63 162.767C407.66 160.347 409.867 159.648 411.647 160.086C416.655 161.32 418.376 162.008 420.12 162.482C421.758 162.933 422.493 164.949 421.829 165.945L421.841 165.957Z" fill="#070D30"/>
<path d="M430.385 161.213C430.385 161.213 428.771 162.802 427.715 162.53C426.136 162.138 420.144 160.43 418.174 158.023C416.204 155.604 418.411 154.904 420.191 155.343C425.199 156.576 426.92 157.264 428.664 157.75C430.302 158.201 431.037 160.217 430.373 161.213H430.385Z" fill="#070D30"/>
<path d="M419.396 163.146L418.031 154.643" stroke="#D6E9F4" stroke-width="2.92" stroke-linecap="round" stroke-linejoin="round"/>
<path d="M427.632 158.082L425.603 149.721" stroke="#D6E9F4" stroke-width="2.92" stroke-linecap="round" stroke-linejoin="round"/>
<path d="M430.029 107.55C426.67 107.514 419.444 109.008 415.623 109.542C414.234 112.187 413.712 115.009 414.341 117.772C413.131 124.307 413.214 128.446 413.166 135.621C413.119 142.784 414.246 152.331 415.718 159.814C415.99 161.213 416.714 161.545 417.877 161.593C418.34 161.605 419.052 161.498 419.467 161.379C420.512 161.095 421.33 160.49 421.058 159.161C419.562 151.951 418.221 142.523 418.482 135.68C418.732 128.837 419.052 125.374 420.488 119.302C421.39 119.077 422.292 118.792 423.229 118.377C422.434 123.548 422.624 125.813 422.422 131.707C422.22 137.601 422.209 149.01 423.763 155.461C424.119 156.956 424.938 157.537 426.279 157.655C426.492 157.667 426.813 157.655 427.003 157.608C428.901 156.968 429.186 155.426 428.901 153.932C427.691 147.35 427.347 138.301 427.667 131.944C427.988 125.588 433.138 107.609 430.029 107.573V107.55Z" fill="#1A1885"/>
<path d="M432.449 108.119C432.473 109.518 431.797 110.835 430.622 111.629C427.893 113.468 423.324 115.875 420.82 116.231C414.745 117.096 414.246 113.112 414.246 113.112C414.246 113.112 414.424 89.2982 415.279 84.3647C415.741 81.732 417.782 80.4037 419.93 78.9925C420.203 78.8146 420.452 78.6485 420.702 78.4944C422.315 77.4863 424.178 76.8815 426.077 76.9052C426.587 76.9052 427.05 76.9526 427.477 77.0475C429.625 77.4507 430.563 78.7434 431.275 79.7752C431.726 80.4275 431.975 81.1983 431.987 81.9929L432.438 108.131L432.449 108.119Z" fill="#FF5A72"/>
<path d="M415.777 66.2436C414.4 70.1809 415.611 74.7112 418.672 75.7785C419.123 75.9327 419.586 76.0157 420.049 76.0157C422.221 76.0157 424.511 74.4266 425.947 72.0784C426.314 71.4736 426.635 70.8095 426.872 70.1216C426.908 70.0267 426.943 69.9319 426.967 69.837C427.026 69.6235 427.098 69.4219 427.145 69.2203C427.75 66.7417 427.204 64.4766 425.875 62.9823C425.448 62.4961 424.938 62.1047 424.368 61.7964C424.143 61.6778 423.917 61.5829 423.668 61.4999C421.307 60.6698 418.708 61.6066 417.011 63.8955C416.513 64.5715 416.097 65.3542 415.777 66.2555V66.2436Z" fill="#FAB08B"/>
<path d="M427.489 63.599C425.033 56.6968 418.542 59.6854 416.904 63.006C416.596 63.6464 416.88 64.1445 417.521 64.4884C417.675 65.1644 417.984 65.9471 418.542 66.2554C419.61 66.8365 417.201 68.3308 417.877 68.9831C418.542 69.6472 419.349 68.2478 420.191 68.9831C421.307 69.9674 418.72 71.4973 420.025 72.1733C421.33 72.8492 422.339 75.8615 425.389 75.2092C428.438 74.557 429.305 70.6434 429.59 68.2122C429.874 65.7811 428.403 64.1326 427.489 63.599Z" fill="#070D30"/>
<path d="M417.866 69.7659C417.486 70.7147 417.735 71.8295 418.471 72.1259C419.206 72.4224 420.156 71.782 420.536 70.8333C420.915 69.8845 420.583 68.9832 419.847 68.6986C419.112 68.4021 418.245 68.8172 417.866 69.7659Z" fill="#FAB08B"/>
<path d="M410.235 114.653C409.547 114.143 409.333 113.207 409.737 112.448L411.303 109.459C411.956 108.214 413.57 107.846 414.697 108.688C415.824 109.53 415.931 111.179 414.923 112.163L412.502 114.523C411.885 115.128 410.923 115.187 410.247 114.665L410.235 114.653Z" fill="#FAB08B"/>
<path d="M418.471 83.2499C418.471 83.2499 410.306 87.0567 408.135 92.5476C406.224 97.3981 407.921 100.991 412.11 107.929" stroke="white" stroke-width="4.17" stroke-linecap="round" stroke-linejoin="round"/>
<path d="M295.084 209.676L221.594 178.64L189.709 160.222C187.893 159.179 184.737 159.309 182.648 160.519L91.9042 213.103L72.0039 213.554V220.954H72.0276C72.0276 221.63 72.3955 222.27 73.2262 222.745L177.391 282.729C179.207 283.773 182.363 283.642 184.452 282.433L293.363 219.329C294.431 218.712 295.013 217.93 295.084 217.171V209.652V209.676Z" fill="url(#paint6_linear_313_183)"/>
<path d="M177.391 275.305L73.2263 215.309C71.4107 214.265 71.6362 212.439 73.7366 211.229L182.648 148.126C184.737 146.916 187.893 146.785 189.709 147.829L293.874 207.814C295.689 208.857 295.464 210.684 293.363 211.893L184.452 274.997C182.363 276.206 179.195 276.337 177.391 275.293V275.305Z" fill="#A4D4ED"/>
<path d="M293.363 210.814L184.452 273.918C182.363 275.127 179.207 275.258 177.391 274.214L73.2261 214.218C72.6328 213.874 72.2768 213.447 72.1107 212.984C71.8259 213.838 72.17 214.716 73.2261 215.309L177.391 275.293C179.207 276.337 182.363 276.206 184.452 274.997L293.363 211.893C294.764 211.087 295.309 209.996 294.977 209.047C294.764 209.676 294.241 210.292 293.363 210.802V210.814Z" fill="white"/>
<path d="M251.973 172.141V172.876C251.878 174.702 250.928 176.493 249.16 177.56L227.967 190.274L196.081 209.355C192.675 211.395 188.783 212.344 184.95 212.119C181.984 212 179.029 211.146 176.288 209.64L139.786 189.123L121.998 179.138C119.257 177.608 117.892 174.833 117.892 172.093V171.868C117.963 169.271 119.257 166.721 121.808 165.191L174.555 133.562C178.827 131.013 184.155 130.93 188.498 133.361L249.018 167.361C250.798 168.369 251.783 170.077 251.961 171.856C251.985 171.951 251.985 172.022 251.985 172.129H251.973V172.141Z" fill="#C2C4C6"/>
<path d="M251.973 210.529V211.265C251.878 213.091 250.928 214.882 249.16 215.949L227.967 228.662L196.081 247.744C192.675 249.784 188.783 250.732 184.95 250.519C181.984 250.4 179.029 249.535 176.288 248.04L139.786 227.524L121.998 217.538C119.257 216.008 117.892 213.233 117.892 210.494V210.268C117.963 207.659 119.257 205.122 121.808 203.592L174.555 171.963C178.827 169.413 184.155 169.33 188.498 171.761L249.018 205.762C250.798 206.77 251.783 208.478 251.961 210.257C251.985 210.351 251.985 210.423 251.985 210.529H251.973Z" fill="#C2C4C6"/>
<path d="M251.973 172.876V207.588C251.878 209.438 250.929 211.205 249.16 212.273L196.069 244.091C192.664 246.131 188.771 247.056 184.938 246.831V212.119C188.783 212.344 192.664 211.383 196.069 209.343L227.955 190.262L249.149 177.549C250.929 176.481 251.878 174.69 251.961 172.864L251.973 172.876Z" fill="url(#paint7_linear_313_183)"/>
<path d="M184.926 212.13V246.843C181.96 246.724 179.005 245.906 176.264 244.364L121.962 213.862C119.221 212.332 117.856 209.581 117.856 206.841V172.117C117.856 174.856 119.221 177.632 121.962 179.161L139.75 189.147L176.252 209.664C178.981 211.17 181.948 212.024 184.915 212.142H184.926V212.13Z" fill="url(#paint8_linear_313_183)"/>
<path d="M234.09 195.859V212.13C234.09 213.957 233.117 215.653 231.574 216.578L208.932 230.133C207.52 230.975 205.812 230.429 205.064 229.16C205.657 229.243 206.31 229.137 206.891 228.781L229.533 215.238C231.099 214.301 232.06 212.605 232.06 210.778V194.507C232.06 194.164 231.989 193.855 231.859 193.571C233.022 193.606 234.09 194.543 234.09 195.848V195.859Z" fill="#83869B"/>
<path d="M232.061 194.496V210.767C232.061 212.593 231.088 214.289 229.533 215.226L206.892 228.769C206.298 229.125 205.657 229.232 205.064 229.149C204.815 228.722 204.661 228.247 204.661 227.702V213.138C204.661 210.85 205.871 208.703 207.853 207.517L230.648 193.867C231.04 193.63 231.479 193.523 231.871 193.535C232.001 193.82 232.072 194.14 232.072 194.472L232.061 194.496Z" fill="url(#paint9_linear_313_183)"/>
<path d="M215.53 209.237L212.564 211.004C212.184 211.229 211.875 211.099 211.875 210.731C211.875 210.363 212.184 209.865 212.564 209.652L215.53 207.885C215.898 207.659 216.219 207.79 216.219 208.157C216.219 208.525 215.91 209.023 215.53 209.237Z" fill="url(#paint10_linear_313_183)"/>
<path d="M215.53 214.135L212.564 215.902C212.184 216.127 211.875 215.997 211.875 215.629C211.875 215.261 212.184 214.763 212.564 214.55L215.53 212.783C215.898 212.557 216.219 212.688 216.219 213.055C216.219 213.423 215.91 213.921 215.53 214.135Z" fill="url(#paint11_linear_313_183)"/>
<path d="M215.53 219.021L212.564 220.788C212.184 221.013 211.875 220.883 211.875 220.515C211.875 220.147 212.184 219.649 212.564 219.436L215.53 217.669C215.898 217.443 216.219 217.574 216.219 217.942C216.219 218.309 215.91 218.807 215.53 219.021Z" fill="url(#paint12_linear_313_183)"/>
<path d="M251.973 131.345V132.08C251.878 133.906 250.928 135.697 249.16 136.764L227.967 149.477L196.081 168.559C192.675 170.599 188.783 171.548 184.95 171.334C181.984 171.216 179.029 170.35 176.288 168.856L139.786 148.339L121.998 138.353C119.257 136.824 117.892 134.06 117.892 131.309V131.084C117.963 128.486 119.257 125.937 121.808 124.407L174.555 92.778C178.827 90.2283 184.155 90.1453 188.498 92.5764L249.018 126.577C250.798 127.585 251.783 129.293 251.961 131.072C251.985 131.167 251.985 131.238 251.985 131.345H251.973Z" fill="#C2C4C6"/>
<path d="M251.973 132.08V166.792C251.878 168.642 250.929 170.409 249.16 171.477L196.069 203.283C192.664 205.323 188.771 206.248 184.938 206.023V171.311C188.783 171.536 192.664 170.575 196.069 168.535L227.955 149.454L249.149 136.741C250.929 135.673 251.878 133.882 251.961 132.056L251.973 132.08Z" fill="url(#paint13_linear_313_183)"/>
<path d="M184.926 171.322V206.035C181.96 205.916 179.005 205.098 176.264 203.556L121.962 173.054C119.221 171.524 117.856 168.773 117.856 166.033V131.297C117.856 134.037 119.221 136.812 121.962 138.342L139.75 148.327L176.252 168.844C178.981 170.35 181.948 171.204 184.915 171.322H184.926Z" fill="url(#paint14_linear_313_183)"/>
<path d="M234.09 155.051V171.322C234.09 173.149 233.117 174.845 231.574 175.77L208.932 189.325C207.52 190.167 205.812 189.621 205.064 188.364C205.657 188.447 206.31 188.341 206.891 187.985L229.533 174.441C231.099 173.505 232.06 171.809 232.06 169.982V153.711C232.06 153.367 231.989 153.059 231.859 152.774C233.022 152.81 234.09 153.747 234.09 155.063V155.051Z" fill="#83869B"/>
<path d="M232.061 153.688V169.959C232.061 171.785 231.088 173.481 229.533 174.418L206.892 187.961C206.298 188.329 205.657 188.424 205.064 188.341C204.815 187.914 204.661 187.439 204.661 186.894V172.33C204.661 170.042 205.871 167.895 207.853 166.709L230.648 153.059C231.04 152.822 231.479 152.715 231.871 152.727C232.001 153.012 232.072 153.332 232.072 153.664L232.061 153.688Z" fill="url(#paint15_linear_313_183)"/>
<path d="M215.53 168.441L212.564 170.208C212.184 170.433 211.875 170.303 211.875 169.935C211.875 169.567 212.184 169.069 212.564 168.856L215.53 167.089C215.898 166.863 216.219 166.994 216.219 167.361C216.219 167.729 215.91 168.227 215.53 168.441Z" fill="url(#paint16_linear_313_183)"/>
<path d="M215.53 173.315L212.564 175.082C212.184 175.307 211.875 175.177 211.875 174.809C211.875 174.441 212.184 173.943 212.564 173.73L215.53 171.963C215.898 171.737 216.219 171.868 216.219 172.236C216.219 172.603 215.91 173.101 215.53 173.315Z" fill="url(#paint17_linear_313_183)"/>
<path d="M215.53 178.225L212.564 179.992C212.184 180.217 211.875 180.086 211.875 179.719C211.875 179.351 212.184 178.853 212.564 178.64L215.53 176.873C215.898 176.647 216.219 176.778 216.219 177.145C216.219 177.513 215.91 178.011 215.53 178.225Z" fill="url(#paint18_linear_313_183)"/>
<path d="M251.973 90.5367V91.272C251.878 93.0983 250.928 94.8891 249.16 95.9564L227.967 108.67L196.081 127.751C192.675 129.791 188.783 130.74 184.95 130.526C181.984 130.408 179.029 129.542 176.288 128.048L139.786 107.531L121.998 97.5456C119.257 96.0157 117.892 93.2525 117.892 90.5011V90.2758C117.963 87.6786 119.257 85.1288 121.808 83.599L174.555 51.9702C178.827 49.4204 184.155 49.3374 188.498 51.7686L249.018 85.7693C250.798 86.7773 251.783 88.4851 251.961 90.264C251.985 90.3588 251.985 90.43 251.985 90.5367H251.973Z" fill="url(#paint19_linear_313_183)"/>
<path d="M238.504 91.023L229.996 96.1225L183.74 70.1268C183.111 69.7711 182.399 69.5813 181.663 69.5813C180.927 69.5813 180.144 69.7829 179.503 70.1624L137.697 95.2331L129.189 90.4656L179.503 60.3073C180.132 59.9278 180.892 59.7144 181.663 59.7144C182.434 59.7144 183.099 59.9041 183.74 60.2599L238.504 91.023Z" fill="#83869B"/>
<path d="M230.008 96.1225L222.959 100.344L191.073 119.426C189.519 120.351 187.763 120.849 186.006 120.849H185.306C183.87 120.778 182.375 120.339 180.975 119.58L144.509 99.0873L137.686 95.2567L179.492 70.1861C180.12 69.8066 180.88 69.605 181.651 69.605C182.423 69.605 183.087 69.7947 183.728 70.1505L229.984 96.1462V96.1106L230.008 96.1225Z" fill="url(#paint20_linear_313_183)"/>
<path d="M251.973 91.2601V125.972C251.878 127.822 250.929 129.589 249.16 130.657L196.069 162.463C192.664 164.503 188.771 165.428 184.938 165.203V130.491C188.783 130.716 192.664 129.755 196.069 127.716L227.955 108.634L249.149 95.9208C250.929 94.8534 251.878 93.0627 251.961 91.2363L251.973 91.2601Z" fill="url(#paint21_linear_313_183)"/>
<path d="M184.926 130.514V165.227C181.96 165.108 179.005 164.29 176.264 162.748L121.962 132.246C119.221 130.716 117.856 127.965 117.856 125.225V90.4893C117.856 93.2288 119.221 96.0038 121.962 97.5337L139.75 107.519L176.252 128.036C178.981 129.542 181.948 130.396 184.915 130.514H184.926Z" fill="url(#paint22_linear_313_183)"/>
<path d="M234.09 114.243V130.514C234.09 132.341 233.117 134.037 231.574 134.962L208.932 148.517C207.52 149.359 205.812 148.813 205.064 147.544C205.657 147.627 206.31 147.521 206.891 147.165L229.533 133.622C231.099 132.685 232.06 130.989 232.06 129.162V112.891C232.06 112.548 231.989 112.239 231.859 111.955C233.022 111.99 234.09 112.939 234.09 114.243Z" fill="#83869B"/>
<path d="M232.061 112.892V129.174C232.061 131.001 231.088 132.697 229.533 133.633L206.892 147.177C206.298 147.544 205.657 147.639 205.064 147.556C204.815 147.129 204.661 146.655 204.661 146.11V131.558C204.661 129.269 205.871 127.123 207.853 125.937L230.648 112.287C231.04 112.049 231.479 111.943 231.871 111.955C232.001 112.239 232.072 112.559 232.072 112.892H232.061Z" fill="url(#paint23_linear_313_183)"/>
<path d="M215.53 127.633L212.564 129.4C212.184 129.625 211.875 129.495 211.875 129.127C211.875 128.759 212.184 128.261 212.564 128.048L215.53 126.281C215.898 126.055 216.219 126.186 216.219 126.553C216.219 126.921 215.91 127.419 215.53 127.633Z" fill="url(#paint24_linear_313_183)"/>
<path d="M215.53 132.531L212.564 134.298C212.184 134.523 211.875 134.393 211.875 134.025C211.875 133.657 212.184 133.159 212.564 132.946L215.53 131.179C215.898 130.953 216.219 131.084 216.219 131.451C216.219 131.819 215.91 132.317 215.53 132.531Z" fill="url(#paint25_linear_313_183)"/>
<path d="M215.53 137.417L212.564 139.184C212.184 139.409 211.875 139.278 211.875 138.911C211.875 138.543 212.184 138.045 212.564 137.832L215.53 136.065C215.898 135.839 216.219 135.97 216.219 136.337C216.219 136.705 215.91 137.203 215.53 137.417Z" fill="url(#paint26_linear_313_183)"/>
<g clip-path="url(#clip0_313_183)">
<path d="M414.892 216.731L376.559 238.897C375.138 239.718 373.756 241.697 373.475 243.323L363.95 298.407C363.669 300.026 364.598 302.012 366.019 302.833L390.737 317.126C392.158 317.947 394.468 317.947 395.889 317.126L448.721 286.577C450.142 285.756 451.298 283.841 451.298 282.292C451.298 280.752 450.142 278.829 448.721 278.008L429.711 267.014C428.29 266.193 427.001 264.199 426.837 262.565L422.606 221C422.442 219.366 421.224 217.411 419.889 216.637C418.554 215.863 416.321 215.91 414.9 216.731H414.892Z" fill="#72262A"/>
<path d="M393.305 307.438V317.743C394.242 317.743 395.171 317.54 395.882 317.126L448.713 286.577C450.134 285.756 451.29 283.84 451.29 282.292C451.29 281.393 450.892 280.361 450.275 279.501H441.624L393.305 307.438Z" fill="#72262A"/>
<path d="M419.717 219.522L381.383 241.689C379.962 242.51 378.581 244.488 378.299 246.114L369.649 296.116C369.368 297.735 370.297 299.721 371.718 300.542L390.729 311.535C392.15 312.356 394.461 312.356 395.882 311.535L448.713 280.987C450.134 280.166 450.134 278.829 448.713 278.008L429.703 267.014C428.282 266.193 426.994 264.199 426.83 262.565L422.598 221C422.434 219.366 421.146 218.701 419.725 219.53L419.717 219.522Z" fill="#72262A"/>
<path d="M448.714 278.008L429.703 267.014C429 266.608 428.337 265.92 427.813 265.13L370.016 298.548C370.391 299.385 370.984 300.12 371.718 300.542L390.729 311.535C392.15 312.356 394.461 312.356 395.882 311.535L448.714 280.987C450.134 280.166 450.134 278.829 448.714 278.008Z" fill="url(#paint27_linear_313_183)"/>
<path d="M293.067 326.289L290.616 324.874C288.625 323.725 287.009 320.926 287.009 318.619V153.749C287.009 151.45 288.625 148.651 290.616 147.502L491.739 31.8601C493.73 30.7107 496.963 30.7185 498.953 31.8679L500.827 32.9469C502.818 34.0963 504.434 36.8955 504.434 39.2021V204.072C504.434 206.371 502.818 209.178 500.827 210.327L300.281 326.289C298.291 327.439 295.058 327.439 293.067 326.289Z" fill="#B53839"/>
<path d="M301.499 157.956L288.063 150.184C287.407 151.318 287.001 152.592 287.001 153.741V318.611C287.001 320.91 288.617 323.717 290.608 324.866L293.06 326.282C295.051 327.431 298.283 327.431 300.274 326.282L301.499 325.57V157.94V157.956Z" fill="#B53839"/>
<path d="M296.675 324.21V159.34C296.675 157.041 298.291 154.234 300.282 153.085L500.827 37.1145C502.818 35.9651 504.434 36.8955 504.434 39.2021V204.072C504.434 206.371 502.818 209.178 500.827 210.327L300.282 326.289C298.291 327.439 296.675 326.508 296.675 324.202V324.21Z" fill="url(#paint28_linear_313_183)"/>
<path d="M390.846 262.753L409.857 251.759C411.278 250.938 412.433 251.525 412.433 253.065C412.433 254.605 411.278 256.529 409.857 257.35L390.846 268.343C389.425 269.164 388.27 268.578 388.27 267.038C388.27 265.497 389.425 263.574 390.846 262.753Z" fill="#E0E0E0"/>
<path d="M305.91 158.12L494.792 48.6004C495.932 47.9437 496.853 48.4753 496.853 49.7889V193.485C496.853 194.799 495.932 196.402 494.792 197.058L305.91 306.273C304.771 306.93 303.849 306.398 303.849 305.085V161.701C303.849 160.388 304.771 158.785 305.91 158.128V158.12Z" fill="white"/>
<path d="M510.953 76.1386C510.789 75.5991 510.282 75.4193 509.673 75.7712L383.616 148.667C383.249 148.878 382.914 149.238 382.679 149.66L378.526 147.252C378.76 146.83 379.096 146.47 379.463 146.259L505.519 73.3707C506.253 72.9407 507.44 72.9407 508.174 73.3707L509.665 74.2308C510.289 74.5905 510.813 75.388 510.945 76.1386H510.953Z" fill="#EBEBEB"/>
<path d="M511 76.5374V131.09C511 131.942 510.407 132.974 509.673 133.397L383.616 206.285C383.554 206.316 383.491 206.347 383.429 206.378C383.351 206.41 383.265 206.441 383.187 206.449C383.179 206.449 383.156 206.457 383.148 206.457C382.648 206.527 382.289 206.167 382.289 205.518V150.974C382.289 150.543 382.445 150.074 382.679 149.66C382.914 149.238 383.249 148.878 383.616 148.667L509.673 75.7711C510.274 75.4193 510.789 75.5991 510.953 76.1386C510.961 76.1699 510.977 76.2012 510.977 76.2403C511 76.3419 511.008 76.4358 511.008 76.5374H511Z" fill="#FAFAFA"/>
<path d="M383.14 206.457C382.75 206.582 382.305 206.621 381.883 206.566C381.547 206.535 381.219 206.433 380.954 206.277L379.463 205.417C378.729 204.987 378.135 203.955 378.135 203.11V148.557C378.135 148.135 378.276 147.666 378.526 147.244L382.679 149.652C382.445 150.059 382.289 150.536 382.289 150.966V205.51C382.289 206.167 382.648 206.527 383.148 206.449L383.14 206.457Z" fill="#E0E0E0"/>
<path d="M507.081 105.765C506.831 105.639 506.518 105.733 506.394 105.991L501.928 114.827C501.803 114.655 501.655 114.498 501.467 114.389C500.913 114.068 500.21 114.115 499.484 114.537C498.344 115.194 497.423 116.633 497.204 117.985L488.632 116.586C488.538 115.976 488.265 115.499 487.812 115.241C487.258 114.92 486.555 114.967 485.829 115.39C485.337 115.671 484.892 116.101 484.517 116.602L473.65 106.679C473.954 106.054 474.134 105.374 474.134 104.748C474.134 103.919 473.829 103.278 473.267 102.958C472.713 102.637 472.01 102.684 471.284 103.106C469.98 103.865 468.95 105.639 468.95 107.148C468.95 107.969 469.246 108.595 469.793 108.923L462.079 132.192C461.595 132.06 461.041 132.153 460.471 132.482C459.722 132.912 459.081 133.678 458.652 134.538L449.369 127.845C449.369 127.798 449.377 127.751 449.377 127.712C449.377 126.883 449.072 126.242 448.51 125.922C447.956 125.601 447.253 125.648 446.527 126.07C445.223 126.829 444.193 128.604 444.193 130.113C444.193 130.636 444.326 131.074 444.56 131.418L437.041 153.468C436.698 153.491 436.339 153.608 435.972 153.82C434.754 154.523 433.794 156.118 433.669 157.557L422.083 164.258C421.942 163.828 421.708 163.484 421.349 163.28C420.794 162.96 420.092 163.007 419.374 163.429C418.39 164 417.562 165.149 417.219 166.322L409.7 163.273C409.732 163.069 409.755 162.866 409.755 162.671C409.755 161.842 409.45 161.201 408.888 160.88C408.334 160.559 407.631 160.606 406.905 161.029C405.601 161.787 404.571 163.562 404.571 165.071C404.571 165.399 404.633 165.689 404.727 165.955L396.147 182.382C395.639 182.21 395.054 182.288 394.445 182.64C393.227 183.344 392.267 184.939 392.142 186.378L386.146 189.841C385.904 189.982 385.818 190.295 385.958 190.537C386.052 190.701 386.224 190.795 386.403 190.795C386.489 190.795 386.575 190.772 386.661 190.725L392.251 187.488C392.392 187.918 392.626 188.262 392.985 188.465C393.227 188.606 393.492 188.676 393.781 188.676C394.156 188.676 394.554 188.559 394.968 188.324C396.272 187.566 397.302 185.791 397.302 184.282C397.302 183.782 397.177 183.367 396.974 183.039L405.43 166.854C405.43 166.854 405.445 166.869 405.453 166.869C405.695 167.01 405.961 167.08 406.249 167.08C406.624 167.08 407.022 166.963 407.436 166.729C408.295 166.228 409.029 165.29 409.427 164.281L417.063 167.378C417.063 167.378 417.055 167.456 417.055 167.487C417.055 168.316 417.359 168.957 417.921 169.278C418.163 169.418 418.429 169.489 418.718 169.489C419.092 169.489 419.491 169.371 419.904 169.137C421.122 168.433 422.083 166.838 422.208 165.399L433.794 158.699C433.934 159.129 434.168 159.473 434.527 159.676C434.769 159.817 435.035 159.887 435.324 159.887C435.699 159.887 436.097 159.77 436.51 159.535C437.814 158.777 438.845 157.002 438.845 155.493C438.845 154.703 438.564 154.101 438.056 153.765L445.45 132.091C445.59 132.13 445.731 132.146 445.879 132.146C446.254 132.146 446.652 132.028 447.066 131.794C448.018 131.239 448.823 130.144 449.19 129.002L458.301 135.578C458.215 135.914 458.16 136.25 458.16 136.571C458.16 137.4 458.465 138.041 459.027 138.362C459.269 138.502 459.534 138.573 459.823 138.573C460.198 138.573 460.596 138.455 461.01 138.221C462.314 137.462 463.344 135.688 463.344 134.178C463.344 133.655 463.211 133.217 462.977 132.881L470.831 109.174C471.151 109.142 471.479 109.048 471.815 108.853C472.307 108.571 472.752 108.141 473.127 107.641L483.994 117.563C483.69 118.189 483.51 118.869 483.51 119.495C483.51 120.323 483.815 120.964 484.377 121.285C484.619 121.426 484.884 121.496 485.173 121.496C485.548 121.496 485.946 121.379 486.36 121.144C487.5 120.488 488.421 119.049 488.64 117.696L497.212 119.096C497.306 119.706 497.579 120.183 498.032 120.441C498.274 120.581 498.539 120.652 498.828 120.652C499.203 120.652 499.601 120.534 500.015 120.3C501.28 119.565 502.271 117.884 502.334 116.398L507.323 106.531C507.448 106.281 507.346 105.968 507.096 105.843L507.081 105.765ZM394.484 187.41C394.101 187.629 393.75 187.683 393.524 187.558C393.297 187.425 393.172 187.097 393.172 186.659C393.172 185.517 394.008 184.071 394.991 183.5C395.241 183.359 395.468 183.281 395.663 183.281C395.772 183.281 395.866 183.305 395.952 183.352C396.178 183.485 396.303 183.813 396.303 184.259C396.303 185.4 395.468 186.847 394.484 187.417V187.41ZM406.944 165.798C406.562 166.017 406.21 166.072 405.984 165.947C405.758 165.814 405.633 165.485 405.633 165.048C405.633 163.906 406.468 162.459 407.452 161.889C407.694 161.748 407.928 161.678 408.123 161.678C408.233 161.678 408.326 161.701 408.412 161.748C408.638 161.881 408.763 162.209 408.763 162.647C408.763 163.789 407.928 165.235 406.944 165.806V165.798ZM419.405 168.199C419.022 168.425 418.671 168.472 418.444 168.347C418.218 168.214 418.093 167.886 418.093 167.448C418.093 166.306 418.928 164.86 419.912 164.289C420.154 164.148 420.388 164.07 420.584 164.07C420.693 164.07 420.787 164.094 420.872 164.141C421.099 164.273 421.224 164.602 421.224 165.048C421.224 166.189 420.388 167.636 419.405 168.206V168.199ZM436.011 158.597C435.628 158.824 435.277 158.871 435.051 158.746C434.824 158.613 434.699 158.284 434.699 157.846C434.699 156.705 435.535 155.258 436.518 154.687C436.768 154.547 436.995 154.469 437.19 154.469C437.299 154.469 437.393 154.492 437.479 154.539C437.705 154.672 437.83 155 437.83 155.446C437.83 156.587 436.995 158.034 436.011 158.605V158.597ZM446.558 130.855C446.176 131.074 445.825 131.129 445.598 131.004C445.567 130.988 445.544 130.957 445.512 130.926C445.512 130.926 445.504 130.926 445.497 130.918C445.341 130.754 445.247 130.472 445.247 130.105C445.247 128.963 446.082 127.517 447.066 126.946C447.308 126.805 447.542 126.735 447.737 126.735C447.847 126.735 447.94 126.758 448.026 126.805C448.253 126.938 448.378 127.267 448.378 127.704C448.378 128.846 447.542 130.292 446.558 130.863V130.855ZM460.494 137.275C460.112 137.501 459.761 137.548 459.534 137.423C459.308 137.29 459.183 136.962 459.183 136.524C459.183 135.383 460.018 133.936 461.002 133.365C461.244 133.225 461.478 133.154 461.673 133.154C461.783 133.154 461.876 133.178 461.962 133.225C462.001 133.248 462.025 133.279 462.064 133.311C462.228 133.475 462.321 133.756 462.321 134.124C462.321 135.265 461.486 136.712 460.502 137.283L460.494 137.275ZM471.3 107.899C470.917 108.126 470.566 108.173 470.339 108.048C470.113 107.915 469.988 107.586 469.988 107.148C469.988 106.007 470.824 104.56 471.807 103.99C472.057 103.849 472.283 103.771 472.479 103.771C472.588 103.771 472.682 103.794 472.768 103.841C472.994 103.974 473.119 104.302 473.119 104.748C473.119 105.89 472.283 107.336 471.3 107.907V107.899ZM485.837 120.19C485.454 120.417 485.103 120.464 484.877 120.339C484.65 120.206 484.525 119.878 484.525 119.432C484.525 118.29 485.361 116.844 486.344 116.273C486.586 116.132 486.821 116.062 487.016 116.062C487.125 116.062 487.219 116.085 487.305 116.132C487.531 116.265 487.656 116.594 487.656 117.032C487.656 118.173 486.821 119.62 485.837 120.19ZM499.484 119.338C499.102 119.565 498.75 119.612 498.524 119.487C498.297 119.354 498.172 119.025 498.172 118.588C498.172 117.446 499.008 115.999 499.992 115.429C500.234 115.288 500.468 115.218 500.663 115.218C500.772 115.218 500.866 115.241 500.952 115.288C501.178 115.421 501.303 115.749 501.303 116.187C501.303 117.329 500.468 118.775 499.484 119.346V119.338Z" fill="url(#paint29_linear_313_183)"/>
<path d="M436.214 186.581C436.05 186.041 435.527 185.862 434.934 186.213L383.608 215.894C383.218 216.121 382.875 216.512 382.64 216.95L378.502 214.526C378.744 214.096 379.088 213.72 379.463 213.501L430.78 183.821C431.514 183.391 432.708 183.391 433.435 183.821L434.941 184.681C435.558 185.041 436.073 185.838 436.222 186.589L436.214 186.581Z" fill="#EBEBEB"/>
<path d="M436.269 186.98V227.13C436.261 227.982 435.667 229.006 434.941 229.436L386.435 257.475L383.616 259.109C383.554 259.148 383.484 259.18 383.413 259.211C383.406 259.211 383.39 259.219 383.382 259.219C382.75 259.445 382.289 259.086 382.289 258.335V218.185C382.289 217.786 382.422 217.333 382.648 216.934C382.882 216.496 383.234 216.105 383.616 215.878L434.941 186.198C435.535 185.846 436.058 186.026 436.222 186.565C436.23 186.597 436.23 186.628 436.245 186.667C436.269 186.769 436.276 186.862 436.276 186.964L436.269 186.98Z" fill="#FAFAFA"/>
<path d="M383.382 259.219C383.327 259.242 383.281 259.258 383.218 259.281C383.148 259.313 383.062 259.336 382.992 259.344C382.882 259.375 382.765 259.399 382.648 259.406C382.539 259.414 382.414 259.43 382.305 259.43C382.063 259.43 381.821 259.399 381.586 259.352C381.36 259.297 381.149 259.219 380.962 259.117L379.471 258.249C378.737 257.827 378.143 256.795 378.143 255.943V215.8C378.143 215.378 378.284 214.932 378.51 214.518L382.648 216.942C382.422 217.341 382.289 217.794 382.289 218.193V258.343C382.289 259.094 382.75 259.445 383.382 259.227V259.219Z" fill="#E0E0E0"/>
<path d="M386.435 251.65V224.886C386.435 224.323 386.833 223.635 387.317 223.353L389.698 221.977C390.19 221.696 390.58 221.922 390.58 222.485V249.25C390.58 249.813 390.182 250.501 389.698 250.782L387.317 252.158C386.825 252.44 386.435 252.213 386.435 251.65Z" fill="url(#paint30_linear_313_183)"/>
<path d="M394.741 246.841V215.276C394.741 214.713 395.14 214.025 395.624 213.744L398.005 212.368C398.497 212.086 398.887 212.313 398.887 212.876V244.441C398.887 245.004 398.489 245.692 398.005 245.974L395.624 247.35C395.132 247.631 394.741 247.404 394.741 246.841Z" fill="url(#paint31_linear_313_183)"/>
<path d="M403.049 242.041V226.895C403.049 226.332 403.447 225.644 403.931 225.363L406.312 223.987C406.804 223.705 407.194 223.932 407.194 224.495V239.64C407.194 240.203 406.796 240.891 406.312 241.173L403.931 242.549C403.439 242.83 403.049 242.604 403.049 242.041Z" fill="url(#paint32_linear_313_183)"/>
<path d="M411.348 237.248V217.599C411.348 217.036 411.746 216.348 412.23 216.066L414.611 214.69C415.103 214.408 415.493 214.635 415.493 215.198V234.847C415.493 235.41 415.095 236.098 414.611 236.38L412.23 237.756C411.738 238.037 411.348 237.811 411.348 237.248Z" fill="url(#paint33_linear_313_183)"/>
<path d="M419.655 232.447V225.762C419.655 225.199 420.053 224.511 420.537 224.229L422.918 222.853C423.41 222.571 423.8 222.798 423.8 223.361V230.046C423.8 230.609 423.402 231.297 422.918 231.579L420.537 232.955C420.045 233.236 419.655 233.01 419.655 232.447Z" fill="url(#paint34_linear_313_183)"/>
<path d="M427.961 227.646V205.683C427.961 205.12 428.36 204.432 428.844 204.15L431.225 202.774C431.717 202.492 432.107 202.719 432.107 203.282V225.246C432.107 225.808 431.709 226.497 431.225 226.778L428.844 228.154C428.352 228.436 427.961 228.209 427.961 227.646Z" fill="url(#paint35_linear_313_183)"/>
<path d="M510.953 143.358C510.789 142.818 510.266 142.639 509.673 142.99L445.895 179.872C445.505 180.099 445.161 180.49 444.927 180.928L440.789 178.504C441.031 178.074 441.375 177.699 441.749 177.48L505.519 140.598C506.253 140.168 507.448 140.168 508.174 140.598L509.681 141.458C510.297 141.818 510.813 142.615 510.961 143.366L510.953 143.358Z" fill="#EBEBEB"/>
<path d="M511 143.757V183.907C510.992 184.759 510.399 185.783 509.673 186.213L448.714 221.461L445.895 223.095C445.833 223.134 445.762 223.166 445.692 223.197C445.684 223.197 445.669 223.205 445.661 223.205C445.028 223.431 444.568 223.072 444.568 222.321V182.171C444.568 181.772 444.701 181.319 444.927 180.92C445.161 180.482 445.513 180.091 445.895 179.864L509.673 142.983C510.266 142.631 510.789 142.811 510.953 143.35C510.961 143.381 510.961 143.413 510.977 143.452C511 143.553 511.008 143.647 511.008 143.749L511 143.757Z" fill="#FAFAFA"/>
<path d="M445.661 223.212C445.606 223.236 445.559 223.252 445.497 223.275C445.427 223.306 445.341 223.33 445.27 223.338C445.161 223.369 445.044 223.392 444.927 223.4C444.818 223.408 444.693 223.424 444.576 223.424C444.334 223.424 444.092 223.392 443.857 223.345C443.631 223.291 443.42 223.212 443.233 223.111L441.742 222.243C441.008 221.821 440.414 220.789 440.414 219.936V179.794C440.414 179.372 440.555 178.926 440.781 178.512L444.919 180.936C444.693 181.334 444.56 181.788 444.56 182.187V222.337C444.56 223.087 445.021 223.439 445.653 223.22L445.661 223.212Z" fill="#E0E0E0"/>
<path d="M468.169 176.424L464.867 188.762C464.64 189.583 464 190.827 463.454 191.483L452.789 204.314C451.43 203.384 450.548 201.937 450.212 200.115C449.463 195.987 451.571 190.35 455.693 185.385C456.396 184.548 457.114 183.758 457.848 183.008C460.994 179.857 464.515 177.613 468.161 176.424H468.169Z" fill="url(#paint36_linear_313_183)"/>
<path d="M477.054 191.945C472.323 199.92 463.329 205.94 456.575 205.518C455.529 205.456 454.694 205.276 453.897 204.924L464.406 192.281C464.859 191.741 465.835 191.296 466.576 191.296H466.686L477.054 191.937V191.945Z" fill="url(#paint37_linear_313_183)"/>
<path d="M476.14 176.221L466.35 188.004L469.559 176.017C472.213 175.361 474.345 175.415 476.14 176.221Z" fill="url(#paint38_linear_313_183)"/>
<path d="M477.718 190.733L466.772 190.06C466.538 190.037 466.42 189.982 466.413 189.982C466.413 189.959 466.436 189.888 466.506 189.779C466.538 189.724 466.569 189.685 466.6 189.654L477.265 176.823C480.778 179.215 480.965 184.579 477.725 190.733H477.718Z" fill="url(#paint39_linear_313_183)"/>
<path d="M484.26 167.823C484.26 168.558 484.853 168.816 485.587 168.394L505.519 156.869C506.253 156.447 506.846 155.501 506.846 154.766C506.846 154.031 506.253 153.773 505.519 154.195L485.587 165.72C484.853 166.142 484.26 167.088 484.26 167.823Z" fill="url(#paint40_linear_313_183)"/>
<path d="M484.26 175.846C484.26 176.58 484.853 176.839 485.587 176.416L505.519 164.891C506.253 164.469 506.846 163.523 506.846 162.788C506.846 162.053 506.253 161.795 505.519 162.217L485.587 173.742C484.853 174.164 484.26 175.111 484.26 175.846Z" fill="#E0E0E0"/>
<path d="M484.26 180.803C484.26 181.538 484.853 181.796 485.587 181.373L505.519 169.848C506.253 169.426 506.846 168.48 506.846 167.745C506.846 167.01 506.253 166.752 505.519 167.174L485.587 178.699C484.853 179.122 484.26 180.068 484.26 180.803Z" fill="#E0E0E0"/>
<path d="M484.26 185.752C484.26 186.487 484.853 186.745 485.587 186.323L505.519 174.798C506.253 174.376 506.846 173.43 506.846 172.695C506.846 171.96 506.253 171.702 505.519 172.124L485.587 183.649C484.853 184.071 484.26 185.017 484.26 185.752Z" fill="#E0E0E0"/>
<path d="M484.26 190.701C484.26 191.436 484.853 191.694 485.587 191.272L505.519 179.747C506.253 179.325 506.846 178.379 506.846 177.644C506.846 176.909 506.253 176.651 505.519 177.073L485.587 188.598C484.853 189.02 484.26 189.966 484.26 190.701Z" fill="#E0E0E0"/>
<path d="M365.621 181.78C365.457 181.225 364.949 181.053 364.34 181.413L329.629 201.476C329.262 201.687 328.934 202.062 328.692 202.469L324.539 200.076C324.781 199.654 325.109 199.294 325.475 199.083L360.187 179.004C360.921 178.582 362.107 178.582 362.841 179.004L364.332 179.872C364.957 180.232 365.48 181.029 365.613 181.78H365.621Z" fill="#EBEBEB"/>
<path d="M365.675 182.179V193.508C365.675 194.361 365.082 195.385 364.348 195.815L329.637 215.878C329.567 215.917 329.481 215.957 329.395 216.003C329.371 216.003 329.356 216.011 329.332 216.027C328.739 216.199 328.31 215.839 328.31 215.112V203.782C328.31 203.352 328.45 202.891 328.7 202.469C328.942 202.062 329.27 201.687 329.637 201.476L364.348 181.413C364.949 181.053 365.464 181.225 365.628 181.78C365.636 181.811 365.652 181.843 365.652 181.882C365.675 181.983 365.683 182.085 365.683 182.179H365.675Z" fill="#FAFAFA"/>
<path d="M329.324 216.027C329.168 216.089 328.997 216.129 328.825 216.16C328.317 216.254 327.74 216.215 327.271 216.027C327.17 215.988 327.068 215.933 326.974 215.886L325.483 215.026C324.749 214.604 324.156 213.572 324.156 212.719V201.39C324.156 200.96 324.312 200.499 324.546 200.076L328.7 202.469C328.458 202.891 328.309 203.352 328.309 203.782V215.112C328.309 215.839 328.739 216.199 329.332 216.027H329.324Z" fill="#E0E0E0"/>
<path d="M365.621 203.392C365.457 202.836 364.949 202.664 364.34 203.024L329.629 223.087C329.262 223.299 328.934 223.674 328.692 224.08L324.539 221.688C324.781 221.266 325.109 220.906 325.475 220.695L360.187 200.616C360.921 200.194 362.107 200.194 362.841 200.616L364.332 201.484C364.957 201.843 365.48 202.641 365.613 203.392H365.621Z" fill="#EBEBEB"/>
<path d="M365.675 203.79V215.12C365.675 215.972 365.082 216.997 364.348 217.427L329.637 237.49C329.567 237.529 329.481 237.568 329.395 237.615C329.371 237.615 329.356 237.623 329.332 237.638C328.739 237.811 328.31 237.451 328.31 236.724V225.394C328.31 224.964 328.45 224.503 328.7 224.08C328.942 223.674 329.27 223.299 329.637 223.087L364.348 203.024C364.949 202.664 365.464 202.836 365.628 203.392C365.636 203.423 365.652 203.454 365.652 203.493C365.675 203.595 365.683 203.697 365.683 203.79H365.675Z" fill="#FAFAFA"/>
<path d="M329.324 237.638C329.168 237.701 328.997 237.74 328.825 237.771C328.317 237.865 327.74 237.826 327.271 237.638C327.17 237.599 327.068 237.545 326.974 237.498L325.483 236.638C324.749 236.215 324.156 235.183 324.156 234.331V223.001C324.156 222.571 324.312 222.11 324.546 221.688L328.7 224.08C328.458 224.503 328.309 224.964 328.309 225.394V236.724C328.309 237.451 328.739 237.81 329.332 237.638H329.324Z" fill="#E0E0E0"/>
<path d="M365.621 224.995C365.457 224.44 364.949 224.268 364.34 224.628L329.629 244.691C329.262 244.902 328.934 245.278 328.692 245.684L324.539 243.291C324.781 242.869 325.109 242.51 325.475 242.298L360.187 222.219C360.921 221.797 362.107 221.797 362.841 222.219L364.332 223.087C364.957 223.447 365.48 224.245 365.613 224.995H365.621Z" fill="#EBEBEB"/>
<path d="M365.675 225.402V236.731C365.675 237.584 365.082 238.608 364.348 239.038L329.637 259.101C329.567 259.14 329.481 259.18 329.395 259.226C329.371 259.226 329.356 259.234 329.332 259.25C328.739 259.422 328.31 259.062 328.31 258.335V247.006C328.31 246.575 328.45 246.114 328.7 245.692C328.942 245.285 329.27 244.91 329.637 244.699L364.348 224.636C364.949 224.276 365.464 224.448 365.628 225.003C365.636 225.034 365.652 225.066 365.652 225.105C365.675 225.206 365.683 225.308 365.683 225.402H365.675Z" fill="#FAFAFA"/>
<path d="M329.324 259.242C329.168 259.305 328.997 259.344 328.825 259.375C328.317 259.469 327.74 259.43 327.271 259.242C327.17 259.203 327.068 259.148 326.974 259.101L325.483 258.241C324.749 257.819 324.156 256.787 324.156 255.935V244.605C324.156 244.175 324.312 243.714 324.546 243.292L328.7 245.684C328.458 246.106 328.309 246.568 328.309 246.998V258.327C328.309 259.054 328.739 259.414 329.332 259.242H329.324Z" fill="#E0E0E0"/>
<path d="M365.621 246.607C365.457 246.052 364.949 245.88 364.34 246.239L329.629 266.303C329.262 266.514 328.934 266.889 328.692 267.296L324.539 264.903C324.781 264.481 325.109 264.121 325.475 263.91L360.187 243.831C360.921 243.409 362.107 243.409 362.841 243.831L364.332 244.699C364.957 245.059 365.48 245.856 365.613 246.607H365.621Z" fill="#EBEBEB"/>
<path d="M365.675 247.006V258.335C365.675 259.187 365.082 260.212 364.348 260.642L329.637 280.705C329.567 280.744 329.481 280.783 329.395 280.83C329.371 280.83 329.356 280.838 329.332 280.854C328.739 281.026 328.31 280.666 328.31 279.939V268.609C328.31 268.179 328.45 267.718 328.7 267.296C328.942 266.889 329.27 266.514 329.637 266.303L364.348 246.239C364.949 245.88 365.464 246.052 365.628 246.607C365.636 246.638 365.652 246.669 365.652 246.708C365.675 246.81 365.683 246.912 365.683 247.006H365.675Z" fill="#FAFAFA"/>
<path d="M329.324 280.854C329.168 280.916 328.997 280.955 328.825 280.987C328.317 281.08 327.74 281.041 327.271 280.854C327.17 280.815 327.068 280.76 326.974 280.713L325.483 279.853C324.749 279.431 324.156 278.399 324.156 277.546V266.217C324.156 265.787 324.312 265.325 324.546 264.903L328.7 267.296C328.458 267.718 328.309 268.179 328.309 268.609V279.939C328.309 280.666 328.739 281.026 329.332 280.854H329.324Z" fill="#E0E0E0"/>
<path d="M369.274 163.843C369.313 163.843 369.36 163.859 369.407 163.883L365.675 161.74V160.583C365.675 160.489 365.667 160.387 365.644 160.286C365.644 160.247 365.636 160.215 365.621 160.184C365.488 159.434 364.965 158.636 364.34 158.276L362.849 157.408C362.115 156.986 360.928 156.986 360.194 157.408L325.483 177.487C325.116 177.699 324.788 178.058 324.546 178.48C324.312 178.903 324.156 179.364 324.156 179.794V191.124C324.156 191.976 324.749 193.008 325.483 193.43L326.974 194.29C327.068 194.345 327.17 194.392 327.271 194.431C327.74 194.619 328.317 194.658 328.825 194.564C328.997 194.533 329.168 194.494 329.324 194.431C329.348 194.423 329.363 194.408 329.387 194.408C329.481 194.369 329.559 194.329 329.629 194.282L364.34 174.219C365.074 173.789 365.667 172.765 365.667 171.913V168.644L369.454 164.266C369.594 164.101 369.477 163.851 369.267 163.843H369.274Z" fill="url(#paint41_linear_313_183)"/>
<path opacity="0.1" d="M329.324 194.423C329.168 194.486 328.997 194.525 328.825 194.556C328.317 194.65 327.74 194.611 327.271 194.423C327.17 194.384 327.068 194.329 326.974 194.283L325.483 193.422C324.749 193 324.156 191.968 324.156 191.116V179.786C324.156 179.356 324.312 178.895 324.546 178.473L328.7 180.865C328.458 181.287 328.309 181.749 328.309 182.179V193.508C328.309 194.236 328.739 194.595 329.332 194.423H329.324Z" fill="black"/>
<path opacity="0.4" d="M365.621 160.176C365.457 159.621 364.949 159.449 364.34 159.809L329.629 179.872C329.262 180.083 328.934 180.459 328.692 180.865L324.539 178.473C324.781 178.05 325.109 177.691 325.475 177.48L360.187 157.401C360.921 156.978 362.107 156.978 362.841 157.401L364.332 158.269C364.957 158.628 365.48 159.426 365.613 160.176H365.621Z" fill="white"/>
<path opacity="0.4" d="M369.266 163.836H365.675V161.732L369.407 163.875C369.36 163.851 369.313 163.836 369.266 163.836Z" fill="white"/>
<path d="M322.712 305.718C322.712 304.701 322.04 303.685 320.697 302.911C318.019 301.363 313.671 301.363 310.985 302.911C309.642 303.685 308.971 304.701 308.971 305.718L306.246 377.245C306.152 378.731 307.074 380.24 309.041 381.374C312.788 383.539 318.863 383.539 322.61 381.374C324.577 380.24 325.499 378.731 325.405 377.245H325.421L322.688 305.718H322.712Z" fill="url(#paint42_linear_313_183)"/>
<path opacity="0.15" d="M310.993 302.911C308.315 304.459 308.315 306.977 310.993 308.525C313.671 310.073 318.02 310.073 320.705 308.525C323.383 306.977 323.383 304.459 320.705 302.911C318.027 301.363 313.679 301.363 310.993 302.911Z" fill="black"/>
<path d="M318.785 282.902C317.161 281.964 314.537 281.964 312.913 282.902C312.102 283.371 311.696 283.989 311.696 284.599V305.71C311.696 306.328 312.102 306.938 312.913 307.407C314.537 308.345 317.161 308.345 318.785 307.407C319.597 306.938 320.003 306.32 320.003 305.71V284.599C320.003 283.981 319.597 283.371 318.785 282.902Z" fill="#263238"/>
<path d="M362.06 231.18C362.053 230.758 362.029 230.351 361.998 229.945C361.975 229.538 361.943 229.139 361.904 228.74C361.881 228.475 361.85 228.209 361.826 227.943C361.756 227.247 361.654 226.559 361.537 225.902C361.483 225.605 361.436 225.3 361.373 225.003C361.319 224.714 361.264 224.44 361.202 224.166C361.03 223.408 360.842 222.673 360.632 221.969C360.522 221.633 360.413 221.297 360.304 220.968C360.28 220.914 360.265 220.867 360.249 220.812C360.124 220.484 360.015 220.171 359.89 219.858C359.749 219.499 359.601 219.139 359.437 218.803C359.328 218.545 359.211 218.302 359.078 218.052C359.008 217.864 358.914 217.692 358.813 217.52C358.711 217.309 358.602 217.09 358.477 216.887C358.446 216.832 358.422 216.785 358.399 216.746C358.297 216.559 358.188 216.379 358.071 216.191C358.001 216.066 357.915 215.957 357.844 215.839C357.306 214.987 356.72 214.213 356.088 213.494C355.979 213.368 355.861 213.251 355.76 213.126C355.666 213.024 355.573 212.931 355.487 212.837C355.377 212.712 355.252 212.602 355.128 212.477C354.776 212.125 354.433 211.813 354.066 211.523C353.894 211.367 353.707 211.226 353.527 211.093C353.34 210.952 353.16 210.82 352.965 210.687C352.668 210.475 352.364 210.264 352.051 210.092C351.973 210.038 351.887 209.991 351.809 209.936L351.755 209.897H351.747L337.264 201.523H337.241L337.163 201.468C334.508 199.951 331.44 199.161 328.067 199.161C323.328 199.161 317.965 200.717 312.297 203.994C292.802 215.268 277 242.674 277 265.216C277 276.459 280.927 284.356 287.274 288.063L287.337 288.094L301.835 296.468C301.835 296.468 301.838 296.471 301.843 296.476L301.905 296.515C301.968 296.538 302.015 296.57 302.077 296.593C302.35 296.757 302.631 296.898 302.912 297.031C303.264 297.203 303.615 297.359 303.974 297.5C304.294 297.633 304.614 297.758 304.942 297.86C305.114 297.922 305.294 297.969 305.465 298.016C305.653 298.086 305.832 298.141 306.027 298.18C306.223 298.243 306.402 298.282 306.597 298.321C306.738 298.36 306.871 298.391 307.019 298.415C307.261 298.47 307.526 298.517 307.784 298.548C307.847 298.571 307.893 298.579 307.956 298.579C308.26 298.634 308.573 298.673 308.877 298.704C314.131 299.259 320.245 297.774 326.787 293.997C346.282 282.722 362.084 255.309 362.084 232.775C362.084 232.236 362.076 231.704 362.053 231.164L362.06 231.18ZM338.42 215.237C339.349 218.412 339.536 221.688 339.536 223.838C339.536 243.722 325.015 268.914 307.815 278.852C305.028 280.463 302.303 281.596 299.774 282.198C298.853 279.024 298.657 275.748 298.657 273.59C298.657 253.706 313.187 228.514 330.378 218.576C333.166 216.965 335.89 215.839 338.42 215.237Z" fill="url(#paint43_linear_313_183)"/>
<path opacity="0.1" d="M301.343 296.194L287.274 288.063C280.927 284.349 277 276.444 277 265.223C277 255.168 280.146 244.151 285.354 234.042L299.844 242.416C294.629 252.533 291.49 263.542 291.49 273.598C291.49 284.591 295.222 292.386 301.335 296.194H301.343Z" fill="black"/>
<path opacity="0.4" d="M362.06 231.18C362.052 230.758 362.029 230.351 361.998 229.945C361.974 229.538 361.943 229.139 361.904 228.74C361.881 228.475 361.85 228.209 361.826 227.943C361.756 227.247 361.654 226.559 361.537 225.902C361.483 225.605 361.436 225.3 361.373 225.003C361.319 224.714 361.264 224.44 361.201 224.166C361.03 223.408 360.842 222.673 360.632 221.969C360.522 221.633 360.413 221.297 360.304 220.968C360.28 220.914 360.265 220.867 360.249 220.812C360.124 220.484 360.015 220.171 359.89 219.858C359.749 219.498 359.601 219.139 359.437 218.803C359.328 218.545 359.211 218.302 359.078 218.052C359.008 217.864 358.914 217.692 358.812 217.52C358.711 217.309 358.602 217.09 358.477 216.887C358.446 216.832 358.422 216.785 358.399 216.746C358.297 216.559 358.188 216.379 358.071 216.191C358.001 216.066 357.915 215.957 357.844 215.839C357.306 214.987 356.72 214.213 356.088 213.494C355.978 213.368 355.861 213.251 355.76 213.126C355.666 213.024 355.572 212.931 355.487 212.837C355.377 212.712 355.252 212.602 355.127 212.477C354.776 212.125 354.433 211.812 354.066 211.523C353.894 211.367 353.707 211.226 353.527 211.093C353.34 210.952 353.16 210.819 352.965 210.687C352.668 210.475 352.364 210.264 352.051 210.092C345.642 206.191 336.687 206.652 326.795 212.375C307.3 223.65 291.498 251.056 291.498 273.598C291.498 285.013 295.542 292.989 302.077 296.609C302.35 296.773 302.631 296.914 302.912 297.047C303.264 297.219 303.615 297.375 303.974 297.516C304.294 297.649 304.614 297.774 304.942 297.875C305.114 297.938 305.294 297.985 305.465 298.032C305.653 298.102 305.832 298.157 306.027 298.196C306.223 298.258 306.402 298.298 306.597 298.337C306.738 298.376 306.871 298.407 307.019 298.43C307.261 298.485 307.526 298.532 307.784 298.563C307.847 298.587 307.893 298.595 307.956 298.595C308.26 298.649 308.573 298.689 308.877 298.72C314.131 299.275 320.244 297.789 326.787 294.013C346.282 282.738 362.084 255.325 362.084 232.791C362.084 232.251 362.076 231.719 362.052 231.18H362.06ZM323.219 287.805C318.847 290.33 314.631 291.667 311.032 291.667C304.279 291.667 301.171 287.054 299.766 282.206C298.845 279.032 298.65 275.756 298.65 273.598C298.65 253.714 313.179 228.522 330.371 218.584C333.158 216.973 335.882 215.847 338.412 215.245C339.864 214.893 341.246 214.721 342.55 214.721C353.722 214.721 354.917 227.356 354.917 232.791C354.917 252.674 340.403 277.867 323.211 287.805H323.219Z" fill="white"/>
<path opacity="0.1" d="M354.925 232.783C354.925 252.666 340.411 277.859 323.219 287.797C318.847 290.322 314.631 291.659 311.032 291.659C304.279 291.659 301.171 287.046 299.766 282.198C302.303 281.596 305.02 280.455 307.808 278.852C324.999 268.914 339.529 243.714 339.529 223.838C339.529 221.688 339.341 218.412 338.412 215.237C339.864 214.885 341.246 214.713 342.55 214.713C353.722 214.713 354.917 227.349 354.917 232.783H354.925Z" fill="black"/>
<path opacity="0.7" d="M348.749 229.319C348.749 249.203 334.235 274.395 317.044 284.333C312.672 286.859 308.456 288.196 304.856 288.196C304.099 288.196 303.381 288.133 302.717 288.024C301.304 286.366 300.375 284.317 299.766 282.206C298.845 279.032 298.65 275.756 298.65 273.598C298.65 253.714 313.179 228.522 330.371 218.584C333.158 216.973 335.883 215.847 338.412 215.245C339.864 214.893 341.246 214.721 342.55 214.721C343.315 214.721 344.026 214.784 344.697 214.893C348.226 219.061 348.741 225.746 348.741 229.319H348.749Z" fill="white"/>
<path opacity="0.1" d="M313.843 309.51L312.016 382.531C310.954 382.257 309.939 381.89 309.065 381.374C307.105 380.24 306.176 378.731 306.277 377.237H306.27L308.986 305.718C308.986 306.742 309.658 307.743 311.001 308.525C311.828 308.994 312.812 309.322 313.85 309.51H313.843Z" fill="black"/>
</g>
<defs>
<linearGradient id="paint0_linear_313_183" x1="238.015" y1="161.237" x2="349.727" y2="161.237" gradientUnits="userSpaceOnUse">
<stop stop-color="#FFE62A"/>
<stop offset="1" stop-color="#F4617E"/>
</linearGradient>
<linearGradient id="paint1_linear_313_183" x1="309.868" y1="149.117" x2="320.085" y2="149.117" gradientUnits="userSpaceOnUse">
<stop stop-color="#FFE62A"/>
<stop offset="1" stop-color="#F4617E"/>
</linearGradient>
<linearGradient id="paint2_linear_313_183" x1="318.981" y1="143.815" x2="329.198" y2="143.815" gradientUnits="userSpaceOnUse">
<stop stop-color="#FFE62A"/>
<stop offset="1" stop-color="#F4617E"/>
</linearGradient>
<linearGradient id="paint3_linear_313_183" x1="328.094" y1="138.514" x2="338.312" y2="138.514" gradientUnits="userSpaceOnUse">
<stop stop-color="#FFE62A"/>
<stop offset="1" stop-color="#F4617E"/>
</linearGradient>
<linearGradient id="paint4_linear_313_183" x1="287.843" y1="59.2348" x2="510.702" y2="155.288" gradientUnits="userSpaceOnUse">
<stop stop-color="white"/>
<stop offset="0.23" stop-color="#CAD6E8"/>
<stop offset="0.6" stop-color="#7797C6"/>
<stop offset="0.87" stop-color="#436FB0"/>
<stop offset="1" stop-color="#3060A8"/>
</linearGradient>
<linearGradient id="paint5_linear_313_183" x1="300.873" y1="75.2212" x2="402.13" y2="75.2212" gradientUnits="userSpaceOnUse">
<stop stop-color="#FFE62A"/>
<stop offset="1" stop-color="#F42C53"/>
</linearGradient>
<linearGradient id="paint6_linear_313_183" x1="72.0039" y1="221.487" x2="295.084" y2="221.487" gradientUnits="userSpaceOnUse">
<stop stop-color="#66D2FE"/>
<stop offset="0.34" stop-color="#51A7DD"/>
<stop offset="0.78" stop-color="#3973B7"/>
<stop offset="1" stop-color="#3060A8"/>
</linearGradient>
<linearGradient id="paint7_linear_313_183" x1="259.295" y1="123.482" x2="203.601" y2="242.101" gradientUnits="userSpaceOnUse">
<stop stop-color="white"/>
<stop offset="0.99" stop-color="#C2C4C6"/>
</linearGradient>
<linearGradient id="paint8_linear_313_183" x1="203.154" y1="132.412" x2="134.634" y2="234.56" gradientUnits="userSpaceOnUse">
<stop stop-color="white"/>
<stop offset="0.99" stop-color="#C2C4C6"/>
</linearGradient>
<linearGradient id="paint9_linear_313_183" x1="217.892" y1="221.381" x2="218.84" y2="202.453" gradientUnits="userSpaceOnUse">
<stop stop-color="#1D7EFF"/>
<stop offset="1" stop-color="#1753FF"/>
</linearGradient>
<linearGradient id="paint10_linear_313_183" x1="690.407" y1="-72.9086" x2="694.725" y2="-75.4725" gradientUnits="userSpaceOnUse">
<stop stop-color="#FFAC06"/>
<stop offset="1" stop-color="#F25227"/>
</linearGradient>
<linearGradient id="paint11_linear_313_183" x1="319.363" y1="151.446" x2="320.537" y2="150.746" gradientUnits="userSpaceOnUse">
<stop stop-color="#FFAC06"/>
<stop offset="1" stop-color="#F25227"/>
</linearGradient>
<linearGradient id="paint12_linear_313_183" x1="694.632" y1="-65.7929" x2="322.994" y2="154.883" gradientUnits="userSpaceOnUse">
<stop stop-color="#FFAC06"/>
<stop offset="1" stop-color="#F25227"/>
</linearGradient>
<linearGradient id="paint13_linear_313_183" x1="243.571" y1="116.117" x2="187.902" y2="234.725" gradientUnits="userSpaceOnUse">
<stop stop-color="white"/>
<stop offset="0.99" stop-color="#C2C4C6"/>
</linearGradient>
<linearGradient id="paint14_linear_313_183" x1="184.262" y1="119.734" x2="115.731" y2="221.87" gradientUnits="userSpaceOnUse">
<stop stop-color="white"/>
<stop offset="0.99" stop-color="#C2C4C6"/>
</linearGradient>
<linearGradient id="paint15_linear_313_183" x1="217.892" y1="180.573" x2="218.84" y2="161.645" gradientUnits="userSpaceOnUse">
<stop stop-color="#1D7EFF"/>
<stop offset="1" stop-color="#1753FF"/>
</linearGradient>
<linearGradient id="paint16_linear_313_183" x1="299.427" y1="117.86" x2="300.602" y2="117.16" gradientUnits="userSpaceOnUse">
<stop stop-color="#FFAC06"/>
<stop offset="1" stop-color="#F25227"/>
</linearGradient>
<linearGradient id="paint17_linear_313_183" x1="301.634" y1="121.573" x2="302.809" y2="120.884" gradientUnits="userSpaceOnUse">
<stop stop-color="#FFAC06"/>
<stop offset="1" stop-color="#F25227"/>
</linearGradient>
<linearGradient id="paint18_linear_313_183" x1="676.713" y1="-95.9638" x2="305.087" y2="124.712" gradientUnits="userSpaceOnUse">
<stop stop-color="#FFAC06"/>
<stop offset="1" stop-color="#F25227"/>
</linearGradient>
<linearGradient id="paint19_linear_313_183" x1="117.892" y1="90.2758" x2="251.985" y2="90.2758" gradientUnits="userSpaceOnUse">
<stop stop-color="white"/>
<stop offset="0.99" stop-color="#C2C4C6"/>
</linearGradient>
<linearGradient id="paint20_linear_313_183" x1="137.709" y1="95.233" x2="230.008" y2="95.233" gradientUnits="userSpaceOnUse">
<stop stop-color="#1D7EFF"/>
<stop offset="1" stop-color="#1753FF"/>
</linearGradient>
<linearGradient id="paint21_linear_313_183" x1="227.86" y1="108.741" x2="172.178" y2="227.348" gradientUnits="userSpaceOnUse">
<stop stop-color="white"/>
<stop offset="0.99" stop-color="#C2C4C6"/>
</linearGradient>
<linearGradient id="paint22_linear_313_183" x1="165.37" y1="107.057" x2="96.8393" y2="209.204" gradientUnits="userSpaceOnUse">
<stop stop-color="white"/>
<stop offset="0.99" stop-color="#C2C4C6"/>
</linearGradient>
<linearGradient id="paint23_linear_313_183" x1="217.892" y1="139.777" x2="218.84" y2="120.849" gradientUnits="userSpaceOnUse">
<stop stop-color="#1D7EFF"/>
<stop offset="1" stop-color="#1753FF"/>
</linearGradient>
<linearGradient id="paint24_linear_313_183" x1="281.639" y1="87.9157" x2="282.814" y2="87.2153" gradientUnits="userSpaceOnUse">
<stop stop-color="#FFAC06"/>
<stop offset="1" stop-color="#F25227"/>
</linearGradient>
<linearGradient id="paint25_linear_313_183" x1="283.787" y1="91.5331" x2="284.961" y2="90.8328" gradientUnits="userSpaceOnUse">
<stop stop-color="#FFAC06"/>
<stop offset="1" stop-color="#F25227"/>
</linearGradient>
<linearGradient id="paint26_linear_313_183" x1="658.795" y1="-126.146" x2="287.156" y2="94.5301" gradientUnits="userSpaceOnUse">
<stop stop-color="#FFAC06"/>
<stop offset="1" stop-color="#F25227"/>
</linearGradient>
<linearGradient id="paint27_linear_313_183" x1="370.016" y1="288.641" x2="449.775" y2="288.641" gradientUnits="userSpaceOnUse">
<stop stop-color="#FFF12F"/>
<stop offset="1" stop-color="#F46469"/>
</linearGradient>
<linearGradient id="paint28_linear_313_183" x1="296.675" y1="181.702" x2="504.434" y2="181.702" gradientUnits="userSpaceOnUse">
<stop stop-color="#FFF12F"/>
<stop offset="1" stop-color="#F46469"/>
</linearGradient>
<linearGradient id="paint29_linear_313_183" x1="385.927" y1="146.751" x2="507.362" y2="146.751" gradientUnits="userSpaceOnUse">
<stop stop-color="#69B9FE"/>
<stop offset="0.29" stop-color="#5796E1"/>
<stop offset="0.77" stop-color="#3D62B8"/>
<stop offset="1" stop-color="#334FA8"/>
</linearGradient>
<linearGradient id="paint30_linear_313_183" x1="386.435" y1="237.068" x2="390.588" y2="237.068" gradientUnits="userSpaceOnUse">
<stop stop-color="#69B9FE"/>
<stop offset="0.29" stop-color="#5796E1"/>
<stop offset="0.77" stop-color="#3D62B8"/>
<stop offset="1" stop-color="#334FA8"/>
</linearGradient>
<linearGradient id="paint31_linear_313_183" x1="394.741" y1="229.859" x2="398.895" y2="229.859" gradientUnits="userSpaceOnUse">
<stop stop-color="#69B9FE"/>
<stop offset="0.29" stop-color="#5796E1"/>
<stop offset="0.77" stop-color="#3D62B8"/>
<stop offset="1" stop-color="#334FA8"/>
</linearGradient>
<linearGradient id="paint32_linear_313_183" x1="403.049" y1="233.268" x2="407.194" y2="233.268" gradientUnits="userSpaceOnUse">
<stop stop-color="#69B9FE"/>
<stop offset="0.29" stop-color="#5796E1"/>
<stop offset="0.77" stop-color="#3D62B8"/>
<stop offset="1" stop-color="#334FA8"/>
</linearGradient>
<linearGradient id="paint33_linear_313_183" x1="411.348" y1="226.231" x2="415.501" y2="226.231" gradientUnits="userSpaceOnUse">
<stop stop-color="#69B9FE"/>
<stop offset="0.29" stop-color="#5796E1"/>
<stop offset="0.77" stop-color="#3D62B8"/>
<stop offset="1" stop-color="#334FA8"/>
</linearGradient>
<linearGradient id="paint34_linear_313_183" x1="419.655" y1="227.904" x2="423.808" y2="227.904" gradientUnits="userSpaceOnUse">
<stop stop-color="#69B9FE"/>
<stop offset="0.29" stop-color="#5796E1"/>
<stop offset="0.77" stop-color="#3D62B8"/>
<stop offset="1" stop-color="#334FA8"/>
</linearGradient>
<linearGradient id="paint35_linear_313_183" x1="427.961" y1="215.464" x2="432.115" y2="215.464" gradientUnits="userSpaceOnUse">
<stop stop-color="#69B9FE"/>
<stop offset="0.29" stop-color="#5796E1"/>
<stop offset="0.77" stop-color="#3D62B8"/>
<stop offset="1" stop-color="#334FA8"/>
</linearGradient>
<linearGradient id="paint36_linear_313_183" x1="450.072" y1="190.365" x2="468.169" y2="190.365" gradientUnits="userSpaceOnUse">
<stop stop-color="#69B9FE"/>
<stop offset="0.29" stop-color="#5796E1"/>
<stop offset="0.77" stop-color="#3D62B8"/>
<stop offset="1" stop-color="#334FA8"/>
</linearGradient>
<linearGradient id="paint37_linear_313_183" x1="453.897" y1="198.419" x2="477.054" y2="198.419" gradientUnits="userSpaceOnUse">
<stop stop-color="#69B9FE"/>
<stop offset="0.29" stop-color="#5796E1"/>
<stop offset="0.77" stop-color="#3D62B8"/>
<stop offset="1" stop-color="#334FA8"/>
</linearGradient>
<linearGradient id="paint38_linear_313_183" x1="466.35" y1="181.78" x2="476.14" y2="181.78" gradientUnits="userSpaceOnUse">
<stop stop-color="#69B9FE"/>
<stop offset="0.29" stop-color="#5796E1"/>
<stop offset="0.77" stop-color="#3D62B8"/>
<stop offset="1" stop-color="#334FA8"/>
</linearGradient>
<linearGradient id="paint39_linear_313_183" x1="466.413" y1="183.782" x2="480.029" y2="183.782" gradientUnits="userSpaceOnUse">
<stop stop-color="#69B9FE"/>
<stop offset="0.29" stop-color="#5796E1"/>
<stop offset="0.77" stop-color="#3D62B8"/>
<stop offset="1" stop-color="#334FA8"/>
</linearGradient>
<linearGradient id="paint40_linear_313_183" x1="484.26" y1="161.287" x2="506.846" y2="161.287" gradientUnits="userSpaceOnUse">
<stop stop-color="#1D7EFF"/>
<stop offset="1" stop-color="#1753FF"/>
</linearGradient>
<linearGradient id="paint41_linear_313_183" x1="324.148" y1="175.845" x2="369.524" y2="175.845" gradientUnits="userSpaceOnUse">
<stop stop-color="#1D7EFF"/>
<stop offset="1" stop-color="#1753FF"/>
</linearGradient>
<linearGradient id="paint42_linear_313_183" x1="306.262" y1="342.373" x2="325.444" y2="342.373" gradientUnits="userSpaceOnUse">
<stop stop-color="#FFF12F"/>
<stop offset="1" stop-color="#F46469"/>
</linearGradient>
<linearGradient id="paint43_linear_313_183" x1="277" y1="248.999" x2="362.092" y2="248.999" gradientUnits="userSpaceOnUse">
<stop stop-color="#FFF12F"/>
<stop offset="1" stop-color="#F46469"/>
</linearGradient>
<clipPath id="clip0_313_183">
<rect width="234" height="352" fill="white" transform="translate(277 31)"/>
</clipPath>
</defs>
</svg>
