<svg width="655" height="463" viewBox="0 0 655 463" fill="none" xmlns="http://www.w3.org/2000/svg">
<path d="M654.975 277.287L654.735 241.05L610.837 232.148L380.184 98.5093C345.759 78.5625 285.564 80.9581 245.74 103.843L32.9865 226.134C31.2457 227.13 29.5933 228.164 27.9786 229.211L0 237.747V270.68H0.0252287C0.29013 283.049 7.90919 294.826 23.1978 303.69L274.804 449.471C309.228 469.418 369.424 467.022 409.247 444.138L622.001 321.859C644.139 309.137 655.303 292.758 654.962 277.287H654.975Z" fill="#CDCDCD"/>
<path d="M274.803 416.537L23.2103 270.756C-11.2143 250.809 -6.83711 216.085 32.999 193.188L245.753 70.909C285.576 48.0117 345.772 45.6286 380.196 65.5755L631.802 211.357C666.227 231.304 661.849 266.028 622.013 288.925L409.26 411.204C369.436 434.101 309.241 436.484 274.816 416.537H274.803Z" fill="#F7F7F7"/>
<path d="M299.815 221.061L264.211 238.61C260.59 240.396 260.432 245.503 263.938 247.507L335.806 288.587C339.015 290.421 338.979 295.062 335.74 296.846L278.838 328.182C275.17 330.2 270.725 330.204 267.056 328.191L244.624 315.883" stroke="#6EA5C4" stroke-width="2.96099" stroke-miterlimit="10"/>
<path d="M370.303 221.678L422.304 250.568C425.529 252.36 425.556 256.988 422.354 258.818L384.531 280.437C381.116 282.391 381.154 287.33 384.601 289.228L442.526 321.127C445.259 322.632 448.573 322.636 451.309 321.133L493.559 297.951" stroke="#6EA5C4" stroke-width="2.96099" stroke-miterlimit="10"/>
<path d="M495.686 321.595L438.399 288.939C437.669 288.523 437.219 287.863 437.048 287.146C436.971 286.822 436.505 280.001 437.327 279.514L512.685 240.029C514.165 239.153 516.001 239.138 517.496 239.988L576.441 268.493C577.371 269.024 576.897 276.287 576.732 276.714C576.503 277.305 576.08 277.834 575.464 278.199L502.276 321.541C500.248 322.742 497.733 322.763 495.686 321.595Z" fill="url(#paint0_linear_313_186)"/>
<path d="M495.686 321.381L438.399 288.725C437.669 288.31 437.219 287.65 437.048 286.932C436.971 286.609 436.505 279.787 437.327 279.3L512.685 239.815C514.165 238.94 516.001 238.924 517.496 239.775L576.441 268.28C577.371 268.811 576.897 276.073 576.732 276.5C576.503 277.091 576.08 277.62 575.464 277.986L502.276 321.327C500.248 322.528 497.733 322.549 495.686 321.381Z" fill="url(#paint1_linear_313_186)"/>
<path d="M495.686 315.021L438.399 282.365C436.511 281.29 436.49 278.577 438.358 277.47L512.685 233.455C514.165 232.58 516.001 232.564 517.496 233.415L575.422 266.434C577.423 267.575 577.446 270.452 575.464 271.626L502.276 314.967C500.248 316.168 497.733 316.189 495.686 315.021Z" fill="#A4D4ED"/>
<path d="M438.399 282.225L495.686 314.881C497.733 316.047 500.25 316.028 502.276 314.827L575.464 271.485C576.43 270.914 576.911 269.936 576.926 268.953C576.957 269.983 576.476 271.027 575.464 271.628L502.276 314.969C500.248 316.17 497.733 316.191 495.686 315.023L438.399 282.367C437.431 281.815 436.961 280.832 436.979 279.856C437.007 280.784 437.477 281.702 438.399 282.227V282.225Z" fill="white"/>
<path d="M505.846 287.7L506.381 288.021L528.006 275.536L541.779 283.52L542.316 283.226L528.006 274.918L505.846 287.7Z" fill="url(#paint2_linear_313_186)"/>
<path d="M506.381 288.021L520.155 296.007L541.779 283.52L528.006 275.536L506.381 288.021Z" fill="url(#paint3_linear_313_186)"/>
<path d="M511.927 243.242L515.3 241.283L518.993 243.456L515.618 245.415L511.927 243.242Z" fill="url(#paint4_linear_313_186)"/>
<path d="M514.65 247.703L520.467 244.324L524.16 246.496L518.34 249.875L514.65 247.703Z" fill="url(#paint5_linear_313_186)"/>
<path d="M507.051 246.075L510.424 244.116L514.115 246.288L510.741 248.247L507.051 246.075Z" fill="url(#paint6_linear_313_186)"/>
<path d="M502.172 248.907L505.548 246.948L509.238 249.119L505.865 251.08L502.172 248.907Z" fill="url(#paint7_linear_313_186)"/>
<path d="M497.296 251.738L500.67 249.779L504.362 251.952L500.987 253.911L497.296 251.738Z" fill="url(#paint8_linear_313_186)"/>
<path d="M492.42 254.571L495.793 252.612L499.484 254.784L496.111 256.743L492.42 254.571Z" fill="url(#paint9_linear_313_186)"/>
<path d="M487.542 257.403L490.915 255.444L494.608 257.617L491.235 259.576L487.542 257.403Z" fill="url(#paint10_linear_313_186)"/>
<path d="M482.666 260.236L486.039 258.277L489.73 260.448L486.356 262.408L482.666 260.236Z" fill="url(#paint11_linear_313_186)"/>
<path d="M477.789 263.067L481.163 261.108L484.854 263.28L481.48 265.239L477.789 263.067Z" fill="url(#paint12_linear_313_186)"/>
<path d="M472.911 265.899L476.285 263.94L479.977 266.113L476.604 268.072L472.911 265.899Z" fill="url(#paint13_linear_313_186)"/>
<path d="M468.035 268.732L471.408 266.773L475.099 268.945L471.726 270.904L468.035 268.732Z" fill="url(#paint14_linear_313_186)"/>
<path d="M463.157 271.564L466.532 269.605L470.223 271.776L466.85 273.737L463.157 271.564Z" fill="url(#paint15_linear_313_186)"/>
<path d="M458.281 274.395L461.654 272.436L465.347 274.609L461.972 276.568L458.281 274.395Z" fill="url(#paint16_linear_313_186)"/>
<path d="M456.778 275.269L460.469 277.441L455.009 280.611L451.318 278.44L456.778 275.269Z" fill="url(#paint17_linear_313_186)"/>
<path d="M510.131 250.326L513.505 248.367L517.197 250.539L513.822 252.498L510.131 250.326Z" fill="url(#paint18_linear_313_186)"/>
<path d="M505.255 253.158L508.629 251.199L512.319 253.372L508.946 255.331L505.255 253.158Z" fill="url(#paint19_linear_313_186)"/>
<path d="M500.377 255.991L503.752 254.032L507.443 256.205L504.07 258.163L500.377 255.991Z" fill="url(#paint20_linear_313_186)"/>
<path d="M495.501 258.823L498.874 256.864L502.567 259.037L499.192 260.996L495.501 258.823Z" fill="url(#paint21_linear_313_186)"/>
<path d="M490.625 261.654L493.998 259.695L497.689 261.868L494.315 263.827L490.625 261.654Z" fill="url(#paint22_linear_313_186)"/>
<path d="M485.746 264.487L489.12 262.528L492.813 264.7L489.439 266.659L485.746 264.487Z" fill="url(#paint23_linear_313_186)"/>
<path d="M480.87 267.319L484.244 265.36L487.934 267.533L484.561 269.492L480.87 267.319Z" fill="url(#paint24_linear_313_186)"/>
<path d="M475.994 270.152L479.367 268.193L483.058 270.366L479.685 272.324L475.994 270.152Z" fill="url(#paint25_linear_313_186)"/>
<path d="M471.116 272.983L474.489 271.024L478.182 273.196L474.809 275.155L471.116 272.983Z" fill="url(#paint26_linear_313_186)"/>
<path d="M466.24 275.815L469.613 273.856L473.304 276.029L469.93 277.988L466.24 275.815Z" fill="url(#paint27_linear_313_186)"/>
<path d="M461.363 278.648L464.737 276.689L468.428 278.861L465.054 280.82L461.363 278.648Z" fill="url(#paint28_linear_313_186)"/>
<path d="M463.551 281.694L460.176 283.653L456.485 281.48L459.859 279.521L463.551 281.694Z" fill="url(#paint29_linear_313_186)"/>
<path d="M539.66 255.62L533.843 258.997L530.152 256.824L535.969 253.447L539.66 255.62Z" fill="url(#paint30_linear_313_186)"/>
<path d="M532.698 259.663L529.325 261.621L525.634 259.449L529.007 257.49L532.698 259.663Z" fill="url(#paint31_linear_313_186)"/>
<path d="M527.822 262.493L524.448 264.454L520.756 262.281L524.129 260.322L527.822 262.493Z" fill="url(#paint32_linear_313_186)"/>
<path d="M499.746 274.482L501.249 273.61L504.622 271.651L506.125 270.777L509.498 268.818L511.003 267.945L514.376 265.986L519.253 263.153L522.943 265.326L518.067 268.158L514.694 270.117L513.191 270.991L509.816 272.95L508.313 273.822L504.94 275.782L503.437 276.654L501.749 277.634L500.063 278.613L496.371 276.441L498.058 275.461L499.746 274.482Z" fill="url(#paint33_linear_313_186)"/>
<path d="M498.56 279.487L495.185 281.446L491.494 279.273L494.868 277.314L498.56 279.487Z" fill="url(#paint34_linear_313_186)"/>
<path d="M493.682 282.32L490.309 284.278L486.618 282.106L489.991 280.147L493.682 282.32Z" fill="url(#paint35_linear_313_186)"/>
<path d="M488.806 285.15L485.433 287.111L481.74 284.938L485.113 282.979L488.806 285.15Z" fill="url(#paint36_linear_313_186)"/>
<path d="M483.928 287.983L480.555 289.942L476.864 287.769L480.237 285.81L483.928 287.983Z" fill="url(#paint37_linear_313_186)"/>
<path d="M479.052 290.815L475.678 292.774L471.988 290.602L475.361 288.643L479.052 290.815Z" fill="url(#paint38_linear_313_186)"/>
<path d="M518.148 251.713L525.636 247.364L529.326 249.537L521.841 253.884L518.148 251.713Z" fill="url(#paint39_linear_313_186)"/>
<path d="M513.63 254.336L517.003 252.377L520.696 254.55L517.323 256.508L513.63 254.336Z" fill="url(#paint40_linear_313_186)"/>
<path d="M508.754 257.169L512.127 255.21L515.818 257.382L512.444 259.341L508.754 257.169Z" fill="url(#paint41_linear_313_186)"/>
<path d="M503.877 260.001L507.251 258.042L510.942 260.213L507.568 262.172L503.877 260.001Z" fill="url(#paint42_linear_313_186)"/>
<path d="M498.999 262.832L502.373 260.873L506.065 263.045L502.69 265.004L498.999 262.832Z" fill="url(#paint43_linear_313_186)"/>
<path d="M494.123 265.665L497.496 263.706L501.187 265.878L497.814 267.837L494.123 265.665Z" fill="url(#paint44_linear_313_186)"/>
<path d="M489.245 268.497L492.62 266.538L496.311 268.711L492.938 270.67L489.245 268.497Z" fill="url(#paint45_linear_313_186)"/>
<path d="M484.369 271.33L487.742 269.371L491.435 271.541L488.06 273.5L484.369 271.33Z" fill="url(#paint46_linear_313_186)"/>
<path d="M479.492 274.16L482.866 272.201L486.557 274.374L483.183 276.333L479.492 274.16Z" fill="url(#paint47_linear_313_186)"/>
<path d="M474.614 276.993L477.99 275.034L481.68 277.206L478.307 279.165L474.614 276.993Z" fill="url(#paint48_linear_313_186)"/>
<path d="M469.738 279.825L473.111 277.866L476.802 280.039L473.429 281.998L469.738 279.825Z" fill="url(#paint49_linear_313_186)"/>
<path d="M471.926 282.87L465.345 286.693L461.652 284.521L468.235 280.699L471.926 282.87Z" fill="url(#paint50_linear_313_186)"/>
<path d="M522.291 255.348L530.802 250.406L534.493 252.577L525.982 257.521L522.291 255.348Z" fill="url(#paint51_linear_313_186)"/>
<path d="M517.773 257.971L521.146 256.012L524.839 258.185L521.464 260.144L517.773 257.971Z" fill="url(#paint52_linear_313_186)"/>
<path d="M512.897 260.804L516.27 258.845L519.961 261.017L516.587 262.976L512.897 260.804Z" fill="url(#paint53_linear_313_186)"/>
<path d="M508.018 263.636L511.392 261.677L515.085 263.85L511.711 265.809L508.018 263.636Z" fill="url(#paint54_linear_313_186)"/>
<path d="M503.142 266.469L506.516 264.51L510.206 266.68L506.833 268.641L503.142 266.469Z" fill="url(#paint55_linear_313_186)"/>
<path d="M498.266 269.299L501.639 267.34L505.33 269.513L501.957 271.472L498.266 269.299Z" fill="url(#paint56_linear_313_186)"/>
<path d="M493.388 272.132L496.761 270.173L500.454 272.346L497.081 274.304L493.388 272.132Z" fill="url(#paint57_linear_313_186)"/>
<path d="M488.512 274.965L491.885 273.006L495.576 275.178L492.203 277.137L488.512 274.965Z" fill="url(#paint58_linear_313_186)"/>
<path d="M483.635 277.797L487.009 275.838L490.7 278.009L487.326 279.97L483.635 277.797Z" fill="url(#paint59_linear_313_186)"/>
<path d="M478.757 280.628L482.131 278.669L485.823 280.842L482.448 282.8L478.757 280.628Z" fill="url(#paint60_linear_313_186)"/>
<path d="M480.945 283.674L470.512 289.734L466.819 287.561L477.254 281.501L480.945 283.674Z" fill="url(#paint61_linear_313_186)"/>
<path d="M506.496 231.679L436.578 277.984C435.603 278.563 429.88 274.905 429.635 274.676C429.031 274.112 428.639 273.308 428.639 272.365V197.699C428.639 194.898 430.114 192.302 432.524 190.87L504.387 148.171C505.342 147.604 506.402 147.561 507.316 147.896C507.574 147.991 513.485 150.146 513.485 151.383L509.573 226.272C509.573 228.49 508.405 230.544 506.496 231.677V231.679Z" fill="url(#paint62_linear_313_186)"/>
<path d="M511.513 234.186L438.445 277.601C436.33 278.857 433.653 277.333 433.653 274.874V200.209C433.653 197.407 435.129 194.811 437.538 193.379L509.402 150.681C511.69 149.32 514.588 150.969 514.588 153.633V228.781C514.588 231 513.42 233.053 511.511 234.186H511.513Z" fill="url(#paint63_linear_313_186)"/>
<path d="M436.83 271.969C436.984 271.969 437.134 271.926 437.281 271.84L510.349 228.425C511.561 227.705 512.312 226.385 512.312 224.977V153.633C512.312 152.917 511.709 152.474 511.149 152.474C510.951 152.474 510.755 152.53 510.568 152.64L438.705 195.338C436.996 196.354 435.934 198.221 435.934 200.209V271.072C435.934 271.326 436.022 271.539 436.197 271.709C436.37 271.874 436.599 271.969 436.83 271.969Z" fill="#10141E"/>
<path opacity="0.51" d="M437.538 193.379L509.402 150.681C510.572 149.986 511.896 150.084 512.916 150.694C511.933 150.206 510.724 150.159 509.645 150.8L437.781 193.499C435.372 194.93 433.896 197.524 433.896 200.328V274.994C433.896 276.192 434.538 277.162 435.435 277.703C434.413 277.201 433.653 276.177 433.653 274.872V200.207C433.653 197.405 435.129 194.809 437.538 193.378V193.379Z" fill="url(#paint64_linear_313_186)"/>
<path d="M446.475 272.807L448.061 273.729L453.104 270.818L451.519 269.896L446.475 272.807Z" fill="#302A2A"/>
<path d="M503.4 239.053L504.986 239.975L510.031 237.061L508.446 236.14L503.4 239.053Z" fill="#302A2A"/>
<path d="M446.475 272.673L448.061 273.595L453.104 270.681L451.519 269.759L446.475 272.673Z" fill="url(#paint65_linear_313_186)"/>
<path d="M503.4 238.974L504.986 239.896L510.031 236.983L508.446 236.061L503.4 238.974Z" fill="url(#paint66_linear_313_186)"/>
<path d="M469.005 185.166L467.712 185.94V184.884L469.005 184.11V185.166Z" fill="#CDD8D4"/>
<path d="M469.005 187.741L467.712 188.515V187.458L469.005 186.685V187.741Z" fill="#CDD8D4"/>
<path d="M469.005 190.316L467.712 191.089V190.031L469.005 189.258V190.316Z" fill="#CDD8D4"/>
<path d="M469.005 192.889L467.712 193.662V192.606L469.005 191.832V192.889Z" fill="#CDD8D4"/>
<path d="M469.005 195.464L467.712 196.237V195.181L469.005 194.405V195.464Z" fill="#CDD8D4"/>
<path d="M469.005 198.036L467.712 198.812V197.753L469.005 196.98V198.036Z" fill="#CDD8D4"/>
<path d="M469.005 200.611L467.712 201.384V200.328L469.005 199.554V200.611Z" fill="#CDD8D4"/>
<path d="M469.005 203.186L467.712 203.959V202.901L469.005 202.127V203.186Z" fill="#CDD8D4"/>
<path d="M469.005 205.759L467.712 206.532V205.476L469.005 204.702V205.759Z" fill="#CDD8D4"/>
<path d="M469.005 208.333L467.712 209.107V208.05L469.005 207.277V208.333Z" fill="#CDD8D4"/>
<path d="M469.005 210.908L467.712 211.682V210.623L469.005 209.85V210.908Z" fill="#CDD8D4"/>
<path d="M469.005 213.481L467.712 214.254V213.198L469.005 212.424V213.481Z" fill="#CDD8D4"/>
<path d="M469.005 216.055L467.712 216.829V215.773L469.005 214.997V216.055Z" fill="#CDD8D4"/>
<path d="M469.005 218.628L467.712 219.402V218.345L469.005 217.572V218.628Z" fill="#CDD8D4"/>
<path d="M469.005 221.203L467.712 221.977V220.92L469.005 220.147V221.203Z" fill="#CDD8D4"/>
<path d="M469.005 223.778L467.712 224.551V223.493L469.005 222.719V223.778Z" fill="#CDD8D4"/>
<path d="M469.005 226.351L467.712 227.124V226.068L469.005 225.294V226.351Z" fill="#CDD8D4"/>
<path d="M469.005 228.925L467.712 229.699V228.642L469.005 227.869V228.925Z" fill="#CDD8D4"/>
<path d="M469.005 231.498L467.712 232.274V231.215L469.005 230.442V231.498Z" fill="#CDD8D4"/>
<path d="M469.005 234.073L467.712 234.846V233.79L469.005 233.016V234.073Z" fill="#CDD8D4"/>
<path d="M469.005 236.648L467.712 237.421V236.365L469.005 235.589V236.648Z" fill="#CDD8D4"/>
<path d="M469.005 239.22L467.712 239.994V238.937L469.005 238.164V239.22Z" fill="#CDD8D4"/>
<path d="M469.005 241.795L467.712 242.569V241.512L469.005 240.739V241.795Z" fill="#CDD8D4"/>
<path d="M469.005 244.37L467.712 245.143V244.085L469.005 243.312V244.37Z" fill="#CDD8D4"/>
<path d="M469.005 246.943L467.712 247.716V246.66L469.005 245.886V246.943Z" fill="#CDD8D4"/>
<path d="M442.823 200.844L441.53 201.617V200.561L442.823 199.787V200.844Z" fill="#CDD8D4"/>
<path d="M448.478 197.457L443.948 200.17V199.112L448.478 196.401V197.457Z" fill="#998359"/>
<path d="M454.038 194.13L449.508 196.841V195.785L454.038 193.072V194.13Z" fill="#998359"/>
<path d="M459.597 190.801L455.067 193.512V192.456L459.597 189.744V190.801Z" fill="#998359"/>
<path d="M442.823 203.418L441.53 204.192V203.136L442.823 202.36V203.418Z" fill="#CDD8D4"/>
<path d="M442.823 205.991L441.53 206.767V205.709L442.823 204.935V205.991Z" fill="#CDD8D4"/>
<path d="M447.624 203.116L444.199 205.168V204.111L447.624 202.06V203.116Z" fill="#CDD8D4"/>
<path d="M451.578 200.75L448.153 202.801V201.744L451.578 199.693V200.75Z" fill="#CDD8D4"/>
<path d="M455.533 198.383L452.106 200.434V199.376L455.533 197.324V198.383Z" fill="#247489"/>
<path d="M442.823 208.566L441.53 209.34V208.283L442.823 207.51V208.566Z" fill="#CDD8D4"/>
<path d="M449.425 204.612L443.723 208.027V206.971L449.425 203.555V204.612Z" fill="#247489"/>
<path d="M455.844 200.769L450.143 204.182V203.126L455.844 199.71V200.769Z" fill="#CDD8D4"/>
<path d="M462.266 196.924L456.562 200.34V199.281L462.266 195.868V196.924Z" fill="#CDD8D4"/>
<path d="M442.823 211.141L441.53 211.914V210.856L442.823 210.083V211.141Z" fill="#CDD8D4"/>
<path d="M447.918 208.089L443.723 210.602V209.544L447.918 207.032V208.089Z" fill="#247489"/>
<path d="M442.823 213.714L441.53 214.487V213.431L442.823 212.657V213.714Z" fill="#CDD8D4"/>
<path d="M445.994 211.816L444.701 212.59V211.532L445.994 210.758V211.816Z" fill="#CDD8D4"/>
<path d="M442.823 216.288L441.53 217.062V216.005L442.823 215.232V216.288Z" fill="#CDD8D4"/>
<path d="M445.994 214.389L444.701 215.163V214.106L445.994 213.333V214.389Z" fill="#CDD8D4"/>
<path d="M442.823 218.861L441.53 219.637V218.578L442.823 217.805V218.861Z" fill="#CDD8D4"/>
<path d="M445.994 216.964L444.701 217.737V216.681L445.994 215.906V216.964Z" fill="#CDD8D4"/>
<path d="M451.578 208.472L446.423 211.558V210.5L451.578 207.413V208.472Z" fill="#247489"/>
<path d="M453.243 210.05L446.423 214.131V213.075L453.243 208.991V210.05Z" fill="#247489"/>
<path d="M454.045 212.143L446.423 216.706V215.649L454.045 211.085V212.143Z" fill="#247489"/>
<path d="M442.823 221.436L441.53 222.209V221.153L442.823 220.379V221.436Z" fill="#CDD8D4"/>
<path d="M447.716 218.505L446.423 219.281V218.222L447.716 217.449V218.505Z" fill="#247489"/>
<path d="M456 213.544L448.37 218.114V217.058L456 212.488V213.544Z" fill="#247489"/>
<path d="M442.823 224.011L441.53 224.784V223.728L442.823 222.952V224.011Z" fill="#CDD8D4"/>
<path d="M442.823 226.583L441.53 227.357V226.301L442.823 225.527V226.583Z" fill="#CDD8D4"/>
<path d="M442.823 229.158L441.53 229.932V228.875L442.823 228.102V229.158Z" fill="#CDD8D4"/>
<path d="M442.823 231.733L441.53 232.507V231.448L442.823 230.675V231.733Z" fill="#CDD8D4"/>
<path d="M442.823 234.306L441.53 235.079V234.023L442.823 233.249V234.306Z" fill="#CDD8D4"/>
<path d="M442.823 236.881L441.53 237.654V236.598L442.823 235.824V236.881Z" fill="#CDD8D4"/>
<path d="M442.823 239.453L441.53 240.229V239.17L442.823 238.397V239.453Z" fill="#CDD8D4"/>
<path d="M442.823 242.028L441.53 242.802V241.745L442.823 240.972V242.028Z" fill="#CDD8D4"/>
<path d="M453.597 217.558L448.501 220.61V219.554L453.597 216.502V217.558Z" fill="#247489"/>
<path d="M459.36 214.108L454.265 217.158V216.102L459.36 213.052V214.108Z" fill="#CDD8D4"/>
<path d="M465.124 210.658L460.028 213.708V212.651L465.124 209.599V210.658Z" fill="#CDD8D4"/>
<path d="M452.825 220.595L448.501 223.183V222.127L452.825 219.537V220.595Z" fill="#CDD8D4"/>
<path d="M457.726 217.66L453.401 220.251V219.192L457.726 216.604V217.66Z" fill="#247489"/>
<path d="M462.626 214.726L458.302 217.316V216.258L462.626 213.669V214.726Z" fill="#CDD8D4"/>
<path d="M453.693 222.65L448.501 225.758V224.701L453.693 221.592V222.65Z" fill="#924443"/>
<path d="M459.576 219.127L454.384 222.236V221.178L459.576 218.07V219.127Z" fill="#CDD8D4"/>
<path d="M452.825 225.743L448.501 228.333V227.274L452.825 224.686V225.743Z" fill="#CDD8D4"/>
<path d="M458.017 222.635L453.693 225.223V224.167L458.017 221.576V222.635Z" fill="#CDD8D4"/>
<path d="M452.825 228.317L448.501 230.905V229.849L452.825 227.259V228.317Z" fill="#247489"/>
<path d="M457.609 225.452L453.285 228.042V226.986L457.609 224.396V225.452Z" fill="#CDD8D4"/>
<path d="M462.393 222.589L458.069 225.177V224.12L462.393 221.53V222.589Z" fill="#CDD8D4"/>
<path d="M451.971 231.402L448.501 233.48V232.424L451.971 230.345V231.402Z" fill="#CDD8D4"/>
<path d="M455.904 229.048L452.433 231.125V230.068L455.904 227.99V229.048Z" fill="#247489"/>
<path d="M459.836 226.693L456.366 228.771V227.713L459.836 225.637V226.693Z" fill="#CDD8D4"/>
<path d="M463.769 224.338L460.297 226.416V225.36L463.769 223.281V224.338Z" fill="#CDD8D4"/>
<path d="M452.825 233.465L448.501 236.055V234.997L452.825 232.408V233.465Z" fill="#247489"/>
<path d="M457.609 230.6L453.285 233.19V232.133L457.609 229.543V230.6Z" fill="#CDD8D4"/>
<path d="M462.393 227.736L458.069 230.326V229.268L462.393 226.68V227.736Z" fill="#CDD8D4"/>
<path d="M452.825 236.04L448.501 238.628V237.571L452.825 234.981V236.04Z" fill="#247489"/>
<path d="M457.726 233.105L453.401 235.693V234.637L457.726 232.047V233.105Z" fill="#CDD8D4"/>
<path d="M442.823 244.603L441.53 245.376V244.318L442.823 243.544V244.603Z" fill="#CDD8D4"/>
<path d="M442.823 247.176L441.53 247.949V246.893L442.823 246.119V247.176Z" fill="#CDD8D4"/>
<path d="M442.823 249.75L441.53 250.524V249.467L442.823 248.694V249.75Z" fill="#CDD8D4"/>
<path d="M442.823 252.325L441.53 253.099V252.04L442.823 251.267V252.325Z" fill="#CDD8D4"/>
<path d="M442.823 254.898L441.53 255.671V254.615L442.823 253.841V254.898Z" fill="#CDD8D4"/>
<path d="M445.994 242.703L444.701 243.477V242.421L445.994 241.647V242.703Z" fill="#CDD8D4"/>
<path d="M445.994 245.278L444.701 246.052V244.993L445.994 244.22V245.278Z" fill="#CDD8D4"/>
<path d="M445.994 247.851L444.701 248.625V247.568L445.994 246.795V247.851Z" fill="#CDD8D4"/>
<path d="M445.994 250.426L444.701 251.199V250.143L445.994 249.369V250.426Z" fill="#CDD8D4"/>
<path d="M445.994 253.001L444.701 253.774V252.716L445.994 251.942V253.001Z" fill="#CDD8D4"/>
<path d="M452.964 238.53L446.689 242.288V241.229L452.964 237.473V238.53Z" fill="#247489"/>
<path d="M450.662 242.482L446.689 244.861V243.804L450.662 241.424V242.482Z" fill="#247489"/>
<path d="M452.048 244.226L446.689 247.435V246.379L452.048 243.169V244.226Z" fill="#247489"/>
<path d="M451.043 247.402L446.689 250.01V248.952L451.043 246.344V247.402Z" fill="#247489"/>
<path d="M449.548 250.872L446.689 252.583V251.526L449.548 249.814V250.872Z" fill="#247489"/>
<path d="M442.823 257.473L441.53 258.246V257.19L442.823 256.414V257.473Z" fill="#CDD8D4"/>
<path d="M442.823 260.045L441.53 260.821V259.762L442.823 258.989V260.045Z" fill="#CDD8D4"/>
<path d="M442.823 262.62L441.53 263.394V262.337L442.823 261.564V262.62Z" fill="#CDD8D4"/>
<path d="M444.701 256.347L443.41 257.12V256.064L444.701 255.29V256.347Z" fill="#CDD8D4"/>
<path d="M444.701 258.921L443.41 259.695V258.639L444.701 257.865V258.921Z" fill="#CDD8D4"/>
<path d="M444.701 261.494L443.41 262.27V261.211L444.701 260.438V261.494Z" fill="#CDD8D4"/>
<path d="M450.53 252.858L445.642 255.785V254.727L450.53 251.8V252.858Z" fill="#247489"/>
<path d="M448.988 256.355L445.642 258.358V257.301L448.988 255.296V256.355Z" fill="#247489"/>
<path d="M448.086 259.468L445.642 260.933V259.876L448.086 258.412V259.468Z" fill="#247489"/>
<path d="M474.799 181.697L471.343 183.767V182.711L474.799 180.64V181.697Z" fill="#9A7B9B"/>
<path d="M480.857 178.071L475.213 181.451V180.392L480.857 177.013V178.071Z" fill="#247489"/>
<path d="M478.53 182.037L471.343 186.342V185.284L478.53 180.981V182.037Z" fill="#924443"/>
<path d="M487.113 176.898L479.925 181.202V180.146L487.113 175.841V176.898Z" fill="#998359"/>
<path d="M495.697 171.758L488.508 176.062V175.006L495.697 170.701V171.758Z" fill="url(#paint67_linear_313_186)"/>
<path d="M504.28 166.62L497.092 170.923V169.866L504.28 165.561V166.62Z" fill="url(#paint68_linear_313_186)"/>
<path d="M474.616 186.954L471.343 188.915V187.859L474.616 185.898V186.954Z" fill="#9A7B9B"/>
<path d="M483.52 181.624L475.492 186.431V185.374L483.52 180.567V181.624Z" fill="#924443"/>
<path d="M492.522 176.234L484.496 181.041V179.982L492.522 175.175V176.234Z" fill="#CDD8D4"/>
<path d="M482.025 185.093L474.289 189.725V188.667L482.025 184.037V185.093Z" fill="#247489"/>
<path d="M490.565 179.98L482.829 184.61V183.554L490.565 178.922V179.98Z" fill="#998359"/>
<path d="M499.105 174.866L491.369 179.497V178.441L499.105 173.809V174.866Z" fill="#CDD8D4"/>
<path d="M507.645 169.753L499.909 174.384V173.326L507.645 168.696V169.753Z" fill="#247489"/>
<path d="M477.114 190.608L472.757 193.216V192.159L477.114 189.55V190.608Z" fill="#9A7B9B"/>
<path d="M478.792 192.177L473.835 195.144V194.088L478.792 191.12V192.177Z" fill="#247489"/>
<path d="M484.667 188.659L479.708 191.628V190.572L484.667 187.603V188.659Z" fill="#247489"/>
<path d="M475.967 196.443L472.842 198.313V197.257L475.967 195.386V196.443Z" fill="#9A7B9B"/>
<path d="M474.024 200.18L471.343 201.785V200.728L474.024 199.122V200.18Z" fill="#9A7B9B"/>
<path d="M475.282 204.575L471.343 206.934V205.876L475.282 203.517V204.575Z" fill="#9A7B9B"/>
<path d="M479.914 201.802L475.975 204.159V203.103L479.914 200.744V201.802Z" fill="#247489"/>
<path d="M478.742 205.077L472.665 208.714V207.658L478.742 204.021V205.077Z" fill="#924443"/>
<path d="M485.448 201.061L479.373 204.698V203.642L485.448 200.005V201.061Z" fill="#998359"/>
<path d="M492.156 197.045L486.079 200.682V199.626L492.156 195.989V197.045Z" fill="#CDD8D4"/>
<path d="M498.863 193.029L492.788 196.666V195.61L498.863 191.973V193.029Z" fill="#247489"/>
<path d="M505.571 189.013L499.494 192.65V191.593L505.571 187.957V189.013Z" fill="#CDD8D4"/>
<path d="M474.886 209.959L471.343 212.082V211.025L474.886 208.903V209.959Z" fill="#9A7B9B"/>
<path d="M474.362 215.423L471.343 217.229V216.173L474.362 214.364V215.423Z" fill="#9A7B9B"/>
<path d="M480.131 211.966L474.886 215.107V214.05L480.131 210.91V211.966Z" fill="#247489"/>
<path d="M479.373 214.995L472.665 219.011V217.955L479.373 213.937V214.995Z" fill="#924443"/>
<path d="M486.839 210.525L480.131 214.541V213.483L486.839 209.467V210.525Z" fill="#998359"/>
<path d="M494.306 206.053L487.598 210.069V209.013L494.306 204.996V206.053Z" fill="#CDD8D4"/>
<path d="M501.772 201.583L495.064 205.599V204.542L501.772 200.526V201.583Z" fill="#CDD8D4"/>
<path d="M509.238 197.113L502.53 201.129V200.072L509.238 196.056V197.113Z" fill="#247489"/>
<path d="M474.245 220.639L472.954 221.413V220.356L474.245 219.583V220.639Z" fill="#9A7B9B"/>
<path d="M480.562 216.856L475.157 220.093V219.036L480.562 215.8V216.856Z" fill="#924443"/>
<path d="M487.061 212.965L481.655 216.202V215.145L487.061 211.909V212.965Z" fill="#247489"/>
<path d="M493.559 209.074L488.154 212.311V211.254L493.559 208.018V209.074Z" fill="#CDD8D4"/>
<path d="M500.058 205.183L494.652 208.42V207.363L500.058 204.127V205.183Z" fill="#CDD8D4"/>
<path d="M482.146 218.482L474.512 223.054V221.996L482.146 217.426V218.482Z" fill="#247489"/>
<path d="M490.655 213.386L483.022 217.959V216.9L490.655 212.33V213.386Z" fill="#998359"/>
<path d="M499.167 208.291L491.533 212.861V211.805L499.167 207.234V208.291Z" fill="#CDD8D4"/>
<path d="M507.678 203.195L500.044 207.766V206.709L507.678 202.137V203.195Z" fill="#924443"/>
<path d="M475.784 224.865L472.954 226.56V225.504L475.784 223.809V224.865Z" fill="#9A7B9B"/>
<path d="M478.909 225.569L474.239 228.365V227.307L478.909 224.511V225.569Z" fill="#247489"/>
<path d="M484.276 222.354L479.608 225.15V224.093L484.276 221.297V222.354Z" fill="#998359"/>
<path d="M475.363 230.267L472.954 231.71V230.651L475.363 229.208V230.267Z" fill="#9A7B9B"/>
<path d="M473.925 233.701L471.343 235.247V234.19L473.925 232.643V233.701Z" fill="#9A7B9B"/>
<path d="M476.723 237.173L471.343 240.396V239.338L476.723 236.117V237.173Z" fill="#998359"/>
<path d="M482.823 233.521L477.441 236.744V235.687L482.823 232.464V233.521Z" fill="#247489"/>
<path d="M472.634 242.195L471.343 242.969V241.913L472.634 241.139V242.195Z" fill="#9A7B9B"/>
<path d="M476.3 242.575L471.343 245.544V244.487L476.3 241.518V242.575Z" fill="#9A7B9B"/>
<path d="M482.612 238.795L477.653 241.764V240.708L482.612 237.739V238.795Z" fill="#247489"/>
<path d="M488.922 235.018L483.965 237.985V236.929L488.922 233.959V235.018Z" fill="#998359"/>
<path d="M495.233 231.238L490.274 234.208V233.149L495.233 230.182V231.238Z" fill="#924443"/>
<path d="M321.158 229.091V244.391H321.223C321.45 244.391 321.675 244.391 321.902 244.358C322.16 244.358 322.387 244.326 322.614 244.293C322.842 244.26 323.099 244.197 323.326 244.164C323.392 244.164 323.455 244.131 323.554 244.099H323.65C323.779 244.066 323.94 244.033 324.069 243.97C324.36 243.904 324.65 243.808 324.943 243.679C325.299 243.55 325.622 243.388 325.945 243.194L467.602 161.699C468.993 160.891 469.703 159.823 469.703 158.788V143.455C469.703 144.523 468.991 145.589 467.602 146.364L325.945 227.892C325.266 228.281 324.491 228.571 323.65 228.766C323.617 228.766 323.584 228.766 323.554 228.798C322.778 228.993 321.97 229.089 321.16 229.089L321.158 229.091Z" fill="#232538"/>
<path d="M183.998 149.184V164.58C183.998 164.709 183.998 164.838 184.031 164.969C184.064 165.065 184.096 165.163 184.096 165.259C184.129 165.259 184.129 165.292 184.129 165.325C184.129 165.357 184.129 165.357 184.162 165.39C184.195 165.519 184.258 165.648 184.356 165.779C184.389 165.875 184.422 165.908 184.485 165.973C184.485 166.039 184.518 166.069 184.551 166.102C184.583 166.135 184.616 166.168 184.616 166.231C184.745 166.393 184.907 166.554 185.068 166.683C185.09 166.705 185.112 166.716 185.134 166.716C185.262 166.845 185.457 166.974 185.619 167.105C185.747 167.17 185.846 167.266 185.974 167.363C186.007 167.363 186.04 167.395 186.071 167.428L315.856 243.196C316.341 243.487 316.859 243.714 317.409 243.875C317.636 243.941 317.829 243.972 318.056 244.037C318.152 244.07 318.283 244.102 318.379 244.133C318.508 244.166 318.637 244.199 318.768 244.229C319.091 244.262 319.382 244.326 319.674 244.358C319.965 244.358 320.224 244.391 320.482 244.391H321.162V229.091H320.871C320.03 229.091 319.189 228.962 318.381 228.8C318.285 228.768 318.154 228.735 318.058 228.704C317.249 228.51 316.505 228.252 315.858 227.863L186.073 152.095C185.878 151.999 185.749 151.868 185.62 151.772C185.459 151.643 185.264 151.545 185.135 151.416C184.908 151.221 184.716 150.996 184.554 150.769C184.522 150.737 184.489 150.704 184.489 150.673C184.327 150.446 184.231 150.221 184.133 149.994C184.133 149.972 184.122 149.95 184.1 149.928C184.035 149.67 184.004 149.443 184.004 149.184H183.998Z" fill="#232538"/>
<path d="M321.158 228.958V244.258H321.223C321.45 244.258 321.675 244.258 321.902 244.225C322.16 244.225 322.387 244.193 322.614 244.16C322.842 244.127 323.099 244.064 323.326 244.031C323.392 244.031 323.455 243.998 323.554 243.966H323.65C323.779 243.933 323.94 243.9 324.069 243.837C324.36 243.771 324.65 243.675 324.943 243.546C325.299 243.417 325.622 243.256 325.945 243.061L467.602 161.566C468.993 160.758 469.703 159.69 469.703 158.655V143.322C469.703 144.39 468.991 145.456 467.602 146.232L325.945 227.759C325.266 228.148 324.491 228.438 323.65 228.633C323.617 228.633 323.584 228.633 323.554 228.665C322.778 228.86 321.97 228.956 321.16 228.956L321.158 228.958Z" fill="url(#paint69_linear_313_186)"/>
<path d="M186.088 146.116C183.302 147.725 183.286 150.348 186.055 151.957L315.866 227.746C318.635 229.354 323.163 229.354 325.949 227.746L467.598 146.251C470.385 144.642 470.379 142.031 467.61 140.422L337.799 64.633C335.03 63.0243 330.523 63.0127 327.735 64.6214L186.086 146.116H186.088Z" fill="#A6C8ED"/>
<path d="M183.998 149.051V164.447C183.998 164.576 183.998 164.705 184.031 164.836C184.064 164.932 184.096 165.03 184.096 165.127C184.129 165.127 184.129 165.159 184.129 165.192C184.129 165.225 184.129 165.225 184.162 165.257C184.195 165.386 184.258 165.515 184.356 165.646C184.389 165.742 184.422 165.775 184.485 165.84C184.485 165.906 184.518 165.937 184.551 165.969C184.583 166.002 184.616 166.035 184.616 166.098C184.745 166.26 184.907 166.422 185.068 166.551C185.09 166.572 185.112 166.583 185.134 166.583C185.262 166.712 185.457 166.841 185.619 166.972C185.747 167.037 185.846 167.134 185.974 167.23C186.007 167.23 186.04 167.263 186.071 167.295L315.856 243.063C316.341 243.354 316.859 243.581 317.409 243.743C317.636 243.808 317.829 243.839 318.056 243.904C318.152 243.937 318.283 243.97 318.379 244C318.508 244.033 318.637 244.066 318.768 244.097C319.091 244.129 319.382 244.193 319.674 244.226C319.965 244.226 320.224 244.258 320.482 244.258H321.162V228.958H320.871C320.03 228.958 319.189 228.829 318.381 228.667C318.285 228.635 318.154 228.602 318.058 228.571C317.249 228.377 316.505 228.119 315.858 227.73L186.073 151.962C185.878 151.866 185.749 151.735 185.62 151.639C185.459 151.51 185.264 151.412 185.135 151.283C184.908 151.089 184.716 150.863 184.554 150.636C184.522 150.604 184.489 150.571 184.489 150.54C184.327 150.313 184.231 150.088 184.133 149.861C184.133 149.839 184.122 149.817 184.1 149.795C184.035 149.538 184.004 149.311 184.004 149.051H183.998Z" fill="url(#paint70_linear_313_186)"/>
<path d="M186.055 151.753L315.866 227.542C318.635 229.151 323.163 229.151 325.949 227.542L467.598 146.047C468.947 145.268 469.626 144.255 469.671 143.234C469.717 144.323 469.038 145.42 467.598 146.251L325.949 227.746C323.163 229.354 318.635 229.354 315.866 227.746L186.055 151.957C184.628 151.127 183.954 150.028 184.004 148.937C184.043 149.959 184.716 150.975 186.055 151.753Z" fill="url(#paint71_linear_313_186)"/>
<path d="M326.652 171.096L325.765 217.395L201.538 142.447L219.644 106.572L326.652 171.096Z" fill="url(#paint72_linear_313_186)"/>
<path d="M434.257 109.964L326.652 171.096L219.644 106.571L327.285 45.4379L434.257 109.964Z" fill="url(#paint73_linear_313_186)"/>
<path d="M434.258 109.962L452.148 145.6L325.765 217.395L326.652 171.096L434.258 109.962Z" fill="url(#paint74_linear_313_186)"/>
<path d="M420.146 134.99V152.44L356.188 188.534V183.127L415.694 149.538V137.493L420.146 134.99Z" fill="#BA6971"/>
<path d="M415.694 137.494V149.538L356.188 183.127V171.082L415.694 137.494Z" fill="#B53839"/>
<path d="M408.909 149.95L410.556 149.114V143.351L408.909 144.309V149.95Z" fill="white"/>
<path d="M406.391 151.374L408.039 150.538V144.773L406.391 145.733V151.374Z" fill="#FEFAF3"/>
<path d="M403.873 152.796L405.52 151.96V146.197L403.873 147.155V152.796Z" fill="#FEF5E7"/>
<path d="M401.356 154.22L403.003 153.385V147.619L401.356 148.579V154.22Z" fill="#FDEFDA"/>
<path d="M398.837 155.642L400.484 154.807V149.043L398.837 150.002V155.642Z" fill="#FDEACE"/>
<path d="M396.32 157.066L397.967 156.231V150.465L396.32 151.426V157.066Z" fill="#FCE5C2"/>
<path d="M393.801 158.488L395.448 157.655V151.889L393.801 152.848V158.488Z" fill="#FCE0B6"/>
<path d="M391.284 159.912L392.931 159.077V153.312L391.284 154.272V159.912Z" fill="#FBDAA9"/>
<path d="M388.765 161.334L390.412 160.501V154.735L388.765 155.694V161.334Z" fill="#FBD59D"/>
<path d="M386.248 162.758L387.895 161.923V156.157L386.248 157.118V162.758Z" fill="#FBD091"/>
<path d="M383.729 164.182L385.376 163.347V157.581L383.729 158.54V164.182Z" fill="#FACB85"/>
<path d="M381.212 165.604L382.859 164.769V159.005L381.212 159.964V165.604Z" fill="#FAC679"/>
<path d="M378.693 167.028L380.34 166.193V160.427L378.693 161.388V167.028Z" fill="#F9C06C"/>
<path d="M376.176 168.45L377.823 167.615V161.851L376.176 162.81V168.45Z" fill="#F9BB60"/>
<path d="M373.657 169.874L375.304 169.039V163.274L373.657 164.234V169.874Z" fill="#F8B654"/>
<path d="M371.14 171.296L372.787 170.461V164.698L371.14 165.656V171.296Z" fill="#F8B148"/>
<path d="M368.621 172.72L370.268 171.885V166.12L368.621 167.08V172.72Z" fill="#F7AB3B"/>
<path d="M366.104 174.142L367.751 173.307V167.543L366.104 168.502V174.142Z" fill="#F7A62F"/>
<path d="M363.585 175.566L365.232 174.731V168.966L363.585 169.926V175.566Z" fill="#F6A123"/>
<path d="M415.694 149.538L420.146 152.44V134.99L415.694 137.493V149.538Z" fill="#72262A"/>
<path d="M234.127 132.686V150.136L298.085 188.534V183.127L238.58 147.394V135.35L234.127 132.686Z" fill="#BA6971"/>
<path d="M238.58 135.35V147.394L298.085 183.127V171.082L238.58 135.35Z" fill="#B53839"/>
<path d="M245.365 148.052L243.717 147.157V141.392L245.365 142.412V148.052Z" fill="white"/>
<path d="M247.882 149.565L246.234 148.672V142.906L247.882 143.924V149.565Z" fill="#FEFAF3"/>
<path d="M250.401 151.079L248.753 150.184V144.421L250.401 145.439V151.079Z" fill="#FEF5E7"/>
<path d="M252.918 152.594L251.27 151.699V145.933L252.918 146.951V152.594Z" fill="#FDEFDA"/>
<path d="M255.437 154.106L253.789 153.211V147.448L255.437 148.466V154.106Z" fill="#FDEACE"/>
<path d="M257.954 155.62L256.306 154.726V148.96L257.954 149.98V155.62Z" fill="#FCE5C2"/>
<path d="M260.472 157.133L258.825 156.24V150.475L260.472 151.493V157.133Z" fill="#FCE0B6"/>
<path d="M262.989 158.647L261.342 157.753V151.989L262.989 153.007V158.647Z" fill="#FBDAA9"/>
<path d="M265.508 160.162L263.861 159.267V153.502L265.508 154.522V160.162Z" fill="#FBD59D"/>
<path d="M268.025 161.674L266.378 160.781V155.016L268.025 156.034V161.674Z" fill="#FBD091"/>
<path d="M270.544 163.189L268.897 162.294V156.531L270.544 157.548V163.189Z" fill="#FACB85"/>
<path d="M273.061 164.703L271.414 163.808V158.043L273.061 159.063V164.703Z" fill="#FAC679"/>
<path d="M275.58 166.216L273.933 165.323V159.557L275.58 160.575V166.216Z" fill="#F9C06C"/>
<path d="M278.097 167.73L276.45 166.835V161.072L278.097 162.09V167.73Z" fill="#F9BB60"/>
<path d="M280.616 169.245L278.969 168.35V162.585L280.616 163.604V169.245Z" fill="#F8B654"/>
<path d="M283.133 170.757L281.486 169.864V164.099L283.133 165.117V170.757Z" fill="#F8B148"/>
<path d="M285.652 172.272L284.005 171.377V165.613L285.652 166.631V172.272Z" fill="#F7AB3B"/>
<path d="M288.169 173.786L286.522 172.891V167.126L288.169 168.146V173.786Z" fill="#F7A62F"/>
<path d="M290.688 175.299L289.041 174.406V168.64L290.688 169.658V175.299Z" fill="#F6A123"/>
<path d="M238.58 147.394L234.127 150.136V132.686L238.58 135.35V147.394Z" fill="#72262A"/>
<path d="M326.75 130.808V139.217L240.412 87.7074V79.3308L326.75 130.808Z" fill="url(#paint75_linear_313_186)"/>
<path d="M410.935 82.433L374.931 103.127L326.75 130.808L240.412 79.331L324.629 30.9556L410.935 82.433Z" fill="url(#paint76_linear_313_186)"/>
<path d="M392.621 82.3021L386.323 85.9256L324.531 49.073L265.024 83.2489L258.725 79.4945L324.531 41.6625L392.621 82.3021Z" fill="url(#paint77_linear_313_186)"/>
<path d="M386.323 85.9256L326.848 120.101L265.024 83.2488L324.531 49.073L386.323 85.9256Z" fill="white"/>
<path d="M410.935 82.4329V90.8402L326.75 139.218V130.808L374.931 103.127L410.935 82.4329Z" fill="url(#paint78_linear_313_186)"/>
<path d="M324.531 41.6625V49.073L386.323 85.9256L392.621 82.3021L324.531 41.6625Z" fill="url(#paint79_linear_313_186)"/>
<path d="M374.931 102.673L326.75 130.354L240.8 79.1077L240.412 79.3309L326.75 130.808L374.931 103.127L410.935 82.4329L410.546 82.2L374.931 102.673Z" fill="url(#paint80_linear_313_186)"/>
<path d="M326.75 100.031V120.34L240.412 68.8318V48.5553L326.75 100.031Z" fill="url(#paint81_linear_313_186)"/>
<path d="M410.935 51.6555L374.931 72.3515L326.75 100.031L240.412 48.5554L324.629 0.178101L410.935 51.6555Z" fill="url(#paint82_linear_313_186)"/>
<path d="M392.621 51.5246L386.323 55.1481L324.531 18.2956L265.024 52.4714L258.725 48.7171L324.531 10.885L392.621 51.5246Z" fill="#B53839"/>
<path d="M386.323 55.1481L326.848 89.324L265.024 52.4714L324.531 18.2955L386.323 55.1481Z" fill="url(#paint83_linear_313_186)"/>
<path d="M410.935 51.6555V71.9648L326.75 120.34V100.031L374.931 72.3515L410.935 51.6555Z" fill="url(#paint84_linear_313_186)"/>
<path d="M324.531 10.885V18.2956L386.323 55.1481L392.621 51.5246L324.531 10.885Z" fill="#B53839"/>
<path d="M374.931 71.8954L326.75 99.5767L240.8 48.3322L240.412 48.5554L326.75 100.031L374.931 72.3515L410.935 51.6554L410.546 51.4245L374.931 71.8954Z" fill="url(#paint85_linear_313_186)"/>
<path d="M380.107 57.0762L357.308 70.1808L326.8 87.7075L272.13 55.1115L325.457 24.4802L380.107 57.0762Z" fill="#B53839"/>
<path d="M326.775 74.8374V86.2775L274.114 54.8592V43.4384L326.775 74.8374Z" fill="url(#paint86_linear_313_186)"/>
<path d="M378.121 45.33L356.161 57.9535L326.775 74.8375L274.114 43.4384L325.482 13.9329L378.121 45.33Z" fill="white"/>
<path d="M378.121 45.33V56.77L326.775 86.2775V74.8374L356.161 57.9535L378.121 45.33Z" fill="url(#paint87_linear_313_186)"/>
<path d="M356.161 57.6573L326.775 74.5412L274.366 43.2942L274.114 43.4385L326.775 74.8357L356.161 57.9536L378.121 45.3301L377.869 45.18L356.161 57.6573Z" fill="url(#paint88_linear_313_186)"/>
<path d="M334.316 34.7753L316.31 55.4425L311.021 52.3809L316.176 46.556L307.616 41.6028L297.72 44.6836L292.636 41.7413L328.053 31.1499L334.318 34.7753H334.316ZM312.127 39.9075L319.043 43.91L323.502 38.8472C324.622 37.5983 325.996 36.2821 327.15 35.1525L327.065 35.1024C325.124 35.776 322.876 36.6284 320.781 37.2731L312.127 39.9094" fill="#102056"/>
<path d="M353.746 46.0191L326.975 61.6138L322.062 58.7696L348.833 43.1769L353.746 46.0191Z" fill="#102056"/>
<path d="M334.316 34.477L316.31 55.1441L311.021 52.0825L316.176 46.2576L307.616 41.3045L297.72 44.3853L292.636 41.443L328.053 30.8516L334.318 34.477H334.316ZM312.127 39.6091L319.043 43.6117L323.502 38.5488C324.622 37.2999 325.996 35.9837 327.15 34.8541L327.065 34.8041C325.124 35.4776 322.876 36.3301 320.781 36.9747L312.127 39.6111" fill="white"/>
<path d="M353.746 45.7206L326.975 61.3153L322.062 58.4711L348.833 42.8765L353.746 45.7206Z" fill="white"/>
<path d="M326.775 61.4079V72.8479L274.114 41.4316V30.0107L326.775 61.4079Z" fill="url(#paint89_linear_313_186)"/>
<path d="M378.121 31.9023L356.161 44.5239L326.775 61.4078L274.114 30.0107L325.482 0.505127L378.121 31.9023Z" fill="url(#paint90_linear_313_186)"/>
<path d="M378.121 31.9023V43.3424L326.775 72.8479V61.4079L356.161 44.5239L378.121 31.9023Z" fill="url(#paint91_linear_313_186)"/>
<path d="M356.161 44.2294L326.775 61.1115L274.366 29.8663L274.114 30.0107L326.775 61.4078L356.161 44.5238L378.121 31.9023L377.869 31.7502L356.161 44.2294Z" fill="url(#paint92_linear_313_186)"/>
<path d="M334.316 21.3455L316.31 42.0127L311.02 38.9511L316.176 33.1262L307.616 28.173L297.72 31.2538L292.636 28.3115L328.053 17.7201L334.318 21.3455H334.316ZM312.127 26.4777L319.043 30.4802L323.502 25.4174C324.622 24.1685 325.996 22.8522 327.15 21.7227L327.065 21.6726C325.124 22.3461 322.876 23.1986 320.781 23.8433L312.127 26.4796" fill="#102056"/>
<path d="M353.746 32.5912L326.975 48.1839L322.062 45.3417L348.833 29.7471L353.746 32.5912Z" fill="#102056"/>
<path d="M334.316 21.0473L316.31 41.7144L311.02 38.6529L316.176 32.828L307.616 27.8748L297.72 30.9556L292.636 28.0133L328.053 17.4219L334.318 21.0473H334.316ZM312.127 26.1794L319.043 30.182L323.502 25.1191C324.622 23.8703 325.996 22.554 327.15 21.4245L327.065 21.3744C325.124 22.0479 322.876 22.9004 320.781 23.5451L312.127 26.1814" fill="white"/>
<path d="M353.746 32.2911L326.975 47.8857L322.062 45.0435L348.833 29.4489L353.746 32.2911Z" fill="white"/>
<path d="M303.843 101.588L302.342 100.647V92.5337L303.843 93.4747V101.588Z" fill="#B53839"/>
<path d="M306.779 103.427L305.278 102.486V94.3734L306.779 95.3144V103.427Z" fill="#B53839"/>
<path d="M309.718 105.267L308.217 104.326V96.2129L309.718 97.1539V105.267Z" fill="#B53839"/>
<path d="M312.656 107.107L311.153 106.167V98.0546L312.656 98.9936V107.107Z" fill="#B53839"/>
<path d="M315.593 108.946L314.092 108.007V99.8942L315.593 100.833V108.946Z" fill="#B53839"/>
<path d="M318.531 110.788L317.028 109.847V101.734L318.531 102.675V110.788Z" fill="#B53839"/>
<path d="M406.018 68.8397L407.521 67.8987V59.7858L406.018 60.7268V68.8397Z" fill="#4D5168"/>
<path d="M403.082 70.6791L404.583 69.7382V61.6252L403.082 62.5662V70.6791Z" fill="#4D5168"/>
<path d="M400.143 72.5188L401.644 71.5778V63.4648L400.143 64.4058V72.5188Z" fill="#4D5168"/>
<path d="M397.207 74.3585L398.708 73.4194V65.3065L397.207 66.2456V74.3585Z" fill="#4D5168"/>
<path d="M394.268 76.198L395.769 75.2589V67.146L394.268 68.087V76.198Z" fill="#4D5168"/>
<path d="M391.332 78.0397L392.833 77.0988V68.9858L391.332 69.9268V78.0397Z" fill="#4D5168"/>
<path d="M275.848 83.8819V85.302L247.304 68.2449V57.4167L248.553 58.1576V67.6079L275.848 83.8819Z" fill="#B53839"/>
<path d="M275.848 74.4315V83.8819L248.553 67.6079V58.1576L275.848 74.4315Z" fill="url(#paint93_linear_313_186)"/>
<path d="M251.328 63.005L249.843 62.1006V60.615L251.328 61.5194V63.005Z" fill="white"/>
<path d="M253.98 64.6195L252.494 63.7151V62.2295L253.98 63.1339V64.6195Z" fill="white"/>
<path d="M256.632 66.234L255.146 65.3296V63.844L256.632 64.7484V66.234Z" fill="white"/>
<path d="M259.283 67.8485L257.798 66.9441V65.4585L259.283 66.3629V67.8485Z" fill="white"/>
<path d="M261.935 69.4611L260.449 68.5566V67.071L261.935 67.9755V69.4611Z" fill="white"/>
<path d="M251.328 65.2661L249.843 64.3617V62.8761L251.328 63.7805V65.2661Z" fill="white"/>
<path d="M253.98 66.8807L252.494 65.9763V64.4907L253.98 65.3952V66.8807Z" fill="white"/>
<path d="M256.632 68.4931L255.146 67.5887V66.1031L256.632 67.0076V68.4931Z" fill="white"/>
<path d="M259.283 70.1076L257.798 69.2032V67.7177L259.283 68.6221V70.1076Z" fill="white"/>
<path d="M261.935 71.7223L260.449 70.8179V69.3323L261.935 70.2367V71.7223Z" fill="white"/>
<path d="M251.328 67.5253L249.843 66.6208V65.1353L251.328 66.0397V67.5253Z" fill="white"/>
<path d="M253.98 69.1398L252.494 68.2353V66.7498L253.98 67.6542V69.1398Z" fill="white"/>
<path d="M256.632 70.7543L255.146 69.8498V68.3643L256.632 69.2687V70.7543Z" fill="white"/>
<path d="M259.283 72.3686L257.798 71.4642V69.9786L259.283 70.8831V72.3686Z" fill="white"/>
<path d="M261.935 73.9813L260.449 73.0769V71.5913L261.935 72.4957V73.9813Z" fill="white"/>
<path d="M336.123 128.039L339.735 125.844V128.649L336.123 130.845V128.039Z" fill="#0B2E56"/>
<path d="M351.956 152.901L349.842 154.187L349.647 135.792L338.134 128.967L338.987 126.881L351.956 134.339V152.901Z" fill="#BC9755"/>
<path d="M349.842 154.187L348.385 153.504V136.581L336.872 129.754V128.166L349.842 135.625V154.187Z" fill="#A88244"/>
<path d="M336.872 128.166L338.987 126.881L351.956 134.339L349.842 135.625L336.872 128.166Z" fill="#F7DAAB"/>
<path d="M342.456 124.522L346.068 122.326V125.132L342.456 127.327V124.522Z" fill="#0B2E56"/>
<path d="M358.289 149.382L356.175 150.667L355.98 132.275L344.467 125.447L345.319 123.363L358.289 130.822V149.382Z" fill="#BC9755"/>
<path d="M356.175 150.667L354.718 149.984V133.063L343.205 126.236V124.648L356.175 132.107V150.667Z" fill="#A88244"/>
<path d="M343.205 124.649L345.319 123.363L358.289 130.822L356.175 132.107L343.205 124.649Z" fill="#F7DAAB"/>
<path d="M348.789 121.002L352.401 118.806V121.612L348.789 123.808V121.002Z" fill="#0B2E56"/>
<path d="M364.622 145.864L362.508 147.15L362.313 128.757L350.8 121.929L351.652 119.844L364.622 127.302V145.864Z" fill="#BC9755"/>
<path d="M362.507 147.15L361.051 146.466V129.544L349.538 122.718V121.129L362.507 128.588V147.15Z" fill="#A88244"/>
<path d="M349.538 121.129L351.652 119.844L364.622 127.302L362.507 128.588L349.538 121.129Z" fill="#F7DAAB"/>
<path d="M355.122 117.484L358.734 115.289V118.094L355.122 120.29V117.484Z" fill="#0B2E56"/>
<path d="M370.955 142.345L368.84 143.63L368.646 125.237L357.133 118.412L357.985 116.326L370.955 123.785V142.345Z" fill="#BC9755"/>
<path d="M368.84 143.63L367.384 142.947V126.026L355.871 119.199V117.611L368.84 125.07V143.63Z" fill="#A88244"/>
<path d="M355.871 117.611L357.985 116.326L370.955 123.785L368.84 125.07L355.871 117.611Z" fill="#F7DAAB"/>
<path d="M361.455 113.967L365.067 111.769V114.575L361.455 116.77V113.967Z" fill="#0B2E56"/>
<path d="M377.288 138.827L375.173 140.112L374.979 121.72L363.466 114.892L364.318 112.806L377.288 120.267V138.827Z" fill="#BC9755"/>
<path d="M375.173 140.112L373.717 139.429V122.507L362.203 115.681V114.092L375.173 121.552V140.112Z" fill="#A88244"/>
<path d="M362.203 114.092L364.318 112.806L377.288 120.267L375.173 121.552L362.203 114.092Z" fill="#F7DAAB"/>
<path d="M367.788 110.447L371.4 108.251V111.057L367.788 113.253V110.447Z" fill="#0B2E56"/>
<path d="M383.621 135.307L381.506 136.593L381.312 118.2L369.799 111.375L370.651 109.289L383.621 116.747V135.307Z" fill="#BC9755"/>
<path d="M381.506 136.593L380.05 135.91V118.989L368.536 112.162V110.574L381.506 118.033V136.593Z" fill="#A88244"/>
<path d="M368.536 110.574L370.651 109.289L383.621 116.747L381.506 118.033L368.536 110.574Z" fill="#F7DAAB"/>
<path d="M374.121 106.929L377.733 104.734V107.537L374.121 109.733V106.929Z" fill="#0B2E56"/>
<path d="M389.954 131.79L387.839 133.075L387.647 114.682L376.132 107.855L376.984 105.769L389.954 113.23V131.79Z" fill="#BC9755"/>
<path d="M387.839 133.075L386.382 132.392V115.469L374.869 108.644V107.054L387.839 114.515V133.075Z" fill="#A88244"/>
<path d="M374.869 107.054L376.984 105.769L389.954 113.23L387.839 114.515L374.869 107.054Z" fill="#F7DAAB"/>
<path d="M380.454 103.41L384.066 101.214V104.02L380.454 106.216V103.41Z" fill="#0B2E56"/>
<path d="M396.287 128.27L394.172 129.555L393.98 111.163L382.465 104.337L383.317 102.251L396.287 109.71V128.27Z" fill="#BC9755"/>
<path d="M394.172 129.555L392.715 128.872V111.952L381.202 105.124V103.537L394.172 110.995V129.555Z" fill="#A88244"/>
<path d="M381.202 103.537L383.317 102.251L396.287 109.71L394.172 110.995L381.202 103.537Z" fill="#F7DAAB"/>
<path d="M386.787 99.8923L390.399 97.6967V100.5L386.787 102.696V99.8923Z" fill="#0B2E56"/>
<path d="M402.62 124.753L400.505 126.038L400.313 107.645L388.797 100.818L389.65 98.7319L402.62 106.193V124.753Z" fill="#BC9755"/>
<path d="M400.505 126.038L399.048 125.355V108.432L387.535 101.607V100.017L400.505 107.478V126.038Z" fill="#A88244"/>
<path d="M387.535 100.017L389.65 98.7319L402.62 106.193L400.505 107.478L387.535 100.017Z" fill="#F7DAAB"/>
<path d="M393.119 96.3726L396.731 94.177V96.9826L393.119 99.1783V96.3726Z" fill="#0B2E56"/>
<path d="M408.953 121.233L406.838 122.518L406.646 104.126L395.13 97.3002L395.983 95.2142L408.953 102.673V121.233Z" fill="#BC9755"/>
<path d="M406.838 122.518L405.381 121.835V104.915L393.868 98.0873V96.4998L406.838 103.958V122.518Z" fill="#A88244"/>
<path d="M393.868 96.4997L395.983 95.2142L408.953 102.673L406.838 103.958L393.868 96.4997Z" fill="#F7DAAB"/>
<path d="M399.452 92.855L403.064 90.6593V93.463L399.452 95.6587V92.855Z" fill="#0B2E56"/>
<path d="M415.286 117.715L413.171 119.001L412.978 100.608L401.463 93.7805L402.316 91.6946L415.286 99.1552V117.715Z" fill="#BC9755"/>
<path d="M413.171 119.001L411.716 118.318V101.395L400.201 94.5696V92.9801L413.171 100.441V119.001Z" fill="#A88244"/>
<path d="M400.201 92.98L402.316 91.6946L415.286 99.1552L413.171 100.441L400.201 92.98Z" fill="#F7DAAB"/>
<path d="M317.779 128.039L314.167 125.844V128.649L317.779 130.845V128.039Z" fill="#0B2E56"/>
<path d="M301.945 152.901L304.06 154.187L304.255 135.792L315.768 128.967L314.915 126.881L301.945 134.339V152.901Z" fill="#BC9755"/>
<path d="M304.06 154.187L305.517 153.504V136.581L317.03 129.754V128.166L304.06 135.625V154.187Z" fill="#A88244"/>
<path d="M317.03 128.166L314.915 126.881L301.945 134.339L304.06 135.625L317.03 128.166Z" fill="#F7DAAB"/>
<path d="M311.446 124.241L307.834 122.045V124.851L311.446 127.046V124.241Z" fill="#0B2E56"/>
<path d="M295.612 149.101L297.727 150.386L297.922 131.994L309.435 125.168L308.582 123.082L295.612 130.541V149.101Z" fill="#BC9755"/>
<path d="M297.727 150.386L299.184 149.703V132.783L310.697 125.955V124.368L297.727 131.826V150.386Z" fill="#A88244"/>
<path d="M310.697 124.368L308.582 123.082L295.612 130.541L297.727 131.826L310.697 124.368Z" fill="#F7DAAB"/>
<path d="M305.113 120.442L301.501 118.246V121.052L305.113 123.248V120.442Z" fill="#0B2E56"/>
<path d="M289.28 145.302L291.394 146.588L291.589 128.195L303.102 121.368L302.249 119.284L289.28 126.742V145.302Z" fill="#BC9755"/>
<path d="M291.394 146.588L292.851 145.905V128.984L304.364 122.157V120.569L291.394 128.028V146.588Z" fill="#A88244"/>
<path d="M304.364 120.569L302.249 119.284L289.28 126.742L291.394 128.028L304.364 120.569Z" fill="#F7DAAB"/>
<path d="M298.78 116.643L295.168 114.448V117.251L298.78 119.447V116.643Z" fill="#0B2E56"/>
<path d="M282.947 141.504L285.061 142.789L285.256 124.396L296.769 117.569L295.916 115.483L282.947 122.944V141.504Z" fill="#BC9755"/>
<path d="M285.061 142.789L286.518 142.106V125.183L298.031 118.358V116.768L285.061 124.229V142.789Z" fill="#A88244"/>
<path d="M298.031 116.768L295.916 115.483L282.947 122.944L285.061 124.229L298.031 116.768Z" fill="#F7DAAB"/>
<path d="M292.447 112.843L288.835 110.647V113.453L292.447 115.649V112.843Z" fill="#0B2E56"/>
<path d="M276.614 137.705L278.729 138.99L278.923 120.598L290.436 113.77L289.584 111.684L276.614 119.143V137.705Z" fill="#BC9755"/>
<path d="M278.729 138.99L280.185 138.307V121.385L291.698 114.559V112.97L278.729 120.429V138.99Z" fill="#A88244"/>
<path d="M291.698 112.97L289.584 111.684L276.614 119.143L278.729 120.428L291.698 112.97Z" fill="#F7DAAB"/>
<path d="M286.114 109.044L282.502 106.849V109.654L286.114 111.85V109.044Z" fill="#0B2E56"/>
<path d="M270.281 133.905L272.396 135.19L272.59 116.797L284.103 109.972L283.251 107.886L270.281 115.345V133.905Z" fill="#BC9755"/>
<path d="M272.396 135.19L273.852 134.509V117.586L285.365 110.759V109.171L272.396 116.63V135.19Z" fill="#A88244"/>
<path d="M285.366 109.171L283.251 107.886L270.281 115.345L272.396 116.63L285.366 109.171Z" fill="#F7DAAB"/>
<path d="M279.781 105.246L276.169 103.05V105.856L279.781 108.051V105.246Z" fill="#0B2E56"/>
<path d="M263.948 130.106L266.063 131.391L266.257 112.999L277.77 106.173L276.918 104.087L263.948 111.546V130.106Z" fill="#BC9755"/>
<path d="M266.063 131.391L267.519 130.708V113.788L279.033 106.96V105.373L266.063 112.831V131.391Z" fill="#A88244"/>
<path d="M279.033 105.373L276.918 104.087L263.948 111.546L266.063 112.831L279.033 105.373Z" fill="#F7DAAB"/>
<path d="M273.448 101.447L269.836 99.2513V102.055L273.448 104.251V101.447Z" fill="#0B2E56"/>
<path d="M257.615 126.307L259.73 127.593L259.922 109.2L271.437 102.373L270.585 100.287L257.615 107.747V126.307Z" fill="#BC9755"/>
<path d="M259.73 127.593L261.186 126.91V109.987L272.7 103.162V101.572L259.73 109.033V127.593Z" fill="#A88244"/>
<path d="M272.7 101.572L270.585 100.287L257.615 107.747L259.73 109.033L272.7 101.572Z" fill="#F7DAAB"/>
<path d="M267.115 97.6485L263.503 95.4529V98.2566L267.115 100.452V97.6485Z" fill="#0B2E56"/>
<path d="M251.282 122.509L253.397 123.794L253.589 105.402L265.104 98.5741L264.252 96.4882L251.282 103.949V122.509Z" fill="#BC9755"/>
<path d="M253.397 123.794L254.854 123.111V106.189L266.367 99.363V97.7736L253.397 105.234V123.794Z" fill="#A88244"/>
<path d="M266.367 97.7736L264.252 96.4882L251.282 103.949L253.397 105.234L266.367 97.7736Z" fill="#F7DAAB"/>
<path d="M260.782 93.848L257.17 91.6523V94.458L260.782 96.6536V93.848Z" fill="#0B2E56"/>
<path d="M244.949 118.71L247.064 119.996L247.256 101.601L258.771 94.7754L257.919 92.6895L244.949 100.148V118.71Z" fill="#BC9755"/>
<path d="M247.064 119.996L248.521 119.312V102.39L260.034 95.5625V93.975L247.064 101.434V119.996Z" fill="#A88244"/>
<path d="M260.034 93.9749L257.919 92.6895L244.949 100.148L247.064 101.434L260.034 93.9749Z" fill="#F7DAAB"/>
<path d="M254.449 90.0493L250.837 87.8536V90.6593L254.449 92.8549V90.0493Z" fill="#0B2E56"/>
<path d="M238.616 114.91L240.731 116.195L240.923 97.8024L252.439 90.9768L251.586 88.8909L238.616 96.3495V114.91Z" fill="#BC9755"/>
<path d="M240.731 116.195L242.188 115.512V98.5913L253.701 91.7638V90.1763L240.731 97.6349V116.195Z" fill="#A88244"/>
<path d="M253.701 90.1763L251.586 88.8909L238.616 96.3495L240.731 97.635L253.701 90.1763Z" fill="#F7DAAB"/>
<path d="M198.877 324.664V342.031L277.127 300.502V283.162L198.877 324.664Z" fill="url(#paint94_linear_313_186)"/>
<path d="M127 283.362L162.275 303.481L198.877 324.664L277.127 283.162L205.223 241.861L127 283.362Z" fill="url(#paint95_linear_313_186)"/>
<path d="M142.635 283.251L148.014 286.345L205.306 257.328L256.112 286.507L261.492 283.303L205.306 251.003L142.635 283.251Z" fill="url(#paint96_linear_313_186)"/>
<path d="M148.014 286.345L198.792 315.523L256.112 286.507L205.306 257.328L148.014 286.345Z" fill="#A4D4ED"/>
<path d="M127 283.362V300.729L198.877 342.031V324.664L162.275 303.481L127 283.362Z" fill="url(#paint97_linear_313_186)"/>
<path d="M205.306 251.003V257.328L148.014 286.345L142.635 283.251L205.306 251.003Z" fill="url(#paint98_linear_313_186)"/>
<path d="M162.275 303.094L198.877 324.277L276.795 282.972L277.127 283.162L198.877 324.664L162.275 303.481L127 283.362L127.331 283.166L162.275 303.094Z" fill="url(#paint99_linear_313_186)"/>
<path d="M209.517 142.912C186.983 189.325 152.307 206.215 152.307 206.215L143.884 201.51C143.884 201.51 178.604 184.934 201.094 138.161C204.577 140.151 206.89 141.615 209.517 142.91V142.912Z" fill="url(#paint100_linear_313_186)"/>
<path d="M266.727 138.163L258.304 179.515C258.304 200.168 248.447 225.346 232.05 246.537L201.094 286.589L170.137 283.408C167.853 283.185 165.702 282.691 163.731 282.019C151.187 277.853 143.886 265.397 143.884 247.612V201.513L152.307 206.218C152.307 206.218 186.758 189.821 209.291 143.409C209.828 143.632 210.367 143.857 210.904 144.036C232.453 151.876 258.302 133.418 258.302 133.418L266.725 138.167L266.727 138.163Z" fill="url(#paint101_linear_313_186)"/>
<path d="M266.727 138.163V184.218C266.727 204.916 256.87 230.049 240.519 251.24L209.519 291.292L178.562 288.112C172.737 287.484 167.72 285.423 163.733 282.019C156.386 275.927 152.309 265.622 152.309 252.315V206.217C152.309 206.217 186.76 189.819 209.293 143.407C209.338 143.228 209.428 143.093 209.517 142.914C209.965 143.316 210.413 143.721 210.906 144.034C233.395 161.909 266.727 138.165 266.727 138.165V138.163Z" fill="url(#paint102_linear_313_186)"/>
<path d="M169.999 267.754C173.563 271.936 178.506 274.457 184.543 275.072L209.495 277.639L234.494 245.321C240.816 237.194 245.9 228.306 249.514 219.514C253.649 209.532 255.929 199.601 255.929 190.664V155.732C254.598 156.398 253.172 157.016 251.7 157.679V186.956C251.7 195.891 249.419 205.824 245.33 215.805C241.67 224.646 236.586 233.486 230.265 241.612L205.266 273.931L180.313 271.364C176.368 270.937 172.899 269.702 170.001 267.752L169.999 267.754Z" fill="url(#paint103_linear_313_186)"/>
<path d="M163.154 210.958V245.844C163.154 255.16 165.579 262.668 169.999 267.754C172.899 269.704 176.368 270.939 180.311 271.366L205.264 273.933L230.263 241.614C236.584 233.486 241.67 224.648 245.328 215.807C249.415 205.826 251.698 195.894 251.698 186.958V157.681C239.911 162.815 223.705 166.997 209.494 160.533C194.665 184.962 177.602 200.409 165.721 209.107C164.819 209.725 163.962 210.39 163.154 210.96V210.958Z" fill="url(#paint104_linear_313_186)"/>
<path d="M230.078 202.722C230.078 213.896 221.451 228.088 210.808 234.421C200.166 240.754 191.538 236.829 191.538 225.654C191.538 214.48 200.164 200.288 210.808 193.955C221.449 187.622 230.078 191.547 230.078 202.722Z" stroke="#DFE0E5" stroke-width="2.45424" stroke-miterlimit="10"/>
<path d="M201.098 213.623L204.802 221.168C205.395 222.377 207.157 221.99 208.558 220.345L223.974 202.247" stroke="#DFE0E5" stroke-width="2.45424" stroke-miterlimit="10"/>
<defs>
<linearGradient id="paint0_linear_313_186" x1="453.376" y1="278.084" x2="548.826" y2="283.108" gradientUnits="userSpaceOnUse">
<stop stop-color="#262C3D"/>
<stop offset="1" stop-color="#7D859E"/>
</linearGradient>
<linearGradient id="paint1_linear_313_186" x1="436.848" y1="280.693" x2="577.001" y2="280.693" gradientUnits="userSpaceOnUse">
<stop stop-color="#66D2FE"/>
<stop offset="0.34" stop-color="#51A7DD"/>
<stop offset="0.78" stop-color="#3973B7"/>
<stop offset="1" stop-color="#3060A8"/>
</linearGradient>
<linearGradient id="paint2_linear_313_186" x1="508.382" y1="281.232" x2="534.105" y2="281.929" gradientUnits="userSpaceOnUse">
<stop stop-color="#CBCBD6"/>
<stop offset="1" stop-color="#878C9F"/>
</linearGradient>
<linearGradient id="paint3_linear_313_186" x1="506.521" y1="284.962" x2="541.636" y2="286.582" gradientUnits="userSpaceOnUse">
<stop stop-color="#CBCBD6"/>
<stop offset="1" stop-color="#F9FAF9"/>
</linearGradient>
<linearGradient id="paint4_linear_313_186" x1="439.574" y1="258.186" x2="550.09" y2="236.578" gradientUnits="userSpaceOnUse">
<stop stop-color="#3B3E5E"/>
<stop offset="1" stop-color="#626282"/>
</linearGradient>
<linearGradient id="paint5_linear_313_186" x1="440.425" y1="262.543" x2="550.942" y2="240.933" gradientUnits="userSpaceOnUse">
<stop stop-color="#3B3E5E"/>
<stop offset="1" stop-color="#626282"/>
</linearGradient>
<linearGradient id="paint6_linear_313_186" x1="439.929" y1="259.997" x2="550.444" y2="238.387" gradientUnits="userSpaceOnUse">
<stop stop-color="#3B3E5E"/>
<stop offset="1" stop-color="#626282"/>
</linearGradient>
<linearGradient id="paint7_linear_313_186" x1="440.281" y1="261.806" x2="550.798" y2="240.196" gradientUnits="userSpaceOnUse">
<stop stop-color="#3B3E5E"/>
<stop offset="1" stop-color="#626282"/>
</linearGradient>
<linearGradient id="paint8_linear_313_186" x1="440.635" y1="263.615" x2="551.152" y2="242.007" gradientUnits="userSpaceOnUse">
<stop stop-color="#3B3E5E"/>
<stop offset="1" stop-color="#626282"/>
</linearGradient>
<linearGradient id="paint9_linear_313_186" x1="440.989" y1="265.424" x2="551.504" y2="243.816" gradientUnits="userSpaceOnUse">
<stop stop-color="#3B3E5E"/>
<stop offset="0.7" stop-color="#565777"/>
<stop offset="1" stop-color="#626282"/>
</linearGradient>
<linearGradient id="paint10_linear_313_186" x1="441.343" y1="267.235" x2="551.858" y2="245.625" gradientUnits="userSpaceOnUse">
<stop stop-color="#3B3E5E"/>
<stop offset="1" stop-color="#626282"/>
</linearGradient>
<linearGradient id="paint11_linear_313_186" x1="441.697" y1="269.044" x2="552.212" y2="247.433" gradientUnits="userSpaceOnUse">
<stop stop-color="#3B3E5E"/>
<stop offset="1" stop-color="#626282"/>
</linearGradient>
<linearGradient id="paint12_linear_313_186" x1="442.051" y1="270.853" x2="552.566" y2="249.244" gradientUnits="userSpaceOnUse">
<stop stop-color="#3B3E5E"/>
<stop offset="1" stop-color="#626282"/>
</linearGradient>
<linearGradient id="paint13_linear_313_186" x1="442.403" y1="272.661" x2="552.921" y2="251.053" gradientUnits="userSpaceOnUse">
<stop stop-color="#3B3E5E"/>
<stop offset="1" stop-color="#626282"/>
</linearGradient>
<linearGradient id="paint14_linear_313_186" x1="442.757" y1="274.472" x2="553.274" y2="252.862" gradientUnits="userSpaceOnUse">
<stop stop-color="#3B3E5E"/>
<stop offset="1" stop-color="#626282"/>
</linearGradient>
<linearGradient id="paint15_linear_313_186" x1="443.111" y1="276.281" x2="553.629" y2="254.671" gradientUnits="userSpaceOnUse">
<stop stop-color="#3B3E5E"/>
<stop offset="1" stop-color="#626282"/>
</linearGradient>
<linearGradient id="paint16_linear_313_186" x1="443.465" y1="278.09" x2="553.981" y2="256.482" gradientUnits="userSpaceOnUse">
<stop stop-color="#3B3E5E"/>
<stop offset="1" stop-color="#626282"/>
</linearGradient>
<linearGradient id="paint17_linear_313_186" x1="443.894" y1="280.285" x2="554.412" y2="258.677" gradientUnits="userSpaceOnUse">
<stop stop-color="#3B3E5E"/>
<stop offset="1" stop-color="#626282"/>
</linearGradient>
<linearGradient id="paint18_linear_313_186" x1="440.843" y1="264.671" x2="551.358" y2="243.063" gradientUnits="userSpaceOnUse">
<stop stop-color="#3B3E5E"/>
<stop offset="1" stop-color="#626282"/>
</linearGradient>
<linearGradient id="paint19_linear_313_186" x1="441.195" y1="266.482" x2="551.712" y2="244.872" gradientUnits="userSpaceOnUse">
<stop stop-color="#3B3E5E"/>
<stop offset="1" stop-color="#626282"/>
</linearGradient>
<linearGradient id="paint20_linear_313_186" x1="441.548" y1="268.291" x2="552.066" y2="246.681" gradientUnits="userSpaceOnUse">
<stop stop-color="#3B3E5E"/>
<stop offset="1" stop-color="#626282"/>
</linearGradient>
<linearGradient id="paint21_linear_313_186" x1="441.903" y1="270.1" x2="552.42" y2="248.49" gradientUnits="userSpaceOnUse">
<stop stop-color="#3B3E5E"/>
<stop offset="1" stop-color="#626282"/>
</linearGradient>
<linearGradient id="paint22_linear_313_186" x1="442.257" y1="271.909" x2="552.772" y2="250.301" gradientUnits="userSpaceOnUse">
<stop stop-color="#3B3E5E"/>
<stop offset="1" stop-color="#626282"/>
</linearGradient>
<linearGradient id="paint23_linear_313_186" x1="442.611" y1="273.72" x2="553.126" y2="252.11" gradientUnits="userSpaceOnUse">
<stop stop-color="#3B3E5E"/>
<stop offset="1" stop-color="#626282"/>
</linearGradient>
<linearGradient id="paint24_linear_313_186" x1="442.965" y1="275.528" x2="553.48" y2="253.918" gradientUnits="userSpaceOnUse">
<stop stop-color="#3B3E5E"/>
<stop offset="1" stop-color="#626282"/>
</linearGradient>
<linearGradient id="paint25_linear_313_186" x1="443.319" y1="277.337" x2="553.834" y2="255.729" gradientUnits="userSpaceOnUse">
<stop stop-color="#3B3E5E"/>
<stop offset="1" stop-color="#626282"/>
</linearGradient>
<linearGradient id="paint26_linear_313_186" x1="443.671" y1="279.146" x2="554.189" y2="257.538" gradientUnits="userSpaceOnUse">
<stop stop-color="#3B3E5E"/>
<stop offset="1" stop-color="#626282"/>
</linearGradient>
<linearGradient id="paint27_linear_313_186" x1="444.025" y1="280.957" x2="554.543" y2="259.347" gradientUnits="userSpaceOnUse">
<stop stop-color="#3B3E5E"/>
<stop offset="1" stop-color="#626282"/>
</linearGradient>
<linearGradient id="paint28_linear_313_186" x1="444.379" y1="282.766" x2="554.895" y2="261.156" gradientUnits="userSpaceOnUse">
<stop stop-color="#3B3E5E"/>
<stop offset="1" stop-color="#626282"/>
</linearGradient>
<linearGradient id="paint29_linear_313_186" x1="444.734" y1="284.575" x2="555.249" y2="262.967" gradientUnits="userSpaceOnUse">
<stop stop-color="#3B3E5E"/>
<stop offset="1" stop-color="#626282"/>
</linearGradient>
<linearGradient id="paint30_linear_313_186" x1="442.715" y1="274.249" x2="553.23" y2="252.639" gradientUnits="userSpaceOnUse">
<stop stop-color="#3B3E5E"/>
<stop offset="1" stop-color="#626282"/>
</linearGradient>
<linearGradient id="paint31_linear_313_186" x1="443.13" y1="276.377" x2="553.646" y2="254.769" gradientUnits="userSpaceOnUse">
<stop stop-color="#3B3E5E"/>
<stop offset="1" stop-color="#626282"/>
</linearGradient>
<linearGradient id="paint32_linear_313_186" x1="443.485" y1="278.188" x2="554" y2="256.578" gradientUnits="userSpaceOnUse">
<stop stop-color="#3B3E5E"/>
<stop offset="1" stop-color="#626282"/>
</linearGradient>
<linearGradient id="paint33_linear_313_186" x1="444.545" y1="283.614" x2="555.062" y2="262.006" gradientUnits="userSpaceOnUse">
<stop stop-color="#3B3E5E"/>
<stop offset="1" stop-color="#626282"/>
</linearGradient>
<linearGradient id="paint34_linear_313_186" x1="445.607" y1="289.043" x2="556.124" y2="267.433" gradientUnits="userSpaceOnUse">
<stop stop-color="#3B3E5E"/>
<stop offset="1" stop-color="#626282"/>
</linearGradient>
<linearGradient id="paint35_linear_313_186" x1="445.961" y1="290.852" x2="556.477" y2="269.244" gradientUnits="userSpaceOnUse">
<stop stop-color="#3B3E5E"/>
<stop offset="1" stop-color="#626282"/>
</linearGradient>
<linearGradient id="paint36_linear_313_186" x1="446.315" y1="292.663" x2="556.831" y2="271.053" gradientUnits="userSpaceOnUse">
<stop stop-color="#3B3E5E"/>
<stop offset="1" stop-color="#626282"/>
</linearGradient>
<linearGradient id="paint37_linear_313_186" x1="446.669" y1="294.472" x2="557.185" y2="272.861" gradientUnits="userSpaceOnUse">
<stop stop-color="#3B3E5E"/>
<stop offset="1" stop-color="#626282"/>
</linearGradient>
<linearGradient id="paint38_linear_313_186" x1="447.022" y1="296.28" x2="557.539" y2="274.67" gradientUnits="userSpaceOnUse">
<stop stop-color="#3B3E5E"/>
<stop offset="1" stop-color="#626282"/>
</linearGradient>
<linearGradient id="paint39_linear_313_186" x1="441.248" y1="266.754" x2="551.766" y2="245.143" gradientUnits="userSpaceOnUse">
<stop stop-color="#3B3E5E"/>
<stop offset="1" stop-color="#626282"/>
</linearGradient>
<linearGradient id="paint40_linear_313_186" x1="441.726" y1="269.194" x2="552.241" y2="247.584" gradientUnits="userSpaceOnUse">
<stop stop-color="#3B3E5E"/>
<stop offset="1" stop-color="#626282"/>
</linearGradient>
<linearGradient id="paint41_linear_313_186" x1="442.079" y1="271.002" x2="552.595" y2="249.392" gradientUnits="userSpaceOnUse">
<stop stop-color="#3B3E5E"/>
<stop offset="1" stop-color="#626282"/>
</linearGradient>
<linearGradient id="paint42_linear_313_186" x1="442.434" y1="272.811" x2="552.949" y2="251.203" gradientUnits="userSpaceOnUse">
<stop stop-color="#3B3E5E"/>
<stop offset="1" stop-color="#626282"/>
</linearGradient>
<linearGradient id="paint43_linear_313_186" x1="442.788" y1="274.62" x2="553.303" y2="253.012" gradientUnits="userSpaceOnUse">
<stop stop-color="#3B3E5E"/>
<stop offset="1" stop-color="#626282"/>
</linearGradient>
<linearGradient id="paint44_linear_313_186" x1="443.14" y1="276.431" x2="553.658" y2="254.821" gradientUnits="userSpaceOnUse">
<stop stop-color="#3B3E5E"/>
<stop offset="1" stop-color="#626282"/>
</linearGradient>
<linearGradient id="paint45_linear_313_186" x1="443.494" y1="278.24" x2="554.012" y2="256.63" gradientUnits="userSpaceOnUse">
<stop stop-color="#3B3E5E"/>
<stop offset="1" stop-color="#626282"/>
</linearGradient>
<linearGradient id="paint46_linear_313_186" x1="443.848" y1="280.049" x2="554.364" y2="258.44" gradientUnits="userSpaceOnUse">
<stop stop-color="#3B3E5E"/>
<stop offset="1" stop-color="#626282"/>
</linearGradient>
<linearGradient id="paint47_linear_313_186" x1="444.202" y1="281.858" x2="554.718" y2="260.25" gradientUnits="userSpaceOnUse">
<stop stop-color="#3B3E5E"/>
<stop offset="1" stop-color="#626282"/>
</linearGradient>
<linearGradient id="paint48_linear_313_186" x1="444.556" y1="283.668" x2="555.072" y2="262.058" gradientUnits="userSpaceOnUse">
<stop stop-color="#3B3E5E"/>
<stop offset="1" stop-color="#626282"/>
</linearGradient>
<linearGradient id="paint49_linear_313_186" x1="444.91" y1="285.477" x2="555.426" y2="263.867" gradientUnits="userSpaceOnUse">
<stop stop-color="#3B3E5E"/>
<stop offset="1" stop-color="#626282"/>
</linearGradient>
<linearGradient id="paint50_linear_313_186" x1="445.38" y1="287.883" x2="555.897" y2="266.273" gradientUnits="userSpaceOnUse">
<stop stop-color="#3B3E5E"/>
<stop offset="1" stop-color="#626282"/>
</linearGradient>
<linearGradient id="paint51_linear_313_186" x1="442.049" y1="270.845" x2="552.564" y2="249.237" gradientUnits="userSpaceOnUse">
<stop stop-color="#3B3E5E"/>
<stop offset="1" stop-color="#626282"/>
</linearGradient>
<linearGradient id="paint52_linear_313_186" x1="442.563" y1="273.475" x2="553.08" y2="251.865" gradientUnits="userSpaceOnUse">
<stop stop-color="#3B3E5E"/>
<stop offset="1" stop-color="#626282"/>
</linearGradient>
<linearGradient id="paint53_linear_313_186" x1="442.917" y1="275.284" x2="553.432" y2="253.674" gradientUnits="userSpaceOnUse">
<stop stop-color="#3B3E5E"/>
<stop offset="1" stop-color="#626282"/>
</linearGradient>
<linearGradient id="paint54_linear_313_186" x1="443.271" y1="277.093" x2="553.786" y2="255.485" gradientUnits="userSpaceOnUse">
<stop stop-color="#3B3E5E"/>
<stop offset="1" stop-color="#626282"/>
</linearGradient>
<linearGradient id="paint55_linear_313_186" x1="443.625" y1="278.904" x2="554.14" y2="257.294" gradientUnits="userSpaceOnUse">
<stop stop-color="#3B3E5E"/>
<stop offset="1" stop-color="#626282"/>
</linearGradient>
<linearGradient id="paint56_linear_313_186" x1="443.979" y1="280.713" x2="554.495" y2="259.102" gradientUnits="userSpaceOnUse">
<stop stop-color="#3B3E5E"/>
<stop offset="1" stop-color="#626282"/>
</linearGradient>
<linearGradient id="paint57_linear_313_186" x1="444.331" y1="282.521" x2="554.849" y2="260.911" gradientUnits="userSpaceOnUse">
<stop stop-color="#3B3E5E"/>
<stop offset="1" stop-color="#626282"/>
</linearGradient>
<linearGradient id="paint58_linear_313_186" x1="444.685" y1="284.33" x2="555.203" y2="262.722" gradientUnits="userSpaceOnUse">
<stop stop-color="#3B3E5E"/>
<stop offset="1" stop-color="#626282"/>
</linearGradient>
<linearGradient id="paint59_linear_313_186" x1="445.039" y1="286.141" x2="555.555" y2="264.531" gradientUnits="userSpaceOnUse">
<stop stop-color="#3B3E5E"/>
<stop offset="1" stop-color="#626282"/>
</linearGradient>
<linearGradient id="paint60_linear_313_186" x1="445.394" y1="287.95" x2="555.911" y2="266.34" gradientUnits="userSpaceOnUse">
<stop stop-color="#3B3E5E"/>
<stop offset="1" stop-color="#626282"/>
</linearGradient>
<linearGradient id="paint61_linear_313_186" x1="446.004" y1="291.069" x2="556.519" y2="269.459" gradientUnits="userSpaceOnUse">
<stop stop-color="#3B3E5E"/>
<stop offset="1" stop-color="#626282"/>
</linearGradient>
<linearGradient id="paint62_linear_313_186" x1="441.993" y1="262.355" x2="496.095" y2="161.434" gradientUnits="userSpaceOnUse">
<stop stop-color="#262C3D"/>
<stop offset="1" stop-color="#7D859E"/>
</linearGradient>
<linearGradient id="paint63_linear_313_186" x1="514.588" y1="214.124" x2="433.653" y2="214.124" gradientUnits="userSpaceOnUse">
<stop stop-color="#262C3D"/>
<stop offset="1" stop-color="#7D859E"/>
</linearGradient>
<linearGradient id="paint64_linear_313_186" x1="490.907" y1="167.047" x2="415.88" y2="260.915" gradientUnits="userSpaceOnUse">
<stop stop-color="#262C3D"/>
<stop offset="0.38" stop-color="white"/>
<stop offset="1" stop-color="#7D859E"/>
</linearGradient>
<linearGradient id="paint65_linear_313_186" x1="489.718" y1="174.964" x2="450.582" y2="269.758" gradientUnits="userSpaceOnUse">
<stop stop-color="#262C3D"/>
<stop offset="1" stop-color="#7D859E"/>
</linearGradient>
<linearGradient id="paint66_linear_313_186" x1="546.645" y1="141.265" x2="507.509" y2="236.059" gradientUnits="userSpaceOnUse">
<stop stop-color="#262C3D"/>
<stop offset="1" stop-color="#7D859E"/>
</linearGradient>
<linearGradient id="paint67_linear_313_186" x1="612.978" y1="101.698" x2="620.195" y2="97.3774" gradientUnits="userSpaceOnUse">
<stop stop-color="#5B677C"/>
<stop offset="1" stop-color="#39A9A5"/>
</linearGradient>
<linearGradient id="paint68_linear_313_186" x1="621.595" y1="96.5403" x2="628.81" y2="92.2206" gradientUnits="userSpaceOnUse">
<stop stop-color="#5B677C"/>
<stop offset="1" stop-color="#39A9A5"/>
</linearGradient>
<linearGradient id="paint69_linear_313_186" x1="469.701" y1="193.791" x2="321.156" y2="193.791" gradientUnits="userSpaceOnUse">
<stop stop-color="#69B9FE"/>
<stop offset="0.29" stop-color="#5796E1"/>
<stop offset="0.77" stop-color="#3D62B8"/>
<stop offset="1" stop-color="#334FA8"/>
</linearGradient>
<linearGradient id="paint70_linear_313_186" x1="183.998" y1="196.655" x2="321.158" y2="196.655" gradientUnits="userSpaceOnUse">
<stop stop-color="#69B9FE"/>
<stop offset="0.29" stop-color="#5796E1"/>
<stop offset="0.77" stop-color="#3D62B8"/>
<stop offset="1" stop-color="#334FA8"/>
</linearGradient>
<linearGradient id="paint71_linear_313_186" x1="469.673" y1="186.092" x2="184.002" y2="186.092" gradientUnits="userSpaceOnUse">
<stop stop-color="#69B9FE"/>
<stop offset="0.29" stop-color="#5796E1"/>
<stop offset="0.77" stop-color="#3D62B8"/>
<stop offset="1" stop-color="#334FA8"/>
</linearGradient>
<linearGradient id="paint72_linear_313_186" x1="210.223" y1="126.648" x2="309.119" y2="182.576" gradientUnits="userSpaceOnUse">
<stop stop-color="#FFF12F"/>
<stop offset="1" stop-color="#F46469"/>
</linearGradient>
<linearGradient id="paint73_linear_313_186" x1="219.644" y1="108.267" x2="434.257" y2="108.267" gradientUnits="userSpaceOnUse">
<stop stop-color="#FFF12F"/>
<stop offset="1" stop-color="#F46469"/>
</linearGradient>
<linearGradient id="paint74_linear_313_186" x1="421.569" y1="105.103" x2="355.212" y2="214.935" gradientUnits="userSpaceOnUse">
<stop stop-color="#FFF12F"/>
<stop offset="1" stop-color="#F46469"/>
</linearGradient>
<linearGradient id="paint75_linear_313_186" x1="240.412" y1="109.273" x2="326.75" y2="109.273" gradientUnits="userSpaceOnUse">
<stop stop-color="#FFB92F"/>
<stop offset="1" stop-color="#F46469"/>
</linearGradient>
<linearGradient id="paint76_linear_313_186" x1="240.412" y1="80.882" x2="410.935" y2="80.882" gradientUnits="userSpaceOnUse">
<stop stop-color="#FFF12F"/>
<stop offset="1" stop-color="#F46469"/>
</linearGradient>
<linearGradient id="paint77_linear_313_186" x1="258.725" y1="63.794" x2="392.621" y2="63.794" gradientUnits="userSpaceOnUse">
<stop stop-color="#5C637C"/>
<stop offset="1" stop-color="#3C9AA9"/>
</linearGradient>
<linearGradient id="paint78_linear_313_186" x1="326.75" y1="110.824" x2="410.935" y2="110.824" gradientUnits="userSpaceOnUse">
<stop stop-color="#FFB92F"/>
<stop offset="1" stop-color="#F46469"/>
</linearGradient>
<linearGradient id="paint79_linear_313_186" x1="366.235" y1="54.9326" x2="348.689" y2="71.0834" gradientUnits="userSpaceOnUse">
<stop stop-color="#5C637C"/>
<stop offset="1" stop-color="#3C9AA9"/>
</linearGradient>
<linearGradient id="paint80_linear_313_186" x1="325.576" y1="77.3123" x2="327.408" y2="144.067" gradientUnits="userSpaceOnUse">
<stop stop-color="#FFF12F"/>
<stop offset="1" stop-color="#F46469"/>
</linearGradient>
<linearGradient id="paint81_linear_313_186" x1="71.1814" y1="84.4476" x2="71.3739" y2="84.4476" gradientUnits="userSpaceOnUse">
<stop stop-color="#FFB92F"/>
<stop offset="1" stop-color="#F46469"/>
</linearGradient>
<linearGradient id="paint82_linear_313_186" x1="240.412" y1="50.1045" x2="410.935" y2="50.1045" gradientUnits="userSpaceOnUse">
<stop stop-color="#FFF12F"/>
<stop offset="1" stop-color="#F46469"/>
</linearGradient>
<linearGradient id="paint83_linear_313_186" x1="265.024" y1="53.8107" x2="386.323" y2="53.8107" gradientUnits="userSpaceOnUse">
<stop stop-color="#FFF12F"/>
<stop offset="1" stop-color="#F46469"/>
</linearGradient>
<linearGradient id="paint84_linear_313_186" x1="410.71" y1="63.0436" x2="332.956" y2="105.673" gradientUnits="userSpaceOnUse">
<stop stop-color="#FFB92F"/>
<stop offset="1" stop-color="#F46469"/>
</linearGradient>
<linearGradient id="paint85_linear_313_186" x1="325.576" y1="46.5368" x2="327.408" y2="113.289" gradientUnits="userSpaceOnUse">
<stop stop-color="#7BADF4"/>
<stop offset="0.53" stop-color="white"/>
<stop offset="1" stop-color="#D7E6FC"/>
</linearGradient>
<linearGradient id="paint86_linear_313_186" x1="274.114" y1="64.8579" x2="326.775" y2="64.8579" gradientUnits="userSpaceOnUse">
<stop stop-color="#FFB92F"/>
<stop offset="1" stop-color="#F46469"/>
</linearGradient>
<linearGradient id="paint87_linear_313_186" x1="326.775" y1="65.8028" x2="378.121" y2="65.8028" gradientUnits="userSpaceOnUse">
<stop stop-color="#FFB92F"/>
<stop offset="1" stop-color="#F46469"/>
</linearGradient>
<linearGradient id="paint88_linear_313_186" x1="274.114" y1="59.0659" x2="378.121" y2="59.0659" gradientUnits="userSpaceOnUse">
<stop stop-color="#7BADF4"/>
<stop offset="0.53" stop-color="white"/>
<stop offset="1" stop-color="#D7E6FC"/>
</linearGradient>
<linearGradient id="paint89_linear_313_186" x1="274.114" y1="51.4284" x2="326.775" y2="51.4284" gradientUnits="userSpaceOnUse">
<stop stop-color="#FFB92F"/>
<stop offset="1" stop-color="#F46469"/>
</linearGradient>
<linearGradient id="paint90_linear_313_186" x1="274.114" y1="30.9555" x2="378.121" y2="30.9555" gradientUnits="userSpaceOnUse">
<stop stop-color="#FFF12F"/>
<stop offset="1" stop-color="#F46469"/>
</linearGradient>
<linearGradient id="paint91_linear_313_186" x1="326.775" y1="52.3751" x2="378.121" y2="52.3751" gradientUnits="userSpaceOnUse">
<stop stop-color="#FFB92F"/>
<stop offset="1" stop-color="#F46469"/>
</linearGradient>
<linearGradient id="paint92_linear_313_186" x1="274.114" y1="45.6361" x2="378.121" y2="45.6361" gradientUnits="userSpaceOnUse">
<stop stop-color="#FFB92F"/>
<stop offset="1" stop-color="#F46469"/>
</linearGradient>
<linearGradient id="paint93_linear_313_186" x1="248.553" y1="71.0197" x2="275.848" y2="71.0197" gradientUnits="userSpaceOnUse">
<stop stop-color="#FFB92F"/>
<stop offset="1" stop-color="#F46469"/>
</linearGradient>
<linearGradient id="paint94_linear_313_186" x1="279.017" y1="310.669" x2="201.098" y2="310.669" gradientUnits="userSpaceOnUse">
<stop stop-color="#66D2FE"/>
<stop offset="0.34" stop-color="#51A7DD"/>
<stop offset="0.78" stop-color="#3973B7"/>
<stop offset="1" stop-color="#3060A8"/>
</linearGradient>
<linearGradient id="paint95_linear_313_186" x1="205.381" y1="240.987" x2="202.58" y2="343.021" gradientUnits="userSpaceOnUse">
<stop stop-color="#66D2FE"/>
<stop offset="0.34" stop-color="#51A7DD"/>
<stop offset="0.78" stop-color="#3973B7"/>
<stop offset="1" stop-color="#3060A8"/>
</linearGradient>
<linearGradient id="paint96_linear_313_186" x1="263.448" y1="267.012" x2="145.092" y2="267.012" gradientUnits="userSpaceOnUse">
<stop stop-color="#C4C4D0"/>
<stop offset="1" stop-color="#7D859E"/>
</linearGradient>
<linearGradient id="paint97_linear_313_186" x1="201.098" y1="310.77" x2="129.522" y2="310.77" gradientUnits="userSpaceOnUse">
<stop stop-color="#66D2FE"/>
<stop offset="0.34" stop-color="#51A7DD"/>
<stop offset="0.78" stop-color="#3973B7"/>
<stop offset="1" stop-color="#3060A8"/>
</linearGradient>
<linearGradient id="paint98_linear_313_186" x1="168.07" y1="257.82" x2="186.153" y2="274.463" gradientUnits="userSpaceOnUse">
<stop stop-color="#C4C4D0"/>
<stop offset="1" stop-color="#7D859E"/>
</linearGradient>
<linearGradient id="paint99_linear_313_186" x1="204.323" y1="279.557" x2="202.843" y2="333.454" gradientUnits="userSpaceOnUse">
<stop stop-color="#78C1F4"/>
<stop offset="0.53" stop-color="white"/>
<stop offset="1" stop-color="#D6ECFC"/>
</linearGradient>
<linearGradient id="paint100_linear_313_186" x1="167.293" y1="209.052" x2="184.944" y2="133.812" gradientUnits="userSpaceOnUse">
<stop stop-color="#C2C3CF"/>
<stop offset="1" stop-color="#D7D7DF"/>
</linearGradient>
<linearGradient id="paint101_linear_313_186" x1="183.413" y1="266.758" x2="214.904" y2="132.539" gradientUnits="userSpaceOnUse">
<stop stop-color="#C2C3CF"/>
<stop offset="1" stop-color="#D7D7DF"/>
</linearGradient>
<linearGradient id="paint102_linear_313_186" x1="251.326" y1="242.761" x2="176.863" y2="174.935" gradientUnits="userSpaceOnUse">
<stop stop-color="#CBCBD6"/>
<stop offset="1" stop-color="#F9FAF9"/>
</linearGradient>
<linearGradient id="paint103_linear_313_186" x1="169.999" y1="216.687" x2="255.927" y2="216.687" gradientUnits="userSpaceOnUse">
<stop stop-color="#8188A0"/>
<stop offset="1" stop-color="#626282"/>
</linearGradient>
<linearGradient id="paint104_linear_313_186" x1="193.412" y1="246.975" x2="215.374" y2="179.738" gradientUnits="userSpaceOnUse">
<stop stop-color="#66D2FE"/>
<stop offset="0.34" stop-color="#51A7DD"/>
<stop offset="0.78" stop-color="#3973B7"/>
<stop offset="1" stop-color="#3060A8"/>
</linearGradient>
</defs>
</svg>
