<svg width="655" height="529" viewBox="0 0 655 529" fill="none" xmlns="http://www.w3.org/2000/svg">
<path d="M654.975 343.287L654.735 307.05L610.837 298.148L380.184 164.509C345.759 144.562 285.564 146.958 245.74 169.843L32.9865 292.134C31.2457 293.13 29.5933 294.164 27.9786 295.21L0 303.747V336.68H0.0252287C0.29013 349.049 7.90919 360.826 23.1978 369.69L274.804 515.471C309.228 535.418 369.424 533.022 409.247 510.137L622.001 387.859C644.139 375.137 655.303 358.758 654.962 343.287H654.975Z" fill="#CDCDCD"/>
<path d="M274.803 482.537L23.2103 336.756C-11.2143 316.809 -6.83711 282.085 32.999 259.188L245.753 136.909C285.576 114.012 345.772 111.629 380.196 131.575L631.802 277.357C666.227 297.304 661.849 332.028 622.013 354.925L409.26 477.204C369.436 500.101 309.241 502.484 274.816 482.537H274.803Z" fill="#F7F7F7"/>
<g clip-path="url(#clip0_313_188)">
<path d="M300.925 308.432L397.413 252.05C399.074 251.071 399.087 248.668 397.413 247.689L335.244 210.928" stroke="#FFB06D" stroke-miterlimit="10"/>
<path d="M356.943 369.543L445.301 318.083" stroke="#B5E9FE" stroke-miterlimit="10"/>
<path d="M200.849 271.925L289.207 220.465" stroke="#B5E9FE" stroke-miterlimit="10"/>
<path d="M349.791 365.131L438.149 313.671" stroke="#FF5A72" stroke-miterlimit="10"/>
<path d="M374.572 350.699C375.903 351.474 375.903 352.72 374.585 353.483C373.266 354.259 371.11 354.259 369.778 353.483C368.446 352.708 368.446 351.462 369.765 350.699C371.084 349.923 373.24 349.923 374.572 350.699Z" fill="#FF5A72"/>
<path d="M381.839 346.464C383.171 347.24 383.171 348.486 381.852 349.249C380.533 350.025 378.377 350.025 377.045 349.249C375.713 348.473 375.713 347.227 377.032 346.464C378.351 345.689 380.507 345.689 381.839 346.464Z" fill="#FF5A72"/>
<path d="M389.106 342.23C390.437 343.006 390.437 344.252 389.118 345.015C387.8 345.79 385.643 345.79 384.312 345.015C382.98 344.239 382.98 342.993 384.299 342.23C385.618 341.454 387.774 341.454 389.106 342.23Z" fill="#FF5A72"/>
<path d="M304.147 298.285L382.638 252.419C384.299 251.44 384.312 249.037 382.638 248.058L320.469 211.297" stroke="#FF5A72" stroke-miterlimit="10"/>
<path d="M364.997 262.185C366.328 262.96 366.328 264.207 365.009 264.969C363.69 265.745 361.534 265.745 360.203 264.969C358.871 264.194 358.871 262.948 360.19 262.185C361.509 261.409 363.665 261.409 364.997 262.185Z" fill="#FF5A72"/>
<path d="M372.264 257.95C373.595 258.726 373.595 259.972 372.276 260.735C370.957 261.511 368.801 261.511 367.47 260.735C366.138 259.959 366.138 258.713 367.457 257.95C368.776 257.175 370.932 257.175 372.264 257.95Z" fill="#FF5A72"/>
<path d="M379.531 253.716C380.862 254.492 380.862 255.738 379.543 256.501C378.224 257.276 376.068 257.276 374.737 256.501C373.405 255.725 373.405 254.479 374.724 253.716C376.043 252.94 378.199 252.94 379.531 253.716Z" fill="#FF5A72"/>
<path d="M372.035 238.635C373.367 239.411 373.367 240.657 372.048 241.42C370.729 242.196 368.573 242.196 367.242 241.42C365.91 240.644 365.91 239.398 367.229 238.635C368.548 237.86 370.704 237.86 372.035 238.635Z" fill="#FF5A72"/>
<path d="M364.768 234.401C366.1 235.177 366.1 236.423 364.781 237.186C363.462 237.961 361.306 237.961 359.974 237.186C358.643 236.41 358.643 235.164 359.962 234.401C361.281 233.625 363.437 233.625 364.768 234.401Z" fill="#FF5A72"/>
<path d="M351.021 281.157L231.692 350.889C228.94 352.492 225.541 352.492 222.802 350.889L180.189 325.878" stroke="#FF5A72" stroke-miterlimit="10"/>
<path d="M216.055 344.354C217.387 345.129 217.387 346.375 216.068 347.138C214.749 347.914 212.593 347.914 211.261 347.138C209.929 346.363 209.929 345.116 211.248 344.354C212.567 343.578 214.723 343.578 216.055 344.354Z" fill="#FF5A72"/>
<path d="M208.788 340.119C210.12 340.895 210.12 342.141 208.801 342.904C207.482 343.68 205.326 343.68 203.994 342.904C202.662 342.128 202.662 340.882 203.981 340.119C205.3 339.344 207.456 339.344 208.788 340.119Z" fill="#FF5A72"/>
<path d="M364.096 373.956L452.454 322.495" stroke="#FFB06D" stroke-miterlimit="10"/>
<path d="M426.113 337.83C427.445 338.606 427.445 339.852 426.126 340.615C424.807 341.391 422.651 341.391 421.319 340.615C419.987 339.839 419.987 338.593 421.306 337.83C422.625 337.055 424.781 337.055 426.113 337.83Z" fill="#FFB06D"/>
<path d="M433.38 333.596C434.712 334.372 434.712 335.618 433.393 336.381C432.074 337.156 429.918 337.156 428.586 336.381C427.254 335.605 427.254 334.359 428.573 333.596C429.892 332.82 432.048 332.82 433.38 333.596Z" fill="#FFB06D"/>
<path d="M440.659 329.362C441.991 330.137 441.991 331.384 440.672 332.146C439.353 332.922 437.197 332.922 435.866 332.146C434.534 331.371 434.534 330.125 435.853 329.362C437.172 328.586 439.328 328.586 440.659 329.362Z" fill="#FFB06D"/>
<path d="M346.024 275.803L231.705 342.611C228.953 344.214 225.554 344.214 222.815 342.611L180.202 317.6" stroke="#FFB06D" stroke-miterlimit="10"/>
<path d="M263.868 323.729C265.199 324.504 265.199 325.75 263.88 326.513C262.561 327.289 260.405 327.289 259.074 326.513C257.742 325.738 257.742 324.492 259.061 323.729C260.38 322.953 262.536 322.953 263.868 323.729Z" fill="#FFB06D"/>
<path d="M271.134 319.494C272.466 320.27 272.466 321.516 271.147 322.279C269.828 323.055 267.672 323.055 266.341 322.279C265.009 321.503 265.009 320.257 266.328 319.494C267.647 318.719 269.803 318.719 271.134 319.494Z" fill="#FFB06D"/>
<path d="M278.401 315.26C279.733 316.036 279.733 317.282 278.414 318.045C277.095 318.82 274.939 318.82 273.608 318.045C272.276 317.269 272.276 316.023 273.595 315.26C274.914 314.484 277.07 314.484 278.401 315.26Z" fill="#FFB06D"/>
<path d="M208.002 276.337L296.36 224.877" stroke="#FFB06D" stroke-miterlimit="10"/>
<path d="M271.401 239.525C272.732 240.301 272.732 241.547 271.414 242.31C270.095 243.086 267.939 243.086 266.607 242.31C265.275 241.534 265.275 240.288 266.594 239.525C267.913 238.75 270.069 238.75 271.401 239.525Z" fill="#FFB06D"/>
<path d="M278.668 235.291C279.999 236.067 279.999 237.313 278.68 238.076C277.362 238.851 275.206 238.851 273.874 238.076C272.542 237.3 272.542 236.054 273.861 235.291C275.18 234.515 277.336 234.515 278.668 235.291Z" fill="#FFB06D"/>
<path d="M285.935 231.057C287.266 231.832 287.266 233.078 285.947 233.841C284.628 234.617 282.472 234.617 281.141 233.841C279.809 233.066 279.809 231.82 281.128 231.057C282.447 230.281 284.603 230.281 285.935 231.057Z" fill="#FFB06D"/>
<path d="M330.171 314.205L444.49 247.396C447.242 245.794 450.641 245.794 453.38 247.396L495.993 272.408" stroke="#FFB06D" stroke-miterlimit="10"/>
<path d="M391.769 278.194C393.101 278.969 393.101 280.216 391.782 280.979C390.463 281.754 388.307 281.754 386.975 280.979C385.644 280.203 385.644 278.957 386.963 278.194C388.281 277.418 390.437 277.418 391.769 278.194Z" fill="#FFB06D"/>
<path d="M399.036 273.959C400.368 274.735 400.368 275.981 399.049 276.744C397.73 277.52 395.574 277.52 394.242 276.744C392.911 275.969 392.911 274.722 394.23 273.959C395.549 273.184 397.705 273.184 399.036 273.959Z" fill="#FFB06D"/>
<path d="M406.316 269.725C407.647 270.501 407.647 271.747 406.328 272.51C405.009 273.286 402.853 273.286 401.522 272.51C400.19 271.734 400.19 270.488 401.509 269.725C402.828 268.949 404.984 268.949 406.316 269.725Z" fill="#FFB06D"/>
<path d="M325.161 308.851L444.49 239.118C447.242 237.516 450.641 237.516 453.38 239.118L495.993 264.13" stroke="#B5E9FE" stroke-miterlimit="10"/>
<path d="M370.45 282.428C371.782 283.204 371.782 284.45 370.463 285.213C369.144 285.989 366.988 285.989 365.656 285.213C364.324 284.437 364.324 283.191 365.643 282.428C366.962 281.652 369.118 281.652 370.45 282.428Z" fill="#B5E9FE"/>
<path d="M377.717 278.194C379.049 278.969 379.049 280.216 377.73 280.979C376.411 281.741 374.255 281.754 372.923 280.979C371.592 280.203 371.592 278.957 372.91 278.194C374.229 277.418 376.385 277.418 377.717 278.194Z" fill="#B5E9FE"/>
<path d="M384.984 273.959C386.316 274.735 386.316 275.981 384.997 276.744C383.678 277.52 381.522 277.52 380.19 276.744C378.858 275.969 378.858 274.722 380.177 273.959C381.496 273.184 383.652 273.184 384.984 273.959Z" fill="#B5E9FE"/>
<path d="M351.021 300.79L272.53 346.655C270.868 347.634 270.856 350.037 272.53 351.016L334.699 387.778" stroke="#FF5A72" stroke-miterlimit="10"/>
<path d="M290.462 358.888C291.794 359.663 291.794 360.909 290.475 361.672C289.156 362.448 287 362.448 285.669 361.672C284.337 360.897 284.337 359.65 285.656 358.888C286.975 358.112 289.131 358.112 290.462 358.888Z" fill="#FF5A72"/>
<path d="M283.195 354.64C284.527 355.416 284.527 356.662 283.208 357.425C281.889 358.201 279.733 358.201 278.402 357.425C277.07 356.65 277.07 355.403 278.389 354.64C279.708 353.865 281.864 353.865 283.195 354.64Z" fill="#FF5A72"/>
<path d="M294.394 334.079C295.726 334.855 295.726 336.101 294.407 336.864C293.088 337.64 290.932 337.64 289.6 336.864C288.269 336.088 288.269 334.842 289.588 334.079C290.906 333.304 293.062 333.304 294.394 334.079Z" fill="#FF5A72"/>
<path d="M301.661 329.845C302.993 330.621 302.993 331.867 301.674 332.63C300.355 333.405 298.199 333.405 296.867 332.63C295.536 331.854 295.536 330.608 296.855 329.845C298.174 329.069 300.33 329.069 301.661 329.845Z" fill="#FF5A72"/>
<path d="M308.928 325.611C310.26 326.386 310.26 327.632 308.941 328.395C307.622 329.171 305.466 329.171 304.134 328.395C302.802 327.62 302.802 326.374 304.121 325.611C305.44 324.835 307.596 324.835 308.928 325.611Z" fill="#FF5A72"/>
<path d="M354.255 290.642L257.767 347.024C256.106 348.003 256.093 350.406 257.767 351.385L319.936 388.146" stroke="#B5E9FE" stroke-miterlimit="10"/>
<path d="M268.89 340.285C270.221 341.06 270.221 342.306 268.902 343.069C267.583 343.845 265.427 343.845 264.096 343.069C262.764 342.294 262.764 341.047 264.083 340.285C265.402 339.509 267.558 339.509 268.89 340.285Z" fill="#B5E9FE"/>
<path d="M276.169 336.05C277.501 336.826 277.501 338.072 276.182 338.835C274.863 339.611 272.707 339.611 271.375 338.835C270.044 338.059 270.044 336.813 271.363 336.05C272.682 335.275 274.838 335.275 276.169 336.05Z" fill="#B5E9FE"/>
<path d="M283.436 331.816C284.768 332.592 284.768 333.838 283.449 334.601C282.13 335.376 279.974 335.376 278.642 334.601C277.311 333.825 277.311 332.579 278.63 331.816C279.949 331.04 282.105 331.04 283.436 331.816Z" fill="#B5E9FE"/>
<path d="M193.696 267.513L282.054 216.039" stroke="#FF5A72" stroke-miterlimit="10"/>
<path d="M248.053 235.851C249.384 236.626 249.384 237.872 248.065 238.635C246.746 239.411 244.59 239.411 243.259 238.635C241.927 237.86 241.927 236.613 243.246 235.851C244.565 235.075 246.721 235.075 248.053 235.851Z" fill="#FF5A72"/>
<path d="M255.32 231.616C256.651 232.392 256.651 233.638 255.332 234.401C254.013 235.177 251.857 235.177 250.526 234.401C249.194 233.625 249.194 232.379 250.513 231.616C251.832 230.841 253.988 230.841 255.32 231.616Z" fill="#FF5A72"/>
<path d="M262.587 227.382C263.918 228.158 263.918 229.404 262.599 230.167C261.28 230.942 259.124 230.942 257.793 230.167C256.461 229.391 256.461 228.145 257.78 227.382C259.099 226.606 261.255 226.606 262.587 227.382Z" fill="#FF5A72"/>
<path d="M211.578 102.539C211.578 101.891 212.035 101.102 212.593 100.784C213.151 100.467 213.607 100.721 213.607 101.369C213.607 102.018 213.151 102.806 212.593 103.124C212.035 103.442 211.578 103.188 211.578 102.539Z" fill="white"/>
<path d="M211.578 89.5947C211.578 88.9462 212.035 88.1578 212.593 87.8399C213.151 87.522 213.607 87.7763 213.607 88.4248C213.607 89.0733 213.151 89.8617 212.593 90.1796C212.035 90.4975 211.578 90.2432 211.578 89.5947Z" fill="white"/>
<path d="M211.578 76.6374C211.578 75.9889 212.035 75.2005 212.593 74.8826C213.151 74.5647 213.607 74.8191 213.607 75.4676C213.607 76.1161 213.151 76.9044 212.593 77.2223C212.035 77.5402 211.578 77.2859 211.578 76.6374Z" fill="white"/>
<path d="M211.578 63.6928C211.578 63.0443 212.035 62.2559 212.593 61.9381C213.151 61.6202 213.607 61.8745 213.607 62.523C213.607 63.1715 213.151 63.9599 212.593 64.2777C212.035 64.5956 211.578 64.3413 211.578 63.6928Z" fill="white"/>
<path d="M211.578 50.7355C211.578 50.087 212.035 49.2987 212.593 48.9808C213.151 48.6629 213.607 48.9172 213.607 49.5657C213.607 50.2142 213.151 51.0026 212.593 51.3205C212.035 51.6384 211.578 51.384 211.578 50.7355Z" fill="white"/>
<path d="M211.578 37.791C211.578 37.1425 212.035 36.3541 212.593 36.0362C213.151 35.7183 213.607 35.9726 213.607 36.6211C213.607 37.2696 213.151 38.058 212.593 38.3759C212.035 38.6938 211.578 38.4395 211.578 37.791Z" fill="white"/>
<path d="M211.578 24.8337C211.578 24.1852 212.035 23.3968 212.593 23.0789C213.151 22.761 213.607 23.0153 213.607 23.6638C213.607 24.3123 213.151 25.1007 212.593 25.4186C212.035 25.7365 211.578 25.4822 211.578 24.8337Z" fill="white"/>
<path d="M266.784 133.515C266.784 132.866 267.241 132.078 267.799 131.76C268.357 131.442 268.814 131.696 268.814 132.345C268.814 132.993 268.357 133.782 267.799 134.1C267.241 134.417 266.784 134.163 266.784 133.515Z" fill="white"/>
<path d="M266.784 120.57C266.784 119.922 267.241 119.133 267.799 118.815C268.357 118.497 268.814 118.752 268.814 119.4C268.814 120.049 268.357 120.837 267.799 121.155C267.241 121.473 266.784 121.219 266.784 120.57Z" fill="white"/>
<path d="M266.784 107.626C266.784 106.977 267.241 106.189 267.799 105.871C268.357 105.553 268.814 105.807 268.814 106.456C268.814 107.104 268.357 107.893 267.799 108.21C267.241 108.528 266.784 108.274 266.784 107.626Z" fill="white"/>
<path d="M266.784 94.6683C266.784 94.0198 267.241 93.2314 267.799 92.9135C268.357 92.5956 268.814 92.8499 268.814 93.4984C268.814 94.1469 268.357 94.9353 267.799 95.2532C267.241 95.5711 266.784 95.3168 266.784 94.6683Z" fill="white"/>
<path d="M266.784 81.7237C266.784 81.0752 267.241 80.2868 267.799 79.9689C268.357 79.651 268.814 79.9054 268.814 80.5539C268.814 81.2024 268.357 81.9907 267.799 82.3086C267.241 82.6265 266.784 82.3722 266.784 81.7237Z" fill="white"/>
<path d="M266.784 68.7664C266.784 68.1179 267.241 67.3296 267.799 67.0117C268.357 66.6938 268.814 66.9481 268.814 67.5966C268.814 68.2451 268.357 69.0335 267.799 69.3514C267.241 69.6692 266.784 69.4149 266.784 68.7664Z" fill="white"/>
<path d="M266.784 55.8219C266.784 55.1734 267.241 54.385 267.799 54.0671C268.357 53.7492 268.814 54.0035 268.814 54.652C268.814 55.3005 268.357 56.0889 267.799 56.4068C267.241 56.7247 266.784 56.4704 266.784 55.8219Z" fill="white"/>
<path d="M456.081 104.154C456.081 103.506 456.538 102.717 457.096 102.399C457.654 102.081 458.11 102.336 458.11 102.984C458.11 103.633 457.654 104.421 457.096 104.739C456.538 105.057 456.081 104.803 456.081 104.154Z" fill="white"/>
<path d="M456.081 91.2096C456.081 90.5611 456.538 89.7727 457.096 89.4548C457.654 89.1369 458.11 89.3913 458.11 90.0398C458.11 90.6883 457.654 91.4766 457.096 91.7945C456.538 92.1124 456.081 91.8581 456.081 91.2096Z" fill="white"/>
<path d="M456.081 78.2523C456.081 77.6038 456.538 76.8155 457.096 76.4976C457.654 76.1797 458.11 76.434 458.11 77.0825C458.11 77.731 457.654 78.5194 457.096 78.8373C456.538 79.1551 456.081 78.9008 456.081 78.2523Z" fill="white"/>
<path d="M456.081 65.3078C456.081 64.6593 456.538 63.8709 457.096 63.553C457.654 63.2351 458.11 63.4894 458.11 64.1379C458.11 64.7864 457.654 65.5748 457.096 65.8927C456.538 66.2106 456.081 65.9563 456.081 65.3078Z" fill="white"/>
<path d="M456.081 52.3505C456.081 51.702 456.538 50.9136 457.096 50.5957C457.654 50.2778 458.11 50.5321 458.11 51.1806C458.11 51.8291 457.654 52.6175 457.096 52.9354C456.538 53.2533 456.081 52.999 456.081 52.3505Z" fill="white"/>
<path d="M456.081 39.4059C456.081 38.7574 456.538 37.969 457.096 37.6511C457.654 37.3332 458.11 37.5875 458.11 38.236C458.11 38.8845 457.654 39.6729 457.096 39.9908C456.538 40.3087 456.081 40.0544 456.081 39.4059Z" fill="white"/>
<path d="M456.081 26.4613C456.081 25.8128 456.538 25.0244 457.096 24.7065C457.654 24.3887 458.11 24.643 458.11 25.2915C458.11 25.94 457.654 26.7283 457.096 27.0462C456.538 27.3641 456.081 27.1098 456.081 26.4613Z" fill="white"/>
<path d="M441.535 82.2959C441.535 81.6474 441.991 80.859 442.549 80.5411C443.107 80.2233 443.564 80.4776 443.564 81.1261C443.564 81.7746 443.107 82.5629 442.549 82.8808C441.991 83.1987 441.535 82.9444 441.535 82.2959Z" fill="white"/>
<path d="M441.535 69.3386C441.535 68.6901 441.991 67.9018 442.549 67.5839C443.107 67.266 443.564 67.5203 443.564 68.1688C443.564 68.8173 443.107 69.6057 442.549 69.9236C441.991 70.2414 441.535 69.9871 441.535 69.3386Z" fill="white"/>
<path d="M441.535 56.3941C441.535 55.7455 441.991 54.9572 442.549 54.6393C443.107 54.3214 443.564 54.5757 443.564 55.2242C443.564 55.8727 443.107 56.6611 442.549 56.979C441.991 57.2969 441.535 57.0426 441.535 56.3941Z" fill="white"/>
<path d="M441.535 43.4368C441.535 42.7883 441.991 41.9999 442.549 41.682C443.107 41.3641 443.564 41.6184 443.564 42.2669C443.564 42.9154 443.107 43.7038 442.549 44.0217C441.991 44.3396 441.535 44.0853 441.535 43.4368Z" fill="white"/>
<path d="M441.535 30.4922C441.535 29.8437 441.991 29.0553 442.549 28.7374C443.107 28.4195 443.564 28.6739 443.564 29.3224C443.564 29.9709 443.107 30.7592 442.549 31.0771C441.991 31.395 441.535 31.1407 441.535 30.4922Z" fill="white"/>
<path d="M441.535 17.5476C441.535 16.8991 441.991 16.1107 442.549 15.7929C443.107 15.475 443.564 15.7293 443.564 16.3778C443.564 17.0263 443.107 17.8146 442.549 18.1325C441.991 18.4504 441.535 18.1961 441.535 17.5476Z" fill="white"/>
<path d="M441.535 4.59034C441.535 3.94184 441.991 3.15347 442.549 2.83558C443.107 2.51769 443.564 2.772 443.564 3.4205C443.564 4.069 443.107 4.85737 442.549 5.17526C441.991 5.49316 441.535 5.23884 441.535 4.59034Z" fill="white"/>
<path d="M279.784 97.9871C279.784 97.3386 280.24 96.5502 280.798 96.2323C281.356 95.9144 281.813 96.1687 281.813 96.8172C281.813 97.4657 281.356 98.2541 280.798 98.572C280.24 98.8899 279.784 98.6356 279.784 97.9871Z" fill="white"/>
<path d="M279.784 85.0298C279.784 84.3813 280.24 83.5929 280.798 83.275C281.356 82.9571 281.813 83.2115 281.813 83.86C281.813 84.5085 281.356 85.2968 280.798 85.6147C280.24 85.9326 279.784 85.6783 279.784 85.0298Z" fill="white"/>
<path d="M279.784 72.0852C279.784 71.4367 280.24 70.6483 280.798 70.3305C281.356 70.0126 281.813 70.2669 281.813 70.9154C281.813 71.5639 281.356 72.3522 280.798 72.6701C280.24 72.988 279.784 72.7337 279.784 72.0852Z" fill="white"/>
<path d="M279.784 59.1279C279.784 58.4794 280.24 57.6911 280.798 57.3732C281.356 57.0553 281.813 57.3096 281.813 57.9581C281.813 58.6066 281.356 59.395 280.798 59.7129C280.24 60.0308 279.784 59.7764 279.784 59.1279Z" fill="white"/>
<path d="M279.784 46.1834C279.784 45.5349 280.24 44.7465 280.798 44.4286C281.356 44.1107 281.813 44.365 281.813 45.0135C281.813 45.662 281.356 46.4504 280.798 46.7683C280.24 47.0862 279.784 46.8319 279.784 46.1834Z" fill="white"/>
<path d="M279.784 33.2261C279.784 32.5776 280.24 31.7892 280.798 31.4713C281.356 31.1534 281.813 31.4077 281.813 32.0562C281.813 32.7047 281.356 33.4931 280.798 33.811C280.24 34.1289 279.784 33.8746 279.784 33.2261Z" fill="white"/>
<path d="M279.784 20.2815C279.784 19.633 280.24 18.8446 280.798 18.5267C281.356 18.2088 281.813 18.4632 281.813 19.1117C281.813 19.7602 281.356 20.5485 280.798 20.8664C280.24 21.1843 279.784 20.93 279.784 20.2815Z" fill="white"/>
<path d="M233.126 295.92L163.537 336.457C159.099 339.038 151.882 339.038 147.418 336.457L77.3862 295.92C75.1414 294.623 74.0127 292.906 74.0254 291.202L74 298.857C74 300.561 75.116 302.265 77.3608 303.574L147.393 344.112C151.857 346.693 159.073 346.693 163.512 344.112L233.1 303.574C235.307 302.29 236.41 300.612 236.41 298.92L236.436 291.266C236.436 292.944 235.332 294.635 233.126 295.92Z" fill="url(#paint0_linear_313_188)"/>
<path d="M233.075 286.561C237.539 289.142 237.564 293.338 233.126 295.92L163.537 336.457C159.099 339.038 151.882 339.038 147.418 336.457L77.3862 295.92C72.922 293.338 72.8966 289.142 77.3354 286.561L146.924 246.023C151.362 243.442 158.579 243.442 163.043 246.023L233.075 286.561Z" fill="#A4D4ED"/>
<path d="M199.162 319.38C199.162 318.859 199.53 318.223 199.987 317.956C200.443 317.689 200.811 317.905 200.811 318.426C200.811 318.948 200.443 319.583 199.987 319.85C199.53 320.117 199.162 319.901 199.162 319.38Z" fill="#FF5A72"/>
<path d="M207.444 314.586C207.444 314.065 207.812 313.429 208.268 313.162C208.725 312.895 209.093 313.111 209.093 313.632C209.093 314.154 208.725 314.79 208.268 315.057C207.812 315.324 207.444 315.107 207.444 314.586Z" fill="#FF5A72"/>
<path d="M216.119 309.563C216.119 309.042 216.486 308.406 216.943 308.139C217.399 307.872 217.767 308.088 217.767 308.61C217.767 309.131 217.399 309.767 216.943 310.034C216.486 310.301 216.119 310.085 216.119 309.563Z" fill="#FF5A72"/>
<path d="M224.387 304.77C224.387 304.248 224.755 303.613 225.212 303.345C225.668 303.078 226.036 303.295 226.036 303.816C226.036 304.337 225.668 304.973 225.212 305.24C224.755 305.507 224.387 305.291 224.387 304.77Z" fill="#FF5A72"/>
<path d="M233.126 275.384L163.537 315.921C159.099 318.503 151.882 318.503 147.418 315.921L77.3862 275.384C75.1414 274.087 74.0127 272.37 74.0254 270.666L74 278.321C74 280.025 75.116 281.729 77.3608 283.039L147.393 323.576C151.857 326.157 159.073 326.157 163.512 323.576L233.1 283.039C235.307 281.754 236.41 280.076 236.41 278.385L236.436 270.73C236.436 272.408 235.332 274.099 233.126 275.384Z" fill="url(#paint1_linear_313_188)"/>
<path d="M233.075 266.012C237.539 268.593 237.564 272.79 233.126 275.371L163.537 315.909C159.099 318.49 151.882 318.49 147.418 315.909L77.3862 275.384C72.922 272.802 72.8966 268.606 77.3354 266.025L146.924 225.487C151.362 222.906 158.579 222.906 163.043 225.487L233.075 266.025V266.012Z" fill="#A4D4ED"/>
<path d="M233.126 254.835L163.537 295.373C159.099 297.954 151.882 297.954 147.418 295.373L77.3862 254.835C75.1414 253.538 74.0127 251.822 74.0254 250.118L74 257.772C74 259.476 75.116 261.18 77.3608 262.49L147.393 303.028C151.857 305.609 159.073 305.609 163.512 303.028L233.1 262.49C235.307 261.206 236.41 259.527 236.41 257.836L236.436 250.181C236.436 251.86 235.332 253.551 233.126 254.835Z" fill="url(#paint2_linear_313_188)"/>
<path d="M233.075 245.476C237.539 248.058 237.564 252.254 233.126 254.835L163.537 295.373C159.099 297.954 151.882 297.954 147.418 295.373L77.3862 254.835C72.922 252.254 72.8966 248.058 77.3354 245.476L146.924 204.939C151.362 202.357 158.579 202.357 163.043 204.939L233.075 245.476Z" fill="#A4D4ED"/>
<path d="M233.126 234.299L163.537 274.837C159.099 277.418 151.882 277.418 147.418 274.837L77.3862 234.299C75.1414 233.002 74.0127 231.286 74.0254 229.582L74 237.237C74 238.941 75.116 240.644 77.3608 241.954L147.393 282.492C151.857 285.073 159.073 285.073 163.512 282.492L233.1 241.954C235.307 240.67 236.41 238.991 236.41 237.3L236.436 229.645C236.436 231.324 235.332 233.015 233.126 234.299Z" fill="url(#paint3_linear_313_188)"/>
<path d="M233.075 224.928C237.539 227.509 237.564 231.705 233.126 234.287L163.537 274.824C159.099 277.405 151.882 277.405 147.418 274.824L77.3862 234.299C72.922 231.718 72.8966 227.522 77.3354 224.941L146.924 184.403C151.362 181.822 158.579 181.822 163.043 184.403L233.075 224.941V224.928Z" fill="#A4D4ED"/>
<path d="M119.01 263.698C118.629 263.469 118.312 262.884 118.312 262.363C118.312 261.841 118.629 261.613 119.01 261.829C119.39 262.058 119.707 262.643 119.707 263.164C119.707 263.685 119.39 263.914 119.01 263.698Z" fill="#B5E9FE"/>
<path d="M125.934 267.703C125.554 267.475 125.237 266.89 125.237 266.368C125.237 265.847 125.554 265.618 125.934 265.834C126.315 266.063 126.632 266.648 126.632 267.169C126.632 267.691 126.315 267.92 125.934 267.703Z" fill="#B5E9FE"/>
<path d="M132.859 271.709C132.478 271.48 132.161 270.895 132.161 270.374C132.161 269.852 132.478 269.623 132.859 269.84C133.239 270.069 133.556 270.666 133.556 271.175C133.556 271.683 133.239 271.925 132.859 271.709Z" fill="#B5E9FE"/>
<path d="M139.783 275.714C139.403 275.485 139.086 274.888 139.086 274.379C139.086 273.871 139.403 273.629 139.783 273.845C140.164 274.074 140.481 274.659 140.481 275.18C140.481 275.702 140.164 275.93 139.783 275.714Z" fill="#B5E9FE"/>
<path d="M194.825 260.214C194.825 259.693 195.193 259.057 195.649 258.79C196.106 258.523 196.474 258.739 196.474 259.26C196.474 259.782 196.106 260.417 195.649 260.684C195.193 260.951 194.825 260.735 194.825 260.214Z" fill="#FF5A72"/>
<path d="M203.106 255.42C203.106 254.899 203.474 254.263 203.931 253.996C204.387 253.729 204.755 253.945 204.755 254.466C204.755 254.988 204.387 255.624 203.931 255.891C203.474 256.158 203.106 255.941 203.106 255.42Z" fill="#FF5A72"/>
<path d="M211.781 250.397C211.781 249.876 212.149 249.24 212.605 248.973C213.062 248.706 213.43 248.922 213.43 249.444C213.43 249.965 213.062 250.601 212.605 250.868C212.149 251.135 211.781 250.919 211.781 250.397Z" fill="#FF5A72"/>
<path d="M220.05 245.616C220.05 245.095 220.418 244.459 220.874 244.192C221.331 243.925 221.699 244.141 221.699 244.663C221.699 245.184 221.331 245.82 220.874 246.087C220.418 246.354 220.05 246.138 220.05 245.616Z" fill="#FF5A72"/>
<path d="M119.01 283.636C118.629 283.407 118.312 282.822 118.312 282.301C118.312 281.78 118.629 281.551 119.01 281.767C119.39 281.996 119.707 282.593 119.707 283.102C119.707 283.611 119.39 283.852 119.01 283.636Z" fill="#B5E9FE"/>
<path d="M125.934 287.642C125.554 287.413 125.237 286.815 125.237 286.306C125.237 285.798 125.554 285.556 125.934 285.772C126.315 286.001 126.632 286.586 126.632 287.108C126.632 287.629 126.315 287.858 125.934 287.642Z" fill="#B5E9FE"/>
<path d="M132.859 291.647C132.478 291.418 132.161 290.833 132.161 290.312C132.161 289.791 132.478 289.562 132.859 289.778C133.239 290.007 133.556 290.592 133.556 291.113C133.556 291.634 133.239 291.863 132.859 291.647Z" fill="#B5E9FE"/>
<path d="M139.783 295.665C139.403 295.436 139.086 294.851 139.086 294.33C139.086 293.809 139.403 293.58 139.783 293.796C140.164 294.025 140.481 294.623 140.481 295.131C140.481 295.64 140.164 295.881 139.783 295.665Z" fill="#B5E9FE"/>
<path d="M402.397 400.862L332.809 441.4C328.37 443.981 321.154 443.981 316.69 441.4L246.658 400.862C244.413 399.565 243.284 397.848 243.297 396.145L243.271 403.799C243.271 405.503 244.387 407.207 246.632 408.517L316.664 449.055C321.128 451.636 328.345 451.636 332.783 449.055L402.372 408.517C404.578 407.233 405.682 405.554 405.682 403.863L405.707 396.208C405.707 397.887 404.604 399.578 402.397 400.862Z" fill="url(#paint4_linear_313_188)"/>
<path d="M402.346 391.503C406.81 394.085 406.836 398.281 402.397 400.862L332.809 441.4C328.37 443.981 321.154 443.981 316.689 441.4L246.658 400.862C242.193 398.281 242.168 394.085 246.607 391.503L316.195 350.966C320.634 348.384 327.85 348.384 332.314 350.966L402.346 391.503Z" fill="#A4D4ED"/>
<path d="M283.918 427.4C283.538 427.171 283.221 426.573 283.221 426.065C283.221 425.556 283.538 425.314 283.918 425.531C284.299 425.759 284.616 426.344 284.616 426.866C284.616 427.387 284.299 427.616 283.918 427.4Z" fill="#B5E9FE"/>
<path d="M290.83 431.418C290.45 431.189 290.133 430.604 290.133 430.083C290.133 429.561 290.45 429.333 290.83 429.549C291.211 429.778 291.528 430.362 291.528 430.884C291.528 431.405 291.211 431.634 290.83 431.418Z" fill="#B5E9FE"/>
<path d="M297.755 435.423C297.374 435.194 297.057 434.61 297.057 434.088C297.057 433.567 297.374 433.338 297.755 433.554C298.135 433.783 298.452 434.381 298.452 434.889C298.452 435.398 298.135 435.639 297.755 435.423Z" fill="#B5E9FE"/>
<path d="M304.679 439.429C304.299 439.2 303.982 438.602 303.982 438.094C303.982 437.585 304.299 437.343 304.679 437.56C305.06 437.776 305.377 438.373 305.377 438.895C305.377 439.416 305.06 439.645 304.679 439.429Z" fill="#B5E9FE"/>
<path d="M373.316 422.441C373.316 421.919 373.684 421.283 374.141 421.016C374.597 420.749 374.965 420.966 374.965 421.487C374.965 422.008 374.597 422.644 374.141 422.911C373.684 423.178 373.316 422.962 373.316 422.441Z" fill="#FF5A72"/>
<path d="M381.598 417.647C381.598 417.125 381.965 416.49 382.422 416.223C382.879 415.956 383.246 416.172 383.246 416.693C383.246 417.214 382.879 417.85 382.422 418.117C381.965 418.384 381.598 418.168 381.598 417.647Z" fill="#FF5A72"/>
<path d="M390.272 412.624C390.272 412.103 390.64 411.467 391.097 411.2C391.553 410.933 391.921 411.149 391.921 411.67C391.921 412.192 391.553 412.828 391.097 413.095C390.64 413.362 390.272 413.145 390.272 412.624Z" fill="#FF5A72"/>
<path d="M398.541 407.843C398.541 407.322 398.909 406.686 399.366 406.419C399.822 406.152 400.19 406.368 400.19 406.889C400.19 407.411 399.822 408.046 399.366 408.313C398.909 408.58 398.541 408.364 398.541 407.843Z" fill="#FF5A72"/>
<path d="M569.69 294.355L500.102 334.893C495.663 337.474 488.447 337.474 483.983 334.893L413.951 294.355C411.706 293.058 410.577 291.342 410.59 289.638L410.564 297.293C410.564 298.997 411.68 300.701 413.925 302.01L483.957 342.548C488.421 345.129 495.638 345.129 500.077 342.548L569.665 302.01C571.871 300.726 572.975 299.048 572.975 297.356L573 289.702C573 291.38 571.897 293.071 569.69 294.355Z" fill="url(#paint5_linear_313_188)"/>
<path d="M569.639 284.997C574.103 287.578 574.129 291.774 569.69 294.355L500.102 334.893C495.663 337.474 488.447 337.474 483.982 334.893L413.95 294.355C409.486 291.774 409.461 287.578 413.9 284.997L483.488 244.459C487.927 241.878 495.143 241.878 499.607 244.459L569.639 284.997Z" fill="#A4D4ED"/>
<path d="M538.187 317.587C538.187 317.066 538.555 316.43 539.011 316.163C539.468 315.896 539.836 316.112 539.836 316.633C539.836 317.155 539.468 317.79 539.011 318.058C538.555 318.325 538.187 318.108 538.187 317.587Z" fill="#FF5A72"/>
<path d="M546.469 312.793C546.469 312.272 546.836 311.636 547.293 311.369C547.749 311.102 548.117 311.318 548.117 311.84C548.117 312.361 547.749 312.997 547.293 313.264C546.836 313.531 546.469 313.315 546.469 312.793Z" fill="#FF5A72"/>
<path d="M555.143 307.771C555.143 307.249 555.511 306.613 555.968 306.346C556.424 306.079 556.792 306.296 556.792 306.817C556.792 307.338 556.424 307.974 555.968 308.241C555.511 308.508 555.143 308.292 555.143 307.771Z" fill="#FF5A72"/>
<path d="M563.412 302.977C563.412 302.455 563.78 301.82 564.236 301.553C564.693 301.286 565.061 301.502 565.061 302.023C565.061 302.544 564.693 303.18 564.236 303.447C563.78 303.714 563.412 303.498 563.412 302.977Z" fill="#FF5A72"/>
<path d="M569.69 273.82L500.102 314.357C495.663 316.939 488.447 316.939 483.983 314.357L413.951 273.82C411.706 272.523 410.577 270.806 410.59 269.102L410.564 276.757C410.564 278.461 411.68 280.165 413.925 281.475L483.957 322.012C488.421 324.593 495.638 324.593 500.077 322.012L569.665 281.475C571.871 280.19 572.975 278.512 572.975 276.821L573 269.166C573 270.844 571.897 272.535 569.69 273.82Z" fill="url(#paint6_linear_313_188)"/>
<path d="M569.639 264.448C574.103 267.029 574.129 271.226 569.69 273.807L500.102 314.345C495.663 316.926 488.447 316.926 483.982 314.345L413.95 273.807C409.486 271.226 409.461 267.029 413.9 264.448L483.488 223.911C487.927 221.329 495.143 221.329 499.607 223.911L569.639 264.448Z" fill="#A4D4ED"/>
<path d="M569.69 253.271L500.102 293.809C495.663 296.39 488.447 296.39 483.983 293.809L413.951 253.271C411.706 251.974 410.577 250.257 410.59 248.554L410.564 256.208C410.564 257.912 411.68 259.616 413.925 260.926L483.957 301.464C488.421 304.045 495.638 304.045 500.077 301.464L569.665 260.926C571.871 259.642 572.975 257.963 572.975 256.272L573 248.617C573 250.296 571.897 251.987 569.69 253.271Z" fill="url(#paint7_linear_313_188)"/>
<path d="M569.639 243.912C574.103 246.494 574.129 250.69 569.69 253.271L500.102 293.809C495.663 296.39 488.447 296.39 483.982 293.809L413.95 253.271C409.486 250.69 409.461 246.494 413.9 243.912L483.488 203.375C487.927 200.793 495.143 200.793 499.607 203.375L569.639 243.912Z" fill="#A4D4ED"/>
<path d="M506.57 294.254C506.57 293.732 506.938 293.097 507.394 292.83C507.851 292.563 508.219 292.779 508.219 293.3C508.219 293.821 507.851 294.457 507.394 294.724C506.938 294.991 506.57 294.775 506.57 294.254Z" fill="#FF5A72"/>
<path d="M514.839 289.473C514.839 288.951 515.207 288.316 515.663 288.049C516.12 287.782 516.488 287.998 516.488 288.519C516.488 289.04 516.12 289.676 515.663 289.943C515.207 290.21 514.839 289.994 514.839 289.473Z" fill="#FF5A72"/>
<path d="M523.513 284.45C523.513 283.929 523.881 283.293 524.338 283.026C524.794 282.759 525.162 282.975 525.162 283.496C525.162 284.018 524.794 284.653 524.338 284.92C523.881 285.187 523.513 284.971 523.513 284.45Z" fill="#FF5A72"/>
<path d="M531.795 279.656C531.795 279.135 532.163 278.499 532.62 278.232C533.076 277.965 533.444 278.181 533.444 278.702C533.444 279.224 533.076 279.86 532.62 280.127C532.163 280.394 531.795 280.177 531.795 279.656Z" fill="#FF5A72"/>
<path d="M569.69 253.271L500.102 293.809C495.663 296.39 488.447 296.39 483.983 293.809L413.951 253.271C411.706 251.974 410.577 250.257 410.59 248.554L410.564 256.208C410.564 257.912 411.68 259.616 413.925 260.926L483.957 301.464C488.421 304.045 495.638 304.045 500.077 301.464L569.665 260.926C571.871 259.642 572.975 257.963 572.975 256.272L573 248.617C573 250.296 571.897 251.987 569.69 253.271Z" fill="url(#paint8_linear_313_188)"/>
<path d="M569.639 243.912C574.103 246.494 574.129 250.69 569.69 253.271L500.102 293.809C495.663 296.39 488.447 296.39 483.982 293.809L413.95 253.271C409.486 250.69 409.461 246.494 413.9 243.912L483.488 203.375C487.927 200.793 495.143 200.793 499.607 203.375L569.639 243.912Z" fill="#A4D4ED"/>
<path opacity="0.72" d="M507.268 247.663C508.155 248.172 508.155 249.011 507.268 249.52L493.431 257.582C492.543 258.09 491.11 258.09 490.222 257.582L476.297 249.52C475.409 249.011 475.409 248.172 476.297 247.663L490.134 239.602C491.021 239.093 492.454 239.093 493.342 239.602L507.268 247.663Z" fill="url(#paint9_linear_313_188)"/>
<path d="M506.57 294.254C506.57 293.732 506.938 293.097 507.394 292.83C507.851 292.563 508.219 292.779 508.219 293.3C508.219 293.821 507.851 294.457 507.394 294.724C506.938 294.991 506.57 294.775 506.57 294.254Z" fill="#FF5A72"/>
<path d="M514.839 289.473C514.839 288.951 515.207 288.316 515.663 288.049C516.12 287.782 516.488 287.998 516.488 288.519C516.488 289.04 516.12 289.676 515.663 289.943C515.207 290.21 514.839 289.994 514.839 289.473Z" fill="#FF5A72"/>
<path d="M523.513 284.45C523.513 283.929 523.881 283.293 524.338 283.026C524.794 282.759 525.162 282.975 525.162 283.496C525.162 284.018 524.794 284.653 524.338 284.92C523.881 285.187 523.513 284.971 523.513 284.45Z" fill="#FF5A72"/>
<path d="M531.795 279.656C531.795 279.135 532.163 278.499 532.62 278.232C533.076 277.965 533.444 278.181 533.444 278.702C533.444 279.224 533.076 279.86 532.62 280.127C532.163 280.394 531.795 280.177 531.795 279.656Z" fill="#FF5A72"/>
<path d="M448.409 278.334C448.028 278.105 447.711 277.52 447.711 276.999C447.711 276.477 448.028 276.248 448.409 276.465C448.789 276.693 449.106 277.278 449.106 277.8C449.106 278.321 448.789 278.55 448.409 278.334Z" fill="#B5E9FE"/>
<path d="M455.333 282.339C454.953 282.11 454.636 281.525 454.636 281.004C454.636 280.483 454.953 280.254 455.333 280.47C455.714 280.699 456.031 281.296 456.031 281.805C456.031 282.314 455.714 282.555 455.333 282.339Z" fill="#B5E9FE"/>
<path d="M462.258 286.345C461.877 286.116 461.56 285.518 461.56 285.009C461.56 284.501 461.877 284.259 462.258 284.475C462.638 284.704 462.955 285.302 462.955 285.811C462.955 286.319 462.638 286.561 462.258 286.345Z" fill="#B5E9FE"/>
<path d="M469.182 290.363C468.802 290.134 468.485 289.536 468.485 289.028C468.485 288.519 468.802 288.277 469.182 288.494C469.563 288.722 469.88 289.307 469.88 289.829C469.88 290.35 469.563 290.579 469.182 290.363Z" fill="#B5E9FE"/>
<path d="M448.409 298.323C448.028 298.094 447.711 297.509 447.711 296.988C447.711 296.466 448.028 296.237 448.409 296.454C448.789 296.682 449.106 297.267 449.106 297.789C449.106 298.31 448.789 298.539 448.409 298.323Z" fill="#B5E9FE"/>
<path d="M455.333 302.341C454.953 302.112 454.636 301.527 454.636 301.006C454.636 300.484 454.953 300.256 455.333 300.472C455.714 300.701 456.031 301.298 456.031 301.807C456.031 302.316 455.714 302.557 455.333 302.341Z" fill="#B5E9FE"/>
<path d="M462.258 306.346C461.877 306.118 461.56 305.52 461.56 305.011C461.56 304.503 461.877 304.261 462.258 304.477C462.638 304.706 462.955 305.291 462.955 305.812C462.955 306.334 462.638 306.563 462.258 306.346Z" fill="#B5E9FE"/>
<path d="M469.182 310.352C468.802 310.123 468.485 309.538 468.485 309.017C468.485 308.495 468.802 308.266 469.182 308.483C469.563 308.712 469.88 309.296 469.88 309.818C469.88 310.339 469.563 310.568 469.182 310.352Z" fill="#B5E9FE"/>
<path d="M407.33 196.737C412.086 199.484 412.112 203.947 407.381 206.706L333.341 249.851C328.624 252.597 320.938 252.597 316.182 249.851L241.661 206.706C236.905 203.96 236.879 199.496 241.61 196.737L315.65 153.593C320.367 150.846 328.053 150.846 332.809 153.593L407.33 196.737Z" fill="#1A1885"/>
<path d="M402.397 195.961L332.809 236.499C328.37 239.08 321.154 239.08 316.69 236.499L246.658 195.961C244.413 194.664 243.284 192.948 243.297 191.244L243.271 198.899C243.271 200.603 244.387 202.307 246.632 203.616L316.664 244.154C321.128 246.735 328.345 246.735 332.783 244.154L402.372 203.616C404.578 202.332 405.682 200.654 405.682 198.962L405.707 191.308C405.707 192.986 404.604 194.677 402.397 195.961Z" fill="url(#paint10_linear_313_188)"/>
<path d="M402.346 186.59C406.81 189.171 406.836 193.367 402.397 195.949L332.809 236.486C328.37 239.068 321.154 239.068 316.689 236.486L246.658 195.949C242.193 193.367 242.168 189.171 246.607 186.59L316.195 146.052C320.634 143.471 327.85 143.471 332.314 146.052L402.346 186.59Z" fill="#A4D4ED"/>
<path d="M402.397 175.413L332.809 215.951C328.37 218.532 321.154 218.532 316.69 215.951L246.658 175.413C244.413 174.116 243.284 172.399 243.297 170.695L243.271 178.35C243.271 180.054 244.387 181.758 246.632 183.068L316.664 223.605C321.128 226.187 328.345 226.187 332.783 223.605L402.372 183.068C404.578 181.783 405.682 180.105 405.682 178.414L405.707 170.759C405.707 172.437 404.604 174.129 402.397 175.413Z" fill="url(#paint11_linear_313_188)"/>
<path d="M402.346 166.054C406.81 168.635 406.836 172.832 402.397 175.413L332.809 215.951C328.37 218.532 321.154 218.532 316.689 215.951L246.658 175.413C242.193 172.832 242.168 168.635 246.607 166.054L316.195 125.517C320.634 122.935 327.85 122.935 332.314 125.517L402.346 166.054Z" fill="#A4D4ED"/>
<path d="M351.667 290.846C366.785 299.404 366.861 313.276 351.845 321.847C336.829 330.404 312.416 330.404 297.298 321.847C282.181 313.289 282.105 299.416 297.121 290.846C312.136 282.288 336.55 282.288 351.667 290.846Z" fill="#1A1885"/>
<path d="M348.573 281.042C361.966 288.633 362.042 300.917 348.725 308.508C335.421 316.099 313.785 316.099 300.393 308.508C287 300.917 286.924 288.633 300.241 281.042C313.544 273.451 335.18 273.451 348.573 281.042Z" fill="#FFB06D"/>
<path d="M354.863 277.062L354.787 302.977C354.8 298.437 351.82 293.885 345.846 290.426C333.963 283.547 314.711 283.547 302.917 290.426C297.057 293.847 294.115 298.323 294.102 302.811L294.178 276.897C294.178 272.408 297.121 267.932 302.993 264.512C314.787 257.645 334.039 257.645 345.922 264.512C351.896 267.97 354.876 272.523 354.863 277.062Z" fill="url(#paint12_linear_313_188)"/>
<path d="M358.668 277.075L358.592 302.989C358.579 308.038 355.282 313.073 348.687 316.926C335.409 324.657 313.734 324.657 300.38 316.926C293.658 313.035 290.297 307.91 290.31 302.799L290.386 276.884C290.374 281.996 293.734 287.12 300.456 291.011C313.811 298.742 335.497 298.742 348.763 291.011C355.358 287.171 358.655 282.123 358.668 277.075Z" fill="url(#paint13_linear_313_188)"/>
<path d="M348.598 262.948C361.953 270.679 362.029 283.267 348.75 291.011C335.472 298.742 313.798 298.742 300.443 291.011C287.089 283.28 287.013 270.692 300.291 262.948C313.57 255.217 335.244 255.217 348.598 262.948ZM303.119 289.435C314.99 296.301 334.242 296.301 346.049 289.435C357.844 282.568 357.78 271.378 345.91 264.512C334.026 257.633 314.774 257.633 302.98 264.512C291.172 271.391 291.236 282.568 303.119 289.447" fill="#FFD0A8"/>
<path opacity="0.72" d="M350.513 163.308L350.222 265.885C350.222 269.7 347.71 273.514 342.701 276.439C332.631 282.314 316.245 282.314 306.1 276.439C301.001 273.489 298.452 269.611 298.452 265.732L298.744 163.155C298.744 167.021 301.28 170.899 306.379 173.862C316.525 179.736 332.91 179.736 342.98 173.862C347.977 170.95 350.488 167.135 350.501 163.308H350.513Z" fill="url(#paint14_linear_313_188)"/>
<path opacity="0.4" d="M342.866 152.601C353.012 158.476 353.062 167.987 342.993 173.849C332.923 179.724 316.537 179.724 306.391 173.849C296.245 167.974 296.195 158.463 306.277 152.588C316.347 146.726 332.733 146.726 342.879 152.588L342.866 152.601Z" fill="url(#paint15_linear_313_188)"/>
<path opacity="0.4" d="M342.866 141.081C353.012 146.955 353.062 156.467 342.993 162.328C332.923 168.203 316.537 168.203 306.391 162.328C296.245 156.454 296.195 146.943 306.277 141.068C316.347 135.206 332.733 135.206 342.879 141.068L342.866 141.081Z" fill="url(#paint16_linear_313_188)"/>
<path opacity="0.4" d="M342.866 4.39964C353.012 10.2743 353.062 19.7856 342.993 25.6476C332.923 31.5222 316.537 31.5222 306.391 25.6476C296.245 19.7729 296.195 10.2616 306.277 4.38693C316.347 -1.475 332.733 -1.475 342.879 4.38693L342.866 4.39964Z" fill="url(#paint17_linear_313_188)"/>
<path opacity="0.4" d="M333.164 38.1343C337.907 40.8809 337.933 45.3314 333.227 48.078C328.522 50.8246 320.849 50.8246 316.119 48.078C311.388 45.3314 311.35 40.8809 316.068 38.1343C320.773 35.3878 328.433 35.3878 333.177 38.1343H333.164Z" fill="url(#paint18_linear_313_188)"/>
<path d="M324.299 129.802L337.159 122.312L337.121 137.355L324.261 144.844L324.299 129.802Z" fill="url(#paint19_linear_313_188)"/>
<path d="M311.249 122.249L324.108 114.759L337.159 122.312L324.299 129.802L311.249 122.249Z" fill="url(#paint20_linear_313_188)"/>
<path d="M324.299 129.802L324.261 144.844L311.198 137.291L311.249 122.249L324.299 129.802Z" fill="url(#paint21_linear_313_188)"/>
<path d="M407.102 38.732L419.962 31.2424L419.924 61.3405L407.051 68.83L407.102 38.732Z" fill="url(#paint22_linear_313_188)"/>
<path d="M394.052 31.1789L406.912 23.6893L419.962 31.2425L407.102 38.732L394.052 31.1789Z" fill="url(#paint23_linear_313_188)"/>
<path d="M407.102 38.732L407.051 68.83L394.001 61.2769L394.052 31.1789L407.102 38.732Z" fill="url(#paint24_linear_313_188)"/>
<path d="M371.972 74.1833L400.558 57.5258" stroke="#FF5A72" stroke-width="2" stroke-linecap="round" stroke-linejoin="round"/>
<path d="M365.504 78.1506L378.376 70.6611L378.326 85.7037L365.466 93.1933L365.504 78.1506Z" fill="url(#paint25_linear_313_188)"/>
<path d="M352.454 70.5975L365.314 63.108L378.377 70.6611L365.504 78.1506L352.454 70.5975Z" fill="url(#paint26_linear_313_188)"/>
<path d="M365.504 78.1507L365.466 93.1933L352.416 85.6402L352.454 70.5975L365.504 78.1507Z" fill="url(#paint27_linear_313_188)"/>
<path d="M329.727 98.8645L358.313 82.2069" stroke="#FF5A72" stroke-width="2" stroke-linecap="round" stroke-linejoin="round"/>
<path d="M324.591 100.581L337.45 93.0916L337.412 108.134L324.552 115.624L324.591 100.581Z" fill="url(#paint28_linear_313_188)"/>
<path d="M311.541 93.028L324.4 85.5257L337.451 93.0915L324.591 100.581L311.541 93.028Z" fill="url(#paint29_linear_313_188)"/>
<path d="M324.591 100.581L324.553 115.624L311.502 108.071L311.54 93.028L324.591 100.581Z" fill="url(#paint30_linear_313_188)"/>
<path d="M324.793 93.0915V83.9235" stroke="#FF5A72" stroke-width="2" stroke-linecap="round" stroke-linejoin="round"/>
<path d="M324.907 71.1824L337.767 63.6929L337.729 78.7355L324.869 86.2251L324.907 71.1824Z" fill="url(#paint31_linear_313_188)"/>
<path d="M311.857 63.6293L324.717 56.1398L337.767 63.6929L324.908 71.1824L311.857 63.6293Z" fill="url(#paint32_linear_313_188)"/>
<path d="M324.908 71.1825L324.869 86.2251L311.819 78.672L311.857 63.6293L324.908 71.1825Z" fill="url(#paint33_linear_313_188)"/>
<path d="M392.758 155.627L488.561 100.161C489.487 99.6274 490.324 99.5766 490.932 99.9199L492.721 100.963C492.112 100.607 491.275 100.657 490.349 101.204L394.547 156.67C392.695 157.738 391.211 160.319 391.224 162.443L391.414 229.785C391.414 230.841 391.794 231.578 392.391 231.934L390.602 230.891C390.006 230.548 389.626 229.798 389.626 228.743L389.436 161.4C389.436 159.277 390.919 156.695 392.758 155.627Z" fill="white"/>
<path d="M394.546 156.67C392.695 157.738 391.211 160.319 391.224 162.443L391.414 229.785C391.414 231.909 392.91 232.761 394.762 231.693L490.565 176.239C492.416 175.171 493.9 172.577 493.887 170.467L493.697 103.124C493.697 101.001 492.201 100.149 490.349 101.217L394.546 156.67Z" fill="url(#paint34_linear_313_188)"/>
<path d="M409.702 161.019C408.459 161.744 407.445 163.498 407.445 164.935V177.702L411.959 175.082V162.316C411.959 160.866 410.945 160.281 409.702 161.006V161.019Z" fill="#FF5A72"/>
<path d="M407.445 187.302C407.445 188.752 408.459 189.337 409.702 188.612C410.945 187.887 411.959 186.132 411.959 184.695V175.095L407.445 177.714V187.315V187.302Z" fill="#CF2D52"/>
<path d="M417.92 158.12C416.677 158.844 415.663 160.599 415.663 162.036V172.946L420.178 169.513V158.603C420.178 157.98 419.163 157.395 417.92 158.107V158.12Z" fill="#1A1885"/>
<path d="M415.663 175.629C415.663 177.079 416.677 177.664 417.92 176.939C419.163 176.214 420.178 174.459 420.178 173.022V170.339L415.663 172.959V175.642V175.629Z" fill="#1A1885"/>
<path d="M423.868 175.26C423.868 176.71 424.883 177.295 426.126 176.57C427.368 175.845 428.383 174.091 428.383 172.654V165.584L423.868 168.203V175.273V175.26Z" fill="#CF2D52"/>
<path d="M426.126 148.977C424.883 149.702 423.868 151.457 423.868 152.893V168.19L428.383 165.571V150.274C428.383 148.824 427.368 148.24 426.126 148.964V148.977Z" fill="#FF5A72"/>
<path d="M432.086 177.918C432.086 179.368 433.101 180.766 434.344 180.041C435.587 179.317 436.601 177.562 436.601 176.125V160.828L432.086 163.447V177.931V177.918Z" fill="#1A1885"/>
<path d="M434.344 152.448C433.101 153.173 432.086 154.928 432.086 156.365V163.435L436.601 160.815V152.932C436.601 151.482 435.587 151.724 434.344 152.436V152.448Z" fill="#1A1885"/>
<path d="M440.292 170.136C440.292 171.586 441.307 172.17 442.549 171.446C443.792 170.721 444.807 168.966 444.807 167.529V156.085L440.292 158.705V170.149V170.136Z" fill="#CF2D52"/>
<path d="M442.549 143.853C441.307 144.577 440.292 146.332 440.292 147.769V158.679L444.807 156.06V145.15C444.807 143.7 443.792 143.115 442.549 143.84V143.853Z" fill="#FF5A72"/>
<path d="M448.497 162.265C448.497 163.714 449.512 164.299 450.755 163.575C451.998 162.85 453.012 160.281 453.012 158.844V151.329L448.497 153.949V162.278V162.265Z" fill="#1A1885"/>
<path d="M450.755 135.982C449.512 136.706 448.497 138.461 448.497 139.084V153.11L453.012 151.317V137.291C453.012 135.842 451.998 135.257 450.755 135.982Z" fill="#1A1885"/>
<path d="M456.716 152.741C456.716 154.178 457.73 154.775 458.973 154.051C460.216 153.326 461.23 151.571 461.23 150.134V146.574L456.716 149.193V152.754V152.741Z" fill="#CF2D52"/>
<path d="M458.973 127.933C457.73 128.657 456.716 130.412 456.716 131.849V149.18L461.23 146.561V129.23C461.23 127.78 460.216 127.195 458.973 127.92V127.933Z" fill="#FF5A72"/>
<path d="M467.178 126.483C465.935 127.208 464.921 128.963 464.921 130.399V144.425L469.436 140.992V126.966C469.436 126.343 468.421 125.758 467.178 126.47V126.483Z" fill="#1A1885"/>
<path d="M464.921 152.766C464.921 154.216 465.935 154.801 467.178 154.076C468.421 153.351 469.436 150.783 469.436 149.346V141.831L464.921 144.45V152.779V152.766Z" fill="#1A1885"/>
<path d="M477.654 129.993C477.654 128.543 476.639 127.958 475.397 128.683C474.154 129.408 473.139 131.162 473.139 132.599V139.669L477.654 137.05V129.98V129.993Z" fill="#FF5A72"/>
<path d="M473.139 139.682V146.752C473.139 148.201 474.154 148.786 475.397 148.061C476.639 147.337 477.654 145.582 477.654 144.145V137.075L473.139 139.695V139.682Z" fill="#CF2D52"/>
<path d="M481.51 135.994L403.589 181.11V179.304L481.51 134.189V135.994Z" fill="url(#paint35_linear_313_188)"/>
<path d="M403.589 208.296L409.702 200.908L428.383 192.02L435.447 182.941L458.973 177.931L475.397 159.811" stroke="#1A1885" stroke-width="0.68" stroke-miterlimit="10"/>
<path d="M434.344 183.576C434.344 182.902 434.813 182.076 435.409 181.733C435.992 181.389 436.474 181.669 436.474 182.343C436.474 183.017 436.005 183.843 435.409 184.187C434.826 184.53 434.344 184.25 434.344 183.576Z" fill="#1A1885"/>
<path d="M403.589 215.213L415.663 195.618L420.178 195.16L426.126 198.174L432.086 189.184L443.729 185.674L456.715 171.853L465.986 175.705L469.436 168.483L481.51 156.263" stroke="#FF5A72" stroke-width="0.68" stroke-miterlimit="10"/>
<path d="M414.597 196.241C414.597 195.567 415.067 194.741 415.663 194.397C416.246 194.054 416.728 194.334 416.728 195.008C416.728 195.682 416.246 196.508 415.663 196.852C415.079 197.195 414.597 196.915 414.597 196.241Z" fill="#1A1885"/>
<path d="M455.65 172.476C455.65 171.802 456.132 170.975 456.715 170.632C457.299 170.288 457.781 170.568 457.781 171.242C457.781 171.916 457.312 172.743 456.715 173.086C456.119 173.429 455.65 173.15 455.65 172.476Z" fill="#1A1885"/>
<path d="M464.921 176.328C464.921 175.655 465.39 174.828 465.986 174.485C466.57 174.141 467.052 174.421 467.052 175.095C467.052 175.769 466.57 176.595 465.986 176.939C465.403 177.282 464.921 177.002 464.921 176.328Z" fill="#1A1885"/>
<path d="M425.06 198.784C425.06 198.11 425.53 197.284 426.126 196.941C426.722 196.597 427.191 196.877 427.191 197.551C427.191 198.225 426.709 199.051 426.126 199.395C425.542 199.738 425.06 199.458 425.06 198.784Z" fill="#1A1885"/>
<path d="M253.392 141.398L157.59 85.9326C156.664 85.3986 155.827 85.3477 155.218 85.691L153.43 86.7337C154.038 86.3777 154.875 86.4286 155.801 86.9626L251.604 142.428C253.455 143.497 254.939 146.078 254.927 148.201L254.736 215.544C254.736 216.599 254.356 217.337 253.76 217.693L255.548 216.65C256.144 216.307 256.525 215.556 256.525 214.501L256.715 147.159C256.715 145.035 255.231 142.454 253.392 141.386V141.398Z" fill="white"/>
<path d="M251.604 142.441C253.455 143.509 254.939 146.091 254.927 148.214L254.736 215.556C254.736 217.68 253.24 218.532 251.388 217.464L155.586 162.011C153.734 160.942 152.25 158.348 152.263 156.238L152.453 88.8954C152.453 86.7719 153.95 85.9199 155.801 86.988L251.604 142.441Z" fill="url(#paint36_linear_313_188)"/>
<path d="M232.415 162.15C228.154 161.209 224.413 162.036 220.291 161.616C216.169 161.197 211.172 159.099 207.444 154.114C203.817 149.282 201.889 142.428 197.666 138.881C192.72 134.735 188.522 138.245 183.5 136.121C180.963 135.041 178.427 132.599 176.004 130.209C173.595 127.805 169.638 122.732 167.076 121.002C166.518 120.621 165.985 120.329 165.478 120.074V154.241L241.699 198.365V166.715C238.592 164.427 235.408 162.824 232.403 162.163L232.415 162.15Z" fill="url(#paint37_linear_313_188)"/>
<path d="M226.417 172.565C221.356 170.581 217.133 172.272 212.149 170.734C205.947 168.813 199.543 162.227 193.874 155.589C188.205 148.952 182.574 141.704 176.245 137.266C172.542 134.672 168.522 133.426 165.503 134.074V154.229L241.724 198.352V185.102C236.765 180.13 231.629 174.612 226.429 172.565H226.417Z" fill="url(#paint38_linear_313_188)"/>
<path d="M175.319 112.648V159.925" stroke="#FF5A72" stroke-width="0.34" stroke-linecap="round" stroke-linejoin="round"/>
<path d="M186.467 119.108V166.372" stroke="#FF5A72" stroke-width="0.34" stroke-linecap="round" stroke-linejoin="round"/>
<path d="M197.628 125.567V172.832" stroke="#FF5A72" stroke-width="0.34" stroke-linecap="round" stroke-linejoin="round"/>
<path d="M208.776 132.014V179.291" stroke="#FF5A72" stroke-width="0.34" stroke-linecap="round" stroke-linejoin="round"/>
<path d="M219.936 138.474V185.751" stroke="#FF5A72" stroke-width="0.34" stroke-linecap="round" stroke-linejoin="round"/>
<path d="M231.084 144.933V192.21" stroke="#FF5A72" stroke-width="0.34" stroke-linecap="round" stroke-linejoin="round"/>
<path d="M142.827 166.08V169.716" stroke="#FAB08B" stroke-width="2.98" stroke-linecap="round" stroke-linejoin="round"/>
<path d="M139.53 171.115C139.53 171.115 133.785 175.438 132.998 180.092C132.301 184.199 134.229 186.73 138.629 191.46" stroke="white" stroke-width="2.98" stroke-linecap="round" stroke-linejoin="round"/>
<path d="M143.829 194.83C143.449 195.402 142.7 195.593 142.079 195.3L139.644 194.143C138.629 193.66 138.287 192.388 138.921 191.46C139.555 190.532 140.861 190.392 141.673 191.168L143.626 193.024C144.121 193.495 144.21 194.258 143.816 194.83H143.829Z" fill="#FAB08B"/>
<path d="M144.336 240.149C144.336 240.149 145.617 241.42 146.454 241.204C147.71 240.886 152.491 239.525 154.051 237.605C155.611 235.673 153.861 235.113 152.44 235.456C148.445 236.436 147.076 236.995 145.681 237.376C144.374 237.733 143.791 239.347 144.324 240.149H144.336Z" fill="#070D30"/>
<path d="M137.539 236.359C137.539 236.359 138.82 237.631 139.657 237.415C140.912 237.097 145.693 235.736 147.253 233.816C148.813 231.896 147.063 231.324 145.643 231.667C141.648 232.646 140.278 233.206 138.883 233.587C137.577 233.943 136.993 235.558 137.526 236.359H137.539Z" fill="#070D30"/>
<path d="M146.289 237.898L147.38 231.108" stroke="#D6E9F4" stroke-width="2.09" stroke-linecap="round" stroke-linejoin="round"/>
<path d="M139.72 233.854L141.343 227.166" stroke="#D6E9F4" stroke-width="2.09" stroke-linecap="round" stroke-linejoin="round"/>
<path d="M137.818 193.469C140.494 193.431 146.264 194.639 149.308 195.059C150.411 197.169 150.83 199.433 150.335 201.633C151.299 206.846 151.223 210.165 151.274 215.887C151.312 221.609 150.411 229.238 149.244 235.215C149.029 236.334 148.458 236.601 147.532 236.626C147.165 236.639 146.594 236.55 146.264 236.461C145.427 236.232 144.78 235.749 144.996 234.693C146.188 228.921 147.253 221.393 147.05 215.925C146.847 210.457 146.594 207.685 145.452 202.828C144.73 202.65 144.019 202.421 143.271 202.09C143.905 206.223 143.753 208.029 143.918 212.746C144.083 217.464 144.083 226.568 142.853 231.731C142.574 232.926 141.914 233.384 140.849 233.485C140.671 233.498 140.418 233.485 140.265 233.447C138.743 232.939 138.528 231.705 138.743 230.51C139.707 225.246 139.986 218.023 139.733 212.937C139.479 207.863 135.37 193.495 137.843 193.469H137.818Z" fill="#1A1885"/>
<path d="M135.89 193.94C135.865 195.059 136.41 196.114 137.348 196.737C139.53 198.212 143.157 200.132 145.161 200.412C150.005 201.099 150.399 197.92 150.399 197.92C150.399 197.92 150.259 178.884 149.574 174.942C149.206 172.844 147.583 171.776 145.871 170.645C145.655 170.505 145.452 170.365 145.25 170.25C143.956 169.449 142.472 168.966 140.963 168.979C140.557 168.979 140.189 169.017 139.847 169.093C138.135 169.411 137.387 170.441 136.816 171.28C136.461 171.802 136.258 172.412 136.245 173.048L135.877 193.94H135.89Z" fill="#FF5A72"/>
<path d="M149.181 160.472C150.284 163.625 149.308 167.237 146.873 168.089C146.518 168.216 146.15 168.279 145.77 168.267C144.032 168.267 142.218 166.995 141.064 165.126C140.773 164.643 140.519 164.121 140.329 163.562C140.303 163.486 140.278 163.409 140.253 163.333C140.202 163.168 140.151 163.002 140.113 162.837C139.631 160.853 140.062 159.048 141.128 157.853C141.47 157.471 141.876 157.153 142.333 156.912C142.51 156.823 142.7 156.734 142.891 156.67C144.78 156.009 146.848 156.746 148.192 158.577C148.585 159.111 148.927 159.747 149.168 160.459L149.181 160.472Z" fill="#FAB08B"/>
<path d="M139.847 158.361C141.8 152.843 146.987 155.246 148.293 157.891C148.547 158.399 148.319 158.806 147.811 159.073C147.685 159.607 147.444 160.243 147 160.485C146.15 160.955 148.065 162.138 147.532 162.672C147 163.206 146.353 162.074 145.681 162.672C144.793 163.46 146.848 164.681 145.808 165.215C144.768 165.762 143.969 168.152 141.534 167.631C139.099 167.11 138.414 163.982 138.185 162.036C137.957 160.091 139.137 158.768 139.86 158.348L139.847 158.361Z" fill="#070D30"/>
<path d="M147.52 163.282C147.824 164.045 147.621 164.935 147.038 165.164C146.454 165.406 145.693 164.884 145.389 164.134C145.085 163.384 145.351 162.659 145.934 162.43C146.518 162.189 147.203 162.532 147.507 163.282H147.52Z" fill="#FAB08B"/>
<path d="M147.938 175.731C147.938 175.731 153.734 179.978 158.414 179.38C162.536 178.846 164.387 176.265 167.621 170.67" stroke="white" stroke-width="2.98" stroke-linecap="round" stroke-linejoin="round"/>
<path d="M169.308 164.681C169.955 164.884 170.373 165.533 170.272 166.22L169.879 168.89C169.714 170.009 168.598 170.708 167.533 170.365C166.467 170.034 165.947 168.814 166.442 167.809L167.647 165.393C167.951 164.783 168.661 164.477 169.308 164.681Z" fill="#FAB08B"/>
<path d="M513.241 159.862V163.498" stroke="#FAB08B" stroke-width="2.98" stroke-linecap="round" stroke-linejoin="round"/>
<path d="M516.538 164.884C516.538 164.884 522.283 169.208 523.07 173.862C523.767 177.969 521.84 180.499 517.439 185.229" stroke="white" stroke-width="2.98" stroke-linecap="round" stroke-linejoin="round"/>
<path d="M512.239 188.612C512.619 189.184 513.368 189.375 513.989 189.082L516.424 187.925C517.439 187.442 517.781 186.17 517.147 185.242C516.513 184.314 515.207 184.174 514.395 184.95L512.442 186.806C511.947 187.277 511.858 188.04 512.252 188.612H512.239Z" fill="#FAB08B"/>
<path d="M511.732 233.918C511.732 233.918 510.451 235.189 509.614 234.973C508.358 234.655 503.577 233.295 502.017 231.375C500.457 229.442 502.207 228.882 503.628 229.226C507.623 230.205 508.992 230.764 510.387 231.146C511.694 231.502 512.277 233.117 511.744 233.918H511.732Z" fill="#070D30"/>
<path d="M518.529 230.141C518.529 230.141 517.248 231.413 516.411 231.197C515.156 230.879 510.375 229.518 508.815 227.598C507.255 225.665 509.005 225.106 510.425 225.449C514.42 226.428 515.79 226.988 517.185 227.369C518.491 227.725 519.075 229.34 518.542 230.141H518.529Z" fill="#070D30"/>
<path d="M509.778 231.68L508.688 224.89" stroke="#D6E9F4" stroke-width="2.09" stroke-linecap="round" stroke-linejoin="round"/>
<path d="M516.348 227.636L514.725 220.948" stroke="#D6E9F4" stroke-width="2.09" stroke-linecap="round" stroke-linejoin="round"/>
<path d="M518.25 187.251C515.574 187.213 509.804 188.421 506.76 188.841C505.644 190.951 505.238 193.215 505.733 195.415C504.769 200.628 504.845 203.947 504.794 209.669C504.756 215.391 505.657 223.02 506.824 228.997C507.039 230.116 507.623 230.383 508.536 230.408C508.903 230.421 509.474 230.332 509.804 230.243C510.641 230.014 511.288 229.531 511.072 228.475C509.88 222.703 508.815 215.175 509.018 209.707C509.221 204.239 509.474 201.467 510.616 196.61C511.338 196.432 512.049 196.203 512.797 195.872C512.163 200.005 512.315 201.811 512.15 206.528C511.985 211.246 511.985 220.35 513.215 225.513C513.494 226.708 514.154 227.166 515.219 227.267C515.397 227.28 515.65 227.267 515.803 227.229C517.325 226.721 517.54 225.487 517.325 224.292C516.361 219.028 516.082 211.805 516.335 206.719C516.589 201.645 520.698 187.277 518.225 187.251H518.25Z" fill="#1A1885"/>
<path d="M520.178 187.709C520.203 188.828 519.658 189.883 518.72 190.506C516.538 191.981 512.911 193.902 510.907 194.181C506.063 194.868 505.669 191.689 505.669 191.689C505.669 191.689 505.809 172.654 506.494 168.712C506.862 166.614 508.485 165.546 510.197 164.414C510.413 164.274 510.616 164.134 510.818 164.02C512.112 163.219 513.583 162.735 515.105 162.748C515.511 162.748 515.879 162.786 516.221 162.863C517.933 163.18 518.682 164.21 519.252 165.05C519.607 165.571 519.81 166.181 519.823 166.817L520.191 187.709H520.178Z" fill="#FF5A72"/>
<path d="M506.887 154.241C505.784 157.395 506.76 161.006 509.195 161.858C509.55 161.985 509.918 162.049 510.298 162.036C512.036 162.036 513.85 160.764 515.004 158.895C515.295 158.412 515.549 157.891 515.739 157.331C515.765 157.255 515.79 157.179 515.815 157.102C515.866 156.937 515.917 156.772 515.955 156.606C516.437 154.623 516.006 152.817 514.94 151.622C514.598 151.24 514.192 150.923 513.735 150.681C513.558 150.592 513.368 150.503 513.177 150.439C511.288 149.778 509.22 150.516 507.876 152.347C507.483 152.881 507.141 153.517 506.9 154.229L506.887 154.241Z" fill="#FAB08B"/>
<path d="M516.221 152.143C514.268 146.625 509.081 149.028 507.775 151.673C507.521 152.181 507.749 152.588 508.257 152.855C508.383 153.389 508.624 154.025 509.068 154.267C509.918 154.737 508.003 155.92 508.536 156.454C509.068 156.988 509.715 155.856 510.387 156.454C511.275 157.242 509.22 158.463 510.26 158.997C511.3 159.544 512.099 161.934 514.534 161.413C516.969 160.892 517.654 157.764 517.882 155.818C518.111 153.873 516.931 152.55 516.208 152.13L516.221 152.143Z" fill="#070D30"/>
<path d="M508.548 157.064C508.244 157.827 508.447 158.717 509.03 158.946C509.614 159.188 510.375 158.666 510.679 157.916C510.983 157.153 510.717 156.441 510.134 156.212C509.55 155.971 508.865 156.314 508.561 157.064H508.548Z" fill="#FAB08B"/>
<path d="M502.473 192.935C501.928 192.528 501.75 191.778 502.068 191.168L503.31 188.777C503.83 187.785 505.111 187.493 506.012 188.154C506.912 188.828 507.001 190.15 506.189 190.926L504.262 192.808C503.767 193.291 503.006 193.342 502.461 192.922L502.473 192.935Z" fill="#FAB08B"/>
<path d="M509.043 167.847C509.043 167.847 502.537 170.886 500.799 175.273C499.277 179.151 500.634 182.025 503.97 187.569" stroke="white" stroke-width="2.98" stroke-linecap="round" stroke-linejoin="round"/>
<path d="M179.568 209.008L184.983 205.854L184.971 212.187L179.555 215.34L179.568 209.008Z" fill="#070D30"/>
<path d="M174.077 205.829L179.492 202.675L184.983 205.854L179.568 209.008L174.077 205.829Z" fill="#1A1885"/>
<path d="M179.568 209.008L179.555 215.34L174.051 212.161L174.077 205.829L179.568 209.008Z" fill="#111057"/>
<path d="M191.933 216.93L197.349 213.763L197.336 220.109L191.921 223.262L191.933 216.93Z" fill="#070D30"/>
<path d="M186.442 213.738L191.857 210.585L197.349 213.763L191.933 216.93L186.442 213.738Z" fill="#1A1885"/>
<path d="M191.933 216.93L191.921 223.262L186.417 220.07L186.442 213.738L191.933 216.93Z" fill="#111057"/>
<path d="M205.351 224.254L210.767 221.1L210.754 227.433L205.339 230.599L205.351 224.254Z" fill="#070D30"/>
<path d="M199.86 221.075L205.275 217.921L210.767 221.1L205.351 224.254L199.86 221.075Z" fill="#1A1885"/>
<path d="M205.351 224.254L205.338 230.599L199.834 227.407L199.86 221.075L205.351 224.254Z" fill="#111057"/>
<path d="M480.926 234.007L445.428 254.683C443.589 255.751 440.609 255.751 438.77 254.683L425.162 246.812C424.236 246.277 423.767 245.565 423.767 244.866V249.774C423.754 250.474 424.211 251.186 425.149 251.72L438.757 259.591C440.609 260.659 443.589 260.659 445.428 259.591L480.926 238.915C481.839 238.381 482.296 237.694 482.296 236.995V232.087C482.296 232.786 481.852 233.473 480.939 234.007H480.926Z" fill="url(#paint39_linear_313_188)"/>
<path d="M480.901 230.129C482.752 231.197 482.752 232.939 480.926 233.994L445.428 254.67C443.589 255.738 440.609 255.738 438.77 254.67L425.162 246.799C423.31 245.731 423.31 244.001 425.136 242.933L460.634 222.258C462.46 221.189 465.454 221.189 467.292 222.258L480.901 230.129Z" fill="url(#paint40_linear_313_188)"/>
<path d="M440.964 248.528C440.419 248.21 440.419 247.689 440.964 247.371C441.522 247.053 442.41 247.053 442.968 247.371C443.513 247.689 443.513 248.21 442.968 248.528C442.423 248.846 441.522 248.846 440.964 248.528Z" fill="#1A1885"/>
<path d="M447.191 244.93C446.646 244.612 446.646 244.09 447.191 243.772C447.737 243.455 448.637 243.455 449.195 243.772C449.753 244.09 449.74 244.612 449.195 244.93C448.65 245.247 447.749 245.247 447.191 244.93Z" fill="#FFB06D"/>
<path d="M453.418 241.331C452.873 241.013 452.873 240.492 453.418 240.174C453.964 239.856 454.864 239.856 455.422 240.174C455.967 240.492 455.967 241.013 455.422 241.331C454.877 241.649 453.976 241.649 453.418 241.331Z" fill="#1A1885"/>
<path d="M459.633 237.72C459.087 237.402 459.087 236.881 459.633 236.563C460.178 236.245 461.078 236.245 461.636 236.563C462.182 236.881 462.182 237.402 461.636 237.72C461.091 238.038 460.191 238.038 459.633 237.72Z" fill="#FF5A72"/>
<path d="M370.374 142.327L380.102 136.656L380.064 161.782L370.349 167.453L370.374 142.327Z" fill="#56A6C7"/>
<path d="M360.508 136.605L370.235 130.946L380.102 136.656L370.374 142.327L360.508 136.605Z" fill="#B5E9FE"/>
<path d="M370.374 142.327L370.349 167.453L360.482 161.744L360.507 136.605L370.374 142.327Z" fill="#82D7FA"/>
<path d="M309.385 347.927C309.385 347.927 315.421 351.83 320.05 350.953C324.134 350.177 325.834 347.494 328.725 341.709" stroke="white" stroke-width="2.98" stroke-linecap="round" stroke-linejoin="round"/>
<path d="M330.069 335.643C330.729 335.809 331.173 336.432 331.122 337.118L330.894 339.801C330.792 340.92 329.727 341.696 328.636 341.416C327.546 341.149 326.962 339.967 327.406 338.924L328.459 336.444C328.725 335.809 329.41 335.465 330.082 335.643H330.069Z" fill="#FAB08B"/>
<path d="M300.723 413.73C300.723 413.73 300.114 415.434 300.685 416.108C301.547 417.113 304.984 420.838 307.495 421.423C310.006 422.008 309.752 420.177 308.776 419.046C306.049 415.854 304.92 414.862 303.931 413.768C303.005 412.739 301.23 412.904 300.723 413.73Z" fill="#070D30"/>
<path d="M302.637 414.048L302.929 407.169" stroke="#D6E9F4" stroke-width="2.13" stroke-linecap="round" stroke-linejoin="round"/>
<path d="M309.029 411.302C309.029 411.302 308.383 413.133 309.144 413.412C310.285 413.819 314.914 414.76 317.577 414.659C319.936 414.57 318.807 412.637 317.527 412.179C313.912 410.869 312.568 410.59 311.274 410.17C310.069 409.776 309.055 410.412 309.017 411.302H309.029Z" fill="#070D30"/>
<path d="M310.526 410.056L310.767 403.176" stroke="#D6E9F4" stroke-width="2.13" stroke-linecap="round" stroke-linejoin="round"/>
<path d="M312.923 375.571C313.062 375.354 313.139 375.151 313.151 374.947C313.265 373.129 313.76 369.48 312.53 369.111C311.3 368.742 300.228 372.392 300.228 372.392C300.228 372.392 298.769 376.524 300.545 379.106L301.547 393.309L300.596 411.721C300.558 412.573 301.204 413.311 302.067 413.349L303.411 413.412C304.261 413.451 304.996 412.802 305.034 411.937L305.998 393.258V379.754C306.632 379.449 307.381 379.093 308.142 378.724L309.461 389.749L308.522 407.818C308.471 408.86 309.27 409.75 310.31 409.801L310.983 409.839C312.022 409.89 312.91 409.089 312.961 408.046L313.912 389.698L312.923 375.545V375.571Z" fill="#1A1885"/>
<path d="M313.341 370.065C313.367 371.184 312.821 372.239 311.883 372.862C309.702 374.337 306.074 376.257 304.071 376.537C299.226 377.224 298.833 374.045 298.833 374.045C298.833 374.045 298.972 355.009 299.657 351.067C300.025 348.969 301.648 347.901 303.36 346.77C303.576 346.63 303.779 346.49 303.982 346.375C305.275 345.574 306.747 345.091 308.268 345.104C308.674 345.104 309.042 345.142 309.384 345.218C311.097 345.536 311.845 346.566 312.416 347.405C312.771 347.927 312.974 348.537 312.986 349.173L313.354 370.065H313.341Z" fill="#FF5A72"/>
<path d="M304.083 345.562C304.083 345.562 304.083 345.117 306.239 344.875L306.404 347.049L304.248 346.77L304.083 345.562Z" fill="#98E1ED"/>
<path d="M306.404 342.217V345.854" stroke="#FAB08B" stroke-width="2.98" stroke-linecap="round" stroke-linejoin="round"/>
<path d="M304.083 345.562L303.88 347.482C303.88 347.482 304.73 349.376 305.199 350.05L307.152 347.304C307.152 347.304 306.036 347.126 304.083 345.549V345.562Z" fill="white"/>
<path d="M308.357 346.108C308.357 346.108 307.926 347.062 307.013 347.316L309.308 348.639C309.308 348.639 309.232 346.274 308.915 345.409C308.915 345.409 308.649 345.117 308.357 346.108Z" fill="white"/>
<path d="M366.861 390.295L379.721 382.806L379.683 397.848L366.823 405.338L366.861 390.295Z" fill="url(#paint41_linear_313_188)"/>
<path d="M353.811 382.742L366.67 375.253L379.721 382.806L366.861 390.295L353.811 382.742Z" fill="url(#paint42_linear_313_188)"/>
<path d="M366.861 390.295L366.823 405.338L353.76 397.785L353.811 382.742L366.861 390.295Z" fill="url(#paint43_linear_313_188)"/>
<path d="M331.731 410.691L360.317 394.034" stroke="#FF5A72" stroke-width="2" stroke-linecap="round" stroke-linejoin="round"/>
<path d="M325.275 414.671L338.135 407.169L338.085 422.212L325.225 429.714L325.275 414.671Z" fill="url(#paint44_linear_313_188)"/>
<path d="M312.213 407.105L325.073 399.616L338.135 407.169L325.275 414.671L312.213 407.105Z" fill="url(#paint45_linear_313_188)"/>
<path d="M325.275 414.671L325.225 429.714L312.175 422.148L312.213 407.105L325.275 414.671Z" fill="url(#paint46_linear_313_188)"/>
<path d="M325.77 407.169V368.78" stroke="#FF5A72" stroke-width="2" stroke-linecap="round" stroke-linejoin="round"/>
<path d="M325.884 356.039L338.744 348.55L338.706 363.592L325.846 371.082L325.884 356.039Z" fill="url(#paint47_linear_313_188)"/>
<path d="M312.834 348.486L325.694 340.997L338.744 348.55L325.884 356.039L312.834 348.486Z" fill="url(#paint48_linear_313_188)"/>
<path d="M325.884 356.039L325.846 371.082L312.783 363.529L312.834 348.486L325.884 356.039Z" fill="url(#paint49_linear_313_188)"/>
<path d="M325.821 344.493L331.223 341.34L331.211 347.672L325.795 350.826L325.821 344.493Z" fill="#070D30"/>
<path d="M320.317 341.315L325.732 338.161L331.223 341.34L325.821 344.493L320.317 341.315Z" fill="#1A1885"/>
<path d="M325.821 344.493L325.795 350.826L320.304 347.647L320.317 341.315L325.821 344.493Z" fill="#111057"/>
<path d="M311.87 337.385C312.961 340.539 311.972 344.15 309.537 345.002C309.181 345.129 308.814 345.18 308.433 345.18C306.696 345.18 304.882 343.896 303.741 342.027C303.449 341.543 303.195 341.022 303.005 340.463C302.98 340.386 302.954 340.31 302.929 340.234C302.878 340.068 302.828 339.903 302.789 339.738C302.32 337.754 302.751 335.949 303.817 334.753C304.159 334.372 304.565 334.054 305.022 333.812C305.199 333.723 305.389 333.634 305.58 333.571C307.469 332.922 309.537 333.672 310.881 335.503C311.274 336.038 311.604 336.673 311.857 337.385H311.87Z" fill="#FAB08B"/>
<path d="M310.982 334.804C309.689 332.146 304.514 329.743 302.536 335.249C302.536 335.249 299.568 338.085 303.005 340.45C303.005 340.45 303.829 342.294 304.654 341.365C305.478 340.437 303.855 338.212 303.868 337.627C303.868 337.398 304.032 337.017 304.375 336.673C304.73 336.978 305.339 337.296 306.417 337.411C307.685 337.538 307.824 336.839 307.66 336.152C309.879 336.584 311.54 335.898 310.995 334.791L310.982 334.804Z" fill="#070D30"/>
<path d="M303.855 340.259C304.426 340.831 304.603 341.734 304.159 342.179C303.715 342.624 302.815 342.459 302.244 341.887C301.674 341.315 301.636 340.552 302.079 340.094C302.523 339.649 303.284 339.687 303.868 340.259H303.855Z" fill="#FAB08B"/>
<path d="M301.039 352.275C301.039 352.275 300.456 359.46 303.411 363.135C306.011 366.377 309.181 366.619 315.637 366.453" stroke="white" stroke-width="2.98" stroke-linecap="round" stroke-linejoin="round"/>
<path d="M321.597 364.788C321.762 365.449 321.42 366.136 320.799 366.415L318.325 367.483C317.298 367.928 316.119 367.344 315.84 366.25C315.561 365.156 316.334 364.088 317.45 363.987L320.126 363.745C320.811 363.681 321.433 364.126 321.597 364.8V364.788Z" fill="#FAB08B"/>
</g>
<defs>
<linearGradient id="paint0_linear_313_188" x1="74" y1="318.63" x2="236.436" y2="318.63" gradientUnits="userSpaceOnUse">
<stop stop-color="#66D2FE"/>
<stop offset="0.34" stop-color="#51A7DD"/>
<stop offset="0.78" stop-color="#3973B7"/>
<stop offset="1" stop-color="#3060A8"/>
</linearGradient>
<linearGradient id="paint1_linear_313_188" x1="74" y1="298.094" x2="75.2682" y2="298.094" gradientUnits="userSpaceOnUse">
<stop stop-color="#66D2FE"/>
<stop offset="0.34" stop-color="#51A7DD"/>
<stop offset="0.78" stop-color="#3973B7"/>
<stop offset="1" stop-color="#3060A8"/>
</linearGradient>
<linearGradient id="paint2_linear_313_188" x1="74" y1="277.545" x2="75.2682" y2="277.545" gradientUnits="userSpaceOnUse">
<stop stop-color="#66D2FE"/>
<stop offset="0.34" stop-color="#51A7DD"/>
<stop offset="0.78" stop-color="#3973B7"/>
<stop offset="1" stop-color="#3060A8"/>
</linearGradient>
<linearGradient id="paint3_linear_313_188" x1="74" y1="257.01" x2="75.2682" y2="257.01" gradientUnits="userSpaceOnUse">
<stop stop-color="#66D2FE"/>
<stop offset="0.34" stop-color="#51A7DD"/>
<stop offset="0.78" stop-color="#3973B7"/>
<stop offset="1" stop-color="#3060A8"/>
</linearGradient>
<linearGradient id="paint4_linear_313_188" x1="243.271" y1="423.572" x2="405.707" y2="423.572" gradientUnits="userSpaceOnUse">
<stop stop-color="#66D2FE"/>
<stop offset="0.34" stop-color="#51A7DD"/>
<stop offset="0.78" stop-color="#3973B7"/>
<stop offset="1" stop-color="#3060A8"/>
</linearGradient>
<linearGradient id="paint5_linear_313_188" x1="410.564" y1="317.066" x2="573" y2="317.066" gradientUnits="userSpaceOnUse">
<stop stop-color="#66D2FE"/>
<stop offset="0.34" stop-color="#51A7DD"/>
<stop offset="0.78" stop-color="#3973B7"/>
<stop offset="1" stop-color="#3060A8"/>
</linearGradient>
<linearGradient id="paint6_linear_313_188" x1="410.564" y1="296.53" x2="573" y2="296.53" gradientUnits="userSpaceOnUse">
<stop stop-color="#66D2FE"/>
<stop offset="0.34" stop-color="#51A7DD"/>
<stop offset="0.78" stop-color="#3973B7"/>
<stop offset="1" stop-color="#3060A8"/>
</linearGradient>
<linearGradient id="paint7_linear_313_188" x1="410.564" y1="275.981" x2="573" y2="275.981" gradientUnits="userSpaceOnUse">
<stop stop-color="#66D2FE"/>
<stop offset="0.34" stop-color="#51A7DD"/>
<stop offset="0.78" stop-color="#3973B7"/>
<stop offset="1" stop-color="#3060A8"/>
</linearGradient>
<linearGradient id="paint8_linear_313_188" x1="410.564" y1="275.981" x2="573" y2="275.981" gradientUnits="userSpaceOnUse">
<stop stop-color="#66D2FE"/>
<stop offset="0.34" stop-color="#51A7DD"/>
<stop offset="0.78" stop-color="#3973B7"/>
<stop offset="1" stop-color="#3060A8"/>
</linearGradient>
<linearGradient id="paint9_linear_313_188" x1="475.65" y1="248.592" x2="507.94" y2="248.592" gradientUnits="userSpaceOnUse">
<stop stop-color="#FF5A72"/>
<stop offset="0.15" stop-color="#FF6871"/>
<stop offset="0.72" stop-color="#FF9C6E"/>
<stop offset="1" stop-color="#FFB06D"/>
</linearGradient>
<linearGradient id="paint10_linear_313_188" x1="243.271" y1="218.672" x2="405.707" y2="218.672" gradientUnits="userSpaceOnUse">
<stop stop-color="#66D2FE"/>
<stop offset="0.34" stop-color="#51A7DD"/>
<stop offset="0.78" stop-color="#3973B7"/>
<stop offset="1" stop-color="#3060A8"/>
</linearGradient>
<linearGradient id="paint11_linear_313_188" x1="243.271" y1="198.123" x2="405.707" y2="198.123" gradientUnits="userSpaceOnUse">
<stop stop-color="#66D2FE"/>
<stop offset="0.34" stop-color="#51A7DD"/>
<stop offset="0.78" stop-color="#3973B7"/>
<stop offset="1" stop-color="#3060A8"/>
</linearGradient>
<linearGradient id="paint12_linear_313_188" x1="258.11" y1="231.883" x2="359.15" y2="315.546" gradientUnits="userSpaceOnUse">
<stop stop-color="#FFE62A"/>
<stop offset="1" stop-color="#F4617E"/>
</linearGradient>
<linearGradient id="paint13_linear_313_188" x1="255.205" y1="235.406" x2="356.233" y2="319.068" gradientUnits="userSpaceOnUse">
<stop stop-color="#FFE62A"/>
<stop offset="1" stop-color="#F4617E"/>
</linearGradient>
<linearGradient id="paint14_linear_313_188" x1="298.465" y1="221.991" x2="350.513" y2="221.991" gradientUnits="userSpaceOnUse">
<stop stop-color="#FF5A72"/>
<stop offset="0.15" stop-color="#FF6871"/>
<stop offset="0.72" stop-color="#FF9C6E"/>
<stop offset="1" stop-color="#FFB06D"/>
</linearGradient>
<linearGradient id="paint15_linear_313_188" x1="298.757" y1="163.231" x2="350.513" y2="163.231" gradientUnits="userSpaceOnUse">
<stop stop-color="#FF5A72"/>
<stop offset="0.15" stop-color="#FF6871"/>
<stop offset="0.72" stop-color="#FF9C6E"/>
<stop offset="1" stop-color="#FFB06D"/>
</linearGradient>
<linearGradient id="paint16_linear_313_188" x1="298.757" y1="151.698" x2="350.513" y2="151.698" gradientUnits="userSpaceOnUse">
<stop stop-color="#FF5A72"/>
<stop offset="0.15" stop-color="#FF6871"/>
<stop offset="0.72" stop-color="#FF9C6E"/>
<stop offset="1" stop-color="#FFB06D"/>
</linearGradient>
<linearGradient id="paint17_linear_313_188" x1="298.757" y1="15.03" x2="350.513" y2="15.03" gradientUnits="userSpaceOnUse">
<stop stop-color="#FF5A72"/>
<stop offset="0.15" stop-color="#FF6871"/>
<stop offset="0.72" stop-color="#FF9C6E"/>
<stop offset="1" stop-color="#FFB06D"/>
</linearGradient>
<linearGradient id="paint18_linear_313_188" x1="312.53" y1="43.0935" x2="336.728" y2="43.0935" gradientUnits="userSpaceOnUse">
<stop stop-color="#FF5A72"/>
<stop offset="0.15" stop-color="#FF6871"/>
<stop offset="0.72" stop-color="#FF9C6E"/>
<stop offset="1" stop-color="#FFB06D"/>
</linearGradient>
<linearGradient id="paint19_linear_313_188" x1="251.274" y1="85.3604" x2="368.751" y2="156.295" gradientUnits="userSpaceOnUse">
<stop stop-color="#FFE62A"/>
<stop offset="1" stop-color="#F42C53"/>
</linearGradient>
<linearGradient id="paint20_linear_313_188" x1="254.52" y1="79.9817" x2="371.997" y2="150.916" gradientUnits="userSpaceOnUse">
<stop stop-color="#FFE62A"/>
<stop offset="1" stop-color="#F4617E"/>
</linearGradient>
<linearGradient id="paint21_linear_313_188" x1="247.812" y1="91.0952" x2="365.288" y2="162.03" gradientUnits="userSpaceOnUse">
<stop stop-color="#FFB82A"/>
<stop offset="1" stop-color="#F4617E"/>
</linearGradient>
<linearGradient id="paint22_linear_313_188" x1="355.751" y1="14.9791" x2="534.659" y2="123.003" gradientUnits="userSpaceOnUse">
<stop stop-color="#FFBC2A"/>
<stop offset="1" stop-color="#F4617E"/>
</linearGradient>
<linearGradient id="paint23_linear_313_188" x1="378.833" y1="14.1144" x2="496.31" y2="85.0491" gradientUnits="userSpaceOnUse">
<stop stop-color="#FFE62A"/>
<stop offset="1" stop-color="#F4617E"/>
</linearGradient>
<linearGradient id="paint24_linear_313_188" x1="362.435" y1="26.8683" x2="519.955" y2="121.984" gradientUnits="userSpaceOnUse">
<stop stop-color="#FFD12A"/>
<stop offset="1" stop-color="#F4617E"/>
</linearGradient>
<linearGradient id="paint25_linear_313_188" x1="292.479" y1="33.7093" x2="409.956" y2="104.644" gradientUnits="userSpaceOnUse">
<stop stop-color="#FFE62A"/>
<stop offset="1" stop-color="#F42C53"/>
</linearGradient>
<linearGradient id="paint26_linear_313_188" x1="295.726" y1="28.3306" x2="413.202" y2="99.2652" gradientUnits="userSpaceOnUse">
<stop stop-color="#FFE62A"/>
<stop offset="1" stop-color="#F4617E"/>
</linearGradient>
<linearGradient id="paint27_linear_313_188" x1="289.017" y1="39.4441" x2="406.493" y2="110.379" gradientUnits="userSpaceOnUse">
<stop stop-color="#FFB82A"/>
<stop offset="1" stop-color="#F4617E"/>
</linearGradient>
<linearGradient id="paint28_linear_313_188" x1="293.088" y1="81.3295" x2="410.564" y2="152.264" gradientUnits="userSpaceOnUse">
<stop stop-color="#FFBC2A"/>
<stop offset="1" stop-color="#F4617E"/>
</linearGradient>
<linearGradient id="paint29_linear_313_188" x1="296.334" y1="75.9508" x2="413.811" y2="146.885" gradientUnits="userSpaceOnUse">
<stop stop-color="#FFE62A"/>
<stop offset="1" stop-color="#F4617E"/>
</linearGradient>
<linearGradient id="paint30_linear_313_188" x1="289.625" y1="87.0643" x2="407.102" y2="157.999" gradientUnits="userSpaceOnUse">
<stop stop-color="#FFD12A"/>
<stop offset="1" stop-color="#F4617E"/>
</linearGradient>
<linearGradient id="paint31_linear_313_188" x1="276.55" y1="41.7075" x2="394.026" y2="112.642" gradientUnits="userSpaceOnUse">
<stop stop-color="#FFAD2A"/>
<stop offset="1" stop-color="#F4617E"/>
</linearGradient>
<linearGradient id="paint32_linear_313_188" x1="279.796" y1="36.3287" x2="397.273" y2="107.263" gradientUnits="userSpaceOnUse">
<stop stop-color="#FFE62A"/>
<stop offset="1" stop-color="#F4617E"/>
</linearGradient>
<linearGradient id="paint33_linear_313_188" x1="273.087" y1="47.4423" x2="390.564" y2="118.377" gradientUnits="userSpaceOnUse">
<stop stop-color="#FFCD2A"/>
<stop offset="1" stop-color="#F4617E"/>
</linearGradient>
<linearGradient id="paint34_linear_313_188" x1="393.583" y1="145.289" x2="565.214" y2="219.094" gradientUnits="userSpaceOnUse">
<stop stop-color="white"/>
<stop offset="0.23" stop-color="#CAD6E8"/>
<stop offset="0.6" stop-color="#7797C6"/>
<stop offset="0.87" stop-color="#436FB0"/>
<stop offset="1" stop-color="#3060A8"/>
</linearGradient>
<linearGradient id="paint35_linear_313_188" x1="403.589" y1="157.649" x2="481.51" y2="157.649" gradientUnits="userSpaceOnUse">
<stop stop-color="#FFE62A"/>
<stop offset="1" stop-color="#F42C53"/>
</linearGradient>
<linearGradient id="paint36_linear_313_188" x1="140.151" y1="111.262" x2="325.598" y2="230.347" gradientUnits="userSpaceOnUse">
<stop stop-color="white"/>
<stop offset="0.23" stop-color="#CAD6E8"/>
<stop offset="0.6" stop-color="#7797C6"/>
<stop offset="0.87" stop-color="#436FB0"/>
<stop offset="1" stop-color="#3060A8"/>
</linearGradient>
<linearGradient id="paint37_linear_313_188" x1="165.491" y1="159.213" x2="241.712" y2="159.213" gradientUnits="userSpaceOnUse">
<stop stop-color="#FF5A72"/>
<stop offset="0.23" stop-color="#CA5B7F"/>
<stop offset="0.6" stop-color="#775D95"/>
<stop offset="0.87" stop-color="#435FA2"/>
<stop offset="1" stop-color="#3060A8"/>
</linearGradient>
<linearGradient id="paint38_linear_313_188" x1="2020.86" y1="1216.59" x2="2097.18" y2="1260.54" gradientUnits="userSpaceOnUse">
<stop stop-color="#02007D"/>
<stop offset="0.23" stop-color="#0D1888"/>
<stop offset="0.75" stop-color="#264C9F"/>
<stop offset="1" stop-color="#3060A8"/>
</linearGradient>
<linearGradient id="paint39_linear_313_188" x1="423.754" y1="246.239" x2="482.283" y2="246.239" gradientUnits="userSpaceOnUse">
<stop stop-color="#66D2FE"/>
<stop offset="0.43" stop-color="#4791C3"/>
<stop offset="0.81" stop-color="#2E5D94"/>
<stop offset="1" stop-color="#254A82"/>
</linearGradient>
<linearGradient id="paint40_linear_313_188" x1="435.384" y1="227.267" x2="511.592" y2="275.406" gradientUnits="userSpaceOnUse">
<stop stop-color="white"/>
<stop offset="0.23" stop-color="#CAD6E8"/>
<stop offset="0.6" stop-color="#7797C6"/>
<stop offset="0.87" stop-color="#436FB0"/>
<stop offset="1" stop-color="#3060A8"/>
</linearGradient>
<linearGradient id="paint41_linear_313_188" x1="335.345" y1="371.056" x2="452.822" y2="441.991" gradientUnits="userSpaceOnUse">
<stop stop-color="#FFBC2A"/>
<stop offset="1" stop-color="#F4617E"/>
</linearGradient>
<linearGradient id="paint42_linear_313_188" x1="338.592" y1="365.678" x2="456.069" y2="436.612" gradientUnits="userSpaceOnUse">
<stop stop-color="#FFE62A"/>
<stop offset="1" stop-color="#F4617E"/>
</linearGradient>
<linearGradient id="paint43_linear_313_188" x1="331.883" y1="376.779" x2="449.36" y2="447.713" gradientUnits="userSpaceOnUse">
<stop stop-color="#FFD12A"/>
<stop offset="1" stop-color="#F4617E"/>
</linearGradient>
<linearGradient id="paint44_linear_313_188" x1="252.238" y1="370.217" x2="369.714" y2="441.152" gradientUnits="userSpaceOnUse">
<stop stop-color="#FFE62A"/>
<stop offset="1" stop-color="#F42C53"/>
</linearGradient>
<linearGradient id="paint45_linear_313_188" x1="255.497" y1="364.839" x2="372.974" y2="435.773" gradientUnits="userSpaceOnUse">
<stop stop-color="#FFE62A"/>
<stop offset="1" stop-color="#F4617E"/>
</linearGradient>
<linearGradient id="paint46_linear_313_188" x1="248.788" y1="375.952" x2="366.265" y2="446.887" gradientUnits="userSpaceOnUse">
<stop stop-color="#FFB82A"/>
<stop offset="1" stop-color="#F4617E"/>
</linearGradient>
<linearGradient id="paint47_linear_313_188" x1="277.513" y1="326.577" x2="394.99" y2="397.512" gradientUnits="userSpaceOnUse">
<stop stop-color="#FFAD2A"/>
<stop offset="1" stop-color="#F4617E"/>
</linearGradient>
<linearGradient id="paint48_linear_313_188" x1="280.773" y1="321.186" x2="398.249" y2="392.12" gradientUnits="userSpaceOnUse">
<stop stop-color="#FFE62A"/>
<stop offset="1" stop-color="#F4617E"/>
</linearGradient>
<linearGradient id="paint49_linear_313_188" x1="274.064" y1="332.299" x2="391.541" y2="403.234" gradientUnits="userSpaceOnUse">
<stop stop-color="#FFB82A"/>
<stop offset="1" stop-color="#F4617E"/>
</linearGradient>
<clipPath id="clip0_313_188">
<rect width="499" height="451" fill="white" transform="translate(74)"/>
</clipPath>
</defs>
</svg>
