<svg width="655" height="583" viewBox="0 0 655 583" fill="none" xmlns="http://www.w3.org/2000/svg">
<path d="M654.975 397.287L654.735 361.05L610.837 352.148L380.184 218.509C345.759 198.562 285.564 200.958 245.74 223.843L32.9865 346.134C31.2457 347.13 29.5933 348.164 27.9786 349.21L0 357.746V390.68H0.0252287C0.29013 403.049 7.90919 414.826 23.1978 423.69L274.804 569.471C309.228 589.418 369.424 587.022 409.247 564.137L622.001 441.859C644.139 429.137 655.303 412.758 654.962 397.287H654.975Z" fill="#CDCDCD"/>
<path d="M274.803 536.537L23.2103 390.756C-11.2143 370.809 -6.83711 336.085 32.999 313.187L245.753 190.909C285.576 168.012 345.772 165.629 380.196 185.575L631.802 331.357C666.227 351.303 661.849 386.028 622.013 408.925L409.26 531.204C369.436 554.101 309.241 556.484 274.816 536.537H274.803Z" fill="#F7F7F7"/>
<g clip-path="url(#clip0_313_185)">
<path d="M362.945 370.608L316.576 343.419L282.719 322.109" stroke="#5793CE" stroke-width="2" stroke-miterlimit="10"/>
<path d="M309.017 427.154L270.943 449.235L307.008 472.015" stroke="#5793CE" stroke-width="2" stroke-miterlimit="10"/>
<path d="M418.147 380.161L457.892 355.911" stroke="#5793CE" stroke-width="2" stroke-miterlimit="10"/>
<path d="M256.745 153.022L160.105 97.3218L256.745 41.6138L353.377 97.3218L256.745 153.022Z" fill="#A4D4ED"/>
<path d="M256.745 148.004L168.812 97.3219L256.745 46.6328L344.677 97.3219L256.745 148.004Z" fill="white"/>
<path d="M256.745 366.845L160.105 311.137L256.745 255.437L353.377 311.145L256.745 366.845Z" fill="white"/>
<path d="M353.377 97.3218V311.145L256.745 366.845V153.022L353.377 97.3218Z" fill="url(#paint0_linear_313_185)"/>
<path d="M160.105 97.3218V311.137L256.745 366.845V153.022L160.105 97.3218Z" fill="url(#paint1_linear_313_185)"/>
<path d="M338.885 148.981V154.632L271.237 193.622V187.971L338.885 148.981Z" fill="url(#paint2_linear_313_185)"/>
<path d="M338.885 172.878V178.529L271.237 217.519V211.868L338.885 172.878Z" fill="url(#paint3_linear_313_185)"/>
<path d="M338.885 196.775V202.426L271.237 241.416V235.765L338.885 196.775Z" fill="url(#paint4_linear_313_185)"/>
<path d="M338.885 220.672V226.323L271.237 265.313V259.662L338.885 220.672Z" fill="url(#paint5_linear_313_185)"/>
<path d="M338.885 244.569V250.22L271.237 289.21V283.559L338.885 244.569Z" fill="url(#paint6_linear_313_185)"/>
<path d="M256.745 151.215L161.68 96.418L160.105 97.3218L256.745 153.022L353.377 97.3218L351.809 96.418L256.745 151.215Z" fill="white"/>
<path d="M160.105 277.35L256.745 219.099V153.022L160.105 97.3218V277.35Z" fill="url(#paint7_linear_313_185)"/>
<path d="M166.656 111.504V303.694L250.202 351.855V159.665L166.656 111.504Z" fill="url(#paint8_linear_313_185)"/>
<path d="M176.658 179.572L188.685 186.502V184.422L176.658 177.485V179.572Z" fill="url(#paint9_linear_313_185)"/>
<path d="M190.613 187.611L197.171 191.388V189.301L190.621 185.524L190.613 187.611Z" fill="url(#paint10_linear_313_185)"/>
<path d="M207.365 197.26L212.105 199.993V197.906L207.365 195.173V197.26Z" fill="url(#paint11_linear_313_185)"/>
<path d="M203.906 195.261L205.525 196.202L205.532 194.115L203.906 193.181V195.261Z" fill="url(#paint12_linear_313_185)"/>
<path d="M199.129 192.505L202.066 194.203L202.073 192.123L199.129 190.426V192.505Z" fill="url(#paint13_linear_313_185)"/>
<path d="M187.772 195.504L192.52 198.237V196.158L187.78 193.424L187.772 195.504Z" fill="url(#paint14_linear_313_185)"/>
<path d="M176.651 189.088L185.94 194.445V192.358L176.651 187.009V189.088Z" fill="url(#paint15_linear_313_185)"/>
<path d="M193.97 222.854L203.258 228.211V226.124L193.97 220.775V222.854Z" fill="url(#paint16_linear_313_185)"/>
<path d="M189.185 220.099L192.13 221.796V219.709L189.193 218.019L189.185 220.099Z" fill="url(#paint17_linear_313_185)"/>
<path d="M193.918 213.323L203.207 218.68L203.214 216.593L193.918 211.236V213.323Z" fill="url(#paint18_linear_313_185)"/>
<path d="M189.141 210.568L192.078 212.265L192.085 210.178L189.141 208.481V210.568Z" fill="url(#paint19_linear_313_185)"/>
<path d="M194.021 263.99L176.526 253.901V255.988L194.021 266.077V263.99Z" fill="url(#paint20_linear_313_185)"/>
<path d="M200.189 267.547L195.861 265.049V267.136L200.189 269.627V267.547Z" fill="url(#paint21_linear_313_185)"/>
<path d="M228.533 269.568L211.038 259.479L211.031 261.558L228.533 271.647V269.568Z" fill="url(#paint22_linear_313_185)"/>
<path d="M234.701 273.124L230.373 270.626V272.706L234.701 275.204V273.124Z" fill="url(#paint23_linear_313_185)"/>
<path d="M181.273 251.873L176.526 249.139V251.226L181.266 253.96L181.273 251.873Z" fill="url(#paint24_linear_313_185)"/>
<path d="M208.513 258.046L203.773 255.312L203.766 257.392L208.513 260.125V258.046Z" fill="url(#paint25_linear_313_185)"/>
<path d="M192.394 258.288L183.106 252.938V255.018L192.394 260.375V258.288Z" fill="url(#paint26_linear_313_185)"/>
<path d="M197.179 261.044L194.235 259.346V261.433L197.171 263.131L197.179 261.044Z" fill="url(#paint27_linear_313_185)"/>
<path d="M208.388 267.496L199.1 262.146L199.092 264.226L208.388 269.583V267.496Z" fill="url(#paint28_linear_313_185)"/>
<path d="M213.165 270.251L210.221 268.561V270.641L213.165 272.338V270.251Z" fill="url(#paint29_linear_313_185)"/>
<path d="M208.506 262.807L203.766 260.074V262.153L208.506 264.887V262.807Z" fill="url(#paint30_linear_313_185)"/>
<path d="M219.635 269.222L210.346 263.865V265.952L219.635 271.302V269.222Z" fill="url(#paint31_linear_313_185)"/>
<path d="M224.411 271.978L221.475 270.281L221.467 272.36L224.411 274.058V271.978Z" fill="url(#paint32_linear_313_185)"/>
<path d="M186.234 249.977L176.533 244.385V246.465L186.234 252.057V249.977Z" fill="url(#paint33_linear_313_185)"/>
<path d="M195.088 255.077L188.074 251.035L188.067 253.122L195.088 257.164V255.077Z" fill="url(#paint34_linear_313_185)"/>
<path d="M201.668 258.869L196.921 256.135V258.222L201.661 260.956L201.668 258.869Z" fill="url(#paint35_linear_313_185)"/>
<path d="M233.737 217.211L243.438 222.803L243.445 220.716L233.744 215.124L233.737 217.211Z" fill="url(#paint36_linear_313_185)"/>
<path d="M224.89 212.104L231.904 216.152V214.066L224.89 210.024V212.104Z" fill="url(#paint37_linear_313_185)"/>
<path d="M218.31 208.312L223.05 211.045V208.966L218.31 206.232V208.312Z" fill="url(#paint38_linear_313_185)"/>
<path d="M229.718 210.112L239.419 215.704V213.617L229.718 208.025V210.112Z" fill="url(#paint39_linear_313_185)"/>
<path d="M220.864 205.005L227.878 209.054V206.967L220.864 202.925V205.005Z" fill="url(#paint40_linear_313_185)"/>
<path d="M214.284 201.213L219.024 203.947L219.031 201.867L214.284 199.134V201.213Z" fill="url(#paint41_linear_313_185)"/>
<path d="M195.361 218.923L198.636 220.811V218.724L195.361 216.836V218.923Z" fill="url(#paint42_linear_313_185)"/>
<path d="M189.193 215.366L193.521 217.857V215.778L189.193 213.279V215.366Z" fill="url(#paint43_linear_313_185)"/>
<path d="M186.3 245.245L176.599 239.653V241.732L186.3 247.332V245.245Z" fill="url(#paint44_linear_313_185)"/>
<path d="M195.155 250.345L188.14 246.303L188.133 248.39L195.155 252.432V250.345Z" fill="url(#paint45_linear_313_185)"/>
<path d="M201.735 254.144L196.987 251.41V253.489L201.727 256.223L201.735 254.144Z" fill="url(#paint46_linear_313_185)"/>
<path d="M179.882 236.779L176.607 234.891L176.599 236.978L179.882 238.866V236.779Z" fill="url(#paint47_linear_313_185)"/>
<path d="M186.05 240.336L181.715 237.838V239.925L186.043 242.423L186.05 240.336Z" fill="url(#paint48_linear_313_185)"/>
<path d="M194.86 245.421L187.883 241.394V243.481L194.86 247.501V245.421Z" fill="url(#paint49_linear_313_185)"/>
<path d="M197.414 205.799L200.689 207.687V205.6L197.414 203.712V205.799Z" fill="url(#paint50_linear_313_185)"/>
<path d="M191.246 202.242L195.574 204.733V202.653L191.246 200.155V202.242Z" fill="url(#paint51_linear_313_185)"/>
<path d="M182.429 197.157L189.406 201.184V199.097L182.429 195.077V197.157Z" fill="url(#paint52_linear_313_185)"/>
<path d="M203.148 213.522L210.118 217.541L210.125 215.462L203.148 211.435V213.522Z" fill="url(#paint53_linear_313_185)"/>
<path d="M191.791 207.32L201.197 212.736V210.656L191.791 205.233V207.32Z" fill="url(#paint54_linear_313_185)"/>
<path d="M187.014 204.564L189.951 206.254L189.958 204.175L187.014 202.477V204.564Z" fill="url(#paint55_linear_313_185)"/>
<path d="M182.421 201.919L185.365 203.616V201.529L182.429 199.832L182.421 201.919Z" fill="url(#paint56_linear_313_185)"/>
<path d="M187.125 228.814L196.413 234.163V232.084L187.125 226.727V228.814Z" fill="url(#paint57_linear_313_185)"/>
<path d="M182.34 226.058L185.285 227.748V225.669L182.348 223.971L182.34 226.058Z" fill="url(#paint58_linear_313_185)"/>
<path d="M188.567 234.406L191.842 236.295V234.215L188.567 232.326V234.406Z" fill="url(#paint59_linear_313_185)"/>
<path d="M198.526 230.592L201.801 232.481V230.394L198.526 228.505V230.592Z" fill="url(#paint60_linear_313_185)"/>
<path d="M203.192 233.282L211.053 237.808L211.06 235.729L203.199 231.195L203.192 233.282Z" fill="url(#paint61_linear_313_185)"/>
<path d="M212.451 238.609L217.125 241.306V239.226L212.451 236.53V238.609Z" fill="url(#paint62_linear_313_185)"/>
<path d="M182.399 230.849L186.727 233.348V231.261L182.399 228.77V230.849Z" fill="url(#paint63_linear_313_185)"/>
<path d="M182.775 235.743L186.05 237.632V235.545L182.775 233.656V235.743Z" fill="url(#paint64_linear_313_185)"/>
<path d="M176.607 232.187L180.935 234.685L180.942 232.598L176.607 230.1V232.187Z" fill="url(#paint65_linear_313_185)"/>
<path d="M193.771 227.851L196.715 229.549V227.469L193.771 225.772V227.851Z" fill="url(#paint66_linear_313_185)"/>
<path d="M189.185 225.213L192.122 226.903L192.13 224.824L189.185 223.126V225.213Z" fill="url(#paint67_linear_313_185)"/>
<path d="M206.114 201.287L216.153 207.07V204.99L206.121 199.207L206.114 201.287Z" fill="url(#paint68_linear_313_185)"/>
<path d="M194.875 194.805L204.281 200.229V198.142L194.875 192.726V194.805Z" fill="url(#paint69_linear_313_185)"/>
<path d="M190.098 192.05L193.035 193.747L193.042 191.668L190.098 189.97V192.05Z" fill="url(#paint70_linear_313_185)"/>
<path d="M185.513 189.404L188.449 191.102L188.457 189.022L185.513 187.325V189.404Z" fill="url(#paint71_linear_313_185)"/>
<path d="M183.003 187.964L176.651 184.305L176.658 182.218L183.003 185.877V187.964Z" fill="url(#paint72_linear_313_185)"/>
<path d="M256.745 111.409L160.105 55.7007L256.745 0L353.377 55.7007L256.745 111.409Z" fill="url(#paint73_linear_313_185)"/>
<path d="M256.745 96.1976L186.492 55.7007L256.745 15.2112L326.991 55.7007L256.745 96.1976Z" fill="url(#paint74_linear_313_185)"/>
<path d="M256.745 17.9521L324.613 57.0749L326.991 55.7007L256.745 15.2112L186.492 55.7007L188.876 57.0749L256.745 17.9521Z" fill="white"/>
<path d="M353.377 55.7007V87.2766L256.745 142.985V111.409L353.377 55.7007Z" fill="url(#paint75_linear_313_185)"/>
<path d="M160.105 55.7007V87.2766L256.745 142.985V111.409L160.105 55.7007Z" fill="#24126A"/>
<g opacity="0.51">
<path d="M166.656 69.8904V79.8327L250.202 127.987V118.044L166.656 69.8904Z" fill="#453C9E"/>
</g>
<path d="M256.745 109.594L161.68 54.7969L160.105 55.7007L256.745 111.409L353.377 55.7007L351.809 54.7969L256.745 109.594Z" fill="white"/>
<path d="M338.885 77.8267V83.4849L271.237 122.475V116.824L338.885 77.8267Z" fill="url(#paint76_linear_313_185)"/>
<path d="M160.105 55.7007V87.2766L256.745 142.985V111.409L160.105 55.7007Z" fill="url(#paint77_linear_313_185)"/>
<path d="M228.533 109.726L211.038 99.644L211.031 101.724L228.533 111.813V109.726Z" fill="url(#paint78_linear_313_185)"/>
<path d="M208.513 98.2111L203.773 95.4775L203.766 97.5571L208.513 100.291V98.2111Z" fill="url(#paint79_linear_313_185)"/>
<path d="M186.3 85.4102L176.599 79.8181V81.8977L186.3 87.4898V85.4102Z" fill="url(#paint80_linear_313_185)"/>
<path d="M195.155 90.5099L188.14 86.4683L188.133 88.5479L195.155 92.5968V90.5099Z" fill="url(#paint81_linear_313_185)"/>
<path d="M201.735 94.3017L196.987 91.5681V93.6551L201.727 96.3886L201.735 94.3017Z" fill="url(#paint82_linear_313_185)"/>
<path d="M256.84 29.1142L253.771 27.3432L256.84 25.5796L259.91 27.3432L256.84 29.1142Z" fill="#42E8E0"/>
<path opacity="0.1" d="M262.979 32.6488L259.91 30.8852L262.979 29.1143L266.048 30.8852L262.979 32.6488Z" fill="#42E8E0"/>
<path opacity="0.4" d="M269.117 36.1906L266.048 34.4196L269.117 32.6487L272.187 34.4196L269.117 36.1906Z" fill="#42E8E0"/>
<path d="M275.256 39.7252L272.187 37.9543L275.256 36.1907L278.325 37.9543L275.256 39.7252Z" fill="#42E8E0"/>
<path opacity="0.4" d="M281.394 43.267L278.325 41.4961L281.394 39.7251L284.463 41.4961L281.394 43.267Z" fill="#42E8E0"/>
<path d="M287.533 46.8017L284.463 45.0307L287.533 43.2671L290.594 45.0307L287.533 46.8017Z" fill="#42E8E0"/>
<path d="M293.664 50.3363L290.602 48.5727L293.664 46.8018L296.733 48.5727L293.664 50.3363Z" fill="#42E8E0"/>
<path d="M299.802 53.8781L296.733 52.1071L299.802 50.3362L302.871 52.1071L299.802 53.8781Z" fill="#42E8E0"/>
<path opacity="0.1" d="M305.94 57.4127L302.871 55.6491L305.94 53.8782L309.01 55.6491L305.94 57.4127Z" fill="#42E8E0"/>
<path d="M250.68 32.6635L247.611 30.8999L250.68 29.1289L253.749 30.8999L250.68 32.6635Z" fill="#42E8E0"/>
<path d="M256.818 36.2055L253.749 34.4345L256.818 32.6636L259.888 34.4345L256.818 36.2055Z" fill="#42E8E0"/>
<path d="M262.957 39.7399L259.888 37.9689L262.957 36.2053L266.026 37.9689L262.957 39.7399Z" fill="#42E8E0"/>
<path d="M269.095 43.2819L266.026 41.5109L269.095 39.74L272.164 41.5109L269.095 43.2819Z" fill="#42E8E0"/>
<path d="M275.234 46.8165L272.164 45.0456L275.234 43.282L278.296 45.0456L275.234 46.8165Z" fill="#42E8E0"/>
<path d="M281.365 50.351L278.296 48.5874L281.365 46.8164L284.434 48.5874L281.365 50.351Z" fill="#42E8E0"/>
<path d="M287.503 53.893L284.434 52.122L287.503 50.3511L290.572 52.122L287.503 53.893Z" fill="#42E8E0"/>
<path d="M293.642 57.4274L290.572 55.6638L293.642 53.8928L296.711 55.6638L293.642 57.4274Z" fill="#42E8E0"/>
<path d="M299.78 60.9694L296.711 59.1984L299.78 57.4275L302.849 59.1984L299.78 60.9694Z" fill="#42E8E0"/>
<path d="M244.519 36.2201L241.45 34.4492L244.519 32.6782L247.589 34.4492L244.519 36.2201Z" fill="#42E8E0"/>
<path d="M250.658 39.7548L247.589 37.9838L250.658 36.2202L253.727 37.9838L250.658 39.7548Z" fill="#42E8E0"/>
<path d="M256.796 43.2966L253.727 41.5256L256.796 39.7546L259.866 41.5256L256.796 43.2966Z" fill="#42E8E0"/>
<path opacity="0.1" d="M262.927 46.8312L259.866 45.0602L262.927 43.2966L265.997 45.0602L262.927 46.8312Z" fill="#42E8E0"/>
<path opacity="0.4" d="M269.066 50.3659L265.997 48.6023L269.066 46.8313L272.135 48.6023L269.066 50.3659Z" fill="#42E8E0"/>
<path opacity="0.4" d="M275.204 53.9076L272.135 52.1367L275.204 50.3657L278.273 52.1367L275.204 53.9076Z" fill="#42E8E0"/>
<path d="M281.343 57.4423L278.273 55.6713L281.343 53.9077L284.412 55.6713L281.343 57.4423Z" fill="#42E8E0"/>
<path d="M287.481 60.9841L284.412 59.2131L287.481 57.4421L290.55 59.2131L287.481 60.9841Z" fill="#42E8E0"/>
<path d="M293.619 64.5187L290.55 62.7477L293.619 60.9841L296.689 62.7477L293.619 64.5187Z" fill="#42E8E0"/>
<path opacity="0.4" d="M238.359 39.7692L235.29 37.9982L238.359 36.2346L241.428 37.9982L238.359 39.7692Z" fill="#42E8E0"/>
<path opacity="0.4" d="M244.497 43.3039L241.428 41.5402L244.497 39.7693L247.559 41.5402L244.497 43.3039Z" fill="#42E8E0"/>
<path opacity="0.1" d="M250.628 46.8456L247.559 45.0747L250.628 43.3037L253.698 45.0747L250.628 46.8456Z" fill="#42E8E0"/>
<path d="M256.767 50.3803L253.698 48.6167L256.767 46.8457L259.836 48.6167L256.767 50.3803Z" fill="#42E8E0"/>
<path d="M262.905 53.922L259.836 52.1511L262.905 50.3801L265.975 52.1511L262.905 53.922Z" fill="#42E8E0"/>
<path d="M269.044 57.4567L265.975 55.6857L269.044 53.9221L272.113 55.6857L269.044 57.4567Z" fill="#42E8E0"/>
<path opacity="0.4" d="M275.182 60.9987L272.113 59.2277L275.182 57.4568L278.251 59.2277L275.182 60.9987Z" fill="#42E8E0"/>
<path d="M281.321 64.5331L278.251 62.7621L281.321 60.9985L284.39 62.7621L281.321 64.5331Z" fill="#42E8E0"/>
<path d="M287.452 68.0678L284.39 66.3042L287.452 64.5332L290.521 66.3042L287.452 68.0678Z" fill="#42E8E0"/>
<path d="M232.191 43.3185L229.129 41.5549L232.191 39.7839L235.26 41.5549L232.191 43.3185Z" fill="#42E8E0"/>
<path d="M238.33 46.8605L235.26 45.0896L238.33 43.3186L241.399 45.0896L238.33 46.8605Z" fill="#42E8E0"/>
<path d="M244.468 50.3949L241.399 48.6313L244.468 46.8604L247.537 48.6313L244.468 50.3949Z" fill="#42E8E0"/>
<path d="M250.606 53.9369L247.537 52.166L250.606 50.395L253.676 52.166L250.606 53.9369Z" fill="#42E8E0"/>
<path d="M256.745 57.4716L253.676 55.7006L256.745 53.937L259.814 55.7006L256.745 57.4716Z" fill="#42E8E0"/>
<path d="M262.883 61.0134L259.814 59.2424L262.883 57.4714L265.952 59.2424L262.883 61.0134Z" fill="#42E8E0"/>
<path d="M269.022 64.548L265.952 62.777L269.022 61.0134L272.083 62.777L269.022 64.548Z" fill="#42E8E0"/>
<path d="M275.153 68.0824L272.083 66.3188L275.153 64.5479L278.222 66.3188L275.153 68.0824Z" fill="#42E8E0"/>
<path d="M281.291 71.6244L278.222 69.8535L281.291 68.0825L284.36 69.8535L281.291 71.6244Z" fill="#42E8E0"/>
<path d="M226.031 46.8752L222.961 45.1042L226.031 43.3333L229.1 45.1042L226.031 46.8752Z" fill="#42E8E0"/>
<path d="M232.169 50.4098L229.1 48.6389L232.169 46.8752L235.238 48.6462L232.169 50.4098Z" fill="#42E8E0"/>
<path opacity="0.4" d="M238.307 53.9516L235.238 52.1806L238.307 50.4097L241.377 52.1806L238.307 53.9516Z" fill="#42E8E0"/>
<path d="M244.446 57.4862L241.377 55.7153L244.446 53.9517L247.515 55.7153L244.446 57.4862Z" fill="#42E8E0"/>
<path opacity="0.1" d="M250.584 61.0209L247.515 59.2573L250.584 57.4863L253.654 59.2573L250.584 61.0209Z" fill="#42E8E0"/>
<path d="M256.715 64.5627L253.654 62.7917L256.715 61.0208L259.785 62.7917L256.715 64.5627Z" fill="#42E8E0"/>
<path d="M262.854 68.0973L259.785 66.3337L262.854 64.5627L265.923 66.3337L262.854 68.0973Z" fill="#42E8E0"/>
<path d="M268.992 71.6391L265.923 69.8681L268.992 68.0972L272.061 69.8681L268.992 71.6391Z" fill="#42E8E0"/>
<path d="M275.131 75.1737L272.061 73.4028L275.131 71.6392L278.2 73.4028L275.131 75.1737Z" fill="#42E8E0"/>
<path d="M219.87 50.4245L216.801 48.6535L219.87 46.8899L222.939 48.6535L219.87 50.4245Z" fill="#42E8E0"/>
<path d="M226.009 53.9665L222.939 52.1955L226.009 50.4246L229.078 52.1955L226.009 53.9665Z" fill="#42E8E0"/>
<path opacity="0.4" d="M232.147 57.5009L229.078 55.7299L232.147 53.9663L235.216 55.7299L232.147 57.5009Z" fill="#42E8E0"/>
<path d="M238.285 61.0355L235.216 59.2719L238.285 57.501L241.347 59.2719L238.285 61.0355Z" fill="#42E8E0"/>
<path d="M244.416 64.5773L241.355 62.8064L244.416 61.0354L247.486 62.8064L244.416 64.5773Z" fill="#42E8E0"/>
<path opacity="0.1" d="M250.555 68.112L247.486 66.3484L250.555 64.5774L253.624 66.3484L250.555 68.112Z" fill="#42E8E0"/>
<path opacity="0.4" d="M256.693 71.654L253.624 69.883L256.693 68.1121L259.763 69.883L256.693 71.654Z" fill="#42E8E0"/>
<path d="M262.832 75.1884L259.762 73.4174L262.832 71.6538L265.901 73.4174L262.832 75.1884Z" fill="#42E8E0"/>
<path opacity="0.1" d="M268.97 78.7304L265.901 76.9594L268.97 75.1885L272.039 76.9594L268.97 78.7304Z" fill="#42E8E0"/>
<path d="M213.71 53.9811L210.64 52.2102L213.71 50.4392L216.779 52.2102L213.71 53.9811Z" fill="#42E8E0"/>
<path opacity="0.4" d="M219.848 57.5158L216.779 55.7448L219.848 53.9812L222.917 55.7448L219.848 57.5158Z" fill="#42E8E0"/>
<path d="M225.986 61.0502L222.917 59.2866L225.986 57.5156L229.048 59.2866L225.986 61.0502Z" fill="#42E8E0"/>
<path d="M232.118 64.5922L229.048 62.8212L232.118 61.0503L235.187 62.8212L232.118 64.5922Z" fill="#42E8E0"/>
<path d="M238.256 68.1269L235.187 66.3559L238.256 64.5923L241.325 66.3559L238.256 68.1269Z" fill="#42E8E0"/>
<path d="M244.394 71.6686L241.325 69.8977L244.394 68.1267L247.464 69.8977L244.394 71.6686Z" fill="#42E8E0"/>
<path d="M250.533 75.2033L247.464 73.4323L250.533 71.6687L253.602 73.4323L250.533 75.2033Z" fill="#42E8E0"/>
<path opacity="0.4" d="M256.671 78.7377L253.602 76.9741L256.671 75.2031L259.74 76.9741L256.671 78.7377Z" fill="#42E8E0"/>
<path d="M262.81 82.2797L259.74 80.5087L262.81 78.7378L265.871 80.5087L262.81 82.2797Z" fill="#42E8E0"/>
<path d="M207.549 57.5304L204.48 55.7595L207.549 53.9885L210.618 55.7595L207.549 57.5304Z" fill="#42E8E0"/>
<path opacity="0.1" d="M213.68 61.0651L210.618 59.3015L213.68 57.5305L216.749 59.3015L213.68 61.0651Z" fill="#42E8E0"/>
<path d="M219.819 64.6069L216.749 62.8359L219.819 61.0649L222.888 62.8359L219.819 64.6069Z" fill="#42E8E0"/>
<path d="M225.957 68.1415L222.888 66.3705L225.957 64.6069L229.026 66.3705L225.957 68.1415Z" fill="#42E8E0"/>
<path d="M232.095 71.6835L229.026 69.9126L232.095 68.1416L235.165 69.9126L232.095 71.6835Z" fill="#42E8E0"/>
<path d="M238.234 75.2179L235.165 73.447L238.234 71.6833L241.303 73.447L238.234 75.2179Z" fill="#42E8E0"/>
<path opacity="0.4" d="M244.372 78.7526L241.303 76.989L244.372 75.218L247.441 76.989L244.372 78.7526Z" fill="#42E8E0"/>
<path d="M250.511 82.2944L247.441 80.5234L250.503 78.7524L253.573 80.5234L250.511 82.2944Z" fill="#42E8E0"/>
<path d="M256.642 85.829L253.573 84.0654L256.642 82.2944L259.711 84.0654L256.642 85.829Z" fill="#42E8E0"/>
<path d="M499.117 398.304L430.159 359.056C429.283 358.557 428.738 357.763 428.532 356.903C428.436 356.514 427.877 348.313 428.871 347.732L519.585 300.277C521.366 299.226 523.575 299.204 525.378 300.225L596.338 334.483C597.456 335.123 596.89 343.853 596.691 344.367C596.419 345.08 595.903 345.712 595.167 346.153L507.066 398.245C504.622 399.686 501.597 399.715 499.131 398.311L499.117 398.304Z" fill="url(#paint83_linear_313_185)"/>
<path d="M499.117 398.047L430.159 358.799C429.283 358.3 428.738 357.506 428.532 356.646C428.436 356.257 427.877 348.056 428.871 347.475L519.585 300.02C521.366 298.969 523.575 298.947 525.378 299.968L596.338 334.226C597.456 334.866 596.89 343.595 596.691 344.103C596.419 344.815 595.903 345.447 595.167 345.888L507.066 397.981C504.622 399.421 501.597 399.45 499.131 398.047H499.117Z" fill="url(#paint84_linear_313_185)"/>
<path d="M499.117 390.397L430.159 351.149C427.884 349.856 427.862 346.593 430.107 345.263L519.578 292.362C521.359 291.312 523.567 291.29 525.37 292.311L595.101 331.992C597.508 333.366 597.537 336.82 595.153 338.231L507.051 390.324C504.607 391.764 501.582 391.793 499.117 390.39V390.397Z" fill="#A4D4ED"/>
<path d="M430.159 350.98L499.117 390.228C501.582 391.632 504.607 391.61 507.051 390.162L595.153 338.069C596.315 337.386 596.897 336.21 596.912 335.027C596.948 336.262 596.367 337.518 595.153 338.246L507.051 390.338C504.607 391.779 501.582 391.808 499.117 390.404L430.159 351.157C428.996 350.495 428.429 349.312 428.451 348.137C428.488 349.254 429.047 350.356 430.159 350.988V350.98Z" fill="white"/>
<path d="M511.349 357.565L511.997 357.947L538.03 342.941L554.613 352.538L555.26 352.186L538.037 342.199L511.364 357.565H511.349Z" fill="url(#paint85_linear_313_185)"/>
<path d="M511.99 357.947L528.572 367.544L554.605 352.538L538.023 342.941L511.99 357.947Z" fill="url(#paint86_linear_313_185)"/>
<path d="M518.673 304.135L522.735 301.783L527.181 304.392L523.118 306.743L518.673 304.135Z" fill="url(#paint87_linear_313_185)"/>
<path d="M521.948 309.492L528.947 305.428L533.393 308.037L526.386 312.1L521.941 309.492H521.948Z" fill="url(#paint88_linear_313_185)"/>
<path d="M512.799 307.537L516.862 305.185L521.308 307.794L517.245 310.145L512.799 307.537Z" fill="url(#paint89_linear_313_185)"/>
<path d="M506.926 310.939L510.989 308.588L515.434 311.196L511.371 313.555L506.926 310.946V310.939Z" fill="url(#paint90_linear_313_185)"/>
<path d="M501.06 314.341L505.122 311.99L509.568 314.599L505.505 316.95L501.06 314.341Z" fill="url(#paint91_linear_313_185)"/>
<path d="M495.186 317.751L499.249 315.4L503.695 318.008L499.632 320.36L495.186 317.751Z" fill="url(#paint92_linear_313_185)"/>
<path d="M489.313 321.153L493.376 318.802L497.821 321.411L493.758 323.762L489.313 321.153Z" fill="url(#paint93_linear_313_185)"/>
<path d="M483.447 324.556L487.51 322.204L491.955 324.813L487.892 327.172L483.447 324.563V324.556Z" fill="url(#paint94_linear_313_185)"/>
<path d="M477.573 327.958L481.636 325.606L486.082 328.215L482.019 330.567L477.573 327.958Z" fill="url(#paint95_linear_313_185)"/>
<path d="M471.7 331.36L475.763 329.009L480.208 331.617L476.145 333.969L471.7 331.36Z" fill="url(#paint96_linear_313_185)"/>
<path d="M465.834 334.77L469.897 332.418L474.342 335.027L470.279 337.379L465.834 334.77Z" fill="url(#paint97_linear_313_185)"/>
<path d="M459.96 338.172L464.023 335.821L468.469 338.429L464.406 340.788L459.96 338.18V338.172Z" fill="url(#paint98_linear_313_185)"/>
<path d="M454.094 341.575L458.157 339.223L462.603 341.832L458.54 344.183L454.094 341.575Z" fill="url(#paint99_linear_313_185)"/>
<path d="M452.284 342.625L456.729 345.234L450.156 349.04L445.711 346.432L452.284 342.618V342.625Z" fill="url(#paint100_linear_313_185)"/>
<path d="M516.509 312.644L520.572 310.292L525.017 312.901L520.954 315.253L516.509 312.644Z" fill="url(#paint101_linear_313_185)"/>
<path d="M510.635 316.046L514.698 313.695L519.144 316.303L515.081 318.655L510.635 316.046Z" fill="url(#paint102_linear_313_185)"/>
<path d="M504.762 319.456L508.825 317.104L513.27 319.713L509.207 322.065L504.762 319.456Z" fill="url(#paint103_linear_313_185)"/>
<path d="M498.896 322.858L502.959 320.507L507.404 323.115L503.341 325.467L498.896 322.858Z" fill="url(#paint104_linear_313_185)"/>
<path d="M493.03 326.261L497.092 323.909L501.538 326.518L497.475 328.869L493.03 326.261Z" fill="url(#paint105_linear_313_185)"/>
<path d="M487.156 329.663L491.219 327.311L495.665 329.92L491.602 332.271L487.156 329.663Z" fill="url(#paint106_linear_313_185)"/>
<path d="M481.283 333.072L485.346 330.721L489.791 333.33L485.728 335.681L481.283 333.072Z" fill="url(#paint107_linear_313_185)"/>
<path d="M475.417 336.475L479.48 334.123L483.925 336.732L479.862 339.083L475.417 336.475Z" fill="url(#paint108_linear_313_185)"/>
<path d="M469.543 339.877L473.606 337.526L478.052 340.134L473.989 342.486L469.543 339.877Z" fill="url(#paint109_linear_313_185)"/>
<path d="M463.67 343.279L467.733 340.928L472.178 343.537L468.115 345.888L463.67 343.279Z" fill="url(#paint110_linear_313_185)"/>
<path d="M457.804 346.682L461.867 344.33L466.312 346.939L462.249 349.29L457.804 346.682Z" fill="url(#paint111_linear_313_185)"/>
<path d="M460.431 350.348L456.368 352.7L451.923 350.091L455.986 347.74L460.431 350.348Z" fill="url(#paint112_linear_313_185)"/>
<path d="M552.051 319.008L545.052 323.064L540.606 320.455L547.606 316.399L552.051 319.008Z" fill="url(#paint113_linear_313_185)"/>
<path d="M543.675 323.865L539.612 326.217L535.167 323.608L539.23 321.256L543.675 323.865Z" fill="url(#paint114_linear_313_185)"/>
<path d="M537.802 327.267L533.739 329.626L529.293 327.017L533.356 324.666L537.802 327.275V327.267Z" fill="url(#paint115_linear_313_185)"/>
<path d="M504.004 341.678L505.814 340.627L509.877 338.275L511.688 337.224L515.751 334.873L517.561 333.822L521.624 331.471L527.498 328.068L531.943 330.677L526.077 334.079L522.014 336.431L520.204 337.482L516.141 339.833L514.33 340.884L510.267 343.243L508.457 344.294L506.425 345.469L504.394 346.645L499.948 344.036L501.98 342.861L504.011 341.685L504.004 341.678Z" fill="url(#paint116_linear_313_185)"/>
<path d="M502.576 347.696L498.513 350.047L494.067 347.439L498.13 345.087L502.576 347.696Z" fill="url(#paint117_linear_313_185)"/>
<path d="M496.71 351.098L492.647 353.449L488.201 350.841L492.264 348.489L496.71 351.098Z" fill="url(#paint118_linear_313_185)"/>
<path d="M490.836 354.5L486.773 356.859L482.328 354.25L486.391 351.899L490.836 354.508V354.5Z" fill="url(#paint119_linear_313_185)"/>
<path d="M484.963 357.903L480.9 360.254L476.454 357.645L480.517 355.294L484.963 357.903Z" fill="url(#paint120_linear_313_185)"/>
<path d="M479.097 361.305L475.034 363.656L470.588 361.048L474.651 358.696L479.097 361.305Z" fill="url(#paint121_linear_313_185)"/>
<path d="M526.158 314.312L535.174 309.087L539.62 311.696L530.611 316.921L526.165 314.312H526.158Z" fill="url(#paint122_linear_313_185)"/>
<path d="M520.719 317.465L524.782 315.113L529.227 317.722L525.164 320.073L520.719 317.465Z" fill="url(#paint123_linear_313_185)"/>
<path d="M514.853 320.867L518.916 318.515L523.361 321.124L519.298 323.476L514.853 320.867Z" fill="url(#paint124_linear_313_185)"/>
<path d="M508.979 324.277L513.042 321.925L517.488 324.534L513.425 326.885L508.979 324.277Z" fill="url(#paint125_linear_313_185)"/>
<path d="M503.106 327.679L507.169 325.327L511.614 327.936L507.551 330.288L503.106 327.679Z" fill="url(#paint126_linear_313_185)"/>
<path d="M497.24 331.081L501.303 328.729L505.748 331.338L501.685 333.69L497.24 331.081Z" fill="url(#paint127_linear_313_185)"/>
<path d="M491.366 334.483L495.429 332.132L499.875 334.74L495.812 337.092L491.366 334.483Z" fill="url(#paint128_linear_313_185)"/>
<path d="M485.493 337.893L489.556 335.542L494.001 338.15L489.938 340.502L485.493 337.893Z" fill="url(#paint129_linear_313_185)"/>
<path d="M479.627 341.288L483.69 338.937L488.135 341.545L484.072 343.897L479.627 341.288Z" fill="url(#paint130_linear_313_185)"/>
<path d="M473.753 344.698L477.816 342.346L482.262 344.955L478.199 347.306L473.753 344.698Z" fill="url(#paint131_linear_313_185)"/>
<path d="M467.88 348.1L471.943 345.749L476.388 348.357L472.325 350.709L467.88 348.1Z" fill="url(#paint132_linear_313_185)"/>
<path d="M470.515 351.759L462.595 356.352L458.15 353.743L466.077 349.151L470.522 351.759H470.515Z" fill="url(#paint133_linear_313_185)"/>
<path d="M531.148 318.684L541.394 312.747L545.839 315.355L535.594 321.3L531.148 318.692V318.684Z" fill="url(#paint134_linear_313_185)"/>
<path d="M525.709 321.837L529.772 319.485L534.217 322.094L530.155 324.446L525.709 321.837Z" fill="url(#paint135_linear_313_185)"/>
<path d="M519.836 325.239L523.898 322.888L528.344 325.496L524.281 327.848L519.836 325.239Z" fill="url(#paint136_linear_313_185)"/>
<path d="M513.962 328.642L518.025 326.29L522.47 328.899L518.408 331.25L513.962 328.642Z" fill="url(#paint137_linear_313_185)"/>
<path d="M508.096 332.051L512.159 329.7L516.604 332.308L512.542 334.667L508.096 332.059V332.051Z" fill="url(#paint138_linear_313_185)"/>
<path d="M502.223 335.446L506.285 333.094L510.731 335.703L506.668 338.055L502.223 335.446Z" fill="url(#paint139_linear_313_185)"/>
<path d="M496.349 338.856L500.412 336.504L504.858 339.113L500.795 341.464L496.349 338.856Z" fill="url(#paint140_linear_313_185)"/>
<path d="M490.483 342.258L494.546 339.906L498.991 342.515L494.929 344.867L490.483 342.258Z" fill="url(#paint141_linear_313_185)"/>
<path d="M484.61 345.66L488.672 343.309L493.118 345.918L489.055 348.276L484.61 345.668V345.66Z" fill="url(#paint142_linear_313_185)"/>
<path d="M478.736 349.063L482.799 346.711L487.245 349.32L483.182 351.671L478.736 349.063Z" fill="url(#paint143_linear_313_185)"/>
<path d="M481.371 352.722L468.815 360.004L464.369 357.396L476.933 350.113L481.378 352.722H481.371Z" fill="url(#paint144_linear_313_185)"/>
<path d="M512.129 290.239L427.965 345.888C426.795 346.586 419.906 342.184 419.604 341.913C418.876 341.237 418.404 340.267 418.404 339.135V249.397C418.404 246.031 420.178 242.908 423.078 241.188L509.583 189.867C510.731 189.184 512.012 189.133 513.108 189.537C513.417 189.654 520.535 192.241 520.535 193.725L515.824 283.728C515.824 286.396 514.418 288.865 512.122 290.224L512.129 290.239Z" fill="url(#paint145_linear_313_185)"/>
<path d="M518.172 293.252L430.21 345.432C427.664 346.939 424.44 345.109 424.44 342.155V252.417C424.44 249.051 426.214 245.928 429.114 244.208L515.626 192.895C518.378 191.256 521.867 193.24 521.867 196.444V286.763C521.867 289.43 520.461 291.899 518.165 293.259L518.172 293.252Z" fill="url(#paint146_linear_313_185)"/>
<path d="M428.267 338.657C428.451 338.657 428.635 338.606 428.812 338.503L516.774 286.322C518.231 285.455 519.136 283.868 519.136 282.178V196.429C519.136 195.57 518.408 195.033 517.738 195.033C517.502 195.033 517.267 195.099 517.039 195.232L430.534 246.545C428.473 247.765 427.2 250.014 427.2 252.402V337.57C427.2 337.878 427.303 338.128 427.516 338.334C427.723 338.532 428.002 338.65 428.282 338.65L428.267 338.657Z" fill="#052838"/>
<path opacity="0.51" d="M429.121 244.201L515.633 192.888C517.039 192.05 518.636 192.167 519.865 192.902C518.68 192.314 517.223 192.256 515.927 193.027L429.415 244.348C426.515 246.068 424.742 249.183 424.742 252.556V342.295C424.742 343.735 425.514 344.903 426.596 345.55C425.367 344.947 424.455 343.713 424.455 342.148V252.409C424.455 249.044 426.228 245.921 429.128 244.201H429.121Z" fill="url(#paint147_linear_313_185)"/>
<path d="M439.882 339.664L441.788 340.774L447.86 337.276L445.954 336.166L439.882 339.664Z" fill="#302A2A"/>
<path d="M508.405 299.101L510.311 300.21L516.384 296.705L514.477 295.596L508.405 299.094V299.101Z" fill="#302A2A"/>
<path d="M439.882 339.502L441.788 340.612L447.86 337.107L445.954 335.997L439.882 339.502Z" fill="url(#paint148_linear_313_185)"/>
<path d="M508.405 299.005L510.311 300.115L516.384 296.617L514.477 295.508L508.405 299.005Z" fill="url(#paint149_linear_313_185)"/>
<path d="M466.997 234.332L465.444 235.266V233.994L466.997 233.061V234.332Z" fill="#CDD8D4"/>
<path d="M466.997 237.426L465.444 238.359V237.088L466.997 236.162V237.433V237.426Z" fill="#CDD8D4"/>
<path d="M466.997 240.52L465.444 241.446V240.174L466.997 239.249V240.52Z" fill="#CDD8D4"/>
<path d="M466.997 243.613L465.444 244.539V243.268L466.997 242.335V243.606V243.613Z" fill="#CDD8D4"/>
<path d="M466.997 246.707L465.444 247.633V246.362L466.997 245.428V246.7V246.707Z" fill="#CDD8D4"/>
<path d="M466.997 249.801L465.444 250.734V249.463L466.997 248.537V249.808V249.801Z" fill="#CDD8D4"/>
<path d="M466.997 252.894L465.444 253.82V252.549L466.997 251.616V252.887V252.894Z" fill="#CDD8D4"/>
<path d="M466.997 255.988L465.444 256.914V255.643L466.997 254.709V255.981V255.988Z" fill="#CDD8D4"/>
<path d="M466.997 259.082L465.444 260.007V258.736L466.997 257.803V259.074V259.082Z" fill="#CDD8D4"/>
<path d="M466.997 262.175L465.444 263.109V261.837L466.997 260.911V262.183V262.175Z" fill="#CDD8D4"/>
<path d="M466.997 265.269L465.444 266.202V264.931L466.997 264.005V265.276V265.269Z" fill="#CDD8D4"/>
<path d="M466.997 268.363L465.444 269.288V268.017L466.997 267.084V268.355V268.363Z" fill="#CDD8D4"/>
<path d="M466.997 271.456L465.444 272.39V271.118L466.997 270.185V271.456Z" fill="#CDD8D4"/>
<path d="M466.997 274.55L465.444 275.483V274.212L466.997 273.286V274.557V274.55Z" fill="#CDD8D4"/>
<path d="M466.997 277.644L465.444 278.577V277.306L466.997 276.38V277.651V277.644Z" fill="#CDD8D4"/>
<path d="M466.997 280.737L465.444 281.663V280.392L466.997 279.459V280.73V280.737Z" fill="#CDD8D4"/>
<path d="M466.997 283.831L465.444 284.757V283.486L466.997 282.552V283.824V283.831Z" fill="#CDD8D4"/>
<path d="M466.997 286.925L465.444 287.858V286.587L466.997 285.661V286.932V286.925Z" fill="#CDD8D4"/>
<path d="M466.997 290.018L465.444 290.952V289.68L466.997 288.754V290.026V290.018Z" fill="#CDD8D4"/>
<path d="M466.997 293.112L465.444 294.038V292.767L466.997 291.833V293.105V293.112Z" fill="#CDD8D4"/>
<path d="M466.997 296.206L465.444 297.132V295.86L466.997 294.927V296.198V296.206Z" fill="#CDD8D4"/>
<path d="M466.997 299.299L465.444 300.233V298.961L466.997 298.035V299.307V299.299Z" fill="#CDD8D4"/>
<path d="M466.997 302.393L465.444 303.326V302.055L466.997 301.129V302.4V302.393Z" fill="#CDD8D4"/>
<path d="M466.997 305.487L465.444 306.413V305.141L466.997 304.215V305.487Z" fill="#CDD8D4"/>
<path d="M466.997 308.58L465.444 309.506V308.235L466.997 307.302V308.573V308.58Z" fill="#CDD8D4"/>
<path d="M435.48 253.174L433.927 254.1V252.828L435.48 251.895V253.166V253.174Z" fill="#CDD8D4"/>
<path d="M442.288 249.103L436.834 252.365V251.094L442.288 247.839V249.11V249.103Z" fill="#998359"/>
<path d="M448.986 245.105L443.532 248.36V247.089L448.986 243.826V245.098V245.105Z" fill="#998359"/>
<path d="M455.677 241.107L450.223 244.363V243.092L455.677 239.829V241.1V241.107Z" fill="#998359"/>
<path d="M435.48 256.267L433.927 257.201V255.929L435.48 254.996V256.267Z" fill="#CDD8D4"/>
<path d="M435.48 259.361L433.927 260.294V259.023L435.48 258.09V259.361Z" fill="#CDD8D4"/>
<path d="M441.265 255.907L437.144 258.376V257.105L441.265 254.643V255.915V255.907Z" fill="#CDD8D4"/>
<path d="M446.02 253.064L441.898 255.525V254.254L446.02 251.792V253.064Z" fill="#CDD8D4"/>
<path d="M450.782 250.22L446.66 252.681V251.41L450.782 248.941V250.212V250.22Z" fill="#247489"/>
<path d="M435.48 262.455L433.927 263.388V262.117L435.48 261.191V262.462V262.455Z" fill="#CDD8D4"/>
<path d="M443.429 257.708L436.562 261.815V260.544L443.429 256.436V257.708Z" fill="#247489"/>
<path d="M451.157 253.085L444.298 257.186V255.915L451.157 251.807V253.078V253.085Z" fill="#CDD8D4"/>
<path d="M458.886 248.463L452.019 252.571V251.3L458.886 247.199V248.471V248.463Z" fill="#CDD8D4"/>
<path d="M435.48 265.548L433.927 266.474V265.203L435.48 264.277V265.548Z" fill="#CDD8D4"/>
<path d="M441.619 261.881L436.569 264.902V263.63L441.619 260.61V261.881Z" fill="#247489"/>
<path d="M435.48 268.642L433.927 269.568V268.297L435.48 267.363V268.635V268.642Z" fill="#CDD8D4"/>
<path d="M439.3 266.364L437.747 267.297V266.026L439.3 265.093V266.364Z" fill="#CDD8D4"/>
<path d="M435.48 271.736L433.927 272.669V271.398L435.48 270.472V271.743V271.736Z" fill="#CDD8D4"/>
<path d="M439.3 269.458L437.747 270.391V269.12L439.3 268.194V269.465V269.458Z" fill="#CDD8D4"/>
<path d="M435.48 274.829L433.927 275.763V274.491L435.48 273.565V274.837V274.829Z" fill="#CDD8D4"/>
<path d="M439.3 272.551L437.747 273.477V272.206L439.3 271.273V272.544V272.551Z" fill="#CDD8D4"/>
<path d="M446.02 262.345L439.815 266.055V264.784L446.02 261.073V262.345Z" fill="#247489"/>
<path d="M448.029 264.24L439.823 269.142V267.87L448.029 262.962V264.233V264.24Z" fill="#247489"/>
<path d="M448.994 266.753L439.815 272.235V270.964L448.994 265.482V266.753Z" fill="#247489"/>
<path d="M435.48 277.923L433.927 278.849V277.578L435.48 276.644V277.916V277.923Z" fill="#CDD8D4"/>
<path d="M441.376 274.403L439.823 275.336V274.065L441.376 273.139V274.41V274.403Z" fill="#247489"/>
<path d="M451.341 268.436L442.156 273.926V272.654L451.341 267.165V268.436Z" fill="#247489"/>
<path d="M435.48 281.017L433.927 281.943V280.671L435.48 279.738V281.009V281.017Z" fill="#CDD8D4"/>
<path d="M435.48 284.11L433.927 285.044V283.772L435.48 282.839V284.11Z" fill="#CDD8D4"/>
<path d="M435.48 287.204L433.927 288.137V286.866L435.48 285.94V287.211V287.204Z" fill="#CDD8D4"/>
<path d="M435.48 290.298L433.927 291.231V289.96L435.48 289.034V290.305V290.298Z" fill="#CDD8D4"/>
<path d="M435.48 293.391L433.927 294.317V293.046L435.48 292.113V293.384V293.391Z" fill="#CDD8D4"/>
<path d="M435.48 296.485L433.927 297.411V296.14L435.48 295.206V296.478V296.485Z" fill="#CDD8D4"/>
<path d="M435.48 299.579L433.927 300.512V299.241L435.48 298.315V299.586V299.579Z" fill="#CDD8D4"/>
<path d="M435.48 302.672L433.927 303.606V302.334L435.48 301.408V302.68V302.672Z" fill="#CDD8D4"/>
<path d="M448.449 273.264L442.318 276.931V275.66L448.449 271.993V273.264Z" fill="#247489"/>
<path d="M455.39 269.12L449.258 272.786V271.515L455.39 267.848V269.12Z" fill="#CDD8D4"/>
<path d="M462.33 264.968L456.199 268.635V267.363L462.33 263.697V264.968Z" fill="#CDD8D4"/>
<path d="M447.521 276.916L442.318 280.025V278.753L447.521 275.638V276.909V276.916Z" fill="#CDD8D4"/>
<path d="M453.424 273.389L448.221 276.505V275.233L453.424 272.125V273.396V273.389Z" fill="#247489"/>
<path d="M459.32 269.862L454.116 272.978V271.706L459.32 268.598V269.869V269.862Z" fill="#CDD8D4"/>
<path d="M448.567 279.385L442.318 283.118V281.847L448.567 278.114V279.385Z" fill="#924443"/>
<path d="M455.647 275.153L449.398 278.886V277.614L455.647 273.881V275.153Z" fill="#CDD8D4"/>
<path d="M447.521 283.104L442.318 286.219V284.948L447.521 281.84V283.111V283.104Z" fill="#CDD8D4"/>
<path d="M453.77 279.363L448.567 282.472V281.2L453.77 278.085V279.356V279.363Z" fill="#CDD8D4"/>
<path d="M447.521 286.197L442.318 289.306V288.034L447.521 284.919V286.19V286.197Z" fill="#247489"/>
<path d="M453.285 282.751L448.081 285.866V284.595L453.285 281.479V282.751Z" fill="#CDD8D4"/>
<path d="M459.04 279.312L453.837 282.42V281.149L459.04 278.033V279.304V279.312Z" fill="#CDD8D4"/>
<path d="M446.498 289.901L442.318 292.399V291.128L446.498 288.63V289.901Z" fill="#CDD8D4"/>
<path d="M451.231 287.072L447.05 289.57V288.299L451.231 285.8V287.072Z" fill="#247489"/>
<path d="M455.964 284.242L451.783 286.741V285.47L455.964 282.971V284.242Z" fill="#CDD8D4"/>
<path d="M460.696 281.413L456.516 283.912V282.641L460.696 280.142V281.413Z" fill="#CDD8D4"/>
<path d="M447.521 292.385L442.318 295.5V294.229L447.521 291.121V292.392V292.385Z" fill="#247489"/>
<path d="M453.285 288.938L448.081 292.054V290.783L453.285 287.667V288.938Z" fill="#CDD8D4"/>
<path d="M459.04 285.499L453.837 288.615V287.343L459.04 284.235V285.506V285.499Z" fill="#CDD8D4"/>
<path d="M447.521 295.478L442.318 298.587V297.315L447.521 294.2V295.471V295.478Z" fill="#247489"/>
<path d="M453.424 291.951L448.221 295.059V293.788L453.424 290.672V291.944V291.951Z" fill="#CDD8D4"/>
<path d="M435.48 305.766L433.927 306.692V305.421L435.48 304.487V305.759V305.766Z" fill="#CDD8D4"/>
<path d="M435.48 308.86L433.927 309.786V308.514L435.48 307.581V308.852V308.86Z" fill="#CDD8D4"/>
<path d="M435.48 311.953L433.927 312.887V311.615L435.48 310.689V311.961V311.953Z" fill="#CDD8D4"/>
<path d="M435.48 315.047L433.927 315.98V314.709L435.48 313.783V315.054V315.047Z" fill="#CDD8D4"/>
<path d="M435.48 318.141L433.927 319.067V317.795L435.48 316.862V318.133V318.141Z" fill="#CDD8D4"/>
<path d="M439.3 303.488L437.747 304.421V303.15L439.3 302.217V303.488Z" fill="#CDD8D4"/>
<path d="M439.3 306.582L437.747 307.515V306.244L439.3 305.318V306.589V306.582Z" fill="#CDD8D4"/>
<path d="M439.3 309.675L437.747 310.609V309.337L439.3 308.411V309.683V309.675Z" fill="#CDD8D4"/>
<path d="M439.3 312.769L437.747 313.695V312.423L439.3 311.49V312.761V312.769Z" fill="#CDD8D4"/>
<path d="M439.3 315.863L437.747 316.788V315.517L439.3 314.584V315.855V315.863Z" fill="#CDD8D4"/>
<path d="M447.691 298.469L440.139 302.988V301.717L447.691 297.205V298.476V298.469Z" fill="#247489"/>
<path d="M444.916 303.216L440.132 306.075V304.803L444.916 301.945V303.216Z" fill="#247489"/>
<path d="M446.587 305.318L440.139 309.176V307.904L446.587 304.046V305.318Z" fill="#247489"/>
<path d="M445.38 309.132L440.139 312.269V310.998L445.38 307.86V309.132Z" fill="#247489"/>
<path d="M443.576 313.305L440.132 315.363V314.092L443.576 312.034V313.305Z" fill="#247489"/>
<path d="M435.48 321.234L433.927 322.16V320.889L435.48 319.956V321.227V321.234Z" fill="#CDD8D4"/>
<path d="M435.48 324.328L433.927 325.261V323.99L435.48 323.064V324.335V324.328Z" fill="#CDD8D4"/>
<path d="M435.48 327.422L433.927 328.355V327.084L435.48 326.158V327.429V327.422Z" fill="#CDD8D4"/>
<path d="M437.74 319.882L436.187 320.808V319.537L437.74 318.604V319.875V319.882Z" fill="#CDD8D4"/>
<path d="M437.74 322.976L436.187 323.909V322.638L437.74 321.705V322.976Z" fill="#CDD8D4"/>
<path d="M437.74 326.07L436.187 327.003V325.732L437.74 324.806V326.077V326.07Z" fill="#CDD8D4"/>
<path d="M444.761 315.686L438.881 319.206V317.935L444.761 314.415V315.686Z" fill="#247489"/>
<path d="M442.907 319.889L438.881 322.3V321.028L442.907 318.618V319.889Z" fill="#247489"/>
<path d="M441.817 323.637L438.873 325.401V324.13L441.817 322.373V323.645V323.637Z" fill="#247489"/>
<path d="M473.974 230.166L469.816 232.657V231.386L473.974 228.895V230.166Z" fill="#9A7B9B"/>
<path d="M481.268 225.808L474.475 229.872V228.601L481.268 224.537V225.808Z" fill="#247489"/>
<path d="M478.464 230.57L469.816 235.743V234.472L478.464 229.299V230.57Z" fill="#924443"/>
<path d="M488.798 224.397L480.142 229.571V228.299L488.798 223.126V224.397Z" fill="#998359"/>
<path d="M499.131 218.217L490.476 223.391V222.119L499.131 216.946V218.217Z" fill="url(#paint150_linear_313_185)"/>
<path d="M509.465 212.045L500.809 217.218V215.947L509.465 210.773V212.045Z" fill="url(#paint151_linear_313_185)"/>
<path d="M473.753 236.485L469.816 238.844V237.573L473.753 235.214V236.485Z" fill="#9A7B9B"/>
<path d="M484.47 230.078L474.806 235.853V234.582L484.47 228.806V230.078Z" fill="#924443"/>
<path d="M495.311 223.596L485.647 229.372V228.101L495.311 222.325V223.596Z" fill="#CDD8D4"/>
<path d="M482.674 234.244L473.363 239.814V238.543L482.674 232.98V234.252V234.244Z" fill="#247489"/>
<path d="M492.956 228.101L483.645 233.664V232.392L492.956 226.822V228.094V228.101Z" fill="#998359"/>
<path d="M503.231 221.958L493.92 227.521V226.249L503.231 220.679V221.95V221.958Z" fill="#CDD8D4"/>
<path d="M513.513 215.807L504.202 221.37V220.099L513.513 214.536V215.807Z" fill="#247489"/>
<path d="M476.764 240.872L471.516 244.01V242.739L476.764 239.601V240.872Z" fill="#9A7B9B"/>
<path d="M478.78 242.761L472.811 246.325V245.054L478.78 241.49V242.761Z" fill="#247489"/>
<path d="M485.853 238.528L479.884 242.1V240.828L485.853 237.257V238.528Z" fill="#247489"/>
<path d="M475.38 247.89L471.619 250.139V248.868L475.38 246.619V247.89Z" fill="#9A7B9B"/>
<path d="M473.039 252.38L469.816 254.313V253.041L473.039 251.109V252.38Z" fill="#9A7B9B"/>
<path d="M474.556 257.663L469.816 260.5V259.229L474.556 256.392V257.663Z" fill="#9A7B9B"/>
<path d="M480.135 254.327L475.395 257.156V255.885L480.135 253.049V254.32V254.327Z" fill="#247489"/>
<path d="M478.721 258.266L471.405 262.638V261.367L478.721 256.995V258.266Z" fill="#924443"/>
<path d="M486.796 253.438L479.48 257.811V256.539L486.796 252.167V253.438Z" fill="#998359"/>
<path d="M494.87 248.61L487.554 252.983V251.711L494.87 247.339V248.61Z" fill="#CDD8D4"/>
<path d="M502.944 243.783L495.628 248.155V246.884L502.944 242.511V243.783Z" fill="#247489"/>
<path d="M511.018 238.955L503.702 243.327V242.056L511.018 237.683V238.955Z" fill="#CDD8D4"/>
<path d="M474.077 264.13L469.816 266.68V265.409L474.077 262.859V264.13Z" fill="#9A7B9B"/>
<path d="M473.451 270.7L469.816 272.867V271.596L473.451 269.421V270.692V270.7Z" fill="#9A7B9B"/>
<path d="M480.392 266.54L474.077 270.317V269.046L480.392 265.269V266.54Z" fill="#247489"/>
<path d="M479.48 270.185L471.405 275.013V273.742L479.48 268.914V270.185Z" fill="#924443"/>
<path d="M488.466 264.813L480.392 269.641V268.37L488.466 263.542V264.813Z" fill="#998359"/>
<path d="M497.46 259.434L489.386 264.262V262.991L497.46 258.163V259.434Z" fill="#CDD8D4"/>
<path d="M506.447 254.063L498.373 258.891V257.619L506.447 252.792V254.063Z" fill="#CDD8D4"/>
<path d="M515.434 248.691L507.36 253.519V252.248L515.434 247.42V248.691Z" fill="#247489"/>
<path d="M473.312 276.968L471.759 277.901V276.63L473.312 275.704V276.975V276.968Z" fill="#9A7B9B"/>
<path d="M480.915 272.419L474.408 276.306V275.035L480.915 271.148V272.419Z" fill="#924443"/>
<path d="M488.739 267.745L482.232 271.633V270.361L488.739 266.474V267.745Z" fill="#247489"/>
<path d="M496.555 263.064L490.049 266.952V265.68L496.555 261.793V263.064Z" fill="#CDD8D4"/>
<path d="M504.379 258.391L497.873 262.278V261.007L504.379 257.12V258.391Z" fill="#CDD8D4"/>
<path d="M482.821 274.374L473.628 279.87V278.599L482.821 273.11V274.381V274.374Z" fill="#247489"/>
<path d="M493.059 268.252L483.874 273.749V272.478L493.059 266.989V268.26V268.252Z" fill="#998359"/>
<path d="M503.312 262.124L494.119 267.613V266.342L503.312 260.845V262.116V262.124Z" fill="#CDD8D4"/>
<path d="M513.557 256.003L504.364 261.499V260.228L513.557 254.731V256.003Z" fill="#924443"/>
<path d="M475.159 282.045L471.751 284.081V282.81L475.159 280.774V282.045Z" fill="#9A7B9B"/>
<path d="M478.92 282.89L473.297 286.249V284.977L478.92 281.619V282.89Z" fill="#247489"/>
<path d="M485.382 279.025L479.767 282.383V281.112L485.382 277.754V279.025Z" fill="#998359"/>
<path d="M474.651 288.541L471.751 290.276V289.004L474.651 287.27V288.541Z" fill="#9A7B9B"/>
<path d="M472.922 292.664L469.816 294.523V293.252L472.922 291.393V292.664Z" fill="#9A7B9B"/>
<path d="M476.293 296.838L469.816 300.71V299.439L476.293 295.566V296.838Z" fill="#998359"/>
<path d="M483.631 292.451L477.154 296.323V295.052L483.631 291.179V292.451Z" fill="#247489"/>
<path d="M471.369 302.871L469.816 303.804V302.533L471.369 301.599V302.871Z" fill="#9A7B9B"/>
<path d="M475.785 303.334L469.816 306.905V305.634L475.785 302.062V303.334Z" fill="#9A7B9B"/>
<path d="M483.38 298.785L477.411 302.356V301.085L483.38 297.514V298.785Z" fill="#247489"/>
<path d="M490.976 294.251L485.007 297.815V296.544L490.976 292.972V294.244V294.251Z" fill="#998359"/>
<path d="M498.572 289.702L492.603 293.274V292.002L498.572 288.438V289.71V289.702Z" fill="#924443"/>
<path d="M365.124 329.692V362.04C365.124 362.98 363.718 363.745 361.988 363.745C360.259 363.745 358.853 362.98 358.853 362.04V329.692H365.131H365.124Z" fill="url(#paint152_linear_313_185)"/>
<path d="M358.846 329.692C358.846 330.633 360.251 331.397 361.981 331.397C363.711 331.397 365.117 330.633 365.117 329.692C365.117 328.752 363.711 327.987 361.981 327.987C360.251 327.987 358.846 328.752 358.846 329.692Z" fill="white"/>
<path d="M364.219 294.655V329.413C364.219 330.082 363.218 330.625 361.988 330.625C360.759 330.625 359.758 330.082 359.758 329.413V294.655H364.219Z" fill="url(#paint153_linear_313_185)"/>
<path d="M359.751 294.655C359.751 295.324 360.752 295.868 361.981 295.868C363.21 295.868 364.211 295.324 364.211 294.655C364.211 293.986 363.21 293.443 361.981 293.443C360.752 293.443 359.751 293.986 359.751 294.655Z" fill="white"/>
<path d="M351.441 337.577V369.924C351.441 370.865 350.035 371.629 348.306 371.629C346.576 371.629 345.17 370.865 345.17 369.924V337.577H351.449H351.441Z" fill="url(#paint154_linear_313_185)"/>
<path d="M348.306 339.282C350.037 339.282 351.441 338.518 351.441 337.577C351.441 336.635 350.037 335.872 348.306 335.872C346.574 335.872 345.17 336.635 345.17 337.577C345.17 338.518 346.574 339.282 348.306 339.282Z" fill="white"/>
<path d="M350.536 302.547V337.305C350.536 337.974 349.535 338.517 348.306 338.517C347.077 338.517 346.076 337.974 346.076 337.305V302.547H350.536Z" fill="url(#paint155_linear_313_185)"/>
<path d="M346.076 302.547C346.076 303.216 347.077 303.76 348.306 303.76C349.535 303.76 350.536 303.216 350.536 302.547C350.536 301.878 349.535 301.335 348.306 301.335C347.077 301.335 346.076 301.878 346.076 302.547Z" fill="white"/>
<path d="M303.681 365.067V397.415C303.681 398.355 302.275 399.12 300.545 399.12C298.816 399.12 297.41 398.355 297.41 397.415V365.067H303.688H303.681Z" fill="url(#paint156_linear_313_185)"/>
<path d="M297.403 365.067C297.403 366.008 298.808 366.772 300.538 366.772C302.268 366.772 303.674 366.008 303.674 365.067C303.674 364.127 302.268 363.362 300.538 363.362C298.808 363.362 297.403 364.127 297.403 365.067Z" fill="white"/>
<path d="M302.776 330.03V364.788C302.776 365.457 301.775 366 300.545 366C299.316 366 298.315 365.457 298.315 364.788V330.03H302.776Z" fill="url(#paint157_linear_313_185)"/>
<path d="M298.315 330.03C298.315 330.699 299.316 331.243 300.545 331.243C301.775 331.243 302.776 330.699 302.776 330.03C302.776 329.361 301.775 328.818 300.545 328.818C299.316 328.818 298.315 329.361 298.315 330.03Z" fill="white"/>
<path d="M428.444 377.758L377.945 348.497C375.804 347.255 373.169 347.255 371.027 348.489L291.478 394.431C289.454 395.6 289.446 398.517 291.478 399.693L340.85 428.307C343.389 429.784 346.532 429.784 349.079 428.315L428.444 382.475C430.262 381.425 430.262 378.809 428.444 377.758Z" fill="url(#paint158_linear_313_185)"/>
<path d="M428.444 382.475L349.079 428.315C346.532 429.784 343.397 429.777 340.85 428.307L291.478 399.693C290.469 399.112 289.969 398.091 289.961 397.077V414C289.961 414 289.961 414.022 289.961 414.029V414.081C289.984 415.08 290.477 416.08 291.47 416.653L340.843 445.267C343.382 446.744 346.525 446.744 349.071 445.275L428.436 399.436C429.349 398.906 429.805 397.981 429.798 397.062V380.139C429.798 381.05 429.342 381.968 428.436 382.49L428.444 382.475Z" fill="url(#paint159_linear_313_185)"/>
<path d="M428.444 382.475L349.079 428.315C347.916 428.983 346.62 429.336 345.318 429.388V446.34C346.62 446.289 347.908 445.936 349.079 445.267L428.444 399.428C429.356 398.899 429.813 397.973 429.805 397.055V380.131C429.805 381.043 429.349 381.961 428.444 382.483V382.475Z" fill="url(#paint160_linear_313_185)"/>
<path d="M382.104 383.886L365.742 374.4C365.05 373.995 364.197 373.995 363.497 374.4L337.722 389.287C337.067 389.669 337.067 390.61 337.722 390.992L353.723 400.266C354.547 400.743 355.563 400.743 356.387 400.266L382.104 385.415C382.693 385.077 382.693 384.224 382.104 383.886Z" fill="white"/>
<path d="M337.737 391.007L363.497 376.126C364.189 375.73 365.05 375.73 365.742 376.126L381.935 385.51L382.104 385.415C382.693 385.077 382.693 384.224 382.104 383.886L365.742 374.4C365.05 373.995 364.197 373.995 363.497 374.4L337.722 389.287C337.067 389.669 337.067 390.61 337.722 390.992L337.744 391.007H337.737Z" fill="#A7BCCE"/>
<path d="M353.554 432.599L361.429 428.05V425.897L353.554 430.431V432.599Z" fill="#683400"/>
<path d="M362.489 427.44L370.364 422.891V420.731L362.489 425.272V427.44Z" fill="#683400"/>
<path d="M371.424 422.274L379.3 417.726V415.573L371.424 420.114V422.274Z" fill="#683400"/>
<path d="M380.36 417.116L388.235 412.567V410.406L380.36 414.948V417.116Z" fill="#683400"/>
<path d="M389.295 411.957L397.17 407.408V405.248L389.295 409.789V411.957Z" fill="#683400"/>
<path d="M398.23 406.791L406.106 402.242V400.089L398.23 404.631V406.791Z" fill="#683400"/>
<path d="M407.165 401.633L415.041 397.084V394.924L407.165 399.465V401.633Z" fill="#683400"/>
<path d="M416.101 394.306V396.474L423.976 391.918V389.765L416.101 394.306Z" fill="#683400"/>
<path d="M353.554 437.162L423.976 396.474V394.321L353.554 435.002V437.162Z" fill="white"/>
<path d="M293.87 415.881L295.334 416.741V403.955L293.87 403.11V415.881Z" fill="white"/>
<path d="M296.475 417.409L297.94 418.262V405.476L296.475 404.631V417.409Z" fill="white"/>
<path d="M299.081 418.938L300.545 419.79V407.004L299.081 406.159V418.938Z" fill="white"/>
<path d="M301.686 420.459L303.151 421.319V408.533L301.686 407.688V420.459Z" fill="white"/>
<path d="M304.292 421.988L305.749 422.84L305.756 410.054L304.292 409.216V421.988Z" fill="white"/>
<path d="M306.897 423.516L308.355 424.369V411.582L306.897 410.737V423.516Z" fill="white"/>
<path d="M309.495 425.037L310.96 425.897V413.111L309.495 412.266V425.037Z" fill="white"/>
<path d="M312.101 426.566L313.566 427.425V414.639L312.101 413.794V426.566Z" fill="white"/>
<path d="M314.706 428.094L316.171 428.946V416.16L314.706 415.315V428.094Z" fill="white"/>
<path d="M317.312 429.615L318.777 430.475V417.689L317.312 416.844V429.615Z" fill="white"/>
<path d="M319.917 431.144L321.382 432.004V419.217L319.917 418.372V431.144Z" fill="white"/>
<path d="M322.523 419.893V432.672L323.98 433.525V420.738L322.523 419.893Z" fill="white"/>
<path d="M352.869 384.107C349.69 385.937 347.548 388.464 347.371 391.389C347.364 391.565 347.599 391.712 347.908 391.712C349.108 391.712 350.293 391.712 351.485 391.712C351.633 391.712 351.765 391.676 351.868 391.624C351.956 391.573 352.015 391.499 352.023 391.418C352.199 389.295 353.76 387.414 356.159 386.025C358.603 384.614 361.915 383.725 365.521 383.637C365.661 383.637 365.786 383.6 365.875 383.548C365.97 383.49 366.029 383.416 366.037 383.328C366.037 382.645 366.037 381.954 366.037 381.263C366.037 381.094 365.794 380.947 365.499 380.954C360.862 380.984 356.277 382.152 352.877 384.107H352.869Z" fill="url(#paint161_linear_313_185)"/>
<path d="M357.808 386.98C355.872 388.097 354.547 389.626 354.393 391.389C354.378 391.566 354.621 391.712 354.93 391.712C356.122 391.712 357.315 391.712 358.522 391.712C358.669 391.712 358.801 391.676 358.905 391.617C358.993 391.566 359.044 391.499 359.059 391.426C359.206 390.456 359.869 389.596 361.105 388.883C362.349 388.163 363.836 387.781 365.499 387.7C365.624 387.7 365.742 387.664 365.823 387.612C365.919 387.553 365.978 387.48 365.985 387.392C365.985 386.694 366 386.003 366.007 385.319C366.007 385.143 365.757 385.003 365.455 385.011C362.673 385.055 359.891 385.782 357.815 386.973L357.808 386.98Z" fill="url(#paint162_linear_313_185)"/>
<path d="M362.732 389.831C361.407 390.595 361.4 391.837 362.717 392.602C364.035 393.366 366.176 393.366 367.501 392.602C368.826 391.837 368.833 390.603 367.516 389.839C366.198 389.074 364.057 389.074 362.732 389.839V389.831Z" fill="url(#paint163_linear_313_185)"/>
<path d="M288.909 495.626L324.827 475.021C326.402 474.117 327.189 472.919 327.226 471.648L327.256 465.476L326.1 467.46C325.548 466.813 324.797 466.196 323.848 465.645L251.526 423.751C247.427 421.378 241.222 421.106 237.667 423.149L201.749 443.754C201.367 443.974 201.035 444.209 200.748 444.459L199.372 442.696L199.343 448.501C199.291 450.095 200.439 451.8 202.721 453.123L275.042 495.016C279.142 497.39 285.347 497.661 288.902 495.619L288.909 495.626Z" fill="url(#paint164_linear_313_185)"/>
<path d="M201.779 439.176L237.696 418.571C241.251 416.528 247.456 416.8 251.556 419.173L323.877 461.066C327.977 463.44 328.411 467.019 324.856 469.061L288.938 489.666C285.383 491.709 279.179 491.437 275.079 489.064L202.758 447.171C198.658 444.797 198.224 441.218 201.779 439.176Z" fill="#D4ECFF"/>
<path d="M324.856 469.061L288.938 489.666C285.383 491.709 279.179 491.437 275.079 489.064L202.758 447.171C200.77 446.024 199.652 444.591 199.423 443.188C199.136 444.9 200.27 446.788 202.758 448.229L275.079 490.122C279.179 492.495 285.383 492.767 288.938 490.724L324.856 470.12C326.689 469.069 327.454 467.606 327.211 466.115C327.027 467.224 326.255 468.26 324.856 469.061Z" fill="white"/>
<path d="M204.046 440.006L239.117 419.886C241.885 418.299 246.705 418.512 249.892 420.357L321.816 462.014C325.003 463.859 325.342 466.644 322.575 468.231L287.503 488.351C284.736 489.938 279.915 489.725 276.728 487.881L204.804 446.223C201.617 444.378 201.278 441.593 204.046 440.006Z" fill="white"/>
<path d="M260.55 447.325L247.567 439.844C247.088 439.565 247.147 439.08 247.699 438.764C248.258 438.441 249.098 438.411 249.576 438.683L262.559 446.164C263.038 446.443 262.979 446.928 262.427 447.244C261.867 447.567 261.028 447.597 260.55 447.325Z" fill="#B2D3EA"/>
<path d="M248.244 444.79L243.614 442.122C243.136 441.843 243.195 441.358 243.747 441.042C244.306 440.719 245.145 440.689 245.624 440.961L250.253 443.629C250.731 443.908 250.673 444.393 250.121 444.709C249.561 445.032 248.722 445.062 248.244 444.79Z" fill="#B2D3EA"/>
<path d="M256.016 449.272L251.387 446.605C250.908 446.326 250.967 445.841 251.519 445.525C252.078 445.201 252.917 445.172 253.396 445.444L258.025 448.111C258.504 448.39 258.445 448.875 257.893 449.191C257.334 449.515 256.495 449.544 256.016 449.272Z" fill="#396CAA"/>
<path d="M271.738 458.333L259.159 451.087C258.681 450.808 258.739 450.323 259.291 450.007C259.851 449.684 260.69 449.655 261.168 449.926L273.747 457.172C274.225 457.451 274.166 457.936 273.614 458.252C273.055 458.575 272.216 458.605 271.738 458.333Z" fill="#B2D3EA"/>
<path d="M255.884 453.747L239.662 444.4C239.183 444.121 239.242 443.636 239.794 443.32C240.354 442.997 241.193 442.967 241.671 443.239L257.893 452.586C258.371 452.866 258.313 453.351 257.76 453.666C257.201 453.99 256.362 454.019 255.884 453.747Z" fill="#B2D3EA"/>
<path d="M275.388 469.554L235.702 446.678C235.224 446.399 235.282 445.914 235.834 445.598C236.394 445.275 237.233 445.245 237.711 445.517L277.398 468.393C277.876 468.672 277.817 469.157 277.265 469.473C276.706 469.796 275.867 469.826 275.388 469.554Z" fill="#396CAA"/>
<path d="M286.973 462.551L264.134 449.39C263.656 449.11 263.715 448.625 264.267 448.31C264.826 447.986 265.665 447.957 266.144 448.229L288.983 461.39C289.461 461.669 289.402 462.154 288.85 462.47C288.291 462.793 287.452 462.823 286.973 462.551Z" fill="#B2D3EA"/>
</g>
<defs>
<linearGradient id="paint0_linear_313_185" x1="305.065" y1="306.64" x2="305.065" y2="103.039" gradientUnits="userSpaceOnUse">
<stop stop-color="#CBCBD6"/>
<stop offset="1" stop-color="#F9FAF9"/>
</linearGradient>
<linearGradient id="paint1_linear_313_185" x1="160.105" y1="232.084" x2="256.745" y2="232.084" gradientUnits="userSpaceOnUse">
<stop stop-color="#C2C3CF"/>
<stop offset="1" stop-color="#D7D7DF"/>
</linearGradient>
<linearGradient id="paint2_linear_313_185" x1="271.237" y1="171.305" x2="338.885" y2="171.305" gradientUnits="userSpaceOnUse">
<stop stop-color="#1D7EFF"/>
<stop offset="1" stop-color="#1753FF"/>
</linearGradient>
<linearGradient id="paint3_linear_313_185" x1="128" y1="195.202" x2="128.736" y2="195.202" gradientUnits="userSpaceOnUse">
<stop stop-color="#1D7EFF"/>
<stop offset="1" stop-color="#1753FF"/>
</linearGradient>
<linearGradient id="paint4_linear_313_185" x1="128" y1="219.099" x2="128.736" y2="219.099" gradientUnits="userSpaceOnUse">
<stop stop-color="#1D7EFF"/>
<stop offset="1" stop-color="#1753FF"/>
</linearGradient>
<linearGradient id="paint5_linear_313_185" x1="128" y1="242.996" x2="128.736" y2="242.996" gradientUnits="userSpaceOnUse">
<stop stop-color="#1D7EFF"/>
<stop offset="1" stop-color="#1753FF"/>
</linearGradient>
<linearGradient id="paint6_linear_313_185" x1="128" y1="266.886" x2="128.736" y2="266.886" gradientUnits="userSpaceOnUse">
<stop stop-color="#1D7EFF"/>
<stop offset="1" stop-color="#1753FF"/>
</linearGradient>
<linearGradient id="paint7_linear_313_185" x1="160.105" y1="187.332" x2="256.745" y2="187.332" gradientUnits="userSpaceOnUse">
<stop stop-color="#66D2FE"/>
<stop offset="0.34" stop-color="#51A7DD"/>
<stop offset="0.78" stop-color="#3973B7"/>
<stop offset="1" stop-color="#3060A8"/>
</linearGradient>
<linearGradient id="paint8_linear_313_185" x1="166.656" y1="231.679" x2="250.202" y2="231.679" gradientUnits="userSpaceOnUse">
<stop stop-color="white"/>
<stop offset="0.99" stop-color="#C2C4C6"/>
</linearGradient>
<linearGradient id="paint9_linear_313_185" x1="176.658" y1="181.997" x2="188.685" y2="181.997" gradientUnits="userSpaceOnUse">
<stop stop-color="#1D7EFF"/>
<stop offset="1" stop-color="#1753FF"/>
</linearGradient>
<linearGradient id="paint10_linear_313_185" x1="190.613" y1="188.456" x2="197.171" y2="188.456" gradientUnits="userSpaceOnUse">
<stop stop-color="#1D7EFF"/>
<stop offset="1" stop-color="#1753FF"/>
</linearGradient>
<linearGradient id="paint11_linear_313_185" x1="207.365" y1="197.583" x2="212.105" y2="197.583" gradientUnits="userSpaceOnUse">
<stop stop-color="#1D7EFF"/>
<stop offset="1" stop-color="#1753FF"/>
</linearGradient>
<linearGradient id="paint12_linear_313_185" x1="203.906" y1="194.688" x2="205.532" y2="194.688" gradientUnits="userSpaceOnUse">
<stop stop-color="#1D7EFF"/>
<stop offset="1" stop-color="#1753FF"/>
</linearGradient>
<linearGradient id="paint13_linear_313_185" x1="199.129" y1="192.314" x2="202.073" y2="192.314" gradientUnits="userSpaceOnUse">
<stop stop-color="#1D7EFF"/>
<stop offset="1" stop-color="#1753FF"/>
</linearGradient>
<linearGradient id="paint14_linear_313_185" x1="187.772" y1="195.827" x2="192.52" y2="195.827" gradientUnits="userSpaceOnUse">
<stop stop-color="#1D7EFF"/>
<stop offset="1" stop-color="#1753FF"/>
</linearGradient>
<linearGradient id="paint15_linear_313_185" x1="176.651" y1="190.727" x2="185.94" y2="190.727" gradientUnits="userSpaceOnUse">
<stop stop-color="#1D7EFF"/>
<stop offset="1" stop-color="#1753FF"/>
</linearGradient>
<linearGradient id="paint16_linear_313_185" x1="193.97" y1="224.493" x2="203.258" y2="224.493" gradientUnits="userSpaceOnUse">
<stop stop-color="#1D7EFF"/>
<stop offset="1" stop-color="#1753FF"/>
</linearGradient>
<linearGradient id="paint17_linear_313_185" x1="189.185" y1="219.908" x2="192.13" y2="219.908" gradientUnits="userSpaceOnUse">
<stop stop-color="#1D7EFF"/>
<stop offset="1" stop-color="#1753FF"/>
</linearGradient>
<linearGradient id="paint18_linear_313_185" x1="193.918" y1="214.962" x2="203.214" y2="214.962" gradientUnits="userSpaceOnUse">
<stop stop-color="#1D7EFF"/>
<stop offset="1" stop-color="#1753FF"/>
</linearGradient>
<linearGradient id="paint19_linear_313_185" x1="189.141" y1="210.377" x2="192.085" y2="210.377" gradientUnits="userSpaceOnUse">
<stop stop-color="#1D7EFF"/>
<stop offset="1" stop-color="#1753FF"/>
</linearGradient>
<linearGradient id="paint20_linear_313_185" x1="176.526" y1="259.986" x2="194.021" y2="259.986" gradientUnits="userSpaceOnUse">
<stop stop-color="#1D7EFF"/>
<stop offset="1" stop-color="#1753FF"/>
</linearGradient>
<linearGradient id="paint21_linear_313_185" x1="195.861" y1="267.341" x2="200.189" y2="267.341" gradientUnits="userSpaceOnUse">
<stop stop-color="#1D7EFF"/>
<stop offset="1" stop-color="#1753FF"/>
</linearGradient>
<linearGradient id="paint22_linear_313_185" x1="211.031" y1="265.563" x2="228.533" y2="265.563" gradientUnits="userSpaceOnUse">
<stop stop-color="#1D7EFF"/>
<stop offset="1" stop-color="#1753FF"/>
</linearGradient>
<linearGradient id="paint23_linear_313_185" x1="230.373" y1="272.911" x2="234.701" y2="272.911" gradientUnits="userSpaceOnUse">
<stop stop-color="#1D7EFF"/>
<stop offset="1" stop-color="#1753FF"/>
</linearGradient>
<linearGradient id="paint24_linear_313_185" x1="176.526" y1="251.55" x2="181.273" y2="251.55" gradientUnits="userSpaceOnUse">
<stop stop-color="#1D7EFF"/>
<stop offset="1" stop-color="#1753FF"/>
</linearGradient>
<linearGradient id="paint25_linear_313_185" x1="203.766" y1="257.722" x2="208.513" y2="257.722" gradientUnits="userSpaceOnUse">
<stop stop-color="#1D7EFF"/>
<stop offset="1" stop-color="#1753FF"/>
</linearGradient>
<linearGradient id="paint26_linear_313_185" x1="183.106" y1="256.657" x2="192.394" y2="256.657" gradientUnits="userSpaceOnUse">
<stop stop-color="#1D7EFF"/>
<stop offset="1" stop-color="#1753FF"/>
</linearGradient>
<linearGradient id="paint27_linear_313_185" x1="194.235" y1="261.242" x2="197.179" y2="261.242" gradientUnits="userSpaceOnUse">
<stop stop-color="#1D7EFF"/>
<stop offset="1" stop-color="#1753FF"/>
</linearGradient>
<linearGradient id="paint28_linear_313_185" x1="199.092" y1="265.864" x2="208.388" y2="265.864" gradientUnits="userSpaceOnUse">
<stop stop-color="#1D7EFF"/>
<stop offset="1" stop-color="#1753FF"/>
</linearGradient>
<linearGradient id="paint29_linear_313_185" x1="210.221" y1="270.45" x2="213.165" y2="270.45" gradientUnits="userSpaceOnUse">
<stop stop-color="#1D7EFF"/>
<stop offset="1" stop-color="#1753FF"/>
</linearGradient>
<linearGradient id="paint30_linear_313_185" x1="203.766" y1="262.484" x2="208.506" y2="262.484" gradientUnits="userSpaceOnUse">
<stop stop-color="#1D7EFF"/>
<stop offset="1" stop-color="#1753FF"/>
</linearGradient>
<linearGradient id="paint31_linear_313_185" x1="210.346" y1="267.584" x2="219.635" y2="267.584" gradientUnits="userSpaceOnUse">
<stop stop-color="#1D7EFF"/>
<stop offset="1" stop-color="#1753FF"/>
</linearGradient>
<linearGradient id="paint32_linear_313_185" x1="221.467" y1="272.169" x2="224.411" y2="272.169" gradientUnits="userSpaceOnUse">
<stop stop-color="#1D7EFF"/>
<stop offset="1" stop-color="#1753FF"/>
</linearGradient>
<linearGradient id="paint33_linear_313_185" x1="176.533" y1="248.221" x2="186.234" y2="248.221" gradientUnits="userSpaceOnUse">
<stop stop-color="#1D7EFF"/>
<stop offset="1" stop-color="#1753FF"/>
</linearGradient>
<linearGradient id="paint34_linear_313_185" x1="188.067" y1="254.099" x2="195.088" y2="254.099" gradientUnits="userSpaceOnUse">
<stop stop-color="#1D7EFF"/>
<stop offset="1" stop-color="#1753FF"/>
</linearGradient>
<linearGradient id="paint35_linear_313_185" x1="196.921" y1="258.545" x2="201.668" y2="258.545" gradientUnits="userSpaceOnUse">
<stop stop-color="#1D7EFF"/>
<stop offset="1" stop-color="#1753FF"/>
</linearGradient>
<linearGradient id="paint36_linear_313_185" x1="233.737" y1="218.967" x2="243.445" y2="218.967" gradientUnits="userSpaceOnUse">
<stop stop-color="#1D7EFF"/>
<stop offset="1" stop-color="#1753FF"/>
</linearGradient>
<linearGradient id="paint37_linear_313_185" x1="224.89" y1="213.088" x2="231.904" y2="213.088" gradientUnits="userSpaceOnUse">
<stop stop-color="#1D7EFF"/>
<stop offset="1" stop-color="#1753FF"/>
</linearGradient>
<linearGradient id="paint38_linear_313_185" x1="218.31" y1="208.642" x2="223.05" y2="208.642" gradientUnits="userSpaceOnUse">
<stop stop-color="#1D7EFF"/>
<stop offset="1" stop-color="#1753FF"/>
</linearGradient>
<linearGradient id="paint39_linear_313_185" x1="229.718" y1="211.868" x2="239.419" y2="211.868" gradientUnits="userSpaceOnUse">
<stop stop-color="#1D7EFF"/>
<stop offset="1" stop-color="#1753FF"/>
</linearGradient>
<linearGradient id="paint40_linear_313_185" x1="220.864" y1="205.99" x2="227.878" y2="205.99" gradientUnits="userSpaceOnUse">
<stop stop-color="#1D7EFF"/>
<stop offset="1" stop-color="#1753FF"/>
</linearGradient>
<linearGradient id="paint41_linear_313_185" x1="214.284" y1="201.536" x2="219.031" y2="201.536" gradientUnits="userSpaceOnUse">
<stop stop-color="#1D7EFF"/>
<stop offset="1" stop-color="#1753FF"/>
</linearGradient>
<linearGradient id="paint42_linear_313_185" x1="195.361" y1="218.82" x2="198.636" y2="218.82" gradientUnits="userSpaceOnUse">
<stop stop-color="#1D7EFF"/>
<stop offset="1" stop-color="#1753FF"/>
</linearGradient>
<linearGradient id="paint43_linear_313_185" x1="189.193" y1="215.572" x2="193.521" y2="215.572" gradientUnits="userSpaceOnUse">
<stop stop-color="#1D7EFF"/>
<stop offset="1" stop-color="#1753FF"/>
</linearGradient>
<linearGradient id="paint44_linear_313_185" x1="176.599" y1="243.488" x2="186.3" y2="243.488" gradientUnits="userSpaceOnUse">
<stop stop-color="#1D7EFF"/>
<stop offset="1" stop-color="#1753FF"/>
</linearGradient>
<linearGradient id="paint45_linear_313_185" x1="188.133" y1="249.367" x2="195.155" y2="249.367" gradientUnits="userSpaceOnUse">
<stop stop-color="#1D7EFF"/>
<stop offset="1" stop-color="#1753FF"/>
</linearGradient>
<linearGradient id="paint46_linear_313_185" x1="196.987" y1="253.813" x2="201.735" y2="253.813" gradientUnits="userSpaceOnUse">
<stop stop-color="#1D7EFF"/>
<stop offset="1" stop-color="#1753FF"/>
</linearGradient>
<linearGradient id="paint47_linear_313_185" x1="176.599" y1="236.882" x2="179.882" y2="236.882" gradientUnits="userSpaceOnUse">
<stop stop-color="#1D7EFF"/>
<stop offset="1" stop-color="#1753FF"/>
</linearGradient>
<linearGradient id="paint48_linear_313_185" x1="181.715" y1="240.13" x2="186.05" y2="240.13" gradientUnits="userSpaceOnUse">
<stop stop-color="#1D7EFF"/>
<stop offset="1" stop-color="#1753FF"/>
</linearGradient>
<linearGradient id="paint49_linear_313_185" x1="187.883" y1="244.451" x2="194.86" y2="244.451" gradientUnits="userSpaceOnUse">
<stop stop-color="#1D7EFF"/>
<stop offset="1" stop-color="#1753FF"/>
</linearGradient>
<linearGradient id="paint50_linear_313_185" x1="197.414" y1="205.696" x2="200.689" y2="205.696" gradientUnits="userSpaceOnUse">
<stop stop-color="#1D7EFF"/>
<stop offset="1" stop-color="#1753FF"/>
</linearGradient>
<linearGradient id="paint51_linear_313_185" x1="191.246" y1="202.448" x2="195.574" y2="202.448" gradientUnits="userSpaceOnUse">
<stop stop-color="#1D7EFF"/>
<stop offset="1" stop-color="#1753FF"/>
</linearGradient>
<linearGradient id="paint52_linear_313_185" x1="182.429" y1="198.127" x2="189.406" y2="198.127" gradientUnits="userSpaceOnUse">
<stop stop-color="#1D7EFF"/>
<stop offset="1" stop-color="#1753FF"/>
</linearGradient>
<linearGradient id="paint53_linear_313_185" x1="203.148" y1="214.492" x2="210.125" y2="214.492" gradientUnits="userSpaceOnUse">
<stop stop-color="#1D7EFF"/>
<stop offset="1" stop-color="#1753FF"/>
</linearGradient>
<linearGradient id="paint54_linear_313_185" x1="191.791" y1="208.988" x2="201.197" y2="208.988" gradientUnits="userSpaceOnUse">
<stop stop-color="#1D7EFF"/>
<stop offset="1" stop-color="#1753FF"/>
</linearGradient>
<linearGradient id="paint55_linear_313_185" x1="187.014" y1="204.366" x2="189.958" y2="204.366" gradientUnits="userSpaceOnUse">
<stop stop-color="#1D7EFF"/>
<stop offset="1" stop-color="#1753FF"/>
</linearGradient>
<linearGradient id="paint56_linear_313_185" x1="182.421" y1="201.72" x2="185.365" y2="201.72" gradientUnits="userSpaceOnUse">
<stop stop-color="#1D7EFF"/>
<stop offset="1" stop-color="#1753FF"/>
</linearGradient>
<linearGradient id="paint57_linear_313_185" x1="187.125" y1="230.445" x2="196.413" y2="230.445" gradientUnits="userSpaceOnUse">
<stop stop-color="#1D7EFF"/>
<stop offset="1" stop-color="#1753FF"/>
</linearGradient>
<linearGradient id="paint58_linear_313_185" x1="182.34" y1="225.86" x2="185.285" y2="225.86" gradientUnits="userSpaceOnUse">
<stop stop-color="#1D7EFF"/>
<stop offset="1" stop-color="#1753FF"/>
</linearGradient>
<linearGradient id="paint59_linear_313_185" x1="188.567" y1="234.31" x2="191.842" y2="234.31" gradientUnits="userSpaceOnUse">
<stop stop-color="#1D7EFF"/>
<stop offset="1" stop-color="#1753FF"/>
</linearGradient>
<linearGradient id="paint60_linear_313_185" x1="198.526" y1="230.497" x2="201.801" y2="230.497" gradientUnits="userSpaceOnUse">
<stop stop-color="#1D7EFF"/>
<stop offset="1" stop-color="#1753FF"/>
</linearGradient>
<linearGradient id="paint61_linear_313_185" x1="203.192" y1="234.502" x2="211.06" y2="234.502" gradientUnits="userSpaceOnUse">
<stop stop-color="#1D7EFF"/>
<stop offset="1" stop-color="#1753FF"/>
</linearGradient>
<linearGradient id="paint62_linear_313_185" x1="212.451" y1="238.918" x2="217.125" y2="238.918" gradientUnits="userSpaceOnUse">
<stop stop-color="#1D7EFF"/>
<stop offset="1" stop-color="#1753FF"/>
</linearGradient>
<linearGradient id="paint63_linear_313_185" x1="182.399" y1="231.055" x2="186.727" y2="231.055" gradientUnits="userSpaceOnUse">
<stop stop-color="#1D7EFF"/>
<stop offset="1" stop-color="#1753FF"/>
</linearGradient>
<linearGradient id="paint64_linear_313_185" x1="182.775" y1="235.648" x2="186.05" y2="235.648" gradientUnits="userSpaceOnUse">
<stop stop-color="#1D7EFF"/>
<stop offset="1" stop-color="#1753FF"/>
</linearGradient>
<linearGradient id="paint65_linear_313_185" x1="176.607" y1="232.393" x2="180.942" y2="232.393" gradientUnits="userSpaceOnUse">
<stop stop-color="#1D7EFF"/>
<stop offset="1" stop-color="#1753FF"/>
</linearGradient>
<linearGradient id="paint66_linear_313_185" x1="193.771" y1="227.66" x2="196.715" y2="227.66" gradientUnits="userSpaceOnUse">
<stop stop-color="#1D7EFF"/>
<stop offset="1" stop-color="#1753FF"/>
</linearGradient>
<linearGradient id="paint67_linear_313_185" x1="189.185" y1="225.015" x2="192.13" y2="225.015" gradientUnits="userSpaceOnUse">
<stop stop-color="#1D7EFF"/>
<stop offset="1" stop-color="#1753FF"/>
</linearGradient>
<linearGradient id="paint68_linear_313_185" x1="206.114" y1="203.138" x2="216.153" y2="203.138" gradientUnits="userSpaceOnUse">
<stop stop-color="#1D7EFF"/>
<stop offset="1" stop-color="#1753FF"/>
</linearGradient>
<linearGradient id="paint69_linear_313_185" x1="194.875" y1="196.474" x2="204.281" y2="196.474" gradientUnits="userSpaceOnUse">
<stop stop-color="#1D7EFF"/>
<stop offset="1" stop-color="#1753FF"/>
</linearGradient>
<linearGradient id="paint70_linear_313_185" x1="190.098" y1="191.859" x2="193.042" y2="191.859" gradientUnits="userSpaceOnUse">
<stop stop-color="#1D7EFF"/>
<stop offset="1" stop-color="#1753FF"/>
</linearGradient>
<linearGradient id="paint71_linear_313_185" x1="185.513" y1="189.213" x2="188.457" y2="189.213" gradientUnits="userSpaceOnUse">
<stop stop-color="#1D7EFF"/>
<stop offset="1" stop-color="#1753FF"/>
</linearGradient>
<linearGradient id="paint72_linear_313_185" x1="176.651" y1="185.091" x2="183.003" y2="185.091" gradientUnits="userSpaceOnUse">
<stop stop-color="#1D7EFF"/>
<stop offset="1" stop-color="#1753FF"/>
</linearGradient>
<linearGradient id="paint73_linear_313_185" x1="160.105" y1="55.7007" x2="353.377" y2="55.7007" gradientUnits="userSpaceOnUse">
<stop stop-color="#CBCBD6"/>
<stop offset="1" stop-color="#F9FAF9"/>
</linearGradient>
<linearGradient id="paint74_linear_313_185" x1="186.492" y1="55.7007" x2="326.991" y2="55.7007" gradientUnits="userSpaceOnUse">
<stop stop-color="#1D7EFF"/>
<stop offset="1" stop-color="#1753FF"/>
</linearGradient>
<linearGradient id="paint75_linear_313_185" x1="251.482" y1="125.231" x2="370.865" y2="67.3662" gradientUnits="userSpaceOnUse">
<stop stop-color="#CBCBD6"/>
<stop offset="1" stop-color="#F9FAF9"/>
</linearGradient>
<linearGradient id="paint76_linear_313_185" x1="128" y1="100.151" x2="128.736" y2="100.151" gradientUnits="userSpaceOnUse">
<stop stop-color="#1D7EFF"/>
<stop offset="1" stop-color="#1753FF"/>
</linearGradient>
<linearGradient id="paint77_linear_313_185" x1="259.586" y1="126.414" x2="155.13" y2="70.9638" gradientUnits="userSpaceOnUse">
<stop stop-color="#CBCBD6"/>
<stop offset="1" stop-color="#F9FAF9"/>
</linearGradient>
<linearGradient id="paint78_linear_313_185" x1="211.031" y1="105.728" x2="228.533" y2="105.728" gradientUnits="userSpaceOnUse">
<stop stop-color="#1D7EFF"/>
<stop offset="1" stop-color="#1753FF"/>
</linearGradient>
<linearGradient id="paint79_linear_313_185" x1="203.766" y1="97.8805" x2="208.513" y2="97.8805" gradientUnits="userSpaceOnUse">
<stop stop-color="#1D7EFF"/>
<stop offset="1" stop-color="#1753FF"/>
</linearGradient>
<linearGradient id="paint80_linear_313_185" x1="176.599" y1="83.654" x2="186.3" y2="83.654" gradientUnits="userSpaceOnUse">
<stop stop-color="#1D7EFF"/>
<stop offset="1" stop-color="#1753FF"/>
</linearGradient>
<linearGradient id="paint81_linear_313_185" x1="188.133" y1="89.5325" x2="195.155" y2="89.5325" gradientUnits="userSpaceOnUse">
<stop stop-color="#1D7EFF"/>
<stop offset="1" stop-color="#1753FF"/>
</linearGradient>
<linearGradient id="paint82_linear_313_185" x1="196.987" y1="93.9784" x2="201.735" y2="93.9784" gradientUnits="userSpaceOnUse">
<stop stop-color="#1D7EFF"/>
<stop offset="1" stop-color="#1753FF"/>
</linearGradient>
<linearGradient id="paint83_linear_313_185" x1="448.184" y1="346.006" x2="563.083" y2="352.065" gradientUnits="userSpaceOnUse">
<stop stop-color="#262C3D"/>
<stop offset="1" stop-color="#7D859E"/>
</linearGradient>
<linearGradient id="paint84_linear_313_185" x1="428.289" y1="349.143" x2="597" y2="349.143" gradientUnits="userSpaceOnUse">
<stop stop-color="#66D2FE"/>
<stop offset="0.34" stop-color="#51A7DD"/>
<stop offset="0.78" stop-color="#3973B7"/>
<stop offset="1" stop-color="#3060A8"/>
</linearGradient>
<linearGradient id="paint85_linear_313_185" x1="514.404" y1="349.79" x2="545.368" y2="350.631" gradientUnits="userSpaceOnUse">
<stop stop-color="#CBCBD6"/>
<stop offset="1" stop-color="#878C9F"/>
</linearGradient>
<linearGradient id="paint86_linear_313_185" x1="512.166" y1="354.273" x2="554.436" y2="356.226" gradientUnits="userSpaceOnUse">
<stop stop-color="#CBCBD6"/>
<stop offset="1" stop-color="#F9FAF9"/>
</linearGradient>
<linearGradient id="paint87_linear_313_185" x1="431.572" y1="322.094" x2="564.592" y2="296.044" gradientUnits="userSpaceOnUse">
<stop stop-color="#3B3E5E"/>
<stop offset="1" stop-color="#626282"/>
</linearGradient>
<linearGradient id="paint88_linear_313_185" x1="432.595" y1="327.326" x2="565.622" y2="301.276" gradientUnits="userSpaceOnUse">
<stop stop-color="#3B3E5E"/>
<stop offset="1" stop-color="#626282"/>
</linearGradient>
<linearGradient id="paint89_linear_313_185" x1="431.999" y1="324.269" x2="565.019" y2="298.219" gradientUnits="userSpaceOnUse">
<stop stop-color="#3B3E5E"/>
<stop offset="1" stop-color="#626282"/>
</linearGradient>
<linearGradient id="paint90_linear_313_185" x1="432.426" y1="326.444" x2="565.446" y2="300.394" gradientUnits="userSpaceOnUse">
<stop stop-color="#3B3E5E"/>
<stop offset="1" stop-color="#626282"/>
</linearGradient>
<linearGradient id="paint91_linear_313_185" x1="432.845" y1="328.612" x2="565.873" y2="302.562" gradientUnits="userSpaceOnUse">
<stop stop-color="#3B3E5E"/>
<stop offset="1" stop-color="#626282"/>
</linearGradient>
<linearGradient id="paint92_linear_313_185" x1="433.272" y1="330.795" x2="566.292" y2="304.737" gradientUnits="userSpaceOnUse">
<stop stop-color="#3B3E5E"/>
<stop offset="0.7" stop-color="#565777"/>
<stop offset="1" stop-color="#626282"/>
</linearGradient>
<linearGradient id="paint93_linear_313_185" x1="433.699" y1="332.97" x2="566.719" y2="306.913" gradientUnits="userSpaceOnUse">
<stop stop-color="#3B3E5E"/>
<stop offset="1" stop-color="#626282"/>
</linearGradient>
<linearGradient id="paint94_linear_313_185" x1="434.126" y1="335.145" x2="567.146" y2="309.088" gradientUnits="userSpaceOnUse">
<stop stop-color="#3B3E5E"/>
<stop offset="1" stop-color="#626282"/>
</linearGradient>
<linearGradient id="paint95_linear_313_185" x1="434.553" y1="337.312" x2="567.573" y2="311.263" gradientUnits="userSpaceOnUse">
<stop stop-color="#3B3E5E"/>
<stop offset="1" stop-color="#626282"/>
</linearGradient>
<linearGradient id="paint96_linear_313_185" x1="434.98" y1="339.488" x2="568" y2="313.438" gradientUnits="userSpaceOnUse">
<stop stop-color="#3B3E5E"/>
<stop offset="1" stop-color="#626282"/>
</linearGradient>
<linearGradient id="paint97_linear_313_185" x1="435.407" y1="341.663" x2="568.427" y2="315.613" gradientUnits="userSpaceOnUse">
<stop stop-color="#3B3E5E"/>
<stop offset="1" stop-color="#626282"/>
</linearGradient>
<linearGradient id="paint98_linear_313_185" x1="435.826" y1="343.838" x2="568.853" y2="317.788" gradientUnits="userSpaceOnUse">
<stop stop-color="#3B3E5E"/>
<stop offset="1" stop-color="#626282"/>
</linearGradient>
<linearGradient id="paint99_linear_313_185" x1="436.253" y1="346.013" x2="569.28" y2="319.963" gradientUnits="userSpaceOnUse">
<stop stop-color="#3B3E5E"/>
<stop offset="1" stop-color="#626282"/>
</linearGradient>
<linearGradient id="paint100_linear_313_185" x1="436.776" y1="348.651" x2="569.796" y2="322.601" gradientUnits="userSpaceOnUse">
<stop stop-color="#3B3E5E"/>
<stop offset="1" stop-color="#626282"/>
</linearGradient>
<linearGradient id="paint101_linear_313_185" x1="433.095" y1="329.883" x2="566.123" y2="303.833" gradientUnits="userSpaceOnUse">
<stop stop-color="#3B3E5E"/>
<stop offset="1" stop-color="#626282"/>
</linearGradient>
<linearGradient id="paint102_linear_313_185" x1="433.522" y1="332.066" x2="566.542" y2="306.009" gradientUnits="userSpaceOnUse">
<stop stop-color="#3B3E5E"/>
<stop offset="1" stop-color="#626282"/>
</linearGradient>
<linearGradient id="paint103_linear_313_185" x1="433.949" y1="334.241" x2="566.969" y2="308.184" gradientUnits="userSpaceOnUse">
<stop stop-color="#3B3E5E"/>
<stop offset="1" stop-color="#626282"/>
</linearGradient>
<linearGradient id="paint104_linear_313_185" x1="434.376" y1="336.409" x2="567.396" y2="310.359" gradientUnits="userSpaceOnUse">
<stop stop-color="#3B3E5E"/>
<stop offset="1" stop-color="#626282"/>
</linearGradient>
<linearGradient id="paint105_linear_313_185" x1="434.803" y1="338.584" x2="567.823" y2="312.534" gradientUnits="userSpaceOnUse">
<stop stop-color="#3B3E5E"/>
<stop offset="1" stop-color="#626282"/>
</linearGradient>
<linearGradient id="paint106_linear_313_185" x1="435.23" y1="340.759" x2="568.25" y2="314.709" gradientUnits="userSpaceOnUse">
<stop stop-color="#3B3E5E"/>
<stop offset="1" stop-color="#626282"/>
</linearGradient>
<linearGradient id="paint107_linear_313_185" x1="435.657" y1="342.934" x2="568.677" y2="316.884" gradientUnits="userSpaceOnUse">
<stop stop-color="#3B3E5E"/>
<stop offset="1" stop-color="#626282"/>
</linearGradient>
<linearGradient id="paint108_linear_313_185" x1="436.076" y1="345.109" x2="569.104" y2="319.059" gradientUnits="userSpaceOnUse">
<stop stop-color="#3B3E5E"/>
<stop offset="1" stop-color="#626282"/>
</linearGradient>
<linearGradient id="paint109_linear_313_185" x1="436.503" y1="347.284" x2="569.531" y2="321.234" gradientUnits="userSpaceOnUse">
<stop stop-color="#3B3E5E"/>
<stop offset="1" stop-color="#626282"/>
</linearGradient>
<linearGradient id="paint110_linear_313_185" x1="436.93" y1="349.459" x2="569.957" y2="323.41" gradientUnits="userSpaceOnUse">
<stop stop-color="#3B3E5E"/>
<stop offset="1" stop-color="#626282"/>
</linearGradient>
<linearGradient id="paint111_linear_313_185" x1="437.357" y1="351.634" x2="570.377" y2="325.585" gradientUnits="userSpaceOnUse">
<stop stop-color="#3B3E5E"/>
<stop offset="1" stop-color="#626282"/>
</linearGradient>
<linearGradient id="paint112_linear_313_185" x1="437.784" y1="353.81" x2="570.804" y2="327.76" gradientUnits="userSpaceOnUse">
<stop stop-color="#3B3E5E"/>
<stop offset="1" stop-color="#626282"/>
</linearGradient>
<linearGradient id="paint113_linear_313_185" x1="435.355" y1="341.398" x2="568.375" y2="315.341" gradientUnits="userSpaceOnUse">
<stop stop-color="#3B3E5E"/>
<stop offset="1" stop-color="#626282"/>
</linearGradient>
<linearGradient id="paint114_linear_313_185" x1="435.856" y1="343.955" x2="568.876" y2="317.906" gradientUnits="userSpaceOnUse">
<stop stop-color="#3B3E5E"/>
<stop offset="1" stop-color="#626282"/>
</linearGradient>
<linearGradient id="paint115_linear_313_185" x1="436.282" y1="346.131" x2="569.303" y2="320.081" gradientUnits="userSpaceOnUse">
<stop stop-color="#3B3E5E"/>
<stop offset="1" stop-color="#626282"/>
</linearGradient>
<linearGradient id="paint116_linear_313_185" x1="437.556" y1="352.656" x2="570.576" y2="326.599" gradientUnits="userSpaceOnUse">
<stop stop-color="#3B3E5E"/>
<stop offset="1" stop-color="#626282"/>
</linearGradient>
<linearGradient id="paint117_linear_313_185" x1="438.836" y1="359.181" x2="571.857" y2="333.124" gradientUnits="userSpaceOnUse">
<stop stop-color="#3B3E5E"/>
<stop offset="1" stop-color="#626282"/>
</linearGradient>
<linearGradient id="paint118_linear_313_185" x1="439.263" y1="361.349" x2="572.283" y2="335.299" gradientUnits="userSpaceOnUse">
<stop stop-color="#3B3E5E"/>
<stop offset="1" stop-color="#626282"/>
</linearGradient>
<linearGradient id="paint119_linear_313_185" x1="439.683" y1="363.531" x2="572.71" y2="337.474" gradientUnits="userSpaceOnUse">
<stop stop-color="#3B3E5E"/>
<stop offset="1" stop-color="#626282"/>
</linearGradient>
<linearGradient id="paint120_linear_313_185" x1="440.11" y1="365.699" x2="573.137" y2="339.649" gradientUnits="userSpaceOnUse">
<stop stop-color="#3B3E5E"/>
<stop offset="1" stop-color="#626282"/>
</linearGradient>
<linearGradient id="paint121_linear_313_185" x1="440.537" y1="367.874" x2="573.564" y2="341.825" gradientUnits="userSpaceOnUse">
<stop stop-color="#3B3E5E"/>
<stop offset="1" stop-color="#626282"/>
</linearGradient>
<linearGradient id="paint122_linear_313_185" x1="433.589" y1="332.389" x2="566.609" y2="306.339" gradientUnits="userSpaceOnUse">
<stop stop-color="#3B3E5E"/>
<stop offset="1" stop-color="#626282"/>
</linearGradient>
<linearGradient id="paint123_linear_313_185" x1="434.163" y1="335.321" x2="567.183" y2="309.271" gradientUnits="userSpaceOnUse">
<stop stop-color="#3B3E5E"/>
<stop offset="1" stop-color="#626282"/>
</linearGradient>
<linearGradient id="paint124_linear_313_185" x1="434.59" y1="337.496" x2="567.61" y2="311.446" gradientUnits="userSpaceOnUse">
<stop stop-color="#3B3E5E"/>
<stop offset="1" stop-color="#626282"/>
</linearGradient>
<linearGradient id="paint125_linear_313_185" x1="435.016" y1="339.671" x2="568.036" y2="313.622" gradientUnits="userSpaceOnUse">
<stop stop-color="#3B3E5E"/>
<stop offset="1" stop-color="#626282"/>
</linearGradient>
<linearGradient id="paint126_linear_313_185" x1="435.443" y1="341.847" x2="568.463" y2="315.789" gradientUnits="userSpaceOnUse">
<stop stop-color="#3B3E5E"/>
<stop offset="1" stop-color="#626282"/>
</linearGradient>
<linearGradient id="paint127_linear_313_185" x1="435.863" y1="344.021" x2="568.89" y2="317.964" gradientUnits="userSpaceOnUse">
<stop stop-color="#3B3E5E"/>
<stop offset="1" stop-color="#626282"/>
</linearGradient>
<linearGradient id="paint128_linear_313_185" x1="436.29" y1="346.197" x2="569.317" y2="320.139" gradientUnits="userSpaceOnUse">
<stop stop-color="#3B3E5E"/>
<stop offset="1" stop-color="#626282"/>
</linearGradient>
<linearGradient id="paint129_linear_313_185" x1="436.717" y1="348.372" x2="569.737" y2="322.315" gradientUnits="userSpaceOnUse">
<stop stop-color="#3B3E5E"/>
<stop offset="1" stop-color="#626282"/>
</linearGradient>
<linearGradient id="paint130_linear_313_185" x1="437.144" y1="350.54" x2="570.164" y2="324.49" gradientUnits="userSpaceOnUse">
<stop stop-color="#3B3E5E"/>
<stop offset="1" stop-color="#626282"/>
</linearGradient>
<linearGradient id="paint131_linear_313_185" x1="437.57" y1="352.715" x2="570.59" y2="326.665" gradientUnits="userSpaceOnUse">
<stop stop-color="#3B3E5E"/>
<stop offset="1" stop-color="#626282"/>
</linearGradient>
<linearGradient id="paint132_linear_313_185" x1="437.997" y1="354.89" x2="571.017" y2="328.84" gradientUnits="userSpaceOnUse">
<stop stop-color="#3B3E5E"/>
<stop offset="1" stop-color="#626282"/>
</linearGradient>
<linearGradient id="paint133_linear_313_185" x1="438.564" y1="357.785" x2="571.584" y2="331.728" gradientUnits="userSpaceOnUse">
<stop stop-color="#3B3E5E"/>
<stop offset="1" stop-color="#626282"/>
</linearGradient>
<linearGradient id="paint134_linear_313_185" x1="434.553" y1="337.305" x2="567.573" y2="311.255" gradientUnits="userSpaceOnUse">
<stop stop-color="#3B3E5E"/>
<stop offset="1" stop-color="#626282"/>
</linearGradient>
<linearGradient id="paint135_linear_313_185" x1="435.171" y1="340.465" x2="568.191" y2="314.415" gradientUnits="userSpaceOnUse">
<stop stop-color="#3B3E5E"/>
<stop offset="1" stop-color="#626282"/>
</linearGradient>
<linearGradient id="paint136_linear_313_185" x1="435.598" y1="342.64" x2="568.618" y2="316.59" gradientUnits="userSpaceOnUse">
<stop stop-color="#3B3E5E"/>
<stop offset="1" stop-color="#626282"/>
</linearGradient>
<linearGradient id="paint137_linear_313_185" x1="436.025" y1="344.815" x2="569.045" y2="318.766" gradientUnits="userSpaceOnUse">
<stop stop-color="#3B3E5E"/>
<stop offset="1" stop-color="#626282"/>
</linearGradient>
<linearGradient id="paint138_linear_313_185" x1="436.452" y1="346.99" x2="569.472" y2="320.941" gradientUnits="userSpaceOnUse">
<stop stop-color="#3B3E5E"/>
<stop offset="1" stop-color="#626282"/>
</linearGradient>
<linearGradient id="paint139_linear_313_185" x1="436.871" y1="349.165" x2="569.899" y2="323.108" gradientUnits="userSpaceOnUse">
<stop stop-color="#3B3E5E"/>
<stop offset="1" stop-color="#626282"/>
</linearGradient>
<linearGradient id="paint140_linear_313_185" x1="437.298" y1="351.341" x2="570.326" y2="325.291" gradientUnits="userSpaceOnUse">
<stop stop-color="#3B3E5E"/>
<stop offset="1" stop-color="#626282"/>
</linearGradient>
<linearGradient id="paint141_linear_313_185" x1="437.725" y1="353.516" x2="570.745" y2="327.466" gradientUnits="userSpaceOnUse">
<stop stop-color="#3B3E5E"/>
<stop offset="1" stop-color="#626282"/>
</linearGradient>
<linearGradient id="paint142_linear_313_185" x1="438.152" y1="355.691" x2="571.172" y2="329.641" gradientUnits="userSpaceOnUse">
<stop stop-color="#3B3E5E"/>
<stop offset="1" stop-color="#626282"/>
</linearGradient>
<linearGradient id="paint143_linear_313_185" x1="438.579" y1="357.866" x2="571.599" y2="331.809" gradientUnits="userSpaceOnUse">
<stop stop-color="#3B3E5E"/>
<stop offset="1" stop-color="#626282"/>
</linearGradient>
<linearGradient id="paint144_linear_313_185" x1="439.315" y1="361.613" x2="572.335" y2="335.556" gradientUnits="userSpaceOnUse">
<stop stop-color="#3B3E5E"/>
<stop offset="1" stop-color="#626282"/>
</linearGradient>
<linearGradient id="paint145_linear_313_185" x1="434.479" y1="327.106" x2="499.447" y2="205.726" gradientUnits="userSpaceOnUse">
<stop stop-color="#262C3D"/>
<stop offset="1" stop-color="#7D859E"/>
</linearGradient>
<linearGradient id="paint146_linear_313_185" x1="521.874" y1="269.134" x2="424.447" y2="269.134" gradientUnits="userSpaceOnUse">
<stop stop-color="#262C3D"/>
<stop offset="1" stop-color="#7D859E"/>
</linearGradient>
<linearGradient id="paint147_linear_313_185" x1="493.368" y1="212.559" x2="403.228" y2="325.513" gradientUnits="userSpaceOnUse">
<stop stop-color="#262C3D"/>
<stop offset="0.38" stop-color="white"/>
<stop offset="1" stop-color="#7D859E"/>
</linearGradient>
<linearGradient id="paint148_linear_313_185" x1="491.933" y1="222.068" x2="444.95" y2="336.05" gradientUnits="userSpaceOnUse">
<stop stop-color="#262C3D"/>
<stop offset="1" stop-color="#7D859E"/>
</linearGradient>
<linearGradient id="paint149_linear_313_185" x1="560.464" y1="181.571" x2="513.481" y2="295.554" gradientUnits="userSpaceOnUse">
<stop stop-color="#262C3D"/>
<stop offset="1" stop-color="#7D859E"/>
</linearGradient>
<linearGradient id="paint150_linear_313_185" x1="639.954" y1="133.417" x2="648.632" y2="128.21" gradientUnits="userSpaceOnUse">
<stop stop-color="#5B677C"/>
<stop offset="1" stop-color="#39A9A5"/>
</linearGradient>
<linearGradient id="paint151_linear_313_185" x1="650.325" y1="127.208" x2="659.003" y2="122.007" gradientUnits="userSpaceOnUse">
<stop stop-color="#5B677C"/>
<stop offset="1" stop-color="#39A9A5"/>
</linearGradient>
<linearGradient id="paint152_linear_313_185" x1="358.846" y1="346.718" x2="365.124" y2="346.718" gradientUnits="userSpaceOnUse">
<stop stop-color="#FFF12F"/>
<stop offset="1" stop-color="#F46469"/>
</linearGradient>
<linearGradient id="paint153_linear_313_185" x1="359.751" y1="312.644" x2="364.219" y2="312.644" gradientUnits="userSpaceOnUse">
<stop stop-color="#FFF12F"/>
<stop offset="1" stop-color="#F46469"/>
</linearGradient>
<linearGradient id="paint154_linear_313_185" x1="345.163" y1="354.603" x2="351.441" y2="354.603" gradientUnits="userSpaceOnUse">
<stop stop-color="#FFF12F"/>
<stop offset="1" stop-color="#F46469"/>
</linearGradient>
<linearGradient id="paint155_linear_313_185" x1="346.076" y1="320.529" x2="350.536" y2="320.529" gradientUnits="userSpaceOnUse">
<stop stop-color="#FFF12F"/>
<stop offset="1" stop-color="#F46469"/>
</linearGradient>
<linearGradient id="paint156_linear_313_185" x1="297.403" y1="382.093" x2="303.681" y2="382.093" gradientUnits="userSpaceOnUse">
<stop stop-color="#FFF12F"/>
<stop offset="1" stop-color="#F46469"/>
</linearGradient>
<linearGradient id="paint157_linear_313_185" x1="298.315" y1="348.019" x2="302.776" y2="348.019" gradientUnits="userSpaceOnUse">
<stop stop-color="#FFF12F"/>
<stop offset="1" stop-color="#F46469"/>
</linearGradient>
<linearGradient id="paint158_linear_313_185" x1="379.094" y1="412.714" x2="316.64" y2="334.194" gradientUnits="userSpaceOnUse">
<stop stop-color="#FFF12F"/>
<stop offset="1" stop-color="#F46469"/>
</linearGradient>
<linearGradient id="paint159_linear_313_185" x1="289.961" y1="413.25" x2="429.805" y2="413.25" gradientUnits="userSpaceOnUse">
<stop stop-color="#FFB92F"/>
<stop offset="1" stop-color="#F46469"/>
</linearGradient>
<linearGradient id="paint160_linear_313_185" x1="345.318" y1="413.236" x2="128.736" y2="413.236" gradientUnits="userSpaceOnUse">
<stop stop-color="#FFB92F"/>
<stop offset="1" stop-color="#F46469"/>
</linearGradient>
<linearGradient id="paint161_linear_313_185" x1="347.371" y1="386.333" x2="366.029" y2="386.333" gradientUnits="userSpaceOnUse">
<stop stop-color="#FFF12F"/>
<stop offset="1" stop-color="#F46469"/>
</linearGradient>
<linearGradient id="paint162_linear_313_185" x1="354.393" y1="388.362" x2="366" y2="388.362" gradientUnits="userSpaceOnUse">
<stop stop-color="#FFF12F"/>
<stop offset="1" stop-color="#F46469"/>
</linearGradient>
<linearGradient id="paint163_linear_313_185" x1="361.731" y1="391.22" x2="368.495" y2="391.22" gradientUnits="userSpaceOnUse">
<stop stop-color="#FFF12F"/>
<stop offset="1" stop-color="#F46469"/>
</linearGradient>
<linearGradient id="paint164_linear_313_185" x1="199.343" y1="459.391" x2="327.256" y2="459.391" gradientUnits="userSpaceOnUse">
<stop stop-color="#66D2FE"/>
<stop offset="0.34" stop-color="#51A7DD"/>
<stop offset="0.78" stop-color="#3973B7"/>
<stop offset="1" stop-color="#3060A8"/>
</linearGradient>
<clipPath id="clip0_313_185">
<rect width="469" height="497" fill="white" transform="translate(128)"/>
</clipPath>
</defs>
</svg>
